<svg width="62" height="62" viewBox="0 0 62 62" fill="none" xmlns="http://www.w3.org/2000/svg">
<path d="M36.8748 26.2222H32.1656V31.0479H29.6945V26.2222H24.9853V23.9842H29.6945V19.1584H32.1656V23.9842H36.8748V26.2222Z" fill="white"/>
<path d="M21.6675 44.281C21.6675 43.921 21.7505 43.5981 21.9163 43.3123C22.0857 43.0264 22.3134 42.8041 22.5992 42.6453C22.8886 42.4829 23.2044 42.4018 23.5467 42.4018C23.9385 42.4018 24.2861 42.4988 24.5896 42.6929C24.8966 42.8835 25.1189 43.1552 25.2566 43.5081H24.5313C24.4361 43.314 24.3037 43.1693 24.1343 43.0741C23.9649 42.9788 23.7691 42.9311 23.5467 42.9311C23.3032 42.9311 23.0862 42.9858 22.8956 43.0952C22.7051 43.2046 22.5551 43.3617 22.4457 43.5664C22.3398 43.771 22.2869 44.0092 22.2869 44.281C22.2869 44.5527 22.3398 44.7909 22.4457 44.9956C22.5551 45.2003 22.7051 45.3591 22.8956 45.472C23.0862 45.5814 23.3032 45.6361 23.5467 45.6361C23.7691 45.6361 23.9649 45.5885 24.1343 45.4932C24.3037 45.3979 24.4361 45.2532 24.5313 45.0591H25.2566C25.1189 45.412 24.8966 45.6838 24.5896 45.8743C24.2861 46.0649 23.9385 46.1602 23.5467 46.1602C23.2009 46.1602 22.8851 46.0808 22.5992 45.922C22.3134 45.7596 22.0857 45.5355 21.9163 45.2497C21.7505 44.9638 21.6675 44.6409 21.6675 44.281ZM26.5664 43.6352C26.6546 43.4869 26.7711 43.3723 26.9157 43.2911C27.064 43.2064 27.2386 43.164 27.4398 43.164V43.7887H27.2863C27.0498 43.7887 26.8699 43.8487 26.7463 43.9687C26.6264 44.0886 26.5664 44.2969 26.5664 44.5933V46.1284H25.9629V43.2117H26.5664V43.6352ZM30.6677 44.5986C30.6677 44.708 30.6607 44.8068 30.6466 44.895H28.418C28.4356 45.1279 28.5221 45.315 28.6774 45.4561C28.8326 45.5973 29.0232 45.6679 29.2491 45.6679C29.5737 45.6679 29.8031 45.532 29.9372 45.2603H30.5883C30.5001 45.5285 30.3395 45.749 30.1066 45.922C29.8772 46.0914 29.5914 46.1761 29.2491 46.1761C28.9703 46.1761 28.7197 46.1143 28.4974 45.9908C28.2786 45.8637 28.1057 45.6873 27.9786 45.4614C27.8551 45.232 27.7933 44.9674 27.7933 44.6674C27.7933 44.3674 27.8533 44.1045 27.9733 43.8787C28.0968 43.6493 28.268 43.4728 28.4868 43.3493C28.7091 43.2258 28.9632 43.164 29.2491 43.164C29.5243 43.164 29.7696 43.224 29.9849 43.344C30.2001 43.464 30.3678 43.6334 30.4878 43.8522C30.6077 44.0675 30.6677 44.3163 30.6677 44.5986ZM30.0378 44.408C30.0343 44.1857 29.9549 44.0075 29.7996 43.8734C29.6443 43.7393 29.452 43.6722 29.2226 43.6722C29.0144 43.6722 28.8362 43.7393 28.688 43.8734C28.5397 44.0039 28.4515 44.1822 28.4233 44.408H30.0378ZM31.0604 44.6568C31.0604 44.3639 31.1204 44.1045 31.2404 43.8787C31.3639 43.6528 31.5298 43.4781 31.738 43.3546C31.9498 43.2276 32.1827 43.164 32.4368 43.164C32.6662 43.164 32.8655 43.2099 33.0349 43.3017C33.2079 43.3899 33.3455 43.5011 33.4478 43.6352V43.2117H34.0566V46.1284H33.4478V45.6943C33.3455 45.832 33.2061 45.9467 33.0296 46.0384C32.8532 46.1302 32.652 46.1761 32.4262 46.1761C32.1756 46.1761 31.9462 46.1125 31.738 45.9855C31.5298 45.8549 31.3639 45.6749 31.2404 45.4456C31.1204 45.2126 31.0604 44.9497 31.0604 44.6568ZM33.4478 44.6674C33.4478 44.4663 33.4055 44.2916 33.3208 44.1433C33.2396 43.9951 33.132 43.8822 32.9979 43.8046C32.8638 43.7269 32.7191 43.6881 32.5638 43.6881C32.4085 43.6881 32.2638 43.7269 32.1297 43.8046C31.9956 43.8787 31.8862 43.9898 31.8015 44.1381C31.7204 44.2827 31.6798 44.4557 31.6798 44.6568C31.6798 44.858 31.7204 45.0344 31.8015 45.1862C31.8862 45.3379 31.9956 45.4544 32.1297 45.5355C32.2674 45.6132 32.4121 45.652 32.5638 45.652C32.7191 45.652 32.8638 45.6132 32.9979 45.5355C33.132 45.4579 33.2396 45.345 33.3208 45.1968C33.4055 45.045 33.4478 44.8686 33.4478 44.6674ZM35.5532 43.704V45.3185C35.5532 45.4279 35.5779 45.5073 35.6274 45.5567C35.6803 45.6026 35.7685 45.6255 35.892 45.6255H36.2626V46.1284H35.7862C35.5144 46.1284 35.3062 46.0649 35.1615 45.9379C35.0168 45.8108 34.9445 45.6044 34.9445 45.3185V43.704H34.6004V43.2117H34.9445V42.4865H35.5532V43.2117H36.2626V43.704H35.5532ZM39.492 44.5986C39.492 44.708 39.4849 44.8068 39.4708 44.895H37.2423C37.2599 45.1279 37.3464 45.315 37.5016 45.4561C37.6569 45.5973 37.8475 45.6679 38.0733 45.6679C38.398 45.6679 38.6274 45.532 38.7615 45.2603H39.4126C39.3244 45.5285 39.1638 45.749 38.9309 45.922C38.7015 46.0914 38.4157 46.1761 38.0733 46.1761C37.7945 46.1761 37.544 46.1143 37.3217 45.9908C37.1029 45.8637 36.9299 45.6873 36.8029 45.4614C36.6794 45.232 36.6176 44.9674 36.6176 44.6674C36.6176 44.3674 36.6776 44.1045 36.7976 43.8787C36.9211 43.6493 37.0923 43.4728 37.3111 43.3493C37.5334 43.2258 37.7875 43.164 38.0733 43.164C38.3486 43.164 38.5939 43.224 38.8091 43.344C39.0244 43.464 39.192 43.6334 39.312 43.8522C39.432 44.0675 39.492 44.3163 39.492 44.5986ZM38.8621 44.408C38.8585 44.1857 38.7791 44.0075 38.6239 43.8734C38.4686 43.7393 38.2763 43.6722 38.0469 43.6722C37.8387 43.6722 37.6604 43.7393 37.5122 43.8734C37.364 44.0039 37.2758 44.1822 37.2475 44.408H38.8621Z" fill="white"/>
</svg>
