<svg width="63" height="62" viewBox="0 0 63 62" fill="none" xmlns="http://www.w3.org/2000/svg">
<path d="M31.2515 49.75C20.8958 49.75 12.5015 41.3556 12.5015 31C12.5015 20.6444 20.8958 12.25 31.2515 12.25C41.6071 12.25 50.0015 20.6444 50.0015 31C50.0015 41.3556 41.6071 49.75 31.2515 49.75ZM31.2515 46C35.2297 46 39.045 44.4196 41.8581 41.6066C44.6711 38.7936 46.2515 34.9782 46.2515 31C46.2515 27.0218 44.6711 23.2064 41.8581 20.3934C39.045 17.5804 35.2297 16 31.2515 16C27.2732 16 23.4579 17.5804 20.6449 20.3934C17.8318 23.2064 16.2515 27.0218 16.2515 31C16.2515 34.9782 17.8318 38.7936 20.6449 41.6066C23.4579 44.4196 27.2732 46 31.2515 46V46ZM21.8765 31H25.6265C25.6265 32.4918 26.2191 33.9226 27.274 34.9775C28.3289 36.0324 29.7596 36.625 31.2515 36.625C32.7433 36.625 34.174 36.0324 35.2289 34.9775C36.2838 33.9226 36.8765 32.4918 36.8765 31H40.6265C40.6265 33.4864 39.6387 35.871 37.8806 37.6291C36.1224 39.3873 33.7379 40.375 31.2515 40.375C28.7651 40.375 26.3805 39.3873 24.6223 37.6291C22.8642 35.871 21.8765 33.4864 21.8765 31V31Z" fill="white"/>
</svg>
