<svg width="426" height="287" viewBox="0 0 426 287" fill="none" xmlns="http://www.w3.org/2000/svg">
<g clip-path="url(#clip0_107_130)">
<path d="M413.86 278.641H8.49951V279.756H413.86V278.641Z" fill="#3F3D56"/>
<path d="M8.74859 287C13.0571 287 16.5499 283.507 16.5499 279.199C16.5499 274.89 13.0571 271.397 8.74859 271.397C4.44004 271.397 0.947266 274.89 0.947266 279.199C0.947266 283.507 4.44004 287 8.74859 287Z" fill="#3F3D56"/>
<path d="M417.204 287C421.512 287 425.005 283.507 425.005 279.199C425.005 274.89 421.512 271.397 417.204 271.397C412.895 271.397 409.402 274.89 409.402 279.199C409.402 283.507 412.895 287 417.204 287Z" fill="#3F3D56"/>
<path d="M228.706 279.227H69.8931C68.5634 279.226 67.2887 278.697 66.3485 277.757C65.4083 276.817 64.8794 275.542 64.8779 274.212V5.06665C64.8794 3.73701 65.4083 2.46226 66.3485 1.52207C67.2887 0.581871 68.5634 0.0530121 69.8931 0.0515137H228.706C230.035 0.0530121 231.31 0.581871 232.25 1.52207C233.19 2.46226 233.719 3.73701 233.721 5.06665V274.212C233.719 275.542 233.19 276.817 232.25 277.757C231.31 278.697 230.035 279.226 228.706 279.227V279.227ZM69.8931 1.16599C68.8589 1.16719 67.8675 1.57854 67.1362 2.3098C66.405 3.04105 65.9936 4.0325 65.9924 5.06665V274.212C65.9936 275.246 66.405 276.238 67.1362 276.969C67.8675 277.7 68.8589 278.112 69.8931 278.113H228.706C229.74 278.112 230.731 277.7 231.463 276.969C232.194 276.238 232.605 275.246 232.606 274.212V5.06665C232.605 4.0325 232.194 3.04105 231.463 2.3098C230.731 1.57854 229.74 1.16719 228.706 1.16599H69.8931Z" fill="#3F3D56"/>
<path d="M171.031 16.2115H127.567C127.419 16.2115 127.277 16.1528 127.173 16.0483C127.068 15.9438 127.01 15.8021 127.01 15.6543C127.01 15.5065 127.068 15.3648 127.173 15.2603C127.277 15.1558 127.419 15.097 127.567 15.097H171.031C171.179 15.097 171.321 15.1558 171.426 15.2603C171.53 15.3648 171.589 15.5065 171.589 15.6543C171.589 15.8021 171.53 15.9438 171.426 16.0483C171.321 16.1528 171.179 16.2115 171.031 16.2115Z" fill="#3F3D56"/>
<path d="M210.317 259.167H87.7246C86.395 259.165 85.1202 258.636 84.18 257.696C83.2398 256.756 82.711 255.481 82.7095 254.152V35.7146C82.711 34.385 83.2398 33.1102 84.18 32.17C85.1202 31.2298 86.395 30.701 87.7246 30.6995H210.317C211.646 30.701 212.921 31.2298 213.861 32.17C214.802 33.1102 215.33 34.385 215.332 35.7146V254.152C215.33 255.481 214.802 256.756 213.861 257.696C212.921 258.636 211.646 259.165 210.317 259.167V259.167ZM87.7246 31.8139C86.6905 31.8151 85.699 32.2265 84.9678 32.9577C84.2365 33.689 83.8252 34.6804 83.8239 35.7146V254.152C83.8252 255.186 84.2365 256.177 84.9678 256.909C85.699 257.64 86.6905 258.051 87.7246 258.052H210.317C211.351 258.051 212.342 257.64 213.074 256.909C213.805 256.177 214.216 255.186 214.217 254.152V35.7146C214.216 34.6804 213.805 33.689 213.074 32.9577C212.342 32.2265 211.351 31.8151 210.317 31.8139H87.7246Z" fill="#3F3D56"/>
<path d="M235.114 57.4469C234.449 57.4462 233.812 57.1817 233.342 56.7116C232.872 56.2415 232.607 55.6041 232.606 54.9393V44.3518C232.606 43.6868 232.871 43.049 233.341 42.5787C233.811 42.1084 234.449 41.8442 235.114 41.8442C235.779 41.8442 236.417 42.1084 236.887 42.5787C237.357 43.049 237.622 43.6868 237.622 44.3518V54.9393C237.621 55.6041 237.356 56.2415 236.886 56.7116C236.416 57.1818 235.779 57.4462 235.114 57.4469V57.4469ZM235.114 42.9587C234.745 42.9591 234.391 43.106 234.129 43.3672C233.868 43.6283 233.721 43.9825 233.721 44.3518V54.9393C233.721 55.3088 233.868 55.6631 234.129 55.9244C234.39 56.1857 234.745 56.3324 235.114 56.3324C235.483 56.3324 235.838 56.1857 236.099 55.9244C236.36 55.6631 236.507 55.3088 236.507 54.9393V44.3518C236.507 43.9825 236.36 43.6283 236.099 43.3672C235.837 43.106 235.483 42.9591 235.114 42.9587V42.9587Z" fill="#3F3D56"/>
<path d="M235.114 74.7213C234.449 74.7206 233.812 74.4561 233.342 73.986C232.872 73.5159 232.607 72.8786 232.606 72.2137V61.6262C232.606 60.9612 232.871 60.3234 233.341 59.8531C233.811 59.3828 234.449 59.1187 235.114 59.1187C235.779 59.1187 236.417 59.3828 236.887 59.8531C237.357 60.3234 237.622 60.9612 237.622 61.6262V72.2137C237.621 72.8786 237.356 73.516 236.886 73.9861C236.416 74.4562 235.779 74.7206 235.114 74.7213ZM235.114 60.2331C234.745 60.2335 234.391 60.3804 234.129 60.6416C233.868 60.9028 233.721 61.2569 233.721 61.6262V72.2137C233.721 72.5832 233.868 72.9376 234.129 73.1988C234.39 73.4601 234.745 73.6068 235.114 73.6068C235.483 73.6068 235.838 73.4601 236.099 73.1988C236.36 72.9376 236.507 72.5832 236.507 72.2137V61.6262C236.507 61.2569 236.36 60.9028 236.099 60.6416C235.837 60.3804 235.483 60.2335 235.114 60.2331V60.2331Z" fill="#3F3D56"/>
<path d="M190.814 118.19H107.228C106.341 118.19 105.491 117.838 104.864 117.211C104.237 116.584 103.885 115.733 103.885 114.847C103.885 113.96 104.237 113.109 104.864 112.482C105.491 111.855 106.341 111.503 107.228 111.503H190.814C191.701 111.503 192.551 111.855 193.178 112.482C193.805 113.109 194.157 113.96 194.157 114.847C194.157 115.733 193.805 116.584 193.178 117.211C192.551 117.838 191.701 118.19 190.814 118.19V118.19Z" fill="#CCCCCC"/>
<path d="M190.814 133.235H107.228C106.341 133.235 105.491 132.883 104.864 132.256C104.237 131.629 103.885 130.779 103.885 129.892C103.885 129.005 104.237 128.155 104.864 127.528C105.491 126.901 106.341 126.549 107.228 126.549H190.814C191.701 126.549 192.551 126.901 193.178 127.528C193.805 128.155 194.157 129.005 194.157 129.892C194.157 130.779 193.805 131.629 193.178 132.256C192.551 132.883 191.701 133.235 190.814 133.235V133.235Z" fill="#CCCCCC"/>
<path d="M190.814 148.281H107.228C106.341 148.281 105.491 147.928 104.864 147.301C104.237 146.674 103.885 145.824 103.885 144.937C103.885 144.051 104.237 143.2 104.864 142.573C105.491 141.946 106.341 141.594 107.228 141.594H190.814C191.701 141.594 192.551 141.946 193.178 142.573C193.805 143.2 194.157 144.051 194.157 144.937C194.157 145.824 193.805 146.674 193.178 147.301C192.551 147.928 191.701 148.281 190.814 148.281V148.281Z" fill="#CCCCCC"/>
<path d="M161.059 103.145H134.03C132.404 103.145 130.845 102.499 129.695 101.349C128.546 100.2 127.9 98.6407 127.9 97.015C127.9 95.3893 128.546 93.8302 129.695 92.6807C130.845 91.5312 132.404 90.8854 134.03 90.8854H161.059C162.684 90.8854 164.243 91.5312 165.393 92.6807C166.542 93.8302 167.188 95.3893 167.188 97.015C167.188 98.6407 166.542 100.2 165.393 101.349C164.243 102.499 162.684 103.145 161.059 103.145V103.145Z" fill="#02D764"/>
<path d="M123.368 198.981C120.967 198.981 118.62 198.269 116.623 196.935C114.627 195.601 113.071 193.705 112.152 191.487C111.233 189.268 110.992 186.827 111.461 184.472C111.929 182.117 113.086 179.954 114.783 178.256C116.481 176.558 118.645 175.402 121 174.933C123.355 174.465 125.796 174.705 128.014 175.624C130.232 176.543 132.128 178.099 133.462 180.096C134.796 182.092 135.509 184.439 135.509 186.841C135.505 190.059 134.225 193.145 131.949 195.421C129.673 197.697 126.587 198.977 123.368 198.981V198.981ZM123.368 175.978C121.22 175.978 119.119 176.615 117.333 177.809C115.547 179.002 114.154 180.699 113.332 182.684C112.51 184.669 112.295 186.853 112.714 188.96C113.133 191.067 114.168 193.002 115.687 194.522C117.206 196.041 119.142 197.075 121.249 197.494C123.356 197.914 125.54 197.698 127.525 196.876C129.51 196.054 131.206 194.662 132.4 192.875C133.593 191.089 134.231 188.989 134.231 186.841C134.231 185.414 133.95 184.002 133.404 182.684C132.858 181.366 132.058 180.168 131.049 179.16C130.04 178.151 128.843 177.351 127.525 176.805C126.207 176.259 124.795 175.978 123.368 175.978V175.978Z" fill="#3F3D56"/>
<path d="M123.388 191.043C123.205 191.043 123.024 191.007 122.856 190.937C122.687 190.867 122.533 190.764 122.404 190.634L117.943 186.173C117.814 186.044 117.711 185.89 117.641 185.721C117.571 185.552 117.535 185.371 117.535 185.188C117.535 185.005 117.571 184.824 117.641 184.655C117.711 184.486 117.814 184.333 117.944 184.203L118.174 183.972C118.436 183.711 118.79 183.565 119.159 183.565C119.529 183.565 119.883 183.711 120.144 183.972L122.457 186.284C122.543 186.37 122.647 186.437 122.762 186.478C122.876 186.52 122.998 186.536 123.12 186.526C123.241 186.515 123.359 186.478 123.465 186.418C123.57 186.357 123.662 186.274 123.732 186.174L133.593 172.16C133.806 171.858 134.13 171.652 134.494 171.589C134.858 171.526 135.232 171.61 135.534 171.822L135.803 172.011C135.952 172.116 136.08 172.25 136.178 172.405C136.275 172.559 136.342 172.731 136.373 172.912C136.405 173.092 136.4 173.277 136.36 173.455C136.32 173.634 136.245 173.802 136.14 173.952L124.528 190.452C124.412 190.618 124.26 190.757 124.084 190.858C123.907 190.959 123.711 191.02 123.509 191.038C123.468 191.041 123.428 191.043 123.388 191.043Z" fill="#02D764"/>
<path d="M171.291 198.981C168.89 198.981 166.542 198.269 164.546 196.935C162.549 195.601 160.993 193.705 160.075 191.487C159.156 189.268 158.915 186.827 159.384 184.472C159.852 182.117 161.008 179.954 162.706 178.256C164.404 176.558 166.567 175.402 168.922 174.933C171.277 174.465 173.718 174.705 175.937 175.624C178.155 176.543 180.051 178.099 181.385 180.096C182.719 182.092 183.431 184.439 183.431 186.841V186.841C183.428 190.059 182.147 193.145 179.871 195.421C177.595 197.697 174.51 198.977 171.291 198.981ZM171.291 175.978C169.142 175.978 167.042 176.615 165.256 177.809C163.47 179.002 162.077 180.699 161.255 182.684C160.433 184.669 160.218 186.853 160.637 188.96C161.056 191.067 162.091 193.002 163.61 194.522C165.129 196.041 167.065 197.075 169.172 197.494C171.279 197.914 173.463 197.698 175.448 196.876C177.433 196.054 179.129 194.662 180.323 192.875C181.516 191.089 182.153 188.989 182.153 186.841C182.153 185.414 181.872 184.002 181.327 182.684C180.781 181.366 179.981 180.168 178.972 179.16C177.963 178.151 176.766 177.351 175.448 176.805C174.13 176.259 172.717 175.978 171.291 175.978V175.978Z" fill="#3F3D56"/>
<path d="M175.181 192.393H175.179C174.996 192.394 174.815 192.358 174.646 192.287C174.477 192.217 174.323 192.114 174.195 191.984L171.883 189.666C171.724 189.514 171.512 189.428 171.291 189.428C171.071 189.428 170.858 189.513 170.699 189.666L168.387 191.984C168.259 192.114 168.105 192.217 167.936 192.287C167.767 192.358 167.586 192.394 167.403 192.393H167.401C167.218 192.394 167.037 192.358 166.868 192.288C166.699 192.219 166.546 192.116 166.417 191.986L166.186 191.757C165.925 191.496 165.778 191.142 165.778 190.773C165.777 190.403 165.923 190.049 166.183 189.787L168.505 187.457C168.661 187.3 168.748 187.088 168.748 186.867C168.748 186.646 168.661 186.434 168.505 186.277L166.13 183.894C165.87 183.632 165.724 183.278 165.724 182.909C165.725 182.54 165.872 182.186 166.133 181.925L166.364 181.694C166.493 181.564 166.646 181.462 166.815 181.392C166.984 181.322 167.165 181.287 167.348 181.287H167.35C167.533 181.287 167.714 181.323 167.883 181.393C168.052 181.464 168.205 181.567 168.334 181.697L170.699 184.069C170.859 184.221 171.071 184.306 171.291 184.306C171.511 184.306 171.723 184.221 171.883 184.069L174.248 181.697C174.377 181.567 174.53 181.464 174.699 181.393C174.868 181.323 175.049 181.287 175.232 181.287H175.235C175.417 181.287 175.598 181.323 175.767 181.392C175.936 181.462 176.089 181.565 176.218 181.694L176.449 181.925C176.71 182.186 176.857 182.54 176.858 182.909C176.858 183.278 176.712 183.632 176.452 183.894L174.077 186.277C173.921 186.434 173.834 186.646 173.834 186.867C173.834 187.088 173.921 187.3 174.077 187.457L176.399 189.787C176.659 190.049 176.805 190.403 176.805 190.772C176.804 191.141 176.657 191.495 176.396 191.756L176.164 191.987C176.036 192.116 175.882 192.219 175.714 192.289C175.545 192.358 175.364 192.394 175.181 192.393V192.393Z" fill="#CCCCCC"/>
<path d="M336.104 272.264H343.229L346.62 244.785H336.104V272.264Z" fill="#A0616A"/>
<path d="M356.968 278.879H334.578V270.228H348.437C349.558 270.228 350.667 270.449 351.702 270.878C352.737 271.307 353.678 271.935 354.47 272.727C355.262 273.519 355.89 274.46 356.319 275.495C356.748 276.53 356.968 277.639 356.968 278.759V278.879V278.879Z" fill="#2F2E41"/>
<path d="M338.609 229.684L333.694 234.842L311.46 218.344L318.712 210.731L338.609 229.684Z" fill="#A0616A"/>
<path d="M328.628 237.21L338.188 227.175L344.451 233.142L329.008 249.353L328.921 249.271C327.283 247.71 326.332 245.563 326.277 243.301C326.222 241.039 327.068 238.848 328.628 237.21V237.21Z" fill="#2F2E41"/>
<path d="M388.197 154.4C388.648 153.675 388.934 152.859 389.036 152.011C389.138 151.163 389.053 150.303 388.786 149.491C388.52 148.68 388.078 147.936 387.493 147.314C386.909 146.691 386.194 146.204 385.401 145.887L357.43 74.6007L346.527 81.1287L377.599 149.517C377.155 150.886 377.229 152.369 377.806 153.686C378.383 155.004 379.423 156.064 380.729 156.666C382.035 157.268 383.517 157.37 384.893 156.952C386.27 156.535 387.445 155.627 388.197 154.4V154.4Z" fill="#A0616A"/>
<path d="M282.029 159.51C282.881 159.449 283.71 159.202 284.456 158.786C285.202 158.371 285.848 157.796 286.348 157.104C286.849 156.411 287.191 155.618 287.352 154.779C287.512 153.94 287.486 153.076 287.277 152.247L328.541 87.738L316.853 82.7487L279.756 148.065C278.388 148.51 277.231 149.441 276.504 150.681C275.776 151.922 275.529 153.387 275.809 154.797C276.089 156.208 276.877 157.467 278.024 158.336C279.17 159.204 280.595 159.622 282.029 159.51V159.51Z" fill="#A0616A"/>
<path d="M357.155 147.262L349.851 255.815L332.396 254.275L328.802 174.188L319.048 208.584L298 210.124L306.33 142.128L357.155 147.262Z" fill="#2F2E41"/>
<path d="M315.968 203.451L319.048 208.584L340.61 223.472L325.209 231.686C325.209 231.686 295.433 215.258 298 210.124L315.968 203.451Z" fill="#2F2E41"/>
<path d="M372.44 103.342L366.363 86.2181C365.012 82.4085 362.918 78.9049 360.203 75.9099C357.488 72.9149 354.206 70.4881 350.547 68.7699V68.7699C342.323 65.7401 333.379 65.2505 324.873 67.3645C324.174 67.5381 323.437 67.7211 322.662 67.9133C316.766 69.3429 311.241 72.0115 306.456 75.7416C302.712 78.6932 299.344 82.4306 299.044 86.4505C299.042 86.4592 299.039 86.4668 299.037 86.4755C298 91.0207 297.486 114.636 297.486 114.636H306.634L305.187 146.466L305.304 146.235C305.304 146.235 358.065 156.22 358.065 151.086V118.23L359.146 106.333L372.44 103.342Z" fill="#E6E6E6"/>
<path d="M323.193 62.9168C331.268 62.9168 337.814 56.3706 337.814 48.2956C337.814 40.2205 331.268 33.6743 323.193 33.6743C315.117 33.6743 308.571 40.2205 308.571 48.2956C308.571 56.3706 315.117 62.9168 323.193 62.9168Z" fill="#A0616A"/>
<path d="M321.945 42.2324L309.65 42.1934C308.222 42.1889 306.662 42.1384 305.574 41.213C303.935 39.8192 304.21 37.1895 305.087 35.2252C307.531 29.7554 313.598 26.2816 319.587 26.4425C325.576 26.6033 331.246 30.1481 334.473 35.196C337.699 40.2439 338.571 46.6192 337.355 52.4857C335.951 49.5028 333.788 46.9405 331.083 45.0546C328.379 43.1688 325.227 42.0253 321.942 41.7383L321.945 42.2324Z" fill="#2F2E41"/>
</g>
<defs>
<clipPath id="clip0_107_130">
<rect width="424.058" height="286.949" fill="white" transform="translate(0.947266 0.0515137)"/>
</clipPath>
</defs>
</svg>
