<svg width="62" height="62" viewBox="0 0 62 62" fill="none" xmlns="http://www.w3.org/2000/svg">
<g clip-path="url(#clip0_107_373)">
<path d="M32.4883 34.0678V45.878H19.0981C19.098 44.1892 19.4572 42.5198 20.1519 40.9805C20.8466 39.4413 21.8609 38.0675 23.1274 36.9504C24.3939 35.8334 25.8837 34.9986 27.4976 34.5016C29.1116 34.0046 30.8128 33.8567 32.4883 34.0678V34.0678ZM31.0005 32.4878C26.0685 32.4878 22.0737 28.493 22.0737 23.561C22.0737 18.6289 26.0685 14.6342 31.0005 14.6342C35.9326 14.6342 39.9274 18.6289 39.9274 23.561C39.9274 28.493 35.9326 32.4878 31.0005 32.4878ZM39.6194 42.7744L44.8788 37.515L46.984 39.6188L39.6194 46.9834L34.3585 41.7225L36.4638 39.6188L39.6179 42.7744H39.6194Z" fill="white"/>
</g>
<defs>
<clipPath id="clip0_107_373">
<rect width="35.7072" height="35.7072" fill="white" transform="translate(13.1465 13.1464)"/>
</clipPath>
</defs>
</svg>
