<svg width="1367" height="273" viewBox="0 0 1367 273" fill="none" xmlns="http://www.w3.org/2000/svg">
<g clip-path="url(#clip0_107_163)" filter="url(#filter0_d_107_163)">
<rect width="1327" height="232" transform="translate(10 10.5)" fill="white"/>
<g clip-path="url(#clip1_107_163)">
<rect width="500" height="500" transform="translate(837 -7.5)" fill="#FDFDFD"/>
<path fill-rule="evenodd" clip-rule="evenodd" d="M887 91.5C914.062 91.5 936 69.562 936 42.5C936 15.438 914.062 -6.5 887 -6.5C859.938 -6.5 838 15.438 838 42.5C838 69.562 859.938 91.5 887 91.5ZM887 92.5C914.614 92.5 937 70.1142 937 42.5C937 14.8858 914.614 -7.5 887 -7.5C859.386 -7.5 837 14.8858 837 42.5C837 70.1142 859.386 92.5 887 92.5Z" fill="#468576"/>
<path d="M936 42.5C936 69.562 914.062 91.5 887 91.5C859.938 91.5 838 69.562 838 42.5C838 15.438 859.938 -6.5 887 -6.5C914.062 -6.5 936 15.438 936 42.5Z" fill="#468576"/>
<path fill-rule="evenodd" clip-rule="evenodd" d="M887 91.91C902.967 91.91 915.91 78.9665 915.91 63C915.91 47.0334 902.967 34.09 887 34.09C871.033 34.09 858.09 47.0334 858.09 63C858.09 78.9665 871.033 91.91 887 91.91ZM887 92.5C903.292 92.5 916.5 79.2924 916.5 63C916.5 46.7076 903.292 33.5 887 33.5C870.708 33.5 857.5 46.7076 857.5 63C857.5 79.2924 870.708 92.5 887 92.5Z" fill="#FF9820"/>
<path d="M915.91 63C915.91 78.9665 902.967 91.91 887 91.91C871.033 91.91 858.09 78.9665 858.09 63C858.09 47.0334 871.033 34.09 887 34.09C902.967 34.09 915.91 47.0334 915.91 63Z" fill="#FF9820"/>
<path d="M937 -7.5H987C1014.61 -7.5 1037 14.8858 1037 42.5V92.5H987C959.386 92.5 937 70.1142 937 42.5V-7.5Z" fill="#FF7575"/>
<path d="M1137 -7.5H1087C1059.39 -7.5 1037 14.8858 1037 42.5V92.5H1087C1114.61 92.5 1137 70.1142 1137 42.5V-7.5Z" fill="#FFE1E1"/>
<path d="M1137 192.5H1087C1059.39 192.5 1037 170.114 1037 142.5V92.5H1087C1114.61 92.5 1137 114.886 1137 142.5V192.5Z" fill="#FF7575"/>
<path d="M987 192.5C1014.61 192.5 1037 170.114 1037 142.5V92.5H987C959.386 92.5 937 114.886 937 142.5V192.5H987V192.5Z" fill="#468576"/>
<path d="M837 92.5H937V192.5H837V92.5Z" fill="#468576"/>
<path d="M862 119.5V119.5C888.51 119.5 910 140.99 910 167.5V167.5H862V119.5Z" fill="#FF9820"/>
<path d="M862 142.5H874.5C881.404 142.5 887 148.096 887 155V167.5H862V142.5Z" fill="#FFE1E1"/>
<path d="M1137 -7.5H1237V92.5V92.5C1181.77 92.5 1137 47.7285 1137 -7.5V-7.5Z" fill="#468576"/>
<path d="M1137 192.5H1237V92.5C1181.77 92.5 1137 137.272 1137 192.5Z" fill="#FF9820"/>
<path d="M1137 192.5H1237V92.5C1181.77 92.5 1137 137.272 1137 192.5Z" stroke="#525252"/>
<path d="M1337 92.5C1337 79.2392 1331.73 66.5215 1322.36 57.1447C1312.98 47.7678 1300.26 42.5 1287 42.5C1273.74 42.5 1261.02 47.7678 1251.64 57.1447C1242.27 66.5215 1237 79.2392 1237 92.5L1287 92.5H1337Z" fill="#FF7575"/>
<path d="M1337 -7.5C1337 5.76083 1331.73 18.4785 1322.36 27.8553C1312.98 37.2322 1300.26 42.5 1287 42.5C1273.74 42.5 1261.02 37.2322 1251.64 27.8553C1242.27 18.4785 1237 5.76083 1237 -7.49999L1287 -7.5H1337Z" fill="#FF9820"/>
<path d="M1337 -7.5C1337 5.76083 1331.73 18.4785 1322.36 27.8553C1312.98 37.2322 1300.26 42.5 1287 42.5C1273.74 42.5 1261.02 37.2322 1251.64 27.8553C1242.27 18.4785 1237 5.76083 1237 -7.49999L1287 -7.5H1337Z" stroke="#525252"/>
<path d="M1336 142C1336 169.338 1313.84 191.5 1286.5 191.5C1259.16 191.5 1237 169.338 1237 142C1237 114.662 1259.16 92.5 1286.5 92.5C1313.84 92.5 1336 114.662 1336 142Z" fill="#468576"/>
<path d="M1316 142C1316 158.292 1302.79 171.5 1286.5 171.5C1270.21 171.5 1257 158.292 1257 142C1257 125.708 1270.21 112.5 1286.5 112.5C1302.79 112.5 1316 125.708 1316 142Z" fill="#FFE1E1"/>
<path fill-rule="evenodd" clip-rule="evenodd" d="M887 291.5C914.062 291.5 936 269.562 936 242.5C936 215.438 914.062 193.5 887 193.5C859.938 193.5 838 215.438 838 242.5C838 269.562 859.938 291.5 887 291.5ZM887 292.5C914.614 292.5 937 270.114 937 242.5C937 214.886 914.614 192.5 887 192.5C859.386 192.5 837 214.886 837 242.5C837 270.114 859.386 292.5 887 292.5Z" fill="#468576"/>
<path d="M936 242.5C936 269.562 914.062 291.5 887 291.5C859.938 291.5 838 269.562 838 242.5C838 215.438 859.938 193.5 887 193.5C914.062 193.5 936 215.438 936 242.5Z" fill="#468576"/>
<path fill-rule="evenodd" clip-rule="evenodd" d="M887 291.91C902.967 291.91 915.91 278.967 915.91 263C915.91 247.033 902.967 234.09 887 234.09C871.033 234.09 858.09 247.033 858.09 263C858.09 278.967 871.033 291.91 887 291.91ZM887 292.5C903.292 292.5 916.5 279.292 916.5 263C916.5 246.708 903.292 233.5 887 233.5C870.708 233.5 857.5 246.708 857.5 263C857.5 279.292 870.708 292.5 887 292.5Z" fill="#FF9820"/>
<path d="M915.91 263C915.91 278.967 902.967 291.91 887 291.91C871.033 291.91 858.09 278.967 858.09 263C858.09 247.033 871.033 234.09 887 234.09C902.967 234.09 915.91 247.033 915.91 263Z" fill="#FF9820"/>
<path d="M937 192.5H987C1014.61 192.5 1037 214.886 1037 242.5V292.5H987C959.386 292.5 937 270.114 937 242.5V192.5Z" fill="#FF7575"/>
<path d="M1137 192.5H1087C1059.39 192.5 1037 214.886 1037 242.5V292.5H1087C1114.61 292.5 1137 270.114 1137 242.5V192.5Z" fill="#FFE1E1"/>
<path d="M1137 192.5H1237V292.5V292.5C1181.77 292.5 1137 247.728 1137 192.5V192.5Z" fill="#468576"/>
<path d="M1337 192.5C1337 205.761 1331.73 218.479 1322.36 227.855C1312.98 237.232 1300.26 242.5 1287 242.5C1273.74 242.5 1261.02 237.232 1251.64 227.855C1242.27 218.479 1237 205.761 1237 192.5L1287 192.5H1337Z" fill="#FF9820"/>
<path d="M1337 192.5C1337 205.761 1331.73 218.479 1322.36 227.855C1312.98 237.232 1300.26 242.5 1287 242.5C1273.74 242.5 1261.02 237.232 1251.64 227.855C1242.27 218.479 1237 205.761 1237 192.5L1287 192.5H1337Z" stroke="#525252"/>
</g>
</g>
<defs>
<filter id="filter0_d_107_163" x="0" y="0.5" width="1367" height="272" filterUnits="userSpaceOnUse" color-interpolation-filters="sRGB">
<feFlood flood-opacity="0" result="BackgroundImageFix"/>
<feColorMatrix in="SourceAlpha" type="matrix" values="0 0 0 0 0 0 0 0 0 0 0 0 0 0 0 0 0 0 127 0" result="hardAlpha"/>
<feOffset dx="10" dy="10"/>
<feGaussianBlur stdDeviation="10"/>
<feComposite in2="hardAlpha" operator="out"/>
<feColorMatrix type="matrix" values="0 0 0 0 0 0 0 0 0 0 0 0 0 0 0 0 0 0 0.15 0"/>
<feBlend mode="normal" in2="BackgroundImageFix" result="effect1_dropShadow_107_163"/>
<feBlend mode="normal" in="SourceGraphic" in2="effect1_dropShadow_107_163" result="shape"/>
</filter>
<clipPath id="clip0_107_163">
<rect width="1327" height="232" fill="white" transform="translate(10 10.5)"/>
</clipPath>
<clipPath id="clip1_107_163">
<rect width="500" height="500" fill="white" transform="translate(837 -7.5)"/>
</clipPath>
</defs>
</svg>
