<svg width="62" height="62" viewBox="0 0 62 62" fill="none" xmlns="http://www.w3.org/2000/svg">
<path d="M22.5625 49.2812C24.1158 49.2812 25.375 48.022 25.375 46.4687C25.375 44.9154 24.1158 43.6562 22.5625 43.6562C21.0092 43.6562 19.75 44.9154 19.75 46.4687C19.75 48.022 21.0092 49.2812 22.5625 49.2812Z" fill="white"/>
<path d="M40.8438 49.2812C42.3971 49.2812 43.6562 48.022 43.6562 46.4687C43.6562 44.9154 42.3971 43.6562 40.8438 43.6562C39.2904 43.6562 38.0312 44.9154 38.0312 46.4687C38.0312 48.022 39.2904 49.2812 40.8438 49.2812Z" fill="white"/>
<path d="M15.9331 21.1562H47.4733L42.8329 37.3977C42.665 37.9853 42.3102 38.5023 41.8222 38.8704C41.3343 39.2384 40.7398 39.4375 40.1286 39.4375H23.2777C22.6666 39.4375 22.072 39.2384 21.5841 38.8704C21.0961 38.5023 20.7414 37.9853 20.5735 37.3977L14.2155 15.1449C14.1316 14.8511 13.9542 14.5926 13.7102 14.4086C13.4662 14.2245 13.169 14.125 12.8634 14.125H9.90625" stroke="white" stroke-width="2.50351" stroke-linecap="round" stroke-linejoin="round"/>
</svg>
