<svg width="62" height="63" viewBox="0 0 62 63" fill="none" xmlns="http://www.w3.org/2000/svg">
<path d="M22.5374 27.4416C21.7315 26.1254 21.4492 24.5695 21.7437 23.066C22.0381 21.5625 22.889 20.2148 24.1365 19.276C25.3841 18.3373 26.9425 17.872 28.5191 17.9676C30.0957 18.0632 31.5821 18.713 32.6991 19.7951C33.8161 20.8772 34.4869 22.3171 34.5856 23.8445C34.6842 25.3718 34.204 26.8815 33.2349 28.0901C32.2659 29.2986 30.8748 30.1229 29.3228 30.4082C27.7708 30.6934 26.1646 30.42 24.806 29.6393L24.806 29.6392L22.5656 30.2593C22.4729 30.285 22.3748 30.2862 22.2815 30.2627C22.1882 30.2393 22.103 30.1921 22.0349 30.1261C21.9667 30.0601 21.918 29.9776 21.8938 29.8872C21.8696 29.7968 21.8708 29.7017 21.8973 29.6119L22.5375 27.4415L22.5374 27.4416Z" stroke="white" stroke-width="1.44152" stroke-linecap="round" stroke-linejoin="round"/>
<path d="M27.7616 30.5084C28.0805 31.3854 28.5962 32.1829 29.2715 32.8436C29.9468 33.5043 30.765 34.0117 31.6671 34.3292C32.5692 34.6467 33.5328 34.7665 34.4884 34.6798C35.444 34.5932 36.3679 34.3023 37.1936 33.8282L37.1935 33.8281L39.434 34.4482C39.5267 34.4739 39.6247 34.4751 39.7181 34.4516C39.8114 34.4282 39.8965 34.381 39.9647 34.315C40.0329 34.249 40.0816 34.1665 40.1058 34.0761C40.1299 33.9856 40.1287 33.8906 40.1022 33.8008L39.4621 31.6304L39.4622 31.6305C40.0309 30.7012 40.3429 29.6457 40.3679 28.5657C40.393 27.4856 40.1302 26.4176 39.6051 25.4646C39.08 24.5115 38.3102 23.7057 37.37 23.1248C36.4298 22.5439 35.351 22.2076 34.2375 22.1482" stroke="white" stroke-width="1.44152" stroke-linecap="round" stroke-linejoin="round"/>
<path d="M24.3143 44.9123C24.3143 44.5524 24.3972 44.2295 24.5631 43.9436C24.7325 43.6578 24.9601 43.4354 25.2459 43.2766C25.5353 43.1143 25.8512 43.0331 26.1935 43.0331C26.5852 43.0331 26.9328 43.1302 27.2363 43.3243C27.5433 43.5148 27.7656 43.7866 27.9033 44.1395H27.1781C27.0828 43.9454 26.9504 43.8007 26.7811 43.7054C26.6117 43.6101 26.4158 43.5625 26.1935 43.5625C25.95 43.5625 25.7329 43.6172 25.5424 43.7266C25.3518 43.836 25.2018 43.993 25.0924 44.1977C24.9865 44.4024 24.9336 44.6406 24.9336 44.9123C24.9336 45.1841 24.9865 45.4223 25.0924 45.627C25.2018 45.8316 25.3518 45.9904 25.5424 46.1034C25.7329 46.2128 25.95 46.2675 26.1935 46.2675C26.4158 46.2675 26.6117 46.2198 26.7811 46.1245C26.9504 46.0293 27.0828 45.8846 27.1781 45.6905H27.9033C27.7656 46.0434 27.5433 46.3151 27.2363 46.5057C26.9328 46.6962 26.5852 46.7915 26.1935 46.7915C25.8476 46.7915 25.5318 46.7121 25.2459 46.5533C24.9601 46.391 24.7325 46.1669 24.5631 45.881C24.3972 45.5952 24.3143 45.2723 24.3143 44.9123ZM30.1183 43.7954C30.3406 43.7954 30.5382 43.843 30.7112 43.9383C30.8876 44.0336 31.0252 44.1748 31.1241 44.3618C31.2264 44.5488 31.2776 44.7747 31.2776 45.0394V46.7598H30.6794V45.1294C30.6794 44.8682 30.6141 44.6688 30.4835 44.5312C30.353 44.39 30.1748 44.3194 29.9489 44.3194C29.723 44.3194 29.5431 44.39 29.409 44.5312C29.2784 44.6688 29.2131 44.8682 29.2131 45.1294V46.7598H28.6096V42.8426H29.2131V44.1818C29.3154 44.0583 29.4442 43.963 29.5995 43.896C29.7583 43.8289 29.9313 43.7954 30.1183 43.7954ZM31.8462 45.2882C31.8462 44.9953 31.9062 44.7359 32.0262 44.51C32.1497 44.2842 32.3155 44.1095 32.5237 43.986C32.7355 43.8589 32.9684 43.7954 33.2225 43.7954C33.4519 43.7954 33.6513 43.8413 33.8207 43.933C33.9936 44.0212 34.1312 44.1324 34.2336 44.2665V43.843H34.8423V46.7598H34.2336V46.3257C34.1312 46.4633 33.9918 46.578 33.8154 46.6698C33.6389 46.7615 33.4378 46.8074 33.2119 46.8074C32.9613 46.8074 32.732 46.7439 32.5237 46.6168C32.3155 46.4863 32.1497 46.3063 32.0262 46.0769C31.9062 45.844 31.8462 45.5811 31.8462 45.2882ZM34.2336 45.2988C34.2336 45.0976 34.1912 44.9229 34.1065 44.7747C34.0253 44.6265 33.9177 44.5135 33.7836 44.4359C33.6495 44.3583 33.5048 44.3194 33.3495 44.3194C33.1943 44.3194 33.0496 44.3583 32.9155 44.4359C32.7814 44.51 32.672 44.6212 32.5873 44.7694C32.5061 44.9141 32.4655 45.087 32.4655 45.2882C32.4655 45.4893 32.5061 45.6658 32.5873 45.8175C32.672 45.9693 32.7814 46.0857 32.9155 46.1669C33.0531 46.2445 33.1978 46.2833 33.3495 46.2833C33.5048 46.2833 33.6495 46.2445 33.7836 46.1669C33.9177 46.0893 34.0253 45.9763 34.1065 45.8281C34.1912 45.6764 34.2336 45.4999 34.2336 45.2988ZM36.339 44.3353V45.9499C36.339 46.0593 36.3637 46.1387 36.4131 46.1881C36.466 46.2339 36.5542 46.2569 36.6778 46.2569H37.0483V46.7598H36.5719C36.3001 46.7598 36.0919 46.6962 35.9472 46.5692C35.8026 46.4422 35.7302 46.2357 35.7302 45.9499V44.3353H35.3861V43.843H35.7302V43.1178H36.339V43.843H37.0483V44.3353H36.339Z" fill="white"/>
</svg>
