<svg width="63" height="63" viewBox="0 0 63 63" fill="none" xmlns="http://www.w3.org/2000/svg">
<path d="M45.0578 37.6873L53.1948 48.2512L37.349 46.5857L45.0578 37.6873Z" fill="#04A89E"/>
<g filter="url(#filter0_di_131_295)">
<path d="M46.9525 31.85C46.9525 27.2818 45.2341 22.8808 42.1387 19.5212C39.0432 16.1616 34.7973 14.0894 30.2444 13.7161C25.6915 13.3429 21.1647 14.6959 17.5634 17.5065C13.9622 20.3171 11.5499 24.3795 10.8059 28.8867C10.0619 33.3939 11.0406 38.0161 13.5475 41.835C16.0545 45.6538 19.9062 48.3899 24.3376 49.4997C28.7689 50.6095 33.4556 50.0118 37.4665 47.8252C41.4775 45.6387 44.5191 42.0234 45.9873 37.6975L39.9308 35.642C38.9787 38.4473 37.0062 40.7917 34.4052 42.2097C31.8042 43.6276 28.765 44.0152 25.8913 43.2955C23.0177 42.5759 20.5199 40.8015 18.8942 38.3251C17.2685 35.8486 16.6338 32.8512 17.1163 29.9284C17.5988 27.0055 19.1631 24.3711 21.4984 22.5485C23.8338 20.7259 26.7693 19.8485 29.7218 20.0905C32.6743 20.3326 35.4277 21.6764 37.435 23.855C39.4424 26.0336 40.5567 28.8876 40.5567 31.85H46.9525Z" fill="#05BEB3"/>
</g>
<g filter="url(#filter1_di_131_295)">
<path d="M46.9525 31.85C46.9525 27.9066 45.6713 24.0698 43.3019 20.9176C40.9324 17.7653 37.6029 15.4682 33.8148 14.3722C30.0267 13.2761 25.9851 13.4405 22.2985 14.8404C18.6119 16.2404 15.4799 18.8002 13.3741 22.1344C11.2684 25.4686 10.3029 29.3967 10.623 33.3271C10.9432 37.2576 12.5316 40.9776 15.1492 43.9271C17.7667 46.8766 21.2717 48.8958 25.1363 49.6807C29.0008 50.4657 33.0158 49.9738 36.5766 48.2791L34.8056 44.5579C32.0513 45.8687 28.9458 46.2492 25.9565 45.6421C22.9673 45.0349 20.2562 43.4731 18.2315 41.1917C16.2069 38.9102 14.9782 36.0328 14.7306 32.9926C14.4829 29.9524 15.2298 26.914 16.8585 24.335C18.4873 21.756 20.9099 19.776 23.7615 18.6931C26.6131 17.6102 29.7393 17.4831 32.6694 18.3309C35.5995 19.1787 38.1748 20.9555 40.0076 23.3938C41.8404 25.8321 42.8314 28.7998 42.8314 31.85H46.9525Z" fill="url(#paint0_radial_131_295)"/>
</g>
<circle cx="24.0272" cy="32.2143" r="1.81948" fill="url(#paint1_radial_131_295)"/>
<circle cx="29.0304" cy="32.2143" r="1.81948" fill="url(#paint2_radial_131_295)"/>
<circle cx="34.2161" cy="32.2143" r="1.81948" fill="url(#paint3_radial_131_295)"/>
<defs>
<filter id="filter0_di_131_295" x="7.65183" y="13.6553" width="42.2119" height="42.212" filterUnits="userSpaceOnUse" color-interpolation-filters="sRGB">
<feFlood flood-opacity="0" result="BackgroundImageFix"/>
<feColorMatrix in="SourceAlpha" type="matrix" values="0 0 0 0 0 0 0 0 0 0 0 0 0 0 0 0 0 0 127 0" result="hardAlpha"/>
<feOffset dy="2.91116"/>
<feGaussianBlur stdDeviation="1.45558"/>
<feComposite in2="hardAlpha" operator="out"/>
<feColorMatrix type="matrix" values="0 0 0 0 0 0 0 0 0 0 0 0 0 0 0 0 0 0 0.25 0"/>
<feBlend mode="normal" in2="BackgroundImageFix" result="effect1_dropShadow_131_295"/>
<feBlend mode="normal" in="SourceGraphic" in2="effect1_dropShadow_131_295" result="shape"/>
<feColorMatrix in="SourceAlpha" type="matrix" values="0 0 0 0 0 0 0 0 0 0 0 0 0 0 0 0 0 0 127 0" result="hardAlpha"/>
<feOffset dx="1.45558" dy="2.91116"/>
<feGaussianBlur stdDeviation="1.45558"/>
<feComposite in2="hardAlpha" operator="arithmetic" k2="-1" k3="1"/>
<feColorMatrix type="matrix" values="0 0 0 0 0 0 0 0 0 0 0 0 0 0 0 0 0 0 0.15 0"/>
<feBlend mode="normal" in2="shape" result="effect2_innerShadow_131_295"/>
</filter>
<filter id="filter1_di_131_295" x="7.65183" y="13.6553" width="42.2119" height="42.212" filterUnits="userSpaceOnUse" color-interpolation-filters="sRGB">
<feFlood flood-opacity="0" result="BackgroundImageFix"/>
<feColorMatrix in="SourceAlpha" type="matrix" values="0 0 0 0 0 0 0 0 0 0 0 0 0 0 0 0 0 0 127 0" result="hardAlpha"/>
<feOffset dy="2.91116"/>
<feGaussianBlur stdDeviation="1.45558"/>
<feComposite in2="hardAlpha" operator="out"/>
<feColorMatrix type="matrix" values="0 0 0 0 0 0 0 0 0 0 0 0 0 0 0 0 0 0 0.25 0"/>
<feBlend mode="normal" in2="BackgroundImageFix" result="effect1_dropShadow_131_295"/>
<feBlend mode="normal" in="SourceGraphic" in2="effect1_dropShadow_131_295" result="shape"/>
<feColorMatrix in="SourceAlpha" type="matrix" values="0 0 0 0 0 0 0 0 0 0 0 0 0 0 0 0 0 0 127 0" result="hardAlpha"/>
<feOffset dx="1.45558" dy="2.91116"/>
<feGaussianBlur stdDeviation="0.72779"/>
<feComposite in2="hardAlpha" operator="arithmetic" k2="-1" k3="1"/>
<feColorMatrix type="matrix" values="0 0 0 0 0 0 0 0 0 0 0 0 0 0 0 0 0 0 0.15 0"/>
<feBlend mode="normal" in2="shape" result="effect2_innerShadow_131_295"/>
</filter>
<radialGradient id="paint0_radial_131_295" cx="0" cy="0" r="1" gradientUnits="userSpaceOnUse" gradientTransform="translate(19.2965 22.7527) rotate(55.3253) scale(32.3012)">
<stop stop-color="#40DDFF"/>
<stop offset="1" stop-color="#1363FF"/>
</radialGradient>
<radialGradient id="paint1_radial_131_295" cx="0" cy="0" r="1" gradientUnits="userSpaceOnUse" gradientTransform="translate(23.0811 31.3045) rotate(55.3253) scale(3.23012)">
<stop stop-color="#40DDFF"/>
<stop offset="1" stop-color="#1363FF"/>
</radialGradient>
<radialGradient id="paint2_radial_131_295" cx="0" cy="0" r="1" gradientUnits="userSpaceOnUse" gradientTransform="translate(28.0843 31.3045) rotate(55.3253) scale(3.23012)">
<stop stop-color="#40DDFF"/>
<stop offset="1" stop-color="#1363FF"/>
</radialGradient>
<radialGradient id="paint3_radial_131_295" cx="0" cy="0" r="1" gradientUnits="userSpaceOnUse" gradientTransform="translate(33.27 31.3045) rotate(55.3253) scale(3.23012)">
<stop stop-color="#40DDFF"/>
<stop offset="1" stop-color="#1363FF"/>
</radialGradient>
</defs>
</svg>
