<svg width="63" height="62" viewBox="0 0 63 62" fill="none" xmlns="http://www.w3.org/2000/svg">
<path d="M25.7607 19.0066V42.991" stroke="white" stroke-width="2.66494" stroke-linecap="round" stroke-linejoin="round"/>
<path d="M13.769 37.5263C13.769 37.2193 13.8751 36.9218 14.0693 36.6841C14.2636 36.4464 14.534 36.2832 14.8349 36.2221C16.0387 35.9762 17.1206 35.322 17.8975 34.3702C18.6745 33.4184 19.0989 32.2275 19.0989 30.9988C19.0989 29.7702 18.6745 28.5792 17.8975 27.6274C17.1206 26.6757 16.0387 26.0215 14.8349 25.7755C14.534 25.7145 14.2636 25.5512 14.0693 25.3136C13.8751 25.0759 13.769 24.7783 13.769 24.4713V20.3391C13.769 19.9857 13.9094 19.6467 14.1593 19.3969C14.4092 19.147 14.7481 19.0066 15.1015 19.0066H47.0808C47.4342 19.0066 47.7731 19.147 48.023 19.3969C48.2729 19.6467 48.4132 19.9857 48.4132 20.3391V24.4713C48.4133 24.7783 48.3072 25.0759 48.113 25.3136C47.9187 25.5513 47.6482 25.7145 47.3474 25.7755C46.1436 26.0215 45.0617 26.6757 44.2847 27.6274C43.5078 28.5792 43.0834 29.7702 43.0834 30.9988C43.0834 32.2275 43.5078 33.4184 44.2847 34.3702C45.0617 35.322 46.1436 35.9762 47.3474 36.2221C47.6482 36.2832 47.9187 36.4464 48.113 36.6841C48.3072 36.9218 48.4133 37.2193 48.4132 37.5263V41.6586C48.4132 42.012 48.2729 42.3509 48.023 42.6008C47.7731 42.8507 47.4342 42.991 47.0808 42.991H15.1015C14.7481 42.991 14.4092 42.8507 14.1593 42.6008C13.9094 42.3509 13.769 42.012 13.769 41.6586V37.5263Z" stroke="white" stroke-width="2.66494" stroke-linecap="round" stroke-linejoin="round"/>
</svg>
