<svg width="455" height="255" viewBox="0 0 455 255" fill="none" xmlns="http://www.w3.org/2000/svg">
<g clip-path="url(#clip0_107_98)">
<path d="M95.7098 253.602H26.3534C26.3534 253.602 24.9475 232.982 33.2654 232.748C41.5832 232.514 40.646 241.886 51.0731 228.999C61.5002 216.112 74.1526 216.815 75.7928 224.43C77.433 232.045 72.6298 238.137 81.4163 236.263C90.2028 234.388 102.856 239.309 95.7098 253.602Z" fill="#E6E6E6"/>
<path d="M59.8608 253.607L59.6265 253.597C60.1725 240.022 63.0154 231.301 65.3047 226.373C67.7899 221.023 70.1848 218.858 70.209 218.837L70.3649 219.012C70.3412 219.033 67.9744 221.177 65.5089 226.49C63.2324 231.395 60.4049 240.082 59.8608 253.607Z" fill="white"/>
<path d="M84.9622 253.634L84.7373 253.569C86.4816 247.815 89.6258 242.584 93.8883 238.344L94.0457 238.518C89.8147 242.728 86.6938 247.922 84.9622 253.634Z" fill="white"/>
<path d="M37.2778 253.618L37.0454 253.586C37.8016 248.496 37.0016 243.297 34.7501 238.67C33.8272 236.729 32.6054 234.945 31.1294 233.384L31.2917 233.214C32.7877 234.795 34.0263 236.601 34.9623 238.566C37.2339 243.235 38.0411 248.482 37.2778 253.618V253.618Z" fill="white"/>
<path d="M105.122 253.915H18.8729L18.8532 253.623C18.8038 252.896 17.7033 235.752 23.2582 229.635C23.8094 228.988 24.4897 228.465 25.2554 228.097C26.0211 227.73 26.8553 227.527 27.7042 227.501C31.325 227.398 33.6005 228.755 35.4361 229.843C38.8955 231.895 41.1804 233.251 49.4899 222.981C58.4909 211.856 68.2033 209.462 73.7863 210.793C77.3937 211.653 79.8799 214.084 80.6075 217.462C81.2981 220.661 81.0771 223.667 80.9005 226.082C80.7116 228.667 80.5626 230.708 81.6242 231.633C82.5121 232.405 84.2786 232.475 87.189 231.854C93.1084 230.591 101.37 231.671 105.516 237.029C107.747 239.911 109.504 245.15 105.209 253.742L105.122 253.915ZM19.4614 253.288H104.734C107.935 246.794 108.035 241.307 105.02 237.413C101.217 232.498 93.2367 231.205 87.3197 232.467C84.1572 233.142 82.2734 233.03 81.2123 232.106C79.9144 230.975 80.0738 228.796 80.275 226.039C80.4487 223.663 80.6642 220.707 79.9944 217.596C79.3195 214.463 77.0036 212.206 73.6403 211.405C68.2353 210.115 58.7923 212.479 49.9767 223.377C41.3274 234.067 38.7214 232.522 35.1159 230.381C33.2577 229.279 31.1484 228.03 27.7215 228.127C26.9572 228.152 26.2065 228.336 25.5177 228.668C24.8288 229 24.2172 229.473 23.7219 230.055C18.7308 235.554 19.3395 250.97 19.4619 253.288H19.4614Z" fill="#2F2E41"/>
<path d="M386.938 254.263H301.986L301.969 253.787L297.913 137.775H391.01L386.938 254.263ZM302.939 253.277H385.985L389.989 138.762H298.934L302.939 253.277Z" fill="#3F3D56"/>
<path d="M322.251 159.271H315.789V239.231H322.251V159.271Z" fill="#3F3D56"/>
<path d="M347.693 159.27H341.231V239.231H347.693V159.27Z" fill="#3F3D56"/>
<path d="M373.134 159.27H366.673V239.231H373.134V159.27Z" fill="#3F3D56"/>
<path d="M444.993 171.842L444.576 171.579L339.055 104.894L348.208 90.4105L348.625 90.674L454.146 157.358L444.993 171.842ZM340.416 104.588L444.686 170.481L452.785 157.665L348.515 91.7714L340.416 104.588Z" fill="#3F3D56"/>
<path d="M419.516 99.5199C416.449 97.5787 412.889 96.5582 409.259 96.5796C405.63 96.6009 402.082 97.6631 399.038 99.6401C395.994 101.617 393.581 104.426 392.085 107.733C390.589 111.041 390.074 114.708 390.6 118.299L395.631 121.479C394.367 118.543 394.075 115.279 394.8 112.166C395.524 109.052 397.227 106.252 399.658 104.176C402.088 102.1 405.12 100.857 408.309 100.628C411.497 100.4 414.675 101.198 417.377 102.906C420.079 104.615 422.164 107.143 423.325 110.121C424.486 113.1 424.663 116.372 423.83 119.458C422.997 122.544 421.198 125.283 418.696 127.273C416.195 129.263 413.121 130.4 409.927 130.517L414.958 133.696C418.428 132.631 421.52 130.593 423.866 127.823C426.212 125.053 427.715 121.669 428.195 118.071C428.676 114.473 428.114 110.812 426.576 107.524C425.038 104.236 422.59 101.458 419.521 99.5199H419.516Z" fill="#3F3D56"/>
<path d="M448.57 253.582H0.169922V254.569H448.57V253.582Z" fill="#3F3D56"/>
<path d="M196.024 246.851H188.84L185.42 219.141H196.026L196.024 246.851Z" fill="#FEB8B8"/>
<path d="M174.985 253.521H197.563V244.797H183.587C181.306 244.797 179.118 245.704 177.504 247.317C175.891 248.93 174.985 251.118 174.985 253.4V253.4V253.521Z" fill="#2F2E41"/>
<path d="M193.499 203.912L198.455 209.114L220.876 192.477L213.562 184.8L193.499 203.912Z" fill="#FEB8B8"/>
<path d="M203.56 211.497L193.917 201.378L187.601 207.398L203.18 223.744L203.268 223.661C204.086 222.881 204.742 221.948 205.199 220.915C205.657 219.882 205.906 218.769 205.933 217.639C205.96 216.51 205.765 215.386 205.357 214.332C204.95 213.278 204.34 212.315 203.56 211.497V211.497Z" fill="#2F2E41"/>
<path d="M143.494 127.996C143.04 127.264 142.751 126.442 142.648 125.587C142.546 124.732 142.632 123.865 142.901 123.046C143.169 122.228 143.614 121.479 144.204 120.851C144.794 120.223 145.514 119.732 146.314 119.413L174.519 47.5272L185.514 54.1102L154.181 123.072C154.629 124.452 154.555 125.948 153.973 127.276C153.392 128.605 152.343 129.674 151.025 130.281C149.708 130.888 148.213 130.991 146.825 130.57C145.437 130.149 144.252 129.233 143.494 127.996V127.996Z" fill="#FEB8B8"/>
<path d="M250.554 133.148C249.694 133.087 248.859 132.838 248.106 132.418C247.354 131.999 246.702 131.42 246.197 130.721C245.693 130.023 245.348 129.222 245.186 128.376C245.025 127.53 245.051 126.658 245.262 125.823L203.651 60.7734L215.437 55.7418L252.846 121.607C254.227 122.054 255.396 122.992 256.132 124.244C256.867 125.496 257.117 126.974 256.834 128.398C256.552 129.822 255.756 131.093 254.598 131.969C253.44 132.845 252.001 133.265 250.554 133.15V133.148Z" fill="#FEB8B8"/>
<path d="M174.797 120.798L182.162 230.265L199.764 228.712L203.387 147.95L213.224 182.635L234.449 184.188L226.048 115.621L174.797 120.798Z" fill="#2F2E41"/>
<path d="M216.33 177.458L213.222 182.636L191.481 197.648L207.012 205.932C207.012 205.932 237.038 189.366 234.45 184.188L216.33 177.458Z" fill="#2F2E41"/>
<path d="M159.384 76.5084L165.511 59.2432C166.874 55.4017 168.986 51.8687 171.723 48.8486C174.461 45.8285 177.77 43.3813 181.46 41.6486V41.6486C189.753 38.5934 198.773 38.0997 207.35 40.2314L209.579 40.7849C215.525 42.226 221.096 44.9165 225.921 48.6775C229.697 51.654 233.094 55.4227 233.396 59.4766C233.397 59.4852 233.4 59.4936 233.403 59.5017C234.449 64.0854 234.967 87.8989 234.967 87.8989H225.742L227.201 119.996L227.083 119.763C227.083 119.763 173.879 129.832 173.879 124.655V91.5216L172.788 79.5248L159.384 76.5084Z" fill="#CCCCCC"/>
<path d="M209.045 35.7436C217.188 35.7436 223.789 29.1425 223.789 20.9997C223.789 12.8568 217.188 6.25574 209.045 6.25574C200.902 6.25574 194.301 12.8568 194.301 20.9997C194.301 29.1425 200.902 35.7436 209.045 35.7436Z" fill="#FEB8B8"/>
<path d="M211.253 14.3875L222.701 14.8463C224.142 14.8419 225.714 14.791 226.812 13.8597C228.464 12.4543 228.187 9.80241 227.302 7.82136C224.836 2.30541 219.334 0.329292 213.293 0.491584C207.252 0.653877 200.921 2.70151 197.668 7.79226C194.415 12.883 193.536 19.3115 194.761 25.2271C196.178 22.2191 198.358 19.6353 201.086 17.7336C203.813 15.8319 206.991 14.6789 210.304 14.3895L211.253 14.3875Z" fill="#2F2E41"/>
<path d="M279.235 158.604L237.798 129.562C237.413 129.291 237.151 128.879 237.069 128.415C236.988 127.952 237.093 127.475 237.363 127.089L269.886 80.6835C270.157 80.2985 270.569 80.0366 271.033 79.955C271.497 79.8735 271.974 79.979 272.36 80.2484L313.797 109.29C314.182 109.561 314.444 109.973 314.525 110.437C314.607 110.9 314.501 111.377 314.232 111.763L281.71 158.167C281.439 158.553 281.026 158.815 280.562 158.897C280.099 158.979 279.621 158.873 279.235 158.604V158.604Z" fill="#F93B3B"/>
<path d="M288.554 127.092L264.239 110.051C263.958 109.854 263.718 109.603 263.534 109.314C263.349 109.024 263.224 108.701 263.165 108.363C263.105 108.025 263.113 107.678 263.187 107.343C263.262 107.008 263.401 106.69 263.599 106.409C263.796 106.128 264.046 105.888 264.336 105.704C264.625 105.52 264.949 105.394 265.287 105.335C265.625 105.275 265.972 105.283 266.307 105.357C266.642 105.432 266.959 105.571 267.24 105.769L291.555 122.81C292.123 123.208 292.509 123.815 292.63 124.498C292.75 125.181 292.594 125.884 292.196 126.451C291.798 127.019 291.19 127.406 290.507 127.526C289.824 127.646 289.122 127.49 288.554 127.092V127.092Z" fill="white"/>
<path d="M282.973 135.054L258.659 118.013C258.377 117.816 258.137 117.566 257.953 117.276C257.768 116.986 257.642 116.663 257.583 116.325C257.523 115.986 257.531 115.64 257.605 115.304C257.679 114.969 257.819 114.651 258.016 114.37C258.214 114.089 258.464 113.849 258.754 113.664C259.044 113.48 259.367 113.355 259.706 113.295C260.044 113.236 260.391 113.244 260.726 113.318C261.062 113.393 261.379 113.533 261.66 113.731L285.975 130.772C286.542 131.17 286.928 131.777 287.048 132.46C287.167 133.142 287.011 133.845 286.613 134.412C286.216 134.98 285.609 135.366 284.926 135.487C284.244 135.607 283.541 135.451 282.973 135.054V135.054Z" fill="white"/>
<path d="M277.333 143.102L253.018 126.061C252.737 125.864 252.498 125.613 252.313 125.324C252.129 125.034 252.003 124.711 251.944 124.373C251.884 124.034 251.892 123.688 251.967 123.353C252.041 123.017 252.181 122.7 252.378 122.419C252.575 122.138 252.825 121.898 253.115 121.714C253.405 121.529 253.728 121.404 254.066 121.344C254.404 121.285 254.751 121.293 255.086 121.367C255.421 121.442 255.739 121.581 256.02 121.778L280.334 138.819C280.902 139.217 281.289 139.825 281.409 140.508C281.529 141.191 281.373 141.893 280.975 142.461C280.577 143.029 279.97 143.416 279.287 143.536C278.604 143.656 277.901 143.5 277.333 143.102V143.102Z" fill="white"/>
<path d="M288.485 111.341L279.068 104.741C278.786 104.544 278.546 104.293 278.361 104.004C278.177 103.714 278.051 103.391 277.991 103.052C277.932 102.714 277.939 102.367 278.014 102.032C278.088 101.696 278.228 101.379 278.425 101.098C278.622 100.816 278.873 100.577 279.163 100.392C279.453 100.208 279.776 100.082 280.115 100.023C280.453 99.9635 280.8 99.9714 281.135 100.046C281.47 100.121 281.788 100.261 282.069 100.458L291.487 107.059C292.055 107.457 292.441 108.064 292.561 108.747C292.681 109.43 292.525 110.133 292.127 110.701C291.729 111.269 291.122 111.655 290.439 111.775C289.756 111.895 289.053 111.739 288.485 111.341V111.341Z" fill="white"/>
</g>
<defs>
<clipPath id="clip0_107_98">
<rect width="453.976" height="254.087" fill="white" transform="translate(0.169922 0.482422)"/>
</clipPath>
</defs>
</svg>
