<svg width="63" height="62" viewBox="0 0 63 62" fill="none" xmlns="http://www.w3.org/2000/svg">
<path d="M21.1859 36.8303C21.1859 34.4864 21.0812 23.9946 21.0812 17.786C21.151 16.9489 22.0858 15.3584 25.2668 15.6932H41.5905V38.1907H36.7771M41.7998 43.1087H36.7771M32.8008 38.1907H23.2786C20.0348 37.9814 20.4533 43.1087 23.2786 43.1087H32.8008M32.8008 38.1907H36.7771M32.8008 38.1907V43.1087M36.7771 38.1907V43.1087M32.8008 43.1087V46.3525L34.789 45.4108L36.7771 46.3525V43.1087" stroke="white" stroke-width="1.25567" stroke-linecap="round"/>
<path d="M31.0583 23.8028C31.7969 23.8028 32.4449 23.9472 33.0022 24.2359C33.5663 24.5247 33.9994 24.9376 34.3015 25.4748C34.6104 26.0053 34.7648 26.623 34.7648 27.3281C34.7648 28.0331 34.6104 28.6509 34.3015 29.1813C33.9994 29.7051 33.5663 30.1113 33.0022 30.4C32.4449 30.6888 31.7969 30.8331 31.0583 30.8331H28.6007V23.8028H31.0583ZM31.008 29.6346C31.7466 29.6346 32.3173 29.4331 32.7202 29.0302C33.1231 28.6274 33.3245 28.06 33.3245 27.3281C33.3245 26.5962 33.1231 26.0254 32.7202 25.6158C32.3173 25.1995 31.7466 24.9913 31.008 24.9913H30.0108V29.6346H31.008Z" fill="white"/>
</svg>
