<svg width="163" height="132" viewBox="0 0 163 132" fill="none" xmlns="http://www.w3.org/2000/svg">
<path d="M23.8497 115.865C23.8497 116.324 23.8191 116.737 23.7579 117.104H14.4607C14.5372 118.023 14.8586 118.742 15.4248 119.262C15.9911 119.783 16.6874 120.043 17.5138 120.043C18.7075 120.043 19.5569 119.53 20.062 118.505H23.5283C23.161 119.729 22.457 120.739 21.4164 121.535C20.3757 122.315 19.0978 122.706 17.5827 122.706C16.3584 122.706 15.2565 122.438 14.277 121.902C13.3129 121.351 12.5553 120.578 12.0044 119.584C11.4687 118.589 11.2009 117.441 11.2009 116.14C11.2009 114.824 11.4687 113.669 12.0044 112.674C12.54 111.679 13.2899 110.914 14.2541 110.378C15.2182 109.843 16.3278 109.575 17.5827 109.575C18.7917 109.575 19.8706 109.835 20.8195 110.355C21.7837 110.876 22.5259 111.618 23.0462 112.582C23.5819 113.531 23.8497 114.625 23.8497 115.865ZM20.5211 114.946C20.5058 114.12 20.2073 113.462 19.6258 112.972C19.0442 112.467 18.3326 112.215 17.4909 112.215C16.6951 112.215 16.0217 112.46 15.4707 112.949C14.9351 113.424 14.6061 114.089 14.4836 114.946H20.5211ZM35.2861 114.281C36.1891 114.449 36.9313 114.901 37.5129 115.635C38.0944 116.37 38.3852 117.211 38.3852 118.16C38.3852 119.017 38.1709 119.775 37.7424 120.433C37.3292 121.076 36.7247 121.581 35.9289 121.948C35.1331 122.315 34.1919 122.499 33.1053 122.499H26.1955V106.476H32.8069C33.8935 106.476 34.827 106.652 35.6075 107.004C36.4033 107.356 37.0002 107.845 37.3981 108.473C37.8113 109.1 38.0179 109.812 38.0179 110.608C38.0179 111.541 37.7654 112.322 37.2603 112.949C36.7706 113.577 36.1125 114.021 35.2861 114.281ZM29.4094 113.087H32.3477C33.1129 113.087 33.7022 112.919 34.1154 112.582C34.5286 112.23 34.7352 111.733 34.7352 111.09C34.7352 110.447 34.5286 109.95 34.1154 109.598C33.7022 109.246 33.1129 109.07 32.3477 109.07H29.4094V113.087ZM32.6462 119.882C33.4267 119.882 34.0312 119.698 34.4597 119.331C34.9035 118.964 35.1254 118.443 35.1254 117.77C35.1254 117.081 34.8959 116.546 34.4367 116.163C33.9776 115.765 33.3578 115.566 32.5773 115.566H29.4094V119.882H32.6462ZM52.9526 109.781V122.499H49.7158V120.892C49.3026 121.443 48.7593 121.879 48.0859 122.201C47.4278 122.507 46.7086 122.66 45.9281 122.66C44.9333 122.66 44.0533 122.453 43.2881 122.04C42.5229 121.611 41.9184 120.992 41.4746 120.18C41.0461 119.354 40.8318 118.375 40.8318 117.242V109.781H44.0457V116.783C44.0457 117.793 44.2982 118.574 44.8032 119.124C45.3082 119.66 45.9969 119.928 46.8693 119.928C47.7569 119.928 48.4532 119.66 48.9583 119.124C49.4633 118.574 49.7158 117.793 49.7158 116.783V109.781H52.9526ZM60.9903 122.706C59.9496 122.706 59.0161 122.522 58.1896 122.155C57.3632 121.772 56.7051 121.259 56.2154 120.617C55.741 119.974 55.4808 119.262 55.4349 118.482H58.6717C58.7329 118.971 58.9701 119.377 59.3834 119.698C59.8119 120.02 60.3399 120.18 60.9673 120.18C61.5795 120.18 62.0539 120.058 62.3906 119.813C62.7426 119.568 62.9186 119.255 62.9186 118.872C62.9186 118.459 62.7043 118.153 62.2758 117.954C61.8626 117.739 61.1969 117.51 60.2786 117.265C59.3298 117.035 58.5493 116.798 57.9371 116.553C57.3403 116.309 56.8199 115.934 56.3761 115.429C55.9476 114.924 55.7333 114.242 55.7333 113.385C55.7333 112.681 55.9323 112.039 56.3302 111.457C56.7434 110.876 57.325 110.416 58.0749 110.08C58.8401 109.743 59.7353 109.575 60.7607 109.575C62.2758 109.575 63.4848 109.957 64.3878 110.723C65.2907 111.472 65.7881 112.49 65.8799 113.776H62.8038C62.7579 113.271 62.5436 112.873 62.161 112.582C61.7937 112.276 61.2964 112.123 60.6689 112.123C60.0873 112.123 59.6359 112.23 59.3145 112.444C59.0084 112.659 58.8554 112.957 58.8554 113.34C58.8554 113.768 59.0696 114.097 59.4981 114.327C59.9266 114.541 60.5924 114.763 61.4953 114.992C62.4136 115.222 63.1711 115.459 63.768 115.704C64.3648 115.949 64.8775 116.331 65.306 116.852C65.7498 117.357 65.9794 118.03 65.9947 118.872C65.9947 119.607 65.7881 120.265 65.3749 120.846C64.977 121.428 64.3954 121.887 63.6302 122.224C62.8803 122.545 62.0003 122.706 60.9903 122.706ZM70.2627 108.266C69.6965 108.266 69.2221 108.09 68.8395 107.738C68.4722 107.371 68.2885 106.92 68.2885 106.384C68.2885 105.848 68.4722 105.404 68.8395 105.052C69.2221 104.685 69.6965 104.501 70.2627 104.501C70.829 104.501 71.2958 104.685 71.6631 105.052C72.0457 105.404 72.237 105.848 72.237 106.384C72.237 106.92 72.0457 107.371 71.6631 107.738C71.2958 108.09 70.829 108.266 70.2627 108.266ZM71.8467 109.781V122.499H68.6328V109.781H71.8467ZM82.0695 109.598C83.5846 109.598 84.8089 110.08 85.7425 111.044C86.676 111.993 87.1428 113.324 87.1428 115.038V122.499H83.9289V115.474C83.9289 114.464 83.6764 113.692 83.1714 113.156C82.6664 112.605 81.9777 112.329 81.1053 112.329C80.2177 112.329 79.5137 112.605 78.9934 113.156C78.4884 113.692 78.2358 114.464 78.2358 115.474V122.499H75.022V109.781H78.2358V111.365C78.6644 110.814 79.2076 110.386 79.8657 110.08C80.5391 109.758 81.2737 109.598 82.0695 109.598ZM102.021 115.865C102.021 116.324 101.991 116.737 101.93 117.104H92.6323C92.7089 118.023 93.0302 118.742 93.5965 119.262C94.1627 119.783 94.8591 120.043 95.6855 120.043C96.8792 120.043 97.7286 119.53 98.2336 118.505H101.7C101.333 119.729 100.629 120.739 99.588 121.535C98.5474 122.315 97.2695 122.706 95.7544 122.706C94.53 122.706 93.4281 122.438 92.4487 121.902C91.4845 121.351 90.727 120.578 90.176 119.584C89.6404 118.589 89.3726 117.441 89.3726 116.14C89.3726 114.824 89.6404 113.669 90.176 112.674C90.7117 111.679 91.4616 110.914 92.4257 110.378C93.3899 109.843 94.4994 109.575 95.7544 109.575C96.9634 109.575 98.0423 109.835 98.9912 110.355C99.9553 110.876 100.698 111.618 101.218 112.582C101.754 113.531 102.021 114.625 102.021 115.865ZM98.6927 114.946C98.6774 114.12 98.379 113.462 97.7975 112.972C97.2159 112.467 96.5043 112.215 95.6625 112.215C94.8667 112.215 94.1934 112.46 93.6424 112.949C93.1068 113.424 92.7777 114.089 92.6553 114.946H98.6927ZM109.234 122.706C108.193 122.706 107.26 122.522 106.433 122.155C105.607 121.772 104.949 121.259 104.459 120.617C103.985 119.974 103.724 119.262 103.679 118.482H106.915C106.977 118.971 107.214 119.377 107.627 119.698C108.055 120.02 108.583 120.18 109.211 120.18C109.823 120.18 110.298 120.058 110.634 119.813C110.986 119.568 111.162 119.255 111.162 118.872C111.162 118.459 110.948 118.153 110.519 117.954C110.106 117.739 109.44 117.51 108.522 117.265C107.573 117.035 106.793 116.798 106.181 116.553C105.584 116.309 105.064 115.934 104.62 115.429C104.191 114.924 103.977 114.242 103.977 113.385C103.977 112.681 104.176 112.039 104.574 111.457C104.987 110.876 105.569 110.416 106.318 110.08C107.084 109.743 107.979 109.575 109.004 109.575C110.519 109.575 111.728 109.957 112.631 110.723C113.534 111.472 114.032 112.49 114.124 113.776H111.047C111.001 113.271 110.787 112.873 110.405 112.582C110.037 112.276 109.54 112.123 108.912 112.123C108.331 112.123 107.879 112.23 107.558 112.444C107.252 112.659 107.099 112.957 107.099 113.34C107.099 113.768 107.313 114.097 107.742 114.327C108.17 114.541 108.836 114.763 109.739 114.992C110.657 115.222 111.415 115.459 112.012 115.704C112.608 115.949 113.121 116.331 113.55 116.852C113.993 117.357 114.223 118.03 114.238 118.872C114.238 119.607 114.032 120.265 113.618 120.846C113.221 121.428 112.639 121.887 111.874 122.224C111.124 122.545 110.244 122.706 109.234 122.706ZM121.743 122.706C120.702 122.706 119.769 122.522 118.942 122.155C118.116 121.772 117.458 121.259 116.968 120.617C116.494 119.974 116.234 119.262 116.188 118.482H119.425C119.486 118.971 119.723 119.377 120.136 119.698C120.565 120.02 121.093 120.18 121.72 120.18C122.332 120.18 122.807 120.058 123.143 119.813C123.495 119.568 123.671 119.255 123.671 118.872C123.671 118.459 123.457 118.153 123.029 117.954C122.615 117.739 121.95 117.51 121.031 117.265C120.083 117.035 119.302 116.798 118.69 116.553C118.093 116.309 117.573 115.934 117.129 115.429C116.7 114.924 116.486 114.242 116.486 113.385C116.486 112.681 116.685 112.039 117.083 111.457C117.496 110.876 118.078 110.416 118.828 110.08C119.593 109.743 120.488 109.575 121.514 109.575C123.029 109.575 124.238 109.957 125.141 110.723C126.044 111.472 126.541 112.49 126.633 113.776H123.557C123.511 113.271 123.296 112.873 122.914 112.582C122.547 112.276 122.049 112.123 121.422 112.123C120.84 112.123 120.389 112.23 120.067 112.444C119.761 112.659 119.608 112.957 119.608 113.34C119.608 113.768 119.822 114.097 120.251 114.327C120.68 114.541 121.345 114.763 122.248 114.992C123.166 115.222 123.924 115.459 124.521 115.704C125.118 115.949 125.63 116.331 126.059 116.852C126.503 117.357 126.732 118.03 126.748 118.872C126.748 119.607 126.541 120.265 126.128 120.846C125.73 121.428 125.148 121.887 124.383 122.224C123.633 122.545 122.753 122.706 121.743 122.706Z" fill="white"/>
<path d="M67.291 85.8633H2.88781" stroke="white" stroke-width="1.39816" stroke-linecap="round"/>
<path d="M67.291 71.418H16.0852" stroke="white" stroke-width="1.39816" stroke-linecap="round"/>
<path d="M67.291 56.9697H16.0852" stroke="white" stroke-width="1.39816" stroke-linecap="round"/>
<path d="M67.291 42.0566H16.0852" stroke="white" stroke-width="1.39816" stroke-linecap="round"/>
<path d="M67.291 27.6084L16.0852 27.6084" stroke="white" stroke-width="1.39816" stroke-linecap="round"/>
<path d="M67.291 1.50977L2.88781 1.50977" stroke="white" stroke-width="1.86421" stroke-linecap="round"/>
<path d="M67.291 78.875H16.0852" stroke="white" stroke-width="1.39816" stroke-linecap="round"/>
<path d="M67.291 64.4258H16.0852" stroke="white" stroke-width="1.39816" stroke-linecap="round"/>
<path d="M67.291 49.5127H16.0852" stroke="white" stroke-width="1.39816" stroke-linecap="round"/>
<path d="M67.291 35.0645H16.0852" stroke="white" stroke-width="1.39816" stroke-linecap="round"/>
<path d="M67.291 20.1533L16.0852 20.1533" stroke="white" stroke-width="1.39816" stroke-linecap="round"/>
<path d="M67.291 8.96582L16.0852 8.96582" stroke="white" stroke-width="1.86421" stroke-linecap="round"/>
<path d="M67.291 82.6035H2.88781" stroke="white" stroke-width="1.86421" stroke-linecap="round"/>
<path d="M67.291 68.1553H16.0852" stroke="white" stroke-width="1.86421" stroke-linecap="round"/>
<path d="M67.291 53.2422H16.0852" stroke="white" stroke-width="1.86421" stroke-linecap="round"/>
<path d="M67.291 38.7939H16.0852" stroke="white" stroke-width="1.86421" stroke-linecap="round"/>
<path d="M67.291 23.8809L16.0852 23.8809" stroke="white" stroke-width="1.86421" stroke-linecap="round"/>
<path d="M67.291 5.2373L2.88781 5.2373" stroke="white" stroke-width="1.39816" stroke-linecap="round"/>
<path d="M67.291 75.1445H16.0852" stroke="white" stroke-width="1.86421" stroke-linecap="round"/>
<path d="M67.291 60.6973H16.0852" stroke="white" stroke-width="1.86421" stroke-linecap="round"/>
<path d="M67.291 45.7852H16.0852" stroke="white" stroke-width="1.86421" stroke-linecap="round"/>
<path d="M16.0865 31.3371H67.385L152.31 31.3371C156.27 31.3371 158.426 35.9639 155.878 38.9959L132.773 66.493C131.887 67.5468 130.581 68.1553 129.205 68.1553L79.1687 68.1553C75.5789 68.1553 73.3368 64.2674 75.1349 61.1604L84.9768 44.1536" stroke="white" stroke-width="4.66052" stroke-linecap="round"/>
<path d="M67.291 16.4238L16.0852 16.4238" stroke="white" stroke-width="1.86421" stroke-linecap="round"/>
<path d="M67.291 12.6953L16.0852 12.6953" stroke="white" stroke-width="1.39816" stroke-linecap="round"/>
<path d="M5.40178 64.9283C5.30484 64.9283 5.20231 64.9339 5.09418 64.9451V67.3947C4.79218 67.376 4.55543 67.2735 4.38392 67.0871C4.21614 66.8969 4.13225 66.6676 4.13225 66.3992C4.13225 66.1792 4.18259 65.9965 4.28325 65.8511C4.38765 65.702 4.5256 65.5976 4.69711 65.5379V64.9898C4.40256 65.0719 4.16208 65.2359 3.97566 65.482C3.79297 65.7281 3.70162 66.0338 3.70162 66.3992C3.70162 66.69 3.76687 66.951 3.89736 67.1822C4.02786 67.4096 4.21241 67.5886 4.45103 67.719C4.69338 67.8495 4.97301 67.9148 5.28993 67.9148C5.60684 67.9148 5.88461 67.8514 6.12323 67.7246C6.36185 67.5979 6.54454 67.4208 6.67131 67.1933C6.8018 66.9622 6.86705 66.6975 6.86705 66.3992C6.86705 66.1084 6.80366 65.8511 6.6769 65.6274C6.55013 65.4037 6.3749 65.2322 6.15119 65.1129C5.93121 64.9898 5.68141 64.9283 5.40178 64.9283ZM5.50804 65.454C5.70192 65.454 5.86783 65.4969 6.00578 65.5827C6.14746 65.6684 6.25372 65.7859 6.32456 65.935C6.39913 66.0804 6.43641 66.2426 6.43641 66.4216C6.43641 66.6788 6.35439 66.8988 6.19034 67.0815C6.02629 67.2605 5.79886 67.363 5.50804 67.3891V65.454ZM5.75971 56.6193C5.73734 56.4776 5.67955 56.3489 5.58634 56.2334C5.49312 56.1141 5.37754 56.0208 5.23959 55.9537C5.10164 55.8829 4.95437 55.8475 4.79777 55.8475C4.60017 55.8475 4.4212 55.8978 4.26088 55.9985C4.10429 56.0991 3.97939 56.2464 3.88618 56.4403C3.79669 56.6304 3.75195 56.856 3.75195 57.117V58.5711H7.65001L7.65001 57.1729C7.65001 56.9082 7.60527 56.6826 7.51579 56.4962C7.43004 56.3098 7.31259 56.17 7.16346 56.0768C7.01432 55.9836 6.84654 55.937 6.66012 55.937C6.42896 55.937 6.23694 56.0003 6.08408 56.1271C5.93494 56.2501 5.82682 56.4142 5.75971 56.6193ZM5.96663 58.0622V57.2065C5.96663 56.9679 6.02256 56.7833 6.13441 56.6528C6.24627 56.5223 6.40099 56.4571 6.5986 56.4571C6.79621 56.4571 6.95094 56.5223 7.06279 56.6528C7.17464 56.7833 7.23057 56.9716 7.23057 57.2177V58.0622H5.96663ZM4.1714 57.1617C4.1714 56.9082 4.23105 56.7106 4.35036 56.5689C4.46967 56.4272 4.63559 56.3564 4.84811 56.3564C5.06436 56.3564 5.234 56.431 5.35704 56.5801C5.4838 56.7292 5.54719 56.9287 5.54719 57.1785V58.0622H4.1714V57.1617ZM6.81671 50.326H3.75195V50.8349H4.20496C4.04836 50.9318 3.92532 51.0679 3.83584 51.2432C3.75009 51.4147 3.70721 51.6048 3.70721 51.8136C3.70721 52.0522 3.75568 52.2666 3.85262 52.4568C3.95329 52.6469 4.10242 52.7979 4.30003 52.9098C4.49764 53.0179 4.73812 53.072 5.02148 53.072H6.81671V52.5686H5.08859C4.78659 52.5686 4.55356 52.4922 4.38951 52.3393C4.22919 52.1865 4.14903 51.9777 4.14903 51.7129C4.14903 51.4408 4.23292 51.2264 4.4007 51.0698C4.56848 50.9132 4.81269 50.8349 5.13333 50.8349H6.81671V50.326ZM3.70162 46.2845C3.70162 46.5194 3.74077 46.73 3.81906 46.9164C3.90109 47.1029 4.01294 47.2501 4.15462 47.3583C4.30003 47.4664 4.46595 47.526 4.65237 47.5372V47.0115C4.4995 46.9966 4.3746 46.9258 4.27766 46.799C4.18072 46.6685 4.13225 46.4989 4.13225 46.2901C4.13225 46.0962 4.17513 45.9433 4.26088 45.8315C4.34664 45.7196 4.45476 45.6637 4.58525 45.6637C4.71948 45.6637 4.81828 45.7233 4.88166 45.8427C4.94878 45.962 5.01402 46.1465 5.07741 46.3963C5.13706 46.6238 5.19672 46.8102 5.25637 46.9556C5.31975 47.0973 5.4111 47.2203 5.53041 47.3247C5.65345 47.4254 5.81377 47.4757 6.01137 47.4757C6.16797 47.4757 6.31151 47.4291 6.44201 47.3359C6.5725 47.2427 6.67503 47.1103 6.7496 46.9388C6.8279 46.7673 6.86705 46.5716 6.86705 46.3516C6.86705 46.0123 6.78129 45.7383 6.60979 45.5295C6.43828 45.3207 6.20339 45.2088 5.90512 45.1939V45.7028C6.06544 45.714 6.19407 45.7793 6.29101 45.8986C6.38795 46.0142 6.43641 46.1708 6.43641 46.3684C6.43641 46.5511 6.39727 46.6965 6.31897 46.8046C6.24067 46.9127 6.13814 46.9668 6.01137 46.9668C5.91071 46.9668 5.82682 46.9351 5.75971 46.8717C5.69632 46.8046 5.64413 46.7226 5.60311 46.6256C5.56583 46.525 5.52295 46.387 5.47448 46.2118C5.41483 45.9918 5.35517 45.8128 5.29552 45.6749C5.23959 45.5369 5.15384 45.4195 5.03826 45.3225C4.92268 45.2219 4.77168 45.1697 4.58525 45.1659C4.41748 45.1659 4.26647 45.2126 4.13225 45.3058C3.99803 45.399 3.89177 45.5313 3.81347 45.7028C3.7389 45.8706 3.70162 46.0645 3.70162 46.2845ZM7.31446 42.0874C7.31446 42.1844 7.34801 42.2664 7.41512 42.3335C7.48224 42.4006 7.56426 42.4342 7.6612 42.4342C7.75814 42.4342 7.84016 42.4006 7.90728 42.3335C7.97439 42.2664 8.00794 42.1844 8.00794 42.0874C8.00794 41.9942 7.97439 41.9159 7.90728 41.8525C7.84016 41.7854 7.75814 41.7519 7.6612 41.7519C7.56426 41.7519 7.48224 41.7854 7.41512 41.8525C7.34801 41.9159 7.31446 41.9942 7.31446 42.0874ZM6.81671 41.8413H3.75195V42.3503H6.81671V41.8413ZM6.87264 37.3835C6.87264 37.0107 6.75892 36.7087 6.53149 36.4775C6.30778 36.2463 5.98341 36.1307 5.55837 36.1307H3.75195L3.75195 36.6341H5.48567C5.7914 36.6341 6.02442 36.7105 6.18475 36.8634C6.3488 37.0162 6.43082 37.225 6.43082 37.4898C6.43082 37.7582 6.34693 37.9726 6.17915 38.1329C6.01137 38.2895 5.76716 38.3678 5.44652 38.3678H3.75195V38.8767H6.81671V38.3678H6.38049C6.53708 38.2671 6.65826 38.131 6.74401 37.9595C6.82976 37.7843 6.87264 37.5923 6.87264 37.3835ZM5.40178 30.4059C5.30484 30.4059 5.20231 30.4115 5.09418 30.4226V32.8722C4.79218 32.8536 4.55543 32.751 4.38392 32.5646C4.21614 32.3745 4.13225 32.1452 4.13225 31.8767C4.13225 31.6568 4.18259 31.4741 4.28325 31.3286C4.38765 31.1795 4.5256 31.0751 4.69711 31.0155V30.4674C4.40256 30.5494 4.16208 30.7135 3.97566 30.9595C3.79297 31.2056 3.70162 31.5113 3.70162 31.8767C3.70162 32.1675 3.76687 32.4285 3.89736 32.6597C4.02786 32.8871 4.21241 33.0661 4.45103 33.1966C4.69338 33.3271 4.97301 33.3923 5.28993 33.3923C5.60684 33.3923 5.88461 33.3289 6.12323 33.2022C6.36185 33.0754 6.54454 32.8983 6.67131 32.6709C6.8018 32.4397 6.86705 32.175 6.86705 31.8767C6.86705 31.5859 6.80366 31.3286 6.6769 31.1049C6.55013 30.8812 6.3749 30.7097 6.15119 30.5904C5.93121 30.4674 5.68141 30.4059 5.40178 30.4059ZM5.50804 30.9316C5.70192 30.9316 5.86783 30.9744 6.00578 31.0602C6.14746 31.146 6.25372 31.2634 6.32456 31.4125C6.39913 31.5579 6.43641 31.7201 6.43641 31.8991C6.43641 32.1564 6.35439 32.3763 6.19034 32.559C6.02629 32.738 5.79886 32.8405 5.50804 32.8666V30.9316ZM3.70162 26.5519C3.70162 26.7868 3.74077 26.9974 3.81906 27.1839C3.90109 27.3703 4.01294 27.5175 4.15462 27.6257C4.30003 27.7338 4.46595 27.7935 4.65237 27.8046V27.2789C4.4995 27.264 4.3746 27.1932 4.27766 27.0664C4.18072 26.9359 4.13225 26.7663 4.13225 26.5575C4.13225 26.3636 4.17513 26.2107 4.26088 26.0989C4.34664 25.987 4.45476 25.9311 4.58525 25.9311C4.71948 25.9311 4.81828 25.9908 4.88166 26.1101C4.94878 26.2294 5.01402 26.4139 5.07741 26.6637C5.13706 26.8912 5.19672 27.0776 5.25637 27.223C5.31975 27.3647 5.4111 27.4877 5.53041 27.5921C5.65345 27.6928 5.81377 27.7431 6.01137 27.7431C6.16797 27.7431 6.31151 27.6965 6.44201 27.6033C6.5725 27.5101 6.67503 27.3777 6.7496 27.2062C6.8279 27.0347 6.86705 26.839 6.86705 26.619C6.86705 26.2797 6.78129 26.0057 6.60979 25.7969C6.43828 25.5881 6.20339 25.4762 5.90512 25.4613V25.9703C6.06544 25.9814 6.19407 26.0467 6.29101 26.166C6.38795 26.2816 6.43641 26.4382 6.43641 26.6358C6.43641 26.8185 6.39727 26.9639 6.31897 27.072C6.24067 27.1801 6.13814 27.2342 6.01137 27.2342C5.91071 27.2342 5.82682 27.2025 5.75971 27.1391C5.69632 27.072 5.64413 26.99 5.60311 26.893C5.56583 26.7924 5.52295 26.6544 5.47448 26.4792C5.41483 26.2592 5.35517 26.0802 5.29552 25.9423C5.23959 25.8043 5.15384 25.6869 5.03826 25.59C4.92268 25.4893 4.77168 25.4371 4.58525 25.4334C4.41748 25.4334 4.26647 25.48 4.13225 25.5732C3.99803 25.6664 3.89177 25.7987 3.81347 25.9703C3.7389 26.138 3.70162 26.3319 3.70162 26.5519ZM3.70162 21.5327C3.70162 21.7676 3.74077 21.9783 3.81906 22.1647C3.90109 22.3511 4.01294 22.4984 4.15462 22.6065C4.30003 22.7146 4.46595 22.7743 4.65237 22.7855V22.2598C4.4995 22.2449 4.3746 22.174 4.27766 22.0472C4.18072 21.9167 4.13225 21.7471 4.13225 21.5383C4.13225 21.3444 4.17513 21.1916 4.26088 21.0797C4.34664 20.9679 4.45476 20.9119 4.58525 20.9119C4.71948 20.9119 4.81828 20.9716 4.88166 21.0909C4.94878 21.2102 5.01402 21.3948 5.07741 21.6446C5.13706 21.872 5.19672 22.0584 5.25637 22.2038C5.31975 22.3455 5.4111 22.4686 5.53041 22.573C5.65345 22.6736 5.81377 22.724 6.01137 22.724C6.16797 22.724 6.31151 22.6773 6.44201 22.5841C6.5725 22.4909 6.67503 22.3586 6.7496 22.1871C6.8279 22.0156 6.86705 21.8198 6.86705 21.5998C6.86705 21.2605 6.78129 20.9865 6.60979 20.7777C6.43828 20.5689 6.20339 20.4571 5.90512 20.4422V20.9511C6.06544 20.9623 6.19407 21.0275 6.29101 21.1468C6.38795 21.2624 6.43641 21.419 6.43641 21.6166C6.43641 21.7993 6.39727 21.9447 6.31897 22.0528C6.24067 22.161 6.13814 22.215 6.01137 22.215C5.91071 22.215 5.82682 22.1833 5.75971 22.1199C5.69632 22.0528 5.64413 21.9708 5.60311 21.8739C5.56583 21.7732 5.52295 21.6353 5.47448 21.46C5.41483 21.24 5.35517 21.0611 5.29552 20.9231C5.23959 20.7852 5.15384 20.6677 5.03826 20.5708C4.92268 20.4701 4.77168 20.4179 4.58525 20.4142C4.41748 20.4142 4.26647 20.4608 4.13225 20.554C3.99803 20.6472 3.89177 20.7796 3.81347 20.9511C3.7389 21.1189 3.70162 21.3127 3.70162 21.5327Z" fill="white"/>
<path d="M107.926 71.9628C107.926 78.0478 102.243 83.4409 94.6277 83.4409C87.0129 83.4409 81.3294 78.0478 81.3294 71.9628C81.3294 65.8777 87.0129 60.4846 94.6277 60.4846C102.243 60.4846 107.926 65.8777 107.926 71.9628Z" fill="#1B47C1" stroke="white" stroke-width="4.47905"/>
<ellipse cx="124.054" cy="79.2815" rx="6.07079" ry="5.3596" fill="white"/>
<path d="M74.8886 4.18809C74.8886 3.93083 74.9333 3.69966 75.0228 3.4946C75.116 3.29327 75.2428 3.13481 75.4031 3.01923C75.5672 2.90365 75.7554 2.84399 75.968 2.84026V3.38275C75.7853 3.40139 75.6305 3.47596 75.5038 3.60645C75.3807 3.74068 75.3192 3.93456 75.3192 4.18809C75.3192 4.43043 75.3789 4.62058 75.4982 4.75854C75.6212 4.90022 75.7778 4.97106 75.968 4.97106C76.1171 4.97106 76.2383 4.93004 76.3315 4.84802C76.4247 4.76599 76.4955 4.66346 76.544 4.54042C76.5925 4.41739 76.6447 4.25147 76.7006 4.04268C76.7677 3.78542 76.8348 3.57849 76.9019 3.4219C76.969 3.26903 77.0734 3.13667 77.2151 3.02482C77.3605 2.9167 77.5544 2.86263 77.7968 2.86263C78.0093 2.86263 78.1976 2.9167 78.3616 3.02482C78.5257 3.13295 78.6524 3.28395 78.7419 3.47782C78.8314 3.67543 78.8761 3.901 78.8761 4.15453C78.8761 4.51992 78.7848 4.81819 78.6021 5.04935C78.4194 5.28424 78.1771 5.4166 77.875 5.44643V4.88717C78.0242 4.86852 78.1547 4.79023 78.2665 4.65228C78.3821 4.51432 78.4399 4.33163 78.4399 4.1042C78.4399 3.89168 78.384 3.71831 78.2721 3.58408C78.164 3.44986 78.0111 3.38275 77.8135 3.38275C77.6719 3.38275 77.5563 3.4219 77.4668 3.50019C77.3773 3.58222 77.3083 3.68102 77.2599 3.7966C77.2151 3.91591 77.1629 4.08183 77.1033 4.29435C77.0324 4.55161 76.9616 4.75854 76.8907 4.91513C76.8236 5.07172 76.7174 5.20595 76.572 5.3178C76.4303 5.42965 76.2364 5.48558 75.9903 5.48558C75.8002 5.48558 75.6212 5.43524 75.4534 5.33458C75.2857 5.23391 75.1496 5.08477 75.0452 4.88717C74.9408 4.68956 74.8886 4.45653 74.8886 4.18809ZM78.8258 11.335H74.9277V10.8261H76.695V8.84067H74.9277V8.33174H78.8258V8.84067H77.1145V10.8261H78.8258V11.335ZM74.8886 16.0685C74.8886 15.7068 74.9725 15.3769 75.1403 15.0786C75.3118 14.7803 75.5485 14.5436 75.8505 14.3683C76.1562 14.1968 76.4993 14.1111 76.8796 14.1111C77.2599 14.1111 77.601 14.1968 77.903 14.3683C78.2087 14.5436 78.4455 14.7803 78.6133 15.0786C78.7848 15.3769 78.8705 15.7068 78.8705 16.0685C78.8705 16.4339 78.7848 16.7657 78.6133 17.064C78.4455 17.3623 78.2106 17.5971 77.9086 17.7686C77.6066 17.9402 77.2636 18.0259 76.8796 18.0259C76.4955 18.0259 76.1525 17.9402 75.8505 17.7686C75.5485 17.5971 75.3118 17.3623 75.1403 17.064C74.9725 16.7657 74.8886 16.4339 74.8886 16.0685ZM75.3304 16.0685C75.3304 16.3407 75.3938 16.5849 75.5206 16.8011C75.6473 17.0211 75.8281 17.1926 76.063 17.3156C76.2979 17.4424 76.5701 17.5058 76.8796 17.5058C77.1927 17.5058 77.4649 17.4424 77.6961 17.3156C77.931 17.1926 78.1118 17.023 78.2386 16.8067C78.3653 16.5905 78.4287 16.3444 78.4287 16.0685C78.4287 15.7926 78.3653 15.5465 78.2386 15.3303C78.1118 15.114 77.931 14.9425 77.6961 14.8157C77.4649 14.6927 77.1927 14.6312 76.8796 14.6312C76.5701 14.6312 76.2979 14.6927 76.063 14.8157C75.8281 14.9425 75.6473 15.114 75.5206 15.3303C75.3938 15.5502 75.3304 15.7963 75.3304 16.0685ZM77.6849 23.4012C77.3605 23.4012 77.0902 23.2893 76.874 23.0656C76.6614 22.8456 76.5552 22.5082 76.5552 22.0533V21.3039H74.9277V20.795H78.8258V22.0533C78.8258 22.4933 78.7195 22.827 78.507 23.0544C78.2945 23.2856 78.0205 23.4012 77.6849 23.4012ZM76.9746 22.0533C76.9746 22.3367 77.0362 22.5455 77.1592 22.6797C77.2822 22.8139 77.4575 22.8811 77.6849 22.8811C78.1659 22.8811 78.4063 22.6052 78.4063 22.0533V21.3039H76.9746V22.0533Z" fill="white"/>
<path d="M85.5959 8.98306L85.3834 9.98973H86.1552V10.4371H85.2883L85.0478 11.5557H84.5613L84.8017 10.4371H83.6273L83.3868 11.5557H82.9002L83.1407 10.4371H82.2627V9.98973H83.2358L83.4483 8.98306H82.5815V8.53564H83.5434L83.7839 7.41712H84.2704L84.03 8.53564H85.2044L85.4449 7.41712H85.9314L85.691 8.53564H86.4683V8.98306H85.5959ZM85.1093 8.98306H83.9349L83.7224 9.98973H84.8968L85.1093 8.98306ZM89.8119 8.07146V9.37454H91.2324V9.79399H89.8119V11.1362H91.4002V11.5557L89.3029 11.5557V7.65201H91.4002V8.07146H89.8119ZM98.2215 7.68557V11.5557H97.7125V8.66987L96.4262 11.5557H96.0683L94.7764 8.66428V11.5557L94.2675 11.5557V7.68557H94.8156L96.2473 10.8845L97.679 7.68557H98.2215ZM103.486 10.6888H101.786L101.473 11.5557H100.936L102.345 7.67997H102.932L104.336 11.5557H103.799L103.486 10.6888ZM103.341 10.275L102.636 8.30635L101.931 10.275H103.341ZM110 8.78731C109.892 8.55988 109.736 8.38464 109.531 8.26161C109.326 8.13484 109.087 8.07146 108.815 8.07146C108.543 8.07146 108.297 8.13484 108.077 8.26161C107.86 8.38464 107.689 8.56361 107.562 8.7985C107.439 9.02966 107.377 9.29811 107.377 9.60384C107.377 9.90957 107.439 10.178 107.562 10.4092C107.689 10.6403 107.86 10.8193 108.077 10.9461C108.297 11.0691 108.543 11.1306 108.815 11.1306C109.195 11.1306 109.508 11.0169 109.754 10.7895C110 10.562 110.144 10.2544 110.185 9.86669L108.63 9.86669V9.45284H110.727V9.84432C110.698 10.165 110.597 10.4595 110.425 10.728C110.254 10.9927 110.028 11.2033 109.749 11.3599C109.469 11.5128 109.158 11.5892 108.815 11.5892C108.453 11.5892 108.123 11.5053 107.825 11.3376C107.527 11.166 107.29 10.9293 107.115 10.6273C106.943 10.3253 106.857 9.98414 106.857 9.60384C106.857 9.22354 106.943 8.88239 107.115 8.58039C107.29 8.27466 107.527 8.0379 107.825 7.87012C108.123 7.69861 108.453 7.61286 108.815 7.61286C109.229 7.61286 109.594 7.71539 109.911 7.92046C110.232 8.12552 110.465 8.41447 110.61 8.78731H110ZM113.928 11.1138L115.83 11.1138V11.5557L113.324 11.5557V11.153L115.215 8.09942H113.347V7.6576H115.819V8.06027L113.928 11.1138Z" fill="white"/>
<path d="M86.6291 19.1251C87.0141 19.1969 87.3305 19.3894 87.5785 19.7026C87.8264 20.0157 87.9504 20.3746 87.9504 20.7791C87.9504 21.1445 87.859 21.4675 87.6763 21.7481C87.5002 22.0221 87.2425 22.2374 86.9032 22.394C86.5639 22.5506 86.1626 22.6289 85.6994 22.6289H82.7534V15.7975H85.5721C86.0354 15.7975 86.4334 15.8725 86.7661 16.0226C87.1054 16.1727 87.3599 16.3815 87.5295 16.649C87.7057 16.9165 87.7938 17.2199 87.7938 17.5592C87.7938 17.9572 87.6861 18.29 87.4708 18.5575C87.262 18.825 86.9815 19.0142 86.6291 19.1251ZM84.1236 18.6162H85.3764C85.7026 18.6162 85.9538 18.5444 86.13 18.4009C86.3062 18.2508 86.3942 18.0388 86.3942 17.7647C86.3942 17.4907 86.3062 17.2786 86.13 17.1286C85.9538 16.9785 85.7026 16.9035 85.3764 16.9035H84.1236V18.6162ZM85.5036 21.5132C85.8364 21.5132 86.0941 21.4349 86.2768 21.2783C86.466 21.1217 86.5606 20.8999 86.5606 20.6128C86.5606 20.3192 86.4627 20.0908 86.267 19.9277C86.0713 19.758 85.807 19.6732 85.4742 19.6732H84.1236V21.5132H85.5036ZM92.7419 15.7975V20.0255C92.7419 20.4888 92.8626 20.8444 93.1041 21.0923C93.3455 21.3337 93.6848 21.4545 94.1219 21.4545C94.5656 21.4545 94.9081 21.3337 95.1496 21.0923C95.391 20.8444 95.5117 20.4888 95.5117 20.0255V15.7975H96.8917V20.0157C96.8917 20.5965 96.7644 21.0891 96.51 21.4936C96.262 21.8916 95.926 22.1917 95.5019 22.394C95.0843 22.5963 94.6178 22.6974 94.1023 22.6974C93.5934 22.6974 93.1302 22.5963 92.7126 22.394C92.3015 22.1917 91.9753 21.8916 91.7339 21.4936C91.4925 21.0891 91.3717 20.5965 91.3717 20.0157V15.7975H92.7419ZM102.923 22.6974C102.447 22.6974 102.016 22.6159 101.631 22.4527C101.253 22.2896 100.953 22.0547 100.731 21.7481C100.509 21.4414 100.395 21.0793 100.388 20.6617H101.856C101.876 20.9423 101.974 21.1641 102.15 21.3272C102.333 21.4903 102.581 21.5719 102.894 21.5719C103.213 21.5719 103.465 21.4969 103.647 21.3468C103.83 21.1902 103.921 20.9879 103.921 20.74C103.921 20.5377 103.859 20.3713 103.735 20.2409C103.611 20.1104 103.455 20.0092 103.266 19.9375C103.083 19.8592 102.829 19.7743 102.502 19.683C102.059 19.5525 101.696 19.4253 101.416 19.3013C101.142 19.1708 100.904 18.9783 100.701 18.7239C100.506 18.4629 100.408 18.1171 100.408 17.6864C100.408 17.2819 100.509 16.9296 100.711 16.6294C100.914 16.3293 101.197 16.1009 101.563 15.9443C101.928 15.7812 102.346 15.6996 102.815 15.6996C103.52 15.6996 104.091 15.8725 104.528 16.2184C104.972 16.5576 105.217 17.0339 105.262 17.6473H103.755C103.742 17.4124 103.641 17.2199 103.452 17.0698C103.269 16.9132 103.024 16.8349 102.718 16.8349C102.45 16.8349 102.235 16.9035 102.072 17.0405C101.915 17.1775 101.837 17.3765 101.837 17.6375C101.837 17.8202 101.895 17.9735 102.013 18.0975C102.137 18.2149 102.287 18.3128 102.463 18.3911C102.646 18.4629 102.9 18.5477 103.227 18.6456C103.67 18.7761 104.032 18.9065 104.313 19.037C104.593 19.1675 104.835 19.3633 105.037 19.6243C105.239 19.8853 105.341 20.2278 105.341 20.6519C105.341 21.0173 105.246 21.3566 105.057 21.6698C104.867 21.983 104.59 22.2342 104.225 22.4234C103.859 22.6061 103.426 22.6974 102.923 22.6974ZM110.248 15.7975V22.6289H108.877V15.7975H110.248ZM119.793 22.6289H118.423L115.32 17.9409V22.6289H113.95V15.7877H115.32L118.423 20.4855V15.7877H119.793V22.6289ZM124.866 16.9035V18.6162H127.166V19.7026H124.866V21.5132H127.46V22.6289H123.496V15.7877L127.46 15.7877V16.9035L124.866 16.9035ZM133.413 22.6974C132.936 22.6974 132.506 22.6159 132.121 22.4527C131.742 22.2896 131.442 22.0547 131.22 21.7481C130.998 21.4414 130.884 21.0793 130.878 20.6617H132.346C132.365 20.9423 132.463 21.1641 132.639 21.3272C132.822 21.4903 133.07 21.5719 133.383 21.5719C133.703 21.5719 133.954 21.4969 134.137 21.3468C134.32 21.1902 134.411 20.9879 134.411 20.74C134.411 20.5377 134.349 20.3713 134.225 20.2409C134.101 20.1104 133.944 20.0092 133.755 19.9375C133.572 19.8592 133.318 19.7743 132.992 19.683C132.548 19.5525 132.186 19.4253 131.905 19.3013C131.631 19.1708 131.393 18.9783 131.191 18.7239C130.995 18.4629 130.897 18.1171 130.897 17.6864C130.897 17.2819 130.998 16.9296 131.201 16.6294C131.403 16.3293 131.687 16.1009 132.052 15.9443C132.418 15.7812 132.835 15.6996 133.305 15.6996C134.01 15.6996 134.581 15.8725 135.018 16.2184C135.461 16.5576 135.706 17.0339 135.752 17.6473H134.245C134.231 17.4124 134.13 17.2199 133.941 17.0698C133.758 16.9132 133.514 16.8349 133.207 16.8349C132.94 16.8349 132.724 16.9035 132.561 17.0405C132.405 17.1775 132.326 17.3765 132.326 17.6375C132.326 17.8202 132.385 17.9735 132.502 18.0975C132.626 18.2149 132.776 18.3128 132.953 18.3911C133.135 18.4629 133.39 18.5477 133.716 18.6456C134.16 18.7761 134.522 18.9065 134.802 19.037C135.083 19.1675 135.324 19.3633 135.527 19.6243C135.729 19.8853 135.83 20.2278 135.83 20.6519C135.83 21.0173 135.735 21.3566 135.546 21.6698C135.357 21.983 135.08 22.2342 134.714 22.4234C134.349 22.6061 133.915 22.6974 133.413 22.6974ZM141.726 22.6974C141.249 22.6974 140.819 22.6159 140.434 22.4527C140.055 22.2896 139.755 22.0547 139.533 21.7481C139.311 21.4414 139.197 21.0793 139.191 20.6617H140.659C140.678 20.9423 140.776 21.1641 140.952 21.3272C141.135 21.4903 141.383 21.5719 141.696 21.5719C142.016 21.5719 142.267 21.4969 142.45 21.3468C142.632 21.1902 142.724 20.9879 142.724 20.74C142.724 20.5377 142.662 20.3713 142.538 20.2409C142.414 20.1104 142.257 20.0092 142.068 19.9375C141.885 19.8592 141.631 19.7743 141.305 19.683C140.861 19.5525 140.499 19.4253 140.218 19.3013C139.944 19.1708 139.706 18.9783 139.504 18.7239C139.308 18.4629 139.21 18.1171 139.21 17.6864C139.21 17.2819 139.311 16.9296 139.514 16.6294C139.716 16.3293 140 16.1009 140.365 15.9443C140.731 15.7812 141.148 15.6996 141.618 15.6996C142.323 15.6996 142.893 15.8725 143.331 16.2184C143.774 16.5576 144.019 17.0339 144.065 17.6473H142.557C142.544 17.4124 142.443 17.2199 142.254 17.0698C142.071 16.9132 141.827 16.8349 141.52 16.8349C141.252 16.8349 141.037 16.9035 140.874 17.0405C140.717 17.1775 140.639 17.3765 140.639 17.6375C140.639 17.8202 140.698 17.9735 140.815 18.0975C140.939 18.2149 141.089 18.3128 141.266 18.3911C141.448 18.4629 141.703 18.5477 142.029 18.6456C142.473 18.7761 142.835 18.9065 143.115 19.037C143.396 19.1675 143.637 19.3633 143.84 19.6243C144.042 19.8853 144.143 20.2278 144.143 20.6519C144.143 21.0173 144.048 21.3566 143.859 21.6698C143.67 21.983 143.393 22.2342 143.027 22.4234C142.662 22.6061 142.228 22.6974 141.726 22.6974Z" fill="white"/>
</svg>
