<svg width="300" height="200" viewBox="0 0 300 200" fill="none" xmlns="http://www.w3.org/2000/svg">
<path d="M125.126 171.58H15.8265" stroke="white" stroke-width="2.37283" stroke-linecap="round"/>
<path d="M125.126 147.061H38.2239" stroke="white" stroke-width="2.37283" stroke-linecap="round"/>
<path d="M125.126 122.542H38.2239" stroke="white" stroke-width="2.37283" stroke-linecap="round"/>
<path d="M125.126 97.2319H38.2239" stroke="white" stroke-width="2.37283" stroke-linecap="round"/>
<path d="M125.126 72.7114H38.2239" stroke="white" stroke-width="2.37283" stroke-linecap="round"/>
<path d="M125.126 28.4199L15.8265 28.4199" stroke="white" stroke-width="3.16377" stroke-linecap="round"/>
<path d="M125.126 159.716H38.2239" stroke="white" stroke-width="2.37283" stroke-linecap="round"/>
<path d="M125.126 135.197H38.2239" stroke="white" stroke-width="2.37283" stroke-linecap="round"/>
<path d="M125.126 109.887H38.2239" stroke="white" stroke-width="2.37283" stroke-linecap="round"/>
<path d="M125.126 85.3682H38.2239" stroke="white" stroke-width="2.37283" stroke-linecap="round"/>
<path d="M125.126 60.0581L38.2239 60.0581" stroke="white" stroke-width="2.37283" stroke-linecap="round"/>
<path d="M125.126 41.0757L38.2239 41.0757" stroke="white" stroke-width="3.16377" stroke-linecap="round"/>
<path d="M125.126 166.044H15.8265" stroke="white" stroke-width="3.16377" stroke-linecap="round"/>
<path d="M125.126 141.526H38.2239" stroke="white" stroke-width="3.16377" stroke-linecap="round"/>
<path d="M125.126 116.214H38.2239" stroke="white" stroke-width="3.16377" stroke-linecap="round"/>
<path d="M125.126 91.6958H38.2239" stroke="white" stroke-width="3.16377" stroke-linecap="round"/>
<path d="M125.126 66.3853H38.2239" stroke="white" stroke-width="3.16377" stroke-linecap="round"/>
<path d="M125.126 34.7471L15.8265 34.7471" stroke="white" stroke-width="2.37283" stroke-linecap="round"/>
<path d="M125.126 153.389H38.2239" stroke="white" stroke-width="3.16377" stroke-linecap="round"/>
<path d="M125.126 128.869H38.2239" stroke="white" stroke-width="3.16377" stroke-linecap="round"/>
<path d="M125.126 103.561H38.2239" stroke="white" stroke-width="3.16377" stroke-linecap="round"/>
<path d="M38.2261 79.0414L125.285 79.0414H269.412C276.133 79.0414 279.792 86.8935 275.468 92.0391L236.255 138.705C234.753 140.493 232.536 141.526 230.2 141.526L145.284 141.526C139.191 141.526 135.386 134.928 138.438 129.655L155.141 100.792" stroke="white" stroke-width="7.90943" stroke-linecap="round"/>
<path d="M125.126 53.7305L38.2239 53.7305" stroke="white" stroke-width="3.16377" stroke-linecap="round"/>
<path d="M125.126 47.4033L38.2239 47.4033" stroke="white" stroke-width="2.37283" stroke-linecap="round"/>
<path d="M21.098 154.975C21.2776 154.975 21.4398 154.986 21.5847 155.009V158.668C21.967 158.639 22.274 158.497 22.5058 158.242C22.7375 157.987 22.8534 157.674 22.8534 157.303C22.8534 156.77 22.6303 156.394 22.1843 156.174V155.105C22.6245 155.25 22.9866 155.513 23.2705 155.896C23.5485 156.272 23.6876 156.741 23.6876 157.303C23.6876 157.761 23.5862 158.172 23.3834 158.537C23.1749 158.897 22.8852 159.18 22.5145 159.389C22.1379 159.592 21.7034 159.693 21.211 159.693C20.7186 159.693 20.287 159.595 19.9162 159.398C19.5397 159.195 19.25 158.914 19.0472 158.555C18.8445 158.19 18.7431 157.773 18.7431 157.303C18.7431 156.852 18.8416 156.449 19.0386 156.096C19.2355 155.742 19.5136 155.467 19.8728 155.27C20.2262 155.073 20.6346 154.975 21.098 154.975ZM20.7852 156.009C20.4202 156.014 20.1277 156.145 19.9075 156.4C19.6874 156.655 19.5773 156.97 19.5773 157.347C19.5773 157.689 19.6874 157.981 19.9075 158.225C20.1219 158.468 20.4144 158.613 20.7852 158.659V156.009ZM20.5071 134.606C20.5651 134.282 20.736 134.007 21.0198 133.781C21.3037 133.555 21.6252 133.442 21.9844 133.442C22.2914 133.442 22.5695 133.523 22.8186 133.685C23.0619 133.841 23.256 134.07 23.4008 134.372C23.5399 134.673 23.6094 135.023 23.6094 135.423V137.839H17.57V135.536C17.57 135.125 17.6395 134.771 17.7785 134.476C17.9176 134.18 18.1058 133.957 18.3434 133.807C18.5751 133.656 18.8358 133.581 19.1254 133.581C19.473 133.581 19.7627 133.673 19.9944 133.859C20.2262 134.044 20.3971 134.293 20.5071 134.606ZM20.1074 136.848V135.623C20.1074 135.298 20.035 135.046 19.8901 134.867C19.7395 134.681 19.5252 134.589 19.2471 134.589C18.9748 134.589 18.7634 134.681 18.6128 134.867C18.4563 135.046 18.3781 135.298 18.3781 135.623V136.848H20.1074ZM22.8012 135.51C22.8012 135.174 22.7201 134.91 22.5579 134.719C22.3957 134.528 22.1698 134.432 21.8801 134.432C21.5847 134.432 21.35 134.534 21.1762 134.736C21.0024 134.939 20.9155 135.209 20.9155 135.545V136.848H22.8012V135.51ZM18.8213 121.077H23.6094L23.6094 122.068H23.0445C23.2415 122.224 23.3979 122.43 23.5138 122.685C23.6239 122.934 23.6789 123.2 23.6789 123.484C23.6789 123.861 23.6007 124.2 23.4443 124.501C23.2879 124.796 23.0561 125.031 22.7491 125.205C22.442 125.373 22.0713 125.457 21.6368 125.457H18.8213V124.475H21.4891C21.9178 124.475 22.248 124.368 22.4797 124.153C22.7056 123.939 22.8186 123.646 22.8186 123.276C22.8186 122.905 22.7056 122.612 22.4797 122.398C22.248 122.178 21.9178 122.068 21.4891 122.068H18.8213V121.077ZM23.6876 111.08C23.6876 111.457 23.621 111.796 23.4877 112.097C23.3487 112.392 23.1633 112.627 22.9316 112.801C22.6941 112.975 22.4305 113.067 22.1408 113.079V112.054C22.3436 112.036 22.5145 111.941 22.6535 111.767C22.7867 111.587 22.8534 111.364 22.8534 111.098C22.8534 110.82 22.8012 110.605 22.6969 110.455C22.5869 110.298 22.4478 110.22 22.2798 110.22C22.1003 110.22 21.967 110.307 21.8801 110.481C21.7932 110.649 21.6976 110.918 21.5933 111.289C21.4949 111.648 21.3993 111.941 21.3066 112.167C21.2139 112.392 21.072 112.589 20.8808 112.757C20.6896 112.92 20.4376 113.001 20.1248 113.001C19.8699 113.001 19.6381 112.925 19.4296 112.775C19.2152 112.624 19.0472 112.41 18.9256 112.132C18.8039 111.848 18.7431 111.524 18.7431 111.159C18.7431 110.614 18.8821 110.177 19.1602 109.846C19.4325 109.51 19.8061 109.331 20.2812 109.308V110.298C20.0668 110.316 19.8959 110.403 19.7685 110.559C19.641 110.715 19.5773 110.927 19.5773 111.193C19.5773 111.454 19.6266 111.654 19.725 111.793C19.8235 111.932 19.9539 112.001 20.1161 112.001C20.2435 112.001 20.3507 111.955 20.4376 111.862C20.5245 111.77 20.594 111.657 20.6462 111.524C20.6925 111.39 20.7533 111.193 20.8286 110.933C20.9213 110.585 21.0169 110.301 21.1154 110.081C21.2081 109.855 21.3471 109.661 21.5325 109.499C21.7179 109.337 21.9641 109.253 22.2711 109.247C22.5434 109.247 22.7867 109.322 23.0011 109.473C23.2154 109.623 23.3834 109.838 23.5051 110.116C23.6268 110.388 23.6876 110.71 23.6876 111.08ZM18.187 100.721C18.187 100.9 18.1261 101.051 18.0045 101.172C17.8828 101.294 17.7322 101.355 17.5526 101.355C17.373 101.355 17.2224 101.294 17.1007 101.172C16.9791 101.051 16.9182 100.9 16.9182 100.721C16.9182 100.547 16.9791 100.399 17.1007 100.277C17.2224 100.156 17.373 100.095 17.5526 100.095C17.7322 100.095 17.8828 100.156 18.0045 100.277C18.1261 100.399 18.187 100.547 18.187 100.721ZM18.8213 100.234H23.6094V101.225H18.8213V100.234ZM18.7431 89.5657C18.7431 89.1892 18.8213 88.8532 18.9777 88.5577C19.1341 88.2565 19.3659 88.0219 19.6729 87.8539C19.9799 87.6859 20.3507 87.6019 20.7852 87.6019H23.6094V88.5838H20.9329C20.5042 88.5838 20.1769 88.691 19.951 88.9053C19.7193 89.1197 19.6034 89.4122 19.6034 89.783C19.6034 90.1537 19.7193 90.4492 19.951 90.6693C20.1769 90.8837 20.5042 90.9909 20.9329 90.9909H23.6094V91.9815H18.8213V90.9909H19.3688C19.1718 90.8287 19.0183 90.623 18.9082 90.3739C18.7981 90.119 18.7431 89.8496 18.7431 89.5657ZM21.098 74.9981C21.2776 74.9981 21.4398 75.0097 21.5847 75.0328V78.6912C21.967 78.6623 22.274 78.5203 22.5058 78.2654C22.7375 78.0105 22.8534 77.6977 22.8534 77.3269C22.8534 76.794 22.6303 76.4174 22.1843 76.1973V75.1284C22.6245 75.2733 22.9866 75.5368 23.2705 75.9192C23.5485 76.2957 23.6876 76.765 23.6876 77.3269C23.6876 77.7846 23.5862 78.1959 23.3834 78.5609C23.1749 78.9201 22.8852 79.2039 22.5145 79.4125C22.1379 79.6152 21.7034 79.7166 21.211 79.7166C20.7186 79.7166 20.287 79.6181 19.9162 79.4212C19.5397 79.2184 19.25 78.9374 19.0472 78.5783C18.8445 78.2133 18.7431 77.7962 18.7431 77.3269C18.7431 76.8751 18.8416 76.4724 19.0386 76.1191C19.2355 75.7657 19.5136 75.4905 19.8728 75.2935C20.2262 75.0966 20.6346 74.9981 21.098 74.9981ZM20.7852 76.0322C20.4202 76.038 20.1277 76.1683 19.9075 76.4232C19.6874 76.6781 19.5773 76.9938 19.5773 77.3704C19.5773 77.7122 19.6874 78.0047 19.9075 78.2481C20.1219 78.4914 20.4144 78.6362 20.7852 78.6825V76.0322ZM23.6876 65.3334C23.6876 65.71 23.621 66.0489 23.4877 66.3501C23.3487 66.6456 23.1633 66.8802 22.9316 67.054C22.6941 67.2278 22.4305 67.3205 22.1408 67.3321V66.3067C22.3436 66.2893 22.5145 66.1937 22.6535 66.0199C22.7867 65.8403 22.8534 65.6173 22.8534 65.3508C22.8534 65.0727 22.8012 64.8584 22.6969 64.7078C22.5869 64.5513 22.4478 64.4731 22.2798 64.4731C22.1003 64.4731 21.967 64.56 21.8801 64.7338C21.7932 64.9018 21.6976 65.1712 21.5933 65.542C21.4949 65.9011 21.3993 66.1937 21.3066 66.4196C21.2139 66.6456 21.072 66.8425 20.8808 67.0105C20.6896 67.1728 20.4376 67.2539 20.1248 67.2539C19.8699 67.2539 19.6381 67.1785 19.4296 67.0279C19.2152 66.8773 19.0472 66.663 18.9256 66.3849C18.8039 66.101 18.7431 65.7766 18.7431 65.4116C18.7431 64.8671 18.8821 64.4297 19.1602 64.0995C19.4325 63.7635 19.8061 63.5839 20.2812 63.5607V64.5513C20.0668 64.5687 19.8959 64.6556 19.7685 64.812C19.641 64.9684 19.5773 65.1799 19.5773 65.4464C19.5773 65.7071 19.6266 65.9069 19.725 66.046C19.8235 66.185 19.9539 66.2545 20.1161 66.2545C20.2435 66.2545 20.3507 66.2082 20.4376 66.1155C20.5245 66.0228 20.594 65.9098 20.6462 65.7766C20.6925 65.6434 20.7533 65.4464 20.8286 65.1857C20.9213 64.8381 21.0169 64.5542 21.1154 64.3341C21.2081 64.1082 21.3471 63.9141 21.5325 63.7519C21.7179 63.5897 21.9641 63.5057 22.2711 63.4999C22.5434 63.4999 22.7867 63.5752 23.0011 63.7258C23.2154 63.8764 23.3834 64.0908 23.5051 64.3689C23.6268 64.6411 23.6876 64.9627 23.6876 65.3334ZM23.6876 53.7397C23.6876 54.1162 23.621 54.4551 23.4877 54.7564C23.3487 55.0518 23.1633 55.2865 22.9316 55.4603C22.6941 55.6341 22.4305 55.7268 22.1408 55.7383V54.7129C22.3436 54.6956 22.5145 54.6 22.6535 54.4262C22.7867 54.2466 22.8534 54.0236 22.8534 53.7571C22.8534 53.479 22.8012 53.2646 22.6969 53.114C22.5869 52.9576 22.4478 52.8794 22.2798 52.8794C22.1003 52.8794 21.967 52.9663 21.8801 53.1401C21.7932 53.3081 21.6976 53.5775 21.5933 53.9482C21.4949 54.3074 21.3993 54.6 21.3066 54.8259C21.2139 55.0518 21.072 55.2488 20.8808 55.4168C20.6896 55.579 20.4376 55.6601 20.1248 55.6601C19.8699 55.6601 19.6381 55.5848 19.4296 55.4342C19.2152 55.2836 19.0472 55.0692 18.9256 54.7912C18.8039 54.5073 18.7431 54.1829 18.7431 53.8179C18.7431 53.2733 18.8821 52.836 19.1602 52.5057C19.4325 52.1697 19.8061 51.9901 20.2812 51.967V52.9576C20.0668 52.975 19.8959 53.0619 19.7685 53.2183C19.641 53.3747 19.5773 53.5862 19.5773 53.8527C19.5773 54.1134 19.6266 54.3132 19.725 54.4523C19.8235 54.5913 19.9539 54.6608 20.1161 54.6608C20.2435 54.6608 20.3507 54.6145 20.4376 54.5218C20.5245 54.4291 20.594 54.3161 20.6462 54.1829C20.6925 54.0496 20.7533 53.8527 20.8286 53.592C20.9213 53.2444 21.0169 52.9605 21.1154 52.7404C21.2081 52.5144 21.3471 52.3204 21.5325 52.1582C21.7179 51.9959 21.9641 51.9119 22.2711 51.9061C22.5434 51.9061 22.7867 51.9815 23.0011 52.1321C23.2154 52.2827 23.3834 52.4971 23.5051 52.7751C23.6268 53.0474 23.6876 53.3689 23.6876 53.7397Z" fill="white"/>
<path d="M194.083 147.985C194.083 158.313 184.437 167.465 171.514 167.465C158.591 167.465 148.945 158.313 148.945 147.985C148.945 137.658 158.591 128.506 171.514 128.506C184.437 128.506 194.083 137.658 194.083 147.985Z" fill="#28A6FF" stroke="white" stroke-width="7.60145"/>
<ellipse cx="221.461" cy="160.406" rx="10.3028" ry="9.09585" fill="white"/>
<path d="M138.212 32.7272C138.212 32.3275 138.281 31.9683 138.42 31.6497C138.565 31.3369 138.762 31.0907 139.011 30.9111C139.266 30.7315 139.559 30.6388 139.889 30.633V31.4759C139.605 31.5049 139.364 31.6208 139.168 31.8235C138.976 32.0321 138.881 32.3333 138.881 32.7272C138.881 33.1038 138.973 33.3993 139.159 33.6136C139.35 33.8337 139.593 33.9438 139.889 33.9438C140.12 33.9438 140.309 33.8801 140.454 33.7526C140.598 33.6252 140.708 33.4659 140.784 33.2747C140.859 33.0835 140.94 32.8257 141.027 32.5013C141.131 32.1016 141.236 31.7801 141.34 31.5367C141.444 31.2992 141.606 31.0936 141.827 30.9198C142.053 30.7518 142.354 30.6678 142.73 30.6678C143.061 30.6678 143.353 30.7518 143.608 30.9198C143.863 31.0878 144.06 31.3224 144.199 31.6236C144.338 31.9307 144.407 32.2812 144.407 32.6751C144.407 33.2428 144.266 33.7063 143.982 34.0655C143.698 34.4304 143.321 34.6361 142.852 34.6824V33.8135C143.084 33.7845 143.286 33.6628 143.46 33.4485C143.64 33.2342 143.73 32.9503 143.73 32.5969C143.73 32.2667 143.643 31.9973 143.469 31.7888C143.301 31.5802 143.063 31.4759 142.756 31.4759C142.536 31.4759 142.357 31.5367 142.218 31.6584C142.079 31.7859 141.971 31.9394 141.896 32.119C141.827 32.3043 141.745 32.5621 141.653 32.8924C141.543 33.2921 141.433 33.6136 141.323 33.8569C141.218 34.1002 141.053 34.3088 140.827 34.4826C140.607 34.6564 140.306 34.7433 139.924 34.7433C139.628 34.7433 139.35 34.6651 139.089 34.5087C138.829 34.3522 138.617 34.1205 138.455 33.8135C138.293 33.5064 138.212 33.1444 138.212 32.7272ZM144.329 43.832H138.272V43.0413H141.018V39.9564H138.272V39.1656H144.329V39.9564H141.67V43.0413H144.329V43.832ZM138.212 51.1869C138.212 50.625 138.342 50.1123 138.603 49.6488C138.869 49.1854 139.237 48.8175 139.706 48.5452C140.181 48.2787 140.714 48.1455 141.305 48.1455C141.896 48.1455 142.426 48.2787 142.895 48.5452C143.37 48.8175 143.738 49.1854 143.999 49.6488C144.266 50.1123 144.399 50.625 144.399 51.1869C144.399 51.7546 144.266 52.2702 143.999 52.7337C143.738 53.1972 143.373 53.5621 142.904 53.8286C142.435 54.0951 141.902 54.2283 141.305 54.2283C140.708 54.2283 140.176 54.0951 139.706 53.8286C139.237 53.5621 138.869 53.1972 138.603 52.7337C138.342 52.2702 138.212 51.7546 138.212 51.1869ZM138.898 51.1869C138.898 51.6098 138.997 51.9893 139.194 52.3253C139.391 52.6671 139.672 52.9336 140.036 53.1247C140.401 53.3217 140.824 53.4202 141.305 53.4202C141.792 53.4202 142.215 53.3217 142.574 53.1247C142.939 52.9336 143.22 52.67 143.417 52.334C143.614 51.998 143.712 51.6156 143.712 51.1869C143.712 50.7582 143.614 50.3759 143.417 50.0399C143.22 49.7039 142.939 49.4374 142.574 49.2404C142.215 49.0492 141.792 48.9536 141.305 48.9536C140.824 48.9536 140.401 49.0492 140.036 49.2404C139.672 49.4374 139.391 49.7039 139.194 50.0399C138.997 50.3817 138.898 50.764 138.898 51.1869ZM142.557 62.5804C142.053 62.5804 141.633 62.4066 141.297 62.059C140.966 61.7172 140.801 61.1929 140.801 60.4861V59.3217H138.272V58.5309H144.329V60.4861C144.329 61.1697 144.164 61.6882 143.834 62.0416C143.504 62.4008 143.078 62.5804 142.557 62.5804ZM141.453 60.4861C141.453 60.9264 141.549 61.2508 141.74 61.4594C141.931 61.6679 142.203 61.7722 142.557 61.7722C143.304 61.7722 143.678 61.3435 143.678 60.4861V59.3217H141.453V60.4861Z" fill="white"/>
<path d="M155.685 41.2923L155.354 42.8564H156.554V43.5516H155.207L154.833 45.2896H154.077L154.451 43.5516H152.626L152.252 45.2896H151.496L151.87 43.5516H150.506V42.8564H152.018L152.348 41.2923H151.001V40.5971H152.495L152.869 38.8591H153.625L153.251 40.5971H155.076L155.45 38.8591H156.206L155.832 40.5971H157.04V41.2923H155.685ZM154.929 41.2923H153.104L152.774 42.8564H154.598L154.929 41.2923ZM165.789 42.7261C165.789 42.8767 165.781 43.036 165.763 43.204H161.957C161.986 43.6733 162.146 44.0411 162.435 44.3076C162.731 44.5683 163.087 44.6986 163.504 44.6986C163.846 44.6986 164.13 44.6204 164.356 44.464C164.587 44.3018 164.75 44.0875 164.842 43.821H165.694C165.566 44.2786 165.312 44.6523 164.929 44.942C164.547 45.2258 164.072 45.3678 163.504 45.3678C163.052 45.3678 162.647 45.2664 162.287 45.0636C161.934 44.8609 161.656 44.5741 161.453 44.2033C161.251 43.8268 161.149 43.3923 161.149 42.8999C161.149 42.4074 161.248 41.9758 161.445 41.6051C161.642 41.2343 161.917 40.9505 162.27 40.7535C162.629 40.5507 163.041 40.4493 163.504 40.4493C163.956 40.4493 164.356 40.5478 164.703 40.7448C165.051 40.9418 165.317 41.214 165.503 41.5616C165.694 41.9034 165.789 42.2916 165.789 42.7261ZM164.973 42.561C164.973 42.2597 164.906 42.0019 164.773 41.7876C164.64 41.5674 164.457 41.4023 164.225 41.2923C163.999 41.1764 163.747 41.1185 163.469 41.1185C163.07 41.1185 162.728 41.2459 162.444 41.5008C162.166 41.7557 162.007 42.1091 161.966 42.561H164.973ZM176.236 39.2762V45.2896H175.445V40.8056L173.446 45.2896H172.89L170.883 40.7969V45.2896H170.092V39.2762H170.944L173.168 44.2468L175.393 39.2762H176.236ZM184.416 43.9426H181.774L181.287 45.2896H180.453L182.643 39.2675H183.555L185.736 45.2896H184.902L184.416 43.9426ZM184.19 43.2996L183.095 40.2408L182 43.2996H184.19ZM194.538 40.9881C194.37 40.6347 194.126 40.3624 193.808 40.1713C193.489 39.9743 193.118 39.8758 192.695 39.8758C192.272 39.8758 191.89 39.9743 191.548 40.1713C191.212 40.3624 190.946 40.6405 190.749 41.0055C190.558 41.3647 190.462 41.7818 190.462 42.2568C190.462 42.7319 190.558 43.149 190.749 43.5081C190.946 43.8673 191.212 44.1454 191.548 44.3424C191.89 44.5335 192.272 44.6291 192.695 44.6291C193.286 44.6291 193.773 44.4524 194.155 44.0991C194.538 43.7457 194.761 43.2677 194.824 42.6652H192.409V42.0222H195.667V42.6305C195.621 43.1287 195.465 43.5864 195.198 44.0035C194.932 44.4148 194.581 44.7421 194.147 44.9854C193.712 45.2229 193.228 45.3417 192.695 45.3417C192.133 45.3417 191.621 45.2113 191.157 44.9506C190.694 44.6842 190.326 44.3163 190.054 43.847C189.787 43.3778 189.654 42.8477 189.654 42.2568C189.654 41.6659 189.787 41.1358 190.054 40.6666C190.326 40.1915 190.694 39.8237 191.157 39.563C191.621 39.2965 192.133 39.1633 192.695 39.1633C193.338 39.1633 193.906 39.3226 194.399 39.6412C194.897 39.9598 195.259 40.4088 195.485 40.9881H194.538ZM200.641 44.6031H203.595V45.2896H199.702V44.6639L202.639 39.9193H199.737V39.2328H203.578V39.8584L200.641 44.6031Z" fill="white"/>
<path d="M157.57 57.9344C158.191 58.0503 158.703 58.3612 159.103 58.8671C159.503 59.3729 159.704 59.9526 159.704 60.606C159.704 61.1962 159.556 61.7178 159.261 62.171C158.977 62.6136 158.56 62.9614 158.012 63.2144C157.464 63.4673 156.816 63.5938 156.068 63.5938H151.31V52.5596H155.862C156.611 52.5596 157.253 52.6808 157.791 52.9232C158.339 53.1656 158.75 53.5028 159.024 53.9349C159.309 54.367 159.451 54.857 159.451 55.4051C159.451 56.0479 159.277 56.5854 158.929 57.0175C158.592 57.4496 158.139 57.7552 157.57 57.9344ZM153.523 57.1124H155.546C156.073 57.1124 156.479 56.9964 156.763 56.7646C157.048 56.5222 157.19 56.1797 157.19 55.737C157.19 55.2944 157.048 54.9519 156.763 54.7095C156.479 54.4671 156.073 54.3459 155.546 54.3459H153.523V57.1124ZM155.752 61.7916C156.289 61.7916 156.705 61.6651 157 61.4122C157.306 61.1593 157.459 60.801 157.459 60.3372C157.459 59.863 157.301 59.4941 156.985 59.2307C156.669 58.9567 156.242 58.8197 155.704 58.8197H153.523V61.7916H155.752ZM167.443 52.5596V59.3888C167.443 60.137 167.638 60.7114 168.028 61.1119C168.418 61.5018 168.966 61.6968 169.672 61.6968C170.389 61.6968 170.942 61.5018 171.332 61.1119C171.722 60.7114 171.917 60.137 171.917 59.3888V52.5596H174.146V59.3729C174.146 60.3109 173.94 61.1066 173.529 61.76C173.129 62.4029 172.586 62.8876 171.901 63.2144C171.227 63.5411 170.473 63.7044 169.64 63.7044C168.818 63.7044 168.07 63.5411 167.396 63.2144C166.732 62.8876 166.205 62.4029 165.815 61.76C165.425 61.1066 165.23 60.3109 165.23 59.3729V52.5596H167.443ZM183.888 63.7044C183.119 63.7044 182.423 63.5727 181.801 63.3092C181.19 63.0457 180.705 62.6663 180.347 62.171C179.989 61.6757 179.804 61.0908 179.794 60.4163H182.165C182.196 60.8695 182.354 61.2278 182.639 61.4913C182.934 61.7547 183.335 61.8865 183.84 61.8865C184.357 61.8865 184.763 61.7653 185.058 61.5229C185.353 61.2699 185.5 60.9432 185.5 60.5428C185.5 60.216 185.4 59.9473 185.2 59.7365C185 59.5258 184.747 59.3624 184.441 59.2465C184.146 59.12 183.735 58.983 183.208 58.8355C182.491 58.6247 181.907 58.4192 181.453 58.2189C181.011 58.0082 180.626 57.6973 180.299 57.2862C179.983 56.8647 179.825 56.3061 179.825 55.6106C179.825 54.9572 179.989 54.3881 180.315 53.9033C180.642 53.4185 181.1 53.0496 181.691 52.7967C182.281 52.5332 182.955 52.4015 183.714 52.4015C184.852 52.4015 185.774 52.6808 186.48 53.2393C187.197 53.7874 187.592 54.5567 187.666 55.5473H185.232C185.211 55.1679 185.047 54.857 184.742 54.6147C184.446 54.3617 184.051 54.2353 183.556 54.2353C183.124 54.2353 182.776 54.3459 182.513 54.5672C182.26 54.7885 182.133 55.11 182.133 55.5315C182.133 55.8266 182.228 56.0743 182.418 56.2745C182.618 56.4642 182.86 56.6223 183.145 56.7488C183.44 56.8647 183.851 57.0017 184.378 57.1598C185.095 57.3706 185.679 57.5813 186.133 57.7921C186.586 58.0029 186.976 58.3191 187.302 58.7406C187.629 59.1622 187.793 59.7155 187.793 60.4005C187.793 60.9907 187.64 61.5387 187.334 62.0445C187.028 62.5504 186.581 62.9561 185.99 63.2618C185.4 63.5569 184.699 63.7044 183.888 63.7044ZM195.718 52.5596V63.5938H193.505V52.5596H195.718ZM211.137 63.5938H208.923L203.912 56.0216V63.5938H201.699V52.5438H203.912L208.923 60.1317V52.5438H211.137V63.5938ZM219.331 54.3459V57.1124H223.046V58.8671H219.331V61.7916H223.52V63.5938H217.118V52.5438H223.52V54.3459H219.331ZM233.135 63.7044C232.366 63.7044 231.67 63.5727 231.048 63.3092C230.437 63.0457 229.952 62.6663 229.594 62.171C229.236 61.6757 229.051 61.0908 229.041 60.4163H231.412C231.443 60.8695 231.602 61.2278 231.886 61.4913C232.181 61.7547 232.582 61.8865 233.088 61.8865C233.604 61.8865 234.01 61.7653 234.305 61.5229C234.6 61.2699 234.747 60.9432 234.747 60.5428C234.747 60.216 234.647 59.9473 234.447 59.7365C234.247 59.5258 233.994 59.3624 233.688 59.2465C233.393 59.12 232.982 58.983 232.455 58.8355C231.739 58.6247 231.154 58.4192 230.701 58.2189C230.258 58.0082 229.873 57.6973 229.547 57.2862C229.23 56.8647 229.072 56.3061 229.072 55.6106C229.072 54.9572 229.236 54.3881 229.562 53.9033C229.889 53.4185 230.347 53.0496 230.938 52.7967C231.528 52.5332 232.202 52.4015 232.961 52.4015C234.099 52.4015 235.021 52.6808 235.728 53.2393C236.444 53.7874 236.839 54.5567 236.913 55.5473H234.479C234.458 55.1679 234.294 54.857 233.989 54.6147C233.694 54.3617 233.298 54.2353 232.803 54.2353C232.371 54.2353 232.023 54.3459 231.76 54.5672C231.507 54.7885 231.38 55.11 231.38 55.5315C231.38 55.8266 231.475 56.0743 231.665 56.2745C231.865 56.4642 232.107 56.6223 232.392 56.7488C232.687 56.8647 233.098 57.0017 233.625 57.1598C234.342 57.3706 234.927 57.5813 235.38 57.7921C235.833 58.0029 236.223 58.3191 236.55 58.7406C236.876 59.1622 237.04 59.7155 237.04 60.4005C237.04 60.9907 236.887 61.5387 236.581 62.0445C236.276 62.5504 235.828 62.9561 235.237 63.2618C234.647 63.5569 233.946 63.7044 233.135 63.7044ZM246.562 63.7044C245.793 63.7044 245.097 63.5727 244.475 63.3092C243.864 63.0457 243.379 62.6663 243.021 62.171C242.663 61.6757 242.478 61.0908 242.468 60.4163H244.839C244.871 60.8695 245.029 61.2278 245.313 61.4913C245.608 61.7547 246.009 61.8865 246.515 61.8865C247.031 61.8865 247.437 61.7653 247.732 61.5229C248.027 61.2699 248.175 60.9432 248.175 60.5428C248.175 60.216 248.074 59.9473 247.874 59.7365C247.674 59.5258 247.421 59.3624 247.115 59.2465C246.82 59.12 246.409 58.983 245.882 58.8355C245.166 58.6247 244.581 58.4192 244.128 58.2189C243.685 58.0082 243.3 57.6973 242.974 57.2862C242.657 56.8647 242.499 56.3061 242.499 55.6106C242.499 54.9572 242.663 54.3881 242.989 53.9033C243.316 53.4185 243.775 53.0496 244.365 52.7967C244.955 52.5332 245.629 52.4015 246.388 52.4015C247.526 52.4015 248.449 52.6808 249.155 53.2393C249.871 53.7874 250.267 54.5567 250.34 55.5473H247.906C247.885 55.1679 247.721 54.857 247.416 54.6147C247.121 54.3617 246.725 54.2353 246.23 54.2353C245.798 54.2353 245.45 54.3459 245.187 54.5672C244.934 54.7885 244.807 55.11 244.807 55.5315C244.807 55.8266 244.902 56.0743 245.092 56.2745C245.292 56.4642 245.535 56.6223 245.819 56.7488C246.114 56.8647 246.525 57.0017 247.052 57.1598C247.769 57.3706 248.354 57.5813 248.807 57.7921C249.26 58.0029 249.65 58.3191 249.977 58.7406C250.303 59.1622 250.467 59.7155 250.467 60.4005C250.467 60.9907 250.314 61.5387 250.008 62.0445C249.703 62.5504 249.255 62.9561 248.665 63.2618C248.074 63.5569 247.374 63.7044 246.562 63.7044Z" fill="white"/>
</svg>
