<svg width="62" height="63" viewBox="0 0 62 63" fill="none" xmlns="http://www.w3.org/2000/svg">
<path d="M23.8151 50.4381H13.7716C13.3276 50.4381 12.9019 50.2617 12.5879 49.9478C12.274 49.6339 12.0977 49.2081 12.0977 48.7642V39.414C12.0977 39.1942 12.141 38.9765 12.2251 38.7734C12.3092 38.5703 12.4325 38.3858 12.5879 38.2304L37.6967 13.1216C38.0106 12.8077 38.4364 12.6313 38.8803 12.6313C39.3243 12.6313 39.75 12.8077 40.064 13.1216L49.4141 22.4718C49.728 22.7857 49.9044 23.2115 49.9044 23.6554C49.9044 24.0994 49.728 24.5251 49.4141 24.839L23.8151 50.4381Z" stroke="#F7F7F7" stroke-width="3.34783" stroke-linecap="round" stroke-linejoin="round"/>
<path d="M32.1855 18.6333L43.903 30.3507" stroke="#F7F7F7" stroke-width="3.34783" stroke-linecap="round" stroke-linejoin="round"/>
<path d="M48.9228 50.4381H23.814L12.2031 38.8271" stroke="#F7F7F7" stroke-width="3.34783" stroke-linecap="round" stroke-linejoin="round"/>
</svg>
