<svg width="63" height="63" viewBox="0 0 63 63" fill="none" xmlns="http://www.w3.org/2000/svg">
<path d="M29.0753 39.6127H24.7066C24.5135 39.6127 24.3283 39.536 24.1918 39.3994C24.0552 39.2629 23.9785 39.0777 23.9785 38.8846V34.8175C23.9785 34.7219 23.9973 34.6272 24.0339 34.5389C24.0705 34.4506 24.1242 34.3703 24.1918 34.3027L35.1134 23.3811C35.2499 23.2446 35.4351 23.1678 35.6282 23.1678C35.8213 23.1678 36.0065 23.2446 36.143 23.3811L40.2101 27.4481C40.3466 27.5847 40.4233 27.7699 40.4233 27.963C40.4233 28.1561 40.3466 28.3413 40.2101 28.4778L29.0753 39.6127Z" stroke="white" stroke-width="1.45621" stroke-linecap="round" stroke-linejoin="round"/>
<path d="M32.7158 25.7778L37.8126 30.8746" stroke="white" stroke-width="1.45621" stroke-linecap="round" stroke-linejoin="round"/>
</svg>
