<svg width="109" height="129" viewBox="0 0 109 129" fill="none" xmlns="http://www.w3.org/2000/svg">
<path d="M16.2392 72.9265C15.7984 72.5686 15.5508 72.0833 15.5508 71.5772V58.0723H32.4183V71.5772C32.4183 72.0833 32.1707 72.5686 31.73 72.9265C31.2892 73.2844 30.6915 73.4854 30.0682 73.4854H17.9009C17.2776 73.4854 16.6799 73.2844 16.2392 72.9265Z" fill="url(#paint0_linear_34_102)"/>
<path d="M32.2104 25.7908C32.3485 26.0392 32.4193 26.3088 32.4183 26.5813V47.3767H15.5508V17.9243C15.5507 17.5575 15.6808 17.1984 15.9255 16.8901C16.1703 16.5817 16.5193 16.3372 16.9308 16.1858C17.3423 16.0344 17.7989 15.9825 18.2458 16.0363C18.6927 16.0901 19.1109 16.2474 19.4506 16.4892L31.6179 25.1411C31.8702 25.3208 32.0723 25.5424 32.2104 25.7908Z" fill="url(#paint1_linear_34_102)"/>
<path d="M35.986 28.6044C32.5713 32.7692 27.383 35.7638 21.4163 37.0139L16.0078 33.2053C15.5639 32.8939 15.2826 32.4572 15.2207 31.9835V18.0683C15.2186 17.7476 15.3183 17.4319 15.5102 17.1517C15.7021 16.8714 15.9797 16.636 16.3163 16.4682L16.4422 16.412L16.6311 16.3404C16.7471 16.2996 16.8671 16.2672 16.99 16.2433H17.1789H17.3237H17.3804C17.5916 16.2281 17.8044 16.2419 18.01 16.2842H18.1107L18.2052 16.3097H18.3059L18.4444 16.3557L18.5893 16.412C18.6529 16.4389 18.7139 16.4697 18.7719 16.504L18.8978 16.5756L19.0363 16.6625L19.5778 17.0459L35.986 28.6044Z" fill="url(#paint2_linear_34_102)"/>
<path d="M52.4741 88.5995H104.207V44.996M0.741181 44.996V1.39258H52.4741" stroke="white" stroke-width="0.802388"/>
<path d="M88.5613 72.3075C88.6794 72.0759 88.7402 71.8278 88.7402 71.5772V58.2168H71.8662V71.5772C71.8662 71.8282 71.9272 72.0768 72.0457 72.3087C72.1642 72.5405 72.3379 72.7511 72.5568 72.9284C72.7757 73.1056 73.0356 73.2461 73.3215 73.3416C73.6073 73.4372 73.9136 73.4861 74.2228 73.4854H86.39C86.6987 73.4854 87.0043 73.4361 87.2895 73.3402C87.5746 73.2443 87.8337 73.1037 88.052 72.9265C88.2702 72.7493 88.4432 72.539 88.5613 72.3075Z" fill="url(#paint3_linear_34_102)"/>
<path d="M72.0777 25.7903C71.9386 26.0387 71.8664 26.3084 71.8662 26.5813V47.2322H88.7402V17.9243C88.7403 17.5575 88.6102 17.1984 88.3654 16.8901C88.1207 16.5817 87.7716 16.3372 87.3601 16.1858C86.9486 16.0344 86.4922 15.9825 86.0453 16.0363C85.5984 16.0901 85.18 16.2474 84.8404 16.4892L72.6731 25.1411C72.4199 25.3206 72.2169 25.5419 72.0777 25.7903Z" fill="url(#paint4_linear_34_102)"/>
<g filter="url(#filter0_d_34_102)">
<path d="M55.8654 33.1283L49.1927 34.5166C48.1805 34.7272 47.1204 34.7345 46.104 34.5379C45.0875 34.3413 44.1453 33.9467 43.3587 33.3883L19.4468 16.4902C19.1062 16.247 18.6865 16.0888 18.2378 16.0345C17.7892 15.9803 17.3308 16.0323 16.9177 16.1844C16.5046 16.3365 16.1544 16.5821 15.9089 16.8918C15.6635 17.2015 15.5334 17.5621 15.5342 17.9304V31.8961C15.5351 32.1701 15.6081 32.4409 15.7484 32.6902C15.8886 32.9394 16.0929 33.1615 16.3475 33.3415L34.4126 46.0541C34.8425 46.3574 35.3928 46.5243 35.9623 46.5243C36.5318 46.5243 37.0821 46.3574 37.512 46.0541L43.7302 41.6554L55.8654 33.1283Z" fill="white"/>
</g>
<g filter="url(#filter1_d_34_102)">
<path d="M67.6279 28.6609C71.0954 32.8989 76.3715 35.9455 82.44 37.214L87.9472 33.3404C88.3943 33.0238 88.6779 32.5819 88.7413 32.1029V17.9241C88.7455 17.5989 88.6456 17.2785 88.4514 16.9941C88.2572 16.7097 87.9754 16.4712 87.6334 16.3019C87.59 16.2791 87.5452 16.2583 87.499 16.2395L87.3133 16.1667C87.1928 16.126 87.0687 16.0929 86.9419 16.0679L86.7498 16.0367H86.6025H86.5448C86.33 16.0241 86.1141 16.0381 85.9044 16.0783H85.802H85.7059L85.6099 16.1043L85.4626 16.1563C85.4138 16.1722 85.3667 16.1913 85.3218 16.2135L85.136 16.3019L85.008 16.3746C84.9632 16.4058 84.9119 16.4318 84.8671 16.4682L84.3163 16.853L67.6279 28.6609Z" fill="url(#paint5_linear_34_102)"/>
</g>
<g filter="url(#filter2_d_34_102)">
<path fill-rule="evenodd" clip-rule="evenodd" d="M88.7391 17.9404V31.9009C88.739 31.9797 88.733 32.0583 88.7211 32.1361V32.1031C88.6576 32.5821 88.3741 33.024 87.927 33.3406L71.8469 44.665V44.7479L71.8459 44.7487L68.3375 47.2326H41.4046L71.8459 25.7032L84.8136 16.495C85.1552 16.2505 85.5765 16.0914 86.0268 16.0367C86.4772 15.9821 86.9375 16.0342 87.3522 16.1869C87.7669 16.3396 88.1184 16.5863 88.3645 16.8974C88.6106 17.2085 88.7406 17.5707 88.7391 17.9404ZM36.4199 58.2172V65.6192C36.4191 65.9875 36.5493 66.3481 36.7947 66.6578C37.0401 66.9675 37.3905 67.2131 37.8036 67.3652C38.2167 67.5172 38.6749 67.5693 39.1236 67.515C39.5722 67.4608 39.9921 67.3026 40.3327 67.0594L52.8221 58.2172H36.4199Z" fill="#FEFEFE"/>
</g>
<path d="M26.0796 52.9277C26.0796 53.0624 26.0709 53.1842 26.0535 53.2929H23.3078C23.3295 53.5798 23.436 53.8103 23.6274 53.9842C23.8187 54.1581 24.0535 54.2451 24.3317 54.2451C24.7317 54.2451 25.0144 54.0777 25.1796 53.7429H25.9818C25.8731 54.0733 25.6753 54.3451 25.3883 54.5581C25.1057 54.7668 24.7535 54.8712 24.3317 54.8712C23.9882 54.8712 23.6795 54.7951 23.4056 54.6429C23.136 54.4864 22.923 54.269 22.7665 53.9907C22.6143 53.7081 22.5382 53.382 22.5382 53.0124C22.5382 52.6429 22.6121 52.3189 22.7599 52.0407C22.9121 51.758 23.123 51.5406 23.3926 51.3885C23.6665 51.2363 23.9795 51.1602 24.3317 51.1602C24.6709 51.1602 24.9731 51.2341 25.2383 51.3819C25.5035 51.5298 25.71 51.7385 25.8579 52.0081C26.0057 52.2733 26.0796 52.5798 26.0796 52.9277ZM25.3035 52.6929C25.2992 52.4189 25.2013 52.1994 25.01 52.0341C24.8187 51.8689 24.5817 51.7863 24.2991 51.7863C24.0426 51.7863 23.823 51.8689 23.6404 52.0341C23.4578 52.195 23.3491 52.4146 23.3143 52.6929H25.3035ZM37.8139 50.2797V54.8125H37.0704V51.708L35.6877 54.8125H35.1725L33.7833 51.708V54.8125H33.0398V50.2797H33.842L35.4333 53.8342L37.0182 50.2797H37.8139ZM47.7523 53.8864H45.8544L45.5283 54.8125H44.7522L46.3761 50.2732H47.237L48.861 54.8125H48.0784L47.7523 53.8864ZM47.5436 53.2798L46.8066 51.1732L46.0631 53.2798H47.5436ZM59.0762 51.5841C58.9588 51.358 58.7957 51.1885 58.587 51.0754C58.3783 50.958 58.137 50.8993 57.8631 50.8993C57.5631 50.8993 57.2957 50.9667 57.0609 51.1015C56.8261 51.2363 56.6413 51.4276 56.5065 51.6754C56.3761 51.9233 56.3108 52.2102 56.3108 52.5363C56.3108 52.8624 56.3761 53.1516 56.5065 53.4038C56.6413 53.6516 56.8261 53.8429 57.0609 53.9777C57.2957 54.1125 57.5631 54.1799 57.8631 54.1799C58.2674 54.1799 58.5957 54.0668 58.8479 53.8407C59.1001 53.6146 59.2544 53.3081 59.3109 52.9211H57.6087V52.3276H60.1066V52.9081C60.0588 53.2603 59.9327 53.5842 59.7284 53.8799C59.5283 54.1755 59.2653 54.4125 58.9392 54.5908C58.6174 54.7647 58.2587 54.8516 57.8631 54.8516C57.437 54.8516 57.0478 54.7538 56.6956 54.5581C56.3434 54.3581 56.063 54.082 55.8543 53.7299C55.6499 53.3777 55.5478 52.9798 55.5478 52.5363C55.5478 52.0928 55.6499 51.695 55.8543 51.3428C56.063 50.9906 56.3434 50.7167 56.6956 50.521C57.0522 50.321 57.4413 50.221 57.8631 50.221C58.3457 50.221 58.774 50.3406 59.1479 50.5797C59.5262 50.8145 59.8001 51.1493 59.9697 51.5841H59.0762ZM67.7858 54.1668H69.8924V54.8125H66.9054V54.232L69.0054 50.9254H66.9054V50.2797H69.8924V50.8602L67.7858 54.1668Z" fill="#FEFEFE"/>
<path d="M68.3115 28.6053C71.7251 32.7688 76.9107 35.7632 82.8749 37.0148L88.2834 33.2063C88.7248 32.8933 89.0056 32.4573 89.0705 31.9845V18.0692C89.0796 17.747 88.9858 17.4284 88.7982 17.1444C88.6106 16.8605 88.3357 16.6207 88.0001 16.4487L87.8679 16.3924L87.6853 16.3209C87.569 16.2809 87.449 16.2484 87.3264 16.2237H87.1312H86.9927H86.9297C86.7185 16.2086 86.5056 16.2224 86.3001 16.2646H86.2056L86.1049 16.2902H86.0104L85.8656 16.3362L85.7271 16.3924C85.6627 16.4182 85.6015 16.449 85.5445 16.4844L85.4123 16.556L85.2801 16.6429L84.7386 17.0263L68.3115 28.6053Z" fill="url(#paint6_linear_34_102)"/>
<path d="M27.34 115.727C27.34 116.106 27.3148 116.448 27.2642 116.751H19.5862C19.6494 117.509 19.9148 118.103 20.3824 118.533C20.8501 118.963 21.4251 119.178 22.1076 119.178C23.0934 119.178 23.7949 118.754 24.212 117.907H27.0746C26.7713 118.918 26.1899 119.753 25.3305 120.41C24.4711 121.054 23.4157 121.377 22.1645 121.377C21.1534 121.377 20.2434 121.155 19.4345 120.713C18.6383 120.258 18.0127 119.62 17.5577 118.798C17.1153 117.977 16.8942 117.029 16.8942 115.955C16.8942 114.868 17.1153 113.914 17.5577 113.092C18.0001 112.271 18.6194 111.639 19.4156 111.196C20.2118 110.754 21.1281 110.533 22.1645 110.533C23.163 110.533 24.054 110.748 24.8376 111.177C25.6338 111.607 26.2468 112.22 26.6765 113.016C27.1189 113.8 27.34 114.703 27.34 115.727ZM24.5911 114.969C24.5785 114.286 24.332 113.743 23.8518 113.338C23.3715 112.921 22.7838 112.713 22.0887 112.713C21.4315 112.713 20.8754 112.915 20.4204 113.32C19.978 113.711 19.7063 114.261 19.6052 114.969H24.5911ZM43.7044 107.973V121.206H41.0503V112.599L37.5051 121.206H35.4956L31.9314 112.599V121.206H29.2773V107.973H32.2916L36.5003 117.813L40.709 107.973H43.7044ZM45.6459 115.917C45.6459 114.855 45.8545 113.914 46.2716 113.092C46.7013 112.271 47.2763 111.639 47.9967 111.196C48.7298 110.754 49.545 110.533 50.4423 110.533C51.2259 110.533 51.9084 110.691 52.4898 111.007C53.0838 111.323 53.5578 111.721 53.9116 112.201V110.703H56.5847V121.206H53.9116V119.67C53.5704 120.163 53.0965 120.574 52.4898 120.903C51.8958 121.219 51.207 121.377 50.4234 121.377C49.5387 121.377 48.7298 121.149 47.9967 120.694C47.2763 120.239 46.7013 119.601 46.2716 118.779C45.8545 117.945 45.6459 116.991 45.6459 115.917ZM53.9116 115.955C53.9116 115.31 53.7853 114.76 53.5325 114.305C53.2797 113.838 52.9385 113.484 52.5088 113.244C52.079 112.991 51.6177 112.865 51.1248 112.865C50.6319 112.865 50.1769 112.985 49.7598 113.225C49.3428 113.465 49.0015 113.819 48.7361 114.286C48.4833 114.741 48.3569 115.285 48.3569 115.917C48.3569 116.549 48.4833 117.105 48.7361 117.585C49.0015 118.053 49.3428 118.413 49.7598 118.666C50.1896 118.918 50.6445 119.045 51.1248 119.045C51.6177 119.045 52.079 118.925 52.5088 118.685C52.9385 118.432 53.2797 118.078 53.5325 117.623C53.7853 117.155 53.9116 116.599 53.9116 115.955ZM63.2908 110.533C64.0744 110.533 64.7632 110.691 65.3573 111.007C65.9513 111.31 66.4189 111.708 66.7602 112.201V110.703H69.4332V121.282C69.4332 122.255 69.2373 123.121 68.8455 123.879C68.4537 124.65 67.866 125.257 67.0824 125.699C66.2988 126.154 65.3509 126.382 64.2387 126.382C62.7474 126.382 61.5214 126.034 60.5609 125.339C59.613 124.644 59.0758 123.696 58.9494 122.495H61.5846C61.7236 122.975 62.0206 123.355 62.4756 123.633C62.9433 123.923 63.5057 124.069 64.1629 124.069C64.9339 124.069 65.5595 123.835 66.0398 123.367C66.52 122.912 66.7602 122.217 66.7602 121.282V119.651C66.4189 120.144 65.945 120.555 65.3383 120.884C64.7443 121.212 64.0618 121.377 63.2908 121.377C62.4061 121.377 61.5973 121.149 60.8642 120.694C60.1312 120.239 59.5498 119.601 59.1201 118.779C58.703 117.945 58.4945 116.991 58.4945 115.917C58.4945 114.855 58.703 113.914 59.1201 113.092C59.5498 112.271 60.1248 111.639 60.8452 111.196C61.5783 110.754 62.3935 110.533 63.2908 110.533ZM66.7602 115.955C66.7602 115.31 66.6338 114.76 66.381 114.305C66.1282 113.838 65.787 113.484 65.3573 113.244C64.9275 112.991 64.4662 112.865 63.9733 112.865C63.4804 112.865 63.0254 112.985 62.6083 113.225C62.1913 113.465 61.85 113.819 61.5846 114.286C61.3318 114.741 61.2055 115.285 61.2055 115.917C61.2055 116.549 61.3318 117.105 61.5846 117.585C61.85 118.053 62.1913 118.413 62.6083 118.666C63.0381 118.918 63.4931 119.045 63.9733 119.045C64.4662 119.045 64.9275 118.925 65.3573 118.685C65.787 118.432 66.1282 118.078 66.381 117.623C66.6338 117.155 66.7602 116.599 66.7602 115.955ZM74.4521 119.026H79.1347V121.206H71.4378V119.064L76.0256 112.883H71.4567V110.703H79.0778V112.846L74.4521 119.026Z" fill="white"/>
<defs>
<filter id="filter0_d_34_102" x="13.4834" y="16.0137" width="44.4327" height="34.6123" filterUnits="userSpaceOnUse" color-interpolation-filters="sRGB">
<feFlood flood-opacity="0" result="BackgroundImageFix"/>
<feColorMatrix in="SourceAlpha" type="matrix" values="0 0 0 0 0 0 0 0 0 0 0 0 0 0 0 0 0 0 127 0" result="hardAlpha"/>
<feOffset dy="2.0508"/>
<feGaussianBlur stdDeviation="1.0254"/>
<feColorMatrix type="matrix" values="0 0 0 0 0 0 0 0 0 0 0 0 0 0 0 0 0 0 0.25 0"/>
<feBlend mode="normal" in2="BackgroundImageFix" result="effect1_dropShadow_34_102"/>
<feBlend mode="normal" in="SourceGraphic" in2="effect1_dropShadow_34_102" result="shape"/>
</filter>
<filter id="filter1_d_34_102" x="66.4683" y="16.0322" width="23.4325" height="27.8495" filterUnits="userSpaceOnUse" color-interpolation-filters="sRGB">
<feFlood flood-opacity="0" result="BackgroundImageFix"/>
<feColorMatrix in="SourceAlpha" type="matrix" values="0 0 0 0 0 0 0 0 0 0 0 0 0 0 0 0 0 0 127 0" result="hardAlpha"/>
<feOffset dy="5.50826"/>
<feGaussianBlur stdDeviation="0.579817"/>
<feColorMatrix type="matrix" values="0 0 0 0 0 0 0 0 0 0 0 0 0 0 0 0 0 0 0.25 0"/>
<feBlend mode="normal" in2="BackgroundImageFix" result="effect1_dropShadow_34_102"/>
<feBlend mode="normal" in="SourceGraphic" in2="effect1_dropShadow_34_102" result="shape"/>
</filter>
<filter id="filter2_d_34_102" x="34.3691" y="16.0156" width="56.4209" height="55.6221" filterUnits="userSpaceOnUse" color-interpolation-filters="sRGB">
<feFlood flood-opacity="0" result="BackgroundImageFix"/>
<feColorMatrix in="SourceAlpha" type="matrix" values="0 0 0 0 0 0 0 0 0 0 0 0 0 0 0 0 0 0 127 0" result="hardAlpha"/>
<feOffset dy="2.0508"/>
<feGaussianBlur stdDeviation="1.0254"/>
<feColorMatrix type="matrix" values="0 0 0 0 0 0 0 0 0 0 0 0 0 0 0 0 0 0 0.25 0"/>
<feBlend mode="normal" in2="BackgroundImageFix" result="effect1_dropShadow_34_102"/>
<feBlend mode="normal" in="SourceGraphic" in2="effect1_dropShadow_34_102" result="shape"/>
</filter>
<linearGradient id="paint0_linear_34_102" x1="23.8876" y1="26.1907" x2="23.8876" y2="84.4323" gradientUnits="userSpaceOnUse">
<stop offset="0.203438" stop-color="white"/>
<stop offset="0.708333" stop-color="#F0F0F0"/>
<stop offset="0.916667" stop-color="#E1E1E1"/>
</linearGradient>
<linearGradient id="paint1_linear_34_102" x1="23.8876" y1="26.1907" x2="23.8876" y2="84.4323" gradientUnits="userSpaceOnUse">
<stop offset="0.203438" stop-color="white"/>
<stop offset="0.708333" stop-color="#F0F0F0"/>
<stop offset="0.916667" stop-color="#E1E1E1"/>
</linearGradient>
<linearGradient id="paint2_linear_34_102" x1="15.397" y1="26.5902" x2="21.1267" y2="26.5902" gradientUnits="userSpaceOnUse">
<stop stop-color="#A2ADB4"/>
<stop offset="0.14" stop-color="#A2ADB4" stop-opacity="0.83"/>
<stop offset="0.44" stop-color="#A2ADB4" stop-opacity="0.48"/>
<stop offset="0.69" stop-color="#A2ADB4" stop-opacity="0.22"/>
<stop offset="0.89" stop-color="#A2ADB4" stop-opacity="0.06"/>
<stop offset="1" stop-color="#A2ADB4" stop-opacity="0"/>
</linearGradient>
<linearGradient id="paint3_linear_34_102" x1="80.3032" y1="16.0156" x2="80.3032" y2="73.4854" gradientUnits="userSpaceOnUse">
<stop offset="0.322917" stop-color="white"/>
<stop offset="0.875" stop-color="white"/>
</linearGradient>
<linearGradient id="paint4_linear_34_102" x1="80.3032" y1="16.0156" x2="80.3032" y2="73.4854" gradientUnits="userSpaceOnUse">
<stop offset="0.322917" stop-color="white"/>
<stop offset="0.875" stop-color="white"/>
</linearGradient>
<linearGradient id="paint5_linear_34_102" x1="111719" y1="7220.36" x2="111527" y2="7220.36" gradientUnits="userSpaceOnUse">
<stop stop-color="#3AA1E2"/>
<stop offset="0.14" stop-color="white" stop-opacity="0.83"/>
<stop offset="0.44" stop-color="white" stop-opacity="0.48"/>
<stop offset="0.69" stop-color="white" stop-opacity="0.22"/>
<stop offset="0.89" stop-color="white" stop-opacity="0.06"/>
<stop offset="1" stop-color="#F7F7F7" stop-opacity="0"/>
</linearGradient>
<linearGradient id="paint6_linear_34_102" x1="94.2271" y1="20.7558" x2="81.0048" y2="20.7558" gradientUnits="userSpaceOnUse">
<stop offset="0.482245" stop-color="#A2ADB4"/>
<stop offset="0.965253" stop-color="white" stop-opacity="0"/>
</linearGradient>
</defs>
</svg>
