<svg width="319" height="331" viewBox="0 0 319 331" fill="none" xmlns="http://www.w3.org/2000/svg">
<path d="M269.039 267.841C269.398 266.973 269.583 266.043 269.583 265.103V215.019H218.225V265.103C218.225 266.044 218.41 266.976 218.771 267.845C219.132 268.714 219.66 269.504 220.326 270.168C220.993 270.833 221.784 271.359 222.654 271.717C223.524 272.076 224.456 272.259 225.397 272.256H262.43C263.369 272.256 264.3 272.071 265.167 271.712C266.035 271.352 266.824 270.825 267.488 270.161C268.152 269.497 268.679 268.708 269.039 267.841Z" fill="url(#paint0_linear_667_98)"/>
<path d="M218.868 93.4634C218.445 94.3946 218.225 95.4056 218.225 96.4286V173.842H269.583V63.9762C269.583 62.6011 269.187 61.2551 268.442 60.0992C267.697 58.9434 266.635 58.0268 265.383 57.4591C264.13 56.8915 262.741 56.697 261.381 56.8987C260.02 57.1005 258.747 57.69 257.713 58.5967L220.68 91.0297C219.91 91.7024 219.292 92.5322 218.868 93.4634Z" fill="url(#paint1_linear_667_98)"/>
<path d="M48.9174 270.162C47.576 268.821 46.8223 267.001 46.8223 265.104V214.479H98.1611V265.104C98.1611 267.001 97.4074 268.821 96.0659 270.162C94.7244 271.504 92.9052 272.257 91.0081 272.257H53.9753C52.0781 272.257 50.2589 271.504 48.9174 270.162Z" fill="url(#paint2_linear_667_98)"/>
<path d="M97.5282 93.4661C97.9484 94.3974 98.1641 95.4079 98.1611 96.4296V174.385H46.8223V63.9772C46.8219 62.6021 47.2179 61.2561 47.9629 60.1002C48.7078 58.9444 49.7701 58.0278 51.0226 57.4601C52.2751 56.8925 53.6648 56.6979 55.025 56.8997C56.3852 57.1014 57.6581 57.691 58.6919 58.5977L95.7247 91.0306C96.4928 91.7044 97.1079 92.5348 97.5282 93.4661Z" fill="url(#paint3_linear_667_98)"/>
<g filter="url(#filter0_d_667_98)">
<path d="M169.518 120.968L149.208 126.172C146.127 126.962 142.901 126.989 139.807 126.252C136.714 125.515 133.846 124.036 131.452 121.943L58.6724 58.5972C57.6356 57.6856 56.3581 57.0926 54.9926 56.8892C53.6271 56.6859 52.2318 56.881 50.9745 57.451C49.7172 58.0211 48.6513 58.9418 47.9043 60.1028C47.1573 61.2638 46.7613 62.6157 46.7637 63.9962V116.349C46.7665 117.376 46.9887 118.391 47.4156 119.326C47.8425 120.26 48.4643 121.093 49.2391 121.767L104.223 169.423C105.531 170.559 107.206 171.185 108.94 171.185C110.673 171.185 112.348 170.559 113.656 169.423L132.582 152.933L169.518 120.968Z" fill="white"/>
</g>
<g filter="url(#filter1_d_667_98)">
<path d="M205.318 104.226C215.872 120.113 231.931 131.533 250.401 136.289L267.163 121.768C268.524 120.581 269.387 118.924 269.58 117.129V63.9772C269.593 62.7583 269.289 61.557 268.698 60.4909C268.107 59.4249 267.249 58.5307 266.208 57.896C266.076 57.8108 265.939 57.7327 265.799 57.6621L265.233 57.3892C264.867 57.2367 264.489 57.1128 264.103 57.0189L263.518 56.9019H263.07H262.895C262.241 56.8549 261.584 56.9074 260.946 57.0578H260.634H260.341L260.049 57.1553L259.601 57.3503C259.452 57.4099 259.309 57.4816 259.172 57.5646L258.607 57.896L258.217 58.1688C258.081 58.2858 257.925 58.3832 257.788 58.5197L256.112 59.962L205.318 104.226Z" fill="url(#paint4_linear_667_98)"/>
</g>
<g filter="url(#filter2_d_667_98)">
<path fill-rule="evenodd" clip-rule="evenodd" d="M269.583 64.0352V116.368C269.582 116.679 269.562 116.988 269.522 117.295V117.129C269.329 118.924 268.466 120.581 267.105 121.768L218.163 164.219V164.533L207.486 173.843H125.512L218.166 93.1351L257.635 58.6167C258.675 57.7003 259.957 57.1037 261.328 56.8988C262.698 56.694 264.099 56.8895 265.361 57.4619C266.624 58.0344 267.694 58.9593 268.442 60.1254C269.191 61.2916 269.587 62.6493 269.583 64.0352ZM110.342 215.021V242.767C110.339 244.148 110.735 245.499 111.482 246.66C112.229 247.821 113.296 248.742 114.553 249.312C115.81 249.882 117.205 250.077 118.571 249.874C119.936 249.671 121.214 249.078 122.251 248.166L160.263 215.021H110.342Z" fill="#FEFEFE"/>
</g>
<path d="M80.9088 195.254C80.9088 195.737 80.8776 196.173 80.8153 196.563H70.9732C71.0511 197.591 71.4329 198.417 72.1187 199.041C72.8044 199.664 73.646 199.976 74.6435 199.976C76.0773 199.976 77.0904 199.376 77.6826 198.176H80.5581C80.1685 199.36 79.4593 200.334 78.4307 201.098C77.4177 201.846 76.1553 202.22 74.6435 202.22C73.4123 202.22 72.3057 201.947 71.3238 201.402C70.3576 200.841 69.5939 200.062 69.0328 199.064C68.4873 198.051 68.2146 196.882 68.2146 195.557C68.2146 194.233 68.4795 193.072 69.0094 192.074C69.5549 191.061 70.3108 190.282 71.2771 189.736C72.259 189.191 73.3811 188.918 74.6435 188.918C75.8592 188.918 76.9423 189.183 77.893 189.713C78.8437 190.243 79.584 190.991 80.1139 191.957C80.6438 192.908 80.9088 194.007 80.9088 195.254ZM78.1268 194.412C78.1112 193.43 77.7606 192.643 77.0748 192.051C76.389 191.459 75.5397 191.162 74.5266 191.162C73.6071 191.162 72.82 191.459 72.1654 192.051C71.5109 192.627 71.1212 193.415 70.9966 194.412H78.1268ZM122.97 185.762V202.01H120.305V190.882L115.349 202.01H113.502L108.522 190.882V202.01H105.857V185.762H108.733L114.437 198.503L120.118 185.762H122.97ZM158.594 198.69H151.791L150.622 202.01H147.84L153.661 185.739H156.747L162.568 202.01H159.763L158.594 198.69ZM157.846 196.516L155.204 188.965L152.539 196.516H157.846ZM199.184 190.438C198.763 189.627 198.179 189.019 197.431 188.614C196.683 188.193 195.818 187.983 194.836 187.983C193.76 187.983 192.802 188.225 191.96 188.708C191.119 189.191 190.456 189.877 189.973 190.765C189.506 191.653 189.272 192.682 189.272 193.851C189.272 195.02 189.506 196.056 189.973 196.96C190.456 197.849 191.119 198.534 191.96 199.017C192.802 199.501 193.76 199.742 194.836 199.742C196.285 199.742 197.462 199.337 198.366 198.526C199.27 197.716 199.823 196.617 200.026 195.23H193.924V193.103H202.878V195.183C202.706 196.446 202.254 197.607 201.522 198.667C200.805 199.727 199.862 200.576 198.693 201.215C197.54 201.838 196.254 202.15 194.836 202.15C193.308 202.15 191.914 201.799 190.651 201.098C189.389 200.381 188.384 199.391 187.635 198.129C186.903 196.867 186.537 195.441 186.537 193.851C186.537 192.261 186.903 190.835 187.635 189.573C188.384 188.31 189.389 187.328 190.651 186.627C191.929 185.91 193.324 185.552 194.836 185.552C196.566 185.552 198.101 185.98 199.441 186.838C200.797 187.679 201.779 188.879 202.387 190.438H199.184ZM230.404 199.695H237.955V202.01H227.248V199.929L234.775 188.077H227.248V185.762H237.955V187.843L230.404 199.695Z" fill="#FEFEFE"/>
<path d="M159.194 328.91H316.65V165.455M1.73734 165.455V2H159.194" stroke="white" stroke-width="2.99917"/>
<path d="M109.018 104.012C98.6254 119.624 82.8342 130.85 64.6736 135.536L48.212 121.259C46.8611 120.092 46.0047 118.454 45.8165 116.679V64.5151C45.8101 63.3131 46.1135 62.1296 46.6976 61.079C47.2816 60.0283 48.1266 59.1459 49.151 58.5169L49.5343 58.3061L50.1092 58.0378C50.4621 57.8851 50.8276 57.7633 51.2015 57.6737H51.7764H52.2172H52.3897C53.0325 57.6169 53.6804 57.6687 54.306 57.827H54.6127L54.9001 57.9228H55.2067L55.6283 58.0953L56.0691 58.3061C56.2627 58.4071 56.4484 58.5224 56.6248 58.651L57.0081 58.9193L57.4297 59.2451L59.0778 60.6824L109.018 104.012Z" fill="url(#paint5_linear_667_98)"/>
<path d="M207.404 104.012C217.794 119.619 233.577 130.844 251.73 135.536L268.192 121.259C269.535 120.086 270.39 118.451 270.587 116.679V64.5151C270.615 63.3074 270.329 62.1131 269.758 61.0485C269.188 59.9839 268.351 59.0853 267.329 58.4402L266.927 58.2294L266.371 57.9611C266.017 57.8112 265.652 57.6895 265.279 57.597H264.685H264.263H264.071C263.429 57.5402 262.781 57.592 262.155 57.7503H261.868L261.561 57.8462H261.273L260.833 58.0186L260.411 58.2294C260.215 58.326 260.029 58.4416 259.855 58.5744L259.453 58.8427L259.05 59.1685L257.402 60.6057L207.404 104.012Z" fill="url(#paint6_linear_667_98)"/>
<defs>
<filter id="filter0_d_667_98" x="39.0982" y="56.811" width="138.085" height="129.705" filterUnits="userSpaceOnUse" color-interpolation-filters="sRGB">
<feFlood flood-opacity="0" result="BackgroundImageFix"/>
<feColorMatrix in="SourceAlpha" type="matrix" values="0 0 0 0 0 0 0 0 0 0 0 0 0 0 0 0 0 0 127 0" result="hardAlpha"/>
<feOffset dy="7.66549"/>
<feGaussianBlur stdDeviation="3.83274"/>
<feColorMatrix type="matrix" values="0 0 0 0 0 0 0 0 0 0 0 0 0 0 0 0 0 0 0.25 0"/>
<feBlend mode="normal" in2="BackgroundImageFix" result="effect1_dropShadow_667_98"/>
<feBlend mode="normal" in="SourceGraphic" in2="effect1_dropShadow_667_98" result="shape"/>
</filter>
<filter id="filter1_d_667_98" x="200.984" y="56.8853" width="72.9307" height="104.327" filterUnits="userSpaceOnUse" color-interpolation-filters="sRGB">
<feFlood flood-opacity="0" result="BackgroundImageFix"/>
<feColorMatrix in="SourceAlpha" type="matrix" values="0 0 0 0 0 0 0 0 0 0 0 0 0 0 0 0 0 0 127 0" result="hardAlpha"/>
<feOffset dy="20.5888"/>
<feGaussianBlur stdDeviation="2.16724"/>
<feColorMatrix type="matrix" values="0 0 0 0 0 0 0 0 0 0 0 0 0 0 0 0 0 0 0.25 0"/>
<feBlend mode="normal" in2="BackgroundImageFix" result="effect1_dropShadow_667_98"/>
<feBlend mode="normal" in="SourceGraphic" in2="effect1_dropShadow_667_98" result="shape"/>
</filter>
<filter id="filter2_d_667_98" x="102.676" y="56.8198" width="174.571" height="208.463" filterUnits="userSpaceOnUse" color-interpolation-filters="sRGB">
<feFlood flood-opacity="0" result="BackgroundImageFix"/>
<feColorMatrix in="SourceAlpha" type="matrix" values="0 0 0 0 0 0 0 0 0 0 0 0 0 0 0 0 0 0 127 0" result="hardAlpha"/>
<feOffset dy="7.66549"/>
<feGaussianBlur stdDeviation="3.83274"/>
<feColorMatrix type="matrix" values="0 0 0 0 0 0 0 0 0 0 0 0 0 0 0 0 0 0 0.25 0"/>
<feBlend mode="normal" in2="BackgroundImageFix" result="effect1_dropShadow_667_98"/>
<feBlend mode="normal" in="SourceGraphic" in2="effect1_dropShadow_667_98" result="shape"/>
</filter>
<linearGradient id="paint0_linear_667_98" x1="243.904" y1="56.8213" x2="243.904" y2="272.256" gradientUnits="userSpaceOnUse">
<stop offset="0.322917" stop-color="white"/>
<stop offset="0.875" stop-color="white"/>
</linearGradient>
<linearGradient id="paint1_linear_667_98" x1="243.904" y1="56.8213" x2="243.904" y2="272.256" gradientUnits="userSpaceOnUse">
<stop offset="0.322917" stop-color="white"/>
<stop offset="0.875" stop-color="white"/>
</linearGradient>
<linearGradient id="paint2_linear_667_98" x1="72.1964" y1="94.9653" x2="72.1964" y2="313.293" gradientUnits="userSpaceOnUse">
<stop offset="0.203438" stop-color="white"/>
<stop offset="0.708333" stop-color="#F0F0F0"/>
<stop offset="0.916667" stop-color="#E1E1E1"/>
</linearGradient>
<linearGradient id="paint3_linear_667_98" x1="72.1964" y1="94.9653" x2="72.1964" y2="313.293" gradientUnits="userSpaceOnUse">
<stop offset="0.203438" stop-color="white"/>
<stop offset="0.708333" stop-color="#F0F0F0"/>
<stop offset="0.916667" stop-color="#E1E1E1"/>
</linearGradient>
<linearGradient id="paint4_linear_667_98" x1="340031" y1="27063.5" x2="339447" y2="27063.5" gradientUnits="userSpaceOnUse">
<stop stop-color="#3AA1E2"/>
<stop offset="0.14" stop-color="white" stop-opacity="0.83"/>
<stop offset="0.44" stop-color="white" stop-opacity="0.48"/>
<stop offset="0.69" stop-color="white" stop-opacity="0.22"/>
<stop offset="0.89" stop-color="white" stop-opacity="0.06"/>
<stop offset="1" stop-color="#F7F7F7" stop-opacity="0"/>
</linearGradient>
<linearGradient id="paint5_linear_667_98" x1="46.3531" y1="96.461" x2="63.7921" y2="96.461" gradientUnits="userSpaceOnUse">
<stop stop-color="#A2ADB4"/>
<stop offset="0.14" stop-color="#A2ADB4" stop-opacity="0.83"/>
<stop offset="0.44" stop-color="#A2ADB4" stop-opacity="0.48"/>
<stop offset="0.69" stop-color="#A2ADB4" stop-opacity="0.22"/>
<stop offset="0.89" stop-color="#A2ADB4" stop-opacity="0.06"/>
<stop offset="1" stop-color="#A2ADB4" stop-opacity="0"/>
</linearGradient>
<linearGradient id="paint6_linear_667_98" x1="286.282" y1="74.5862" x2="246.038" y2="74.5862" gradientUnits="userSpaceOnUse">
<stop offset="0.482245" stop-color="#A2ADB4"/>
<stop offset="0.965253" stop-color="white" stop-opacity="0"/>
</linearGradient>
</defs>
</svg>
