<svg width="300" height="200" viewBox="0 0 300 200" fill="none" xmlns="http://www.w3.org/2000/svg">
<path d="M150.001 174.527H238.422V100M61.5791 100V25.4736H150.001" stroke="white" stroke-width="1.37143"/>
<path d="M211.685 146.683C211.886 146.287 211.99 145.863 211.99 145.435V122.599H183.149V145.435C183.149 145.864 183.254 146.288 183.456 146.685C183.659 147.081 183.956 147.441 184.33 147.744C184.704 148.047 185.148 148.287 185.637 148.45C186.125 148.614 186.649 148.697 187.177 148.696H207.973C208.501 148.696 209.023 148.612 209.511 148.448C209.998 148.284 210.441 148.044 210.814 147.741C211.187 147.438 211.483 147.078 211.685 146.683Z" fill="url(#paint0_linear_668_148)"/>
<path d="M183.511 67.1761C183.273 67.6006 183.15 68.0616 183.149 68.5281V103.824H211.99V53.7315C211.99 53.1045 211.768 52.4908 211.35 51.9638C210.931 51.4368 210.335 51.0189 209.631 50.7601C208.928 50.5013 208.148 50.4125 207.384 50.5045C206.62 50.5965 205.905 50.8653 205.325 51.2787L184.529 66.0664C184.096 66.3731 183.749 66.7515 183.511 67.1761Z" fill="url(#paint1_linear_668_148)"/>
<path d="M88.0731 147.741C87.3197 147.13 86.8965 146.3 86.8965 145.435V122.352H115.726V145.435C115.726 146.3 115.303 147.13 114.55 147.741C113.796 148.353 112.775 148.696 111.709 148.696H90.9133C89.848 148.696 88.8264 148.353 88.0731 147.741Z" fill="url(#paint2_linear_668_148)"/>
<path d="M115.371 67.1773C115.607 67.602 115.728 68.0627 115.726 68.5285V104.072H86.8965V53.732C86.8963 53.105 87.1187 52.4913 87.537 51.9643C87.9554 51.4373 88.5519 51.0194 89.2552 50.7606C89.9586 50.5017 90.739 50.413 91.5028 50.505C92.2667 50.597 92.9815 50.8658 93.562 51.2792L114.358 66.0669C114.79 66.3741 115.135 66.7527 115.371 67.1773Z" fill="url(#paint3_linear_668_148)"/>
<g filter="url(#filter0_d_668_148)">
<path d="M155.797 79.717L144.392 82.0898C142.662 82.4497 140.85 82.4622 139.113 82.1262C137.376 81.7902 135.765 81.1159 134.421 80.1614L93.5507 51.2792C92.9685 50.8636 92.2511 50.5932 91.4843 50.5005C90.7175 50.4078 89.934 50.4968 89.2279 50.7567C88.5218 51.0166 87.9233 51.4364 87.5038 51.9657C87.0844 52.4951 86.8619 53.1115 86.8633 53.7409V77.6109C86.8649 78.0793 86.9896 78.542 87.2294 78.9681C87.4691 79.3942 87.8183 79.7738 88.2534 80.0814L119.13 101.81C119.865 102.328 120.805 102.613 121.779 102.613C122.752 102.613 123.693 102.328 124.428 101.81L135.056 94.2914L155.797 79.717Z" fill="white"/>
</g>
<g filter="url(#filter1_d_668_148)">
<path d="M175.902 72.0828C181.829 79.3264 190.847 84.5336 201.219 86.7016L210.632 80.081C211.396 79.5398 211.881 78.7845 211.989 77.9659V53.7316C211.996 53.1758 211.826 52.6281 211.494 52.142C211.162 51.656 210.68 51.2483 210.096 50.9589C210.021 50.92 209.945 50.8844 209.866 50.8523L209.548 50.7278C209.342 50.6583 209.13 50.6018 208.914 50.559V50.559L208.585 50.5057H208.334H208.235C207.868 50.4842 207.499 50.5082 207.14 50.5767H206.965H206.801L206.637 50.6212L206.385 50.7101C206.302 50.7373 206.221 50.77 206.144 50.8078V50.8078L205.827 50.9589L205.608 51.0833C205.532 51.1366 205.444 51.181 205.367 51.2433L204.426 51.9009L175.902 72.0828Z" fill="url(#paint4_linear_668_148)"/>
</g>
<g filter="url(#filter2_d_668_148)">
<path fill-rule="evenodd" clip-rule="evenodd" d="M211.987 53.7586V77.6197C211.987 77.7579 211.976 77.8956 211.954 78.0321V77.9664C211.846 78.785 211.361 79.5403 210.597 80.0815L183.113 99.437V99.5788L183.113 99.579L177.116 103.825H131.082L183.113 67.0266L205.277 51.288C205.861 50.8702 206.581 50.5982 207.351 50.5048C208.121 50.4114 208.908 50.5005 209.616 50.7615C210.325 51.0225 210.926 51.4442 211.347 51.9759C211.767 52.5076 211.989 53.1267 211.987 53.7586ZM122.563 122.6V135.251C122.562 135.88 122.785 136.496 123.204 137.026C123.623 137.555 124.222 137.975 124.928 138.235C125.634 138.495 126.418 138.584 127.185 138.491C127.951 138.398 128.669 138.128 129.251 137.712L150.597 122.6H122.563Z" fill="#FEFEFE"/>
</g>
<path d="M104.508 113.781C104.508 113.998 104.494 114.194 104.466 114.369H100.05C100.085 114.83 100.256 115.201 100.564 115.481C100.871 115.761 101.249 115.9 101.697 115.9C102.34 115.9 102.795 115.631 103.06 115.093H104.35C104.176 115.624 103.857 116.061 103.396 116.404C102.941 116.74 102.375 116.907 101.697 116.907C101.144 116.907 100.648 116.785 100.207 116.54C99.7735 116.289 99.4308 115.939 99.1791 115.491C98.9343 115.037 98.8119 114.512 98.8119 113.918C98.8119 113.323 98.9308 112.802 99.1686 112.355C99.4134 111.9 99.7525 111.551 100.186 111.306C100.627 111.061 101.13 110.939 101.697 110.939C102.242 110.939 102.728 111.058 103.155 111.295C103.581 111.533 103.913 111.869 104.151 112.302C104.389 112.729 104.508 113.222 104.508 113.781ZM103.26 113.404C103.253 112.963 103.095 112.61 102.788 112.344C102.48 112.079 102.099 111.946 101.644 111.946C101.232 111.946 100.878 112.079 100.585 112.344C100.291 112.603 100.116 112.956 100.06 113.404H103.26ZM123.381 109.523V116.813H122.185V111.82L119.961 116.813H119.132L116.898 111.82V116.813H115.702V109.523H116.992L119.552 115.24L122.101 109.523H123.381ZM139.365 115.323H136.313L135.788 116.813H134.54L137.152 109.512H138.537L141.148 116.813H139.89L139.365 115.323ZM139.03 114.348L137.844 110.96L136.648 114.348H139.03ZM157.578 111.621C157.389 111.257 157.127 110.984 156.791 110.802C156.456 110.614 156.068 110.519 155.627 110.519C155.144 110.519 154.714 110.628 154.337 110.844C153.959 111.061 153.662 111.369 153.445 111.767C153.235 112.166 153.13 112.628 153.13 113.152C153.13 113.677 153.235 114.142 153.445 114.547C153.662 114.946 153.959 115.254 154.337 115.47C154.714 115.687 155.144 115.795 155.627 115.795C156.277 115.795 156.805 115.614 157.211 115.25C157.616 114.886 157.865 114.393 157.956 113.771H155.218V112.816H159.235V113.75C159.158 114.316 158.956 114.837 158.627 115.313C158.305 115.788 157.882 116.17 157.358 116.456C156.84 116.736 156.263 116.876 155.627 116.876C154.942 116.876 154.316 116.719 153.749 116.404C153.183 116.082 152.732 115.638 152.396 115.072C152.067 114.505 151.903 113.865 151.903 113.152C151.903 112.439 152.067 111.799 152.396 111.232C152.732 110.666 153.183 110.225 153.749 109.911C154.323 109.589 154.949 109.428 155.627 109.428C156.403 109.428 157.092 109.621 157.693 110.005C158.302 110.383 158.742 110.921 159.015 111.621H157.578ZM171.586 115.775H174.974V116.813H170.17V115.879L173.548 110.561H170.17V109.523H174.974V110.456L171.586 115.775Z" fill="#FEFEFE"/>
<path d="M121.823 71.9854C115.986 79.1038 107.119 84.2222 96.9205 86.3588V86.3588L87.6763 79.8492C86.9177 79.317 86.4368 78.5705 86.3311 77.761V53.9772C86.3275 53.4291 86.4979 52.8895 86.8259 52.4105C87.1539 51.9314 87.6284 51.5291 88.2036 51.2423L88.4189 51.1462L88.7417 51.0238C88.9399 50.9542 89.1451 50.8987 89.3551 50.8578V50.8578H89.678H89.9255H90.0223C90.3833 50.8319 90.7471 50.8556 91.0985 50.9277H91.2707L91.4321 50.9714H91.6043L91.841 51.0501L92.0886 51.1462C92.1973 51.1922 92.3016 51.2448 92.4006 51.3035L92.6159 51.4258L92.8526 51.5743L93.7781 52.2296L121.823 71.9854Z" fill="url(#paint5_linear_668_148)"/>
<path d="M177.072 71.9857C182.907 79.1018 191.77 84.2198 201.964 86.3591L211.208 79.8495C211.962 79.3146 212.442 78.5695 212.553 77.7612V53.9774C212.569 53.4268 212.408 52.8823 212.088 52.3969C211.767 51.9114 211.297 51.5017 210.724 51.2076L210.498 51.1115L210.186 50.9892C209.987 50.9208 209.782 50.8653 209.572 50.8232V50.8232H209.239H209.002H208.894C208.533 50.7973 208.169 50.8209 207.818 50.8931H207.657L207.485 50.9368H207.323L207.076 51.0154L206.839 51.1115C206.729 51.1556 206.624 51.2082 206.527 51.2688L206.301 51.3911L206.075 51.5397L205.149 52.195L177.072 71.9857Z" fill="url(#paint6_linear_668_148)"/>
<defs>
<filter id="filter0_d_668_148" x="83.3581" y="50.4648" width="75.944" height="59.1588" filterUnits="userSpaceOnUse" color-interpolation-filters="sRGB">
<feFlood flood-opacity="0" result="BackgroundImageFix"/>
<feColorMatrix in="SourceAlpha" type="matrix" values="0 0 0 0 0 0 0 0 0 0 0 0 0 0 0 0 0 0 127 0" result="hardAlpha"/>
<feOffset dy="3.5052"/>
<feGaussianBlur stdDeviation="1.7526"/>
<feColorMatrix type="matrix" values="0 0 0 0 0 0 0 0 0 0 0 0 0 0 0 0 0 0 0.25 0"/>
<feBlend mode="normal" in2="BackgroundImageFix" result="effect1_dropShadow_668_148"/>
<feBlend mode="normal" in="SourceGraphic" in2="effect1_dropShadow_668_148" result="shape"/>
</filter>
<filter id="filter1_d_668_148" x="173.92" y="50.498" width="40.051" height="47.6003" filterUnits="userSpaceOnUse" color-interpolation-filters="sRGB">
<feFlood flood-opacity="0" result="BackgroundImageFix"/>
<feColorMatrix in="SourceAlpha" type="matrix" values="0 0 0 0 0 0 0 0 0 0 0 0 0 0 0 0 0 0 127 0" result="hardAlpha"/>
<feOffset dy="9.41466"/>
<feGaussianBlur stdDeviation="0.991017"/>
<feColorMatrix type="matrix" values="0 0 0 0 0 0 0 0 0 0 0 0 0 0 0 0 0 0 0.25 0"/>
<feBlend mode="normal" in2="BackgroundImageFix" result="effect1_dropShadow_668_148"/>
<feBlend mode="normal" in="SourceGraphic" in2="effect1_dropShadow_668_148" result="shape"/>
</filter>
<filter id="filter2_d_668_148" x="119.058" y="50.4688" width="96.4342" height="95.0685" filterUnits="userSpaceOnUse" color-interpolation-filters="sRGB">
<feFlood flood-opacity="0" result="BackgroundImageFix"/>
<feColorMatrix in="SourceAlpha" type="matrix" values="0 0 0 0 0 0 0 0 0 0 0 0 0 0 0 0 0 0 127 0" result="hardAlpha"/>
<feOffset dy="3.5052"/>
<feGaussianBlur stdDeviation="1.7526"/>
<feColorMatrix type="matrix" values="0 0 0 0 0 0 0 0 0 0 0 0 0 0 0 0 0 0 0.25 0"/>
<feBlend mode="normal" in2="BackgroundImageFix" result="effect1_dropShadow_668_148"/>
<feBlend mode="normal" in="SourceGraphic" in2="effect1_dropShadow_668_148" result="shape"/>
</filter>
<linearGradient id="paint0_linear_668_148" x1="197.57" y1="50.4692" x2="197.57" y2="148.696" gradientUnits="userSpaceOnUse">
<stop offset="0.322917" stop-color="white"/>
<stop offset="0.875" stop-color="white"/>
</linearGradient>
<linearGradient id="paint1_linear_668_148" x1="197.57" y1="50.4692" x2="197.57" y2="148.696" gradientUnits="userSpaceOnUse">
<stop offset="0.322917" stop-color="white"/>
<stop offset="0.875" stop-color="white"/>
</linearGradient>
<linearGradient id="paint2_linear_668_148" x1="101.146" y1="67.8609" x2="101.146" y2="167.407" gradientUnits="userSpaceOnUse">
<stop offset="0.203438" stop-color="white"/>
<stop offset="0.708333" stop-color="#F0F0F0"/>
<stop offset="0.916667" stop-color="#E1E1E1"/>
</linearGradient>
<linearGradient id="paint3_linear_668_148" x1="101.146" y1="67.8609" x2="101.146" y2="167.407" gradientUnits="userSpaceOnUse">
<stop offset="0.203438" stop-color="white"/>
<stop offset="0.708333" stop-color="#F0F0F0"/>
<stop offset="0.916667" stop-color="#E1E1E1"/>
</linearGradient>
<linearGradient id="paint4_linear_668_148" x1="191009" y1="12364.1" x2="190680" y2="12364.1" gradientUnits="userSpaceOnUse">
<stop stop-color="#3AA1E2"/>
<stop offset="0.14" stop-color="white" stop-opacity="0.83"/>
<stop offset="0.44" stop-color="white" stop-opacity="0.48"/>
<stop offset="0.69" stop-color="white" stop-opacity="0.22"/>
<stop offset="0.89" stop-color="white" stop-opacity="0.06"/>
<stop offset="1" stop-color="#F7F7F7" stop-opacity="0"/>
</linearGradient>
<linearGradient id="paint5_linear_668_148" x1="86.6324" y1="68.5428" x2="96.4255" y2="68.5428" gradientUnits="userSpaceOnUse">
<stop stop-color="#A2ADB4"/>
<stop offset="0.14" stop-color="#A2ADB4" stop-opacity="0.83"/>
<stop offset="0.44" stop-color="#A2ADB4" stop-opacity="0.48"/>
<stop offset="0.69" stop-color="#A2ADB4" stop-opacity="0.22"/>
<stop offset="0.89" stop-color="#A2ADB4" stop-opacity="0.06"/>
<stop offset="1" stop-color="#A2ADB4" stop-opacity="0"/>
</linearGradient>
<linearGradient id="paint6_linear_668_148" x1="221.367" y1="58.5693" x2="198.768" y2="58.5693" gradientUnits="userSpaceOnUse">
<stop offset="0.482245" stop-color="#A2ADB4"/>
<stop offset="0.965253" stop-color="white" stop-opacity="0"/>
</linearGradient>
</defs>
</svg>
