<svg width="531" height="416" viewBox="0 0 531 416" fill="none" xmlns="http://www.w3.org/2000/svg">
<g clip-path="url(#clip0_668_271)">
<path opacity="0.1" d="M186.015 407.355C237.102 407.355 278.516 399.51 278.516 389.832C278.516 380.154 237.102 372.309 186.015 372.309C134.929 372.309 93.5146 380.154 93.5146 389.832C93.5146 399.51 134.929 407.355 186.015 407.355Z" fill="#3C83E6"/>
<path opacity="0.1" d="M308.101 58.9772C274.105 57.8006 241.727 46.8223 210.81 34.8145C179.892 22.8068 149.268 9.50683 116.087 3.14576C94.7449 -0.946126 70.3354 -1.52918 53.1432 9.90079C36.5918 20.9316 31.2445 39.9202 28.3713 57.5537C26.2071 70.8221 24.936 84.7892 30.861 97.2119C34.9792 105.837 42.2805 113.086 47.3337 121.348C64.9146 150.091 52.4866 185.537 33.4401 213.602C24.5105 226.766 14.1363 239.341 7.23946 253.339C0.34261 267.338 -2.8458 283.432 3.1896 297.751C9.16722 311.934 23.4179 322.565 38.8557 330.05C70.2093 345.257 107.141 349.606 143.18 352.075C222.933 357.527 303.105 355.169 383.068 352.8C412.662 351.928 442.382 351.04 471.493 346.465C487.661 343.923 504.349 339.889 516.088 330.15C530.985 317.79 534.678 296.863 524.692 281.368C507.947 255.367 461.66 248.911 449.941 221.014C443.501 205.655 450.114 188.552 459.48 174.312C479.566 143.756 513.231 116.952 515.001 82.0315C516.22 58.0474 500.036 34.0266 475.012 22.6755C448.785 10.778 412.41 12.275 393.069 31.9676C373.135 52.2221 338.12 60.0225 308.101 58.9772Z" fill="#3C83E6"/>
<path d="M281.085 190.475L264.996 179.628L273.111 167.547L230.617 164.159L215.347 175.967L196.232 165.251L180.29 167.169L180.101 162.966C179.904 158.586 179.464 154.219 178.783 149.887C178.851 148.574 178.898 147.066 178.893 145.427C178.893 138.52 177.958 129.365 173.85 123.261L174.796 114.762L167.127 105.701C168.358 103.248 169.763 100.885 171.329 98.6308C171.592 98.2526 171.854 97.8849 172.138 97.5277C182.092 96.8081 189.945 88.6243 189.945 78.6178C189.945 78.1556 189.945 77.6933 189.892 77.2363C189.892 77.0525 189.855 76.8634 189.834 76.6796C190.806 77.2048 191.788 77.7301 192.771 78.2554C192.954 78.518 193.165 78.7806 193.396 79.0906L193.443 79.1483L193.737 79.5108L193.832 79.6211C193.937 79.7472 194.047 79.868 194.157 79.994L194.231 80.0781C194.509 80.388 194.803 80.7032 195.119 81.0131C195.156 81.0436 195.191 81.077 195.224 81.1129L195.618 81.4806L195.728 81.5804C196.064 81.8798 196.421 82.1687 196.778 82.4418L196.894 82.5259L197.346 82.8358L197.493 82.9303C197.666 83.0354 197.845 83.1457 198.018 83.2455L198.081 83.2822C198.286 83.3926 198.496 83.4976 198.706 83.5974L198.811 83.6394C198.99 83.7165 199.165 83.79 199.337 83.8601L199.499 83.9178C199.683 83.9809 199.862 84.0386 200.051 84.0912L200.166 84.1227C200.398 84.1805 200.629 84.2277 200.865 84.2645H200.891C201.114 84.3005 201.338 84.3233 201.564 84.3328H201.716C201.917 84.3433 202.119 84.3433 202.32 84.3328H202.451C202.703 84.3183 202.954 84.2885 203.203 84.2435C204.378 84.089 205.506 83.6842 206.512 83.0564C206.768 82.8852 206.995 82.6742 207.184 82.4313C208.235 81.0551 207.079 79.5475 207.079 79.5475C206.669 78.5705 204.011 77.8824 204.011 77.8824C204.011 77.8824 195.607 74.3736 195.607 71.5791C195.607 68.7847 193.506 54.2871 171.817 50.9726C171.817 50.9726 157.709 50.1795 153.743 57.7329L153.659 58.6154C152.493 59.3455 151.526 60.811 150.376 61.2417C149.879 61.3485 149.399 61.5253 148.952 61.767V61.6672C148.819 61.7834 148.711 61.9243 148.632 62.0822C148.385 62.5738 148.237 63.1092 148.196 63.658C148.077 64.3283 147.845 64.9733 147.508 65.5647C147.414 65.7328 147.308 65.8943 147.193 66.048V66.048L147.103 66.1898C147.713 66.2373 148.325 66.1383 148.889 65.9009C148.8 66.6201 148.624 67.3257 148.364 68.002C148.698 68.0128 149.028 67.9275 149.315 67.7561C149.601 67.5848 149.833 67.3347 149.982 67.0355V66.9935L150.05 66.8989C150.182 66.6558 150.291 66.4008 150.376 66.1373L150.318 66.2003C150.423 65.8589 150.518 65.5122 150.633 65.176C150.686 64.9867 150.773 64.8086 150.89 64.6508C151.031 64.5094 151.202 64.403 151.391 64.34C151.58 64.2771 151.781 64.2594 151.978 64.2883L151.762 68.8425H151.857C151.73 69.1737 151.576 69.4936 151.395 69.7985C150.649 71.0066 149.294 71.8313 148.795 73.155C148.579 73.7934 148.497 74.4691 148.553 75.1405C148.553 75.5345 148.6 75.9337 148.632 76.3276V76.2961C148.705 77.3466 148.726 78.3447 148.159 79.1904C147.77 79.7682 147.145 80.2041 146.93 80.8607C146.87 81.0437 146.844 81.2358 146.851 81.428C146.893 82.0037 147.013 82.5709 147.208 83.1142C147.211 83.1038 147.211 83.093 147.208 83.0826C147.339 83.4823 147.37 83.908 147.298 84.3223C147.061 85.3728 145.785 86.25 145.848 87.2533C145.844 87.3853 145.864 87.5168 145.906 87.642C146.151 88.1321 146.576 88.5084 147.093 88.6926C147.903 89.1531 148.833 89.3582 149.761 89.2809C150.109 89.218 150.446 89.1029 150.759 88.9395C150.391 89.7851 150.013 90.6203 149.63 91.4135C149.572 91.5396 149.509 91.6656 149.446 91.7917C149.446 91.7917 146.2 89.6223 144.356 94.0451C143.818 94.9642 143.433 95.9648 143.216 97.0077C143.124 97.4248 142.994 97.8327 142.828 98.2263C142.009 99.612 140.784 100.712 139.319 101.378C135.558 103.101 120.367 122.047 120.099 126.954C119.967 128.869 119.644 130.766 119.132 132.616C117.937 136.973 117.629 141.527 118.229 146.005C118.417 147.453 118.728 148.881 119.159 150.276C120.771 155.177 121.848 164.322 121.848 164.322L123.592 180.195C123.527 182.386 123.622 184.579 123.876 186.756C122.095 188.789 114.946 197.262 117.677 199.567C119.778 201.385 123.455 201.086 125.52 200.713C123.781 205.015 121.044 212.495 120.682 217.632C120.157 225.232 121.58 235.302 123.834 239.168C126.087 243.034 133.598 252.951 133.598 252.951C133.598 252.951 133.247 266.556 135.931 271.499C138.615 276.441 139.697 286.695 139.697 286.695C139.697 286.695 142.202 295.351 140.947 298.534C139.692 301.718 143.274 304.365 139.513 306.482C135.752 308.599 130.941 356.309 130.941 356.309C130.941 356.309 129.002 387.579 130.941 389.171C131.044 389.246 131.155 389.311 131.271 389.365V399.87C131.271 399.87 129.927 402.077 135.395 402.523C139.14 402.822 149.756 403.5 156.054 403.894L160.934 404.199C160.934 404.199 172.49 406.499 177.595 404.199C182.701 401.898 191.752 401.95 190.407 395.873C190.229 395.046 189.99 394.233 189.692 393.441C188.216 389.67 185.711 389.239 181.094 388.188C180.826 388.13 180.568 388.078 180.332 388.036C175.468 387.19 173.871 389.454 171.145 386.507C168.776 383.96 161.233 381.108 158.665 380.204C158.728 380.015 158.806 379.831 158.869 379.637C158.142 379.513 157.466 379.183 156.921 378.686L163.881 379.127L168.025 379.385C168.025 379.385 177.848 381.344 182.207 379.385C186.567 377.425 194.236 377.478 193.091 372.314C192.94 371.611 192.738 370.919 192.487 370.245C191.232 367.041 189.099 366.689 185.175 365.801C184.949 365.754 184.739 365.707 184.529 365.67C180.395 364.95 179.04 366.873 176.723 364.372C174.738 362.24 168.471 359.85 166.218 359.036C166.218 357.869 164.642 356.21 163.649 354.544C162.483 352.601 164.637 345.799 164.637 345.799L165.866 317.576C166.334 317.367 166.829 317.226 167.337 317.155C167.337 317.155 172.894 311.85 171.639 306.198C171.383 304.489 171.25 302.763 171.24 301.035C173.068 299.338 175.584 296.833 176.298 295.288C177.464 292.772 176.298 280.581 176.298 280.581V233.962L185.595 234.903L194.031 235.769L196.6 236.032L205.036 236.883L224.424 238.842L241.894 235.533L249.453 234.104L264.996 231.163V193.133L281.085 190.475ZM153.123 64.4564L152.041 64.3409C152.398 64.3566 152.776 64.4249 153.123 64.4564Z" fill="url(#paint0_linear_668_271)"/>
<path d="M243.375 215.168C238.122 222.685 219.239 218.703 219.239 218.703L204.605 205.009L202.635 203.155L205.939 196.137C205.939 196.137 206.989 196.426 208.791 196.941C218.251 199.688 247.808 208.849 243.375 215.168Z" fill="#EFB7B9"/>
<path opacity="0.1" d="M208.78 196.941C208.134 199.189 206.364 202.556 204.605 205.009L202.635 203.155L205.939 196.137C205.939 196.137 207 196.426 208.78 196.941Z" fill="black"/>
<path d="M158.591 117.803C158.591 117.803 145.102 123.786 145.764 138.478C146.24 147.943 147.271 157.372 148.852 166.716C148.852 166.716 146.095 188.825 157.577 194.524C169.06 200.224 179.686 204.909 179.686 204.909C179.686 204.909 197.65 206.842 199.883 207.64C202.115 208.439 209.091 196.231 207.804 194.33C206.517 192.428 190.029 188.442 187.928 185.269C185.826 182.096 180.968 180.137 180.968 180.137C180.968 180.137 175.951 177.101 175.61 174.359C175.268 171.617 176.592 169.574 176.928 168.371C177.265 167.168 178.115 155.554 178.115 155.554C178.115 155.554 183.778 114.215 158.591 117.803Z" fill="#DCE6F2"/>
<path opacity="0.1" d="M167.495 166.113C167.495 166.113 148.989 169.212 150.78 175.689C150.78 175.689 157.499 168.697 167.495 166.113Z" fill="black"/>
<path opacity="0.1" d="M167.636 168.733C167.636 168.733 157.462 177.038 159.453 177.463C161.443 177.889 167.636 168.733 167.636 168.733Z" fill="black"/>
<path opacity="0.1" d="M172.527 171.627C172.527 171.627 169.801 177.211 171.476 176.833C173.152 176.455 172.527 171.627 172.527 171.627Z" fill="black"/>
<path opacity="0.1" d="M209.465 197.534L208.34 197.214C208.661 196.163 208.75 195.312 208.488 194.918C207.201 193.017 190.723 189.035 188.627 185.857C186.531 182.679 181.667 180.725 181.667 180.725C181.667 180.725 176.651 177.689 176.309 174.947C175.968 172.205 177.292 170.162 177.628 168.959C177.964 167.756 178.815 156.137 178.815 156.137C178.815 156.137 184.462 114.804 159.275 118.391C159.275 118.391 145.786 124.379 146.442 139.071C146.919 148.537 147.952 157.966 149.536 167.31C149.536 167.31 146.778 189.419 158.261 195.118C169.743 200.817 180.37 205.503 180.37 205.503C180.37 205.503 198.329 207.43 200.566 208.234C201.412 208.539 202.941 206.968 204.438 204.809L205.289 205.602L219.923 219.291C219.923 219.291 238.806 223.278 244.059 215.761C248.498 209.437 218.946 200.276 209.465 197.534Z" fill="black"/>
<path d="M150.827 62.6597C150.313 62.7602 149.82 62.9505 149.372 63.2217C148.847 63.6577 148.847 64.4036 148.716 65.0549C148.561 65.961 148.202 66.8198 147.665 67.5658C148.263 67.6096 148.862 67.5106 149.414 67.2769C149.324 67.9958 149.148 68.7013 148.889 69.3779C149.216 69.3863 149.539 69.3 149.818 69.1295C150.098 68.959 150.322 68.7115 150.465 68.4167C150.743 67.8248 150.963 67.2073 151.121 66.573C151.171 66.3833 151.256 66.2049 151.373 66.0477C151.857 65.4752 152.755 65.7325 153.501 65.8061C154.122 65.8584 154.745 65.7438 155.307 65.4741C155.868 65.2044 156.347 64.7895 156.695 64.2723C157.488 63.0694 157.535 59.9913 155.644 59.6656C153.669 59.34 152.44 62.0609 150.827 62.6597Z" fill="#965D7B"/>
<g opacity="0.1">
<path opacity="0.1" d="M149.32 63.8676C149.367 63.6102 149.399 63.3423 149.457 63.085C148.958 63.5209 148.931 64.2616 148.8 64.9182C148.734 65.297 148.63 65.6683 148.49 66.0265C148.904 65.3673 149.186 64.6341 149.32 63.8676V63.8676Z" fill="black"/>
<path opacity="0.1" d="M149.488 68.2066C149.75 67.5307 149.926 66.8249 150.013 66.1055C149.487 66.3268 148.918 66.4256 148.348 66.3944C148.182 66.7638 147.98 67.1157 147.744 67.4449C148.34 67.491 148.938 67.3937 149.488 67.1613C149.401 67.8807 149.224 68.5865 148.963 69.2624C149.29 69.27 149.612 69.1835 149.892 69.0131C150.171 68.8427 150.396 68.5955 150.539 68.3011C150.669 68.0624 150.775 67.8106 150.854 67.55C150.7 67.7654 150.494 67.9384 150.255 68.0532C150.016 68.168 149.753 68.2207 149.488 68.2066V68.2066Z" fill="black"/>
<path opacity="0.1" d="M154.101 64.6346C153.355 64.561 152.451 64.3037 151.968 64.8762C151.853 65.0347 151.768 65.2126 151.716 65.4015C151.669 65.5381 151.627 65.6799 151.59 65.8217C152.089 65.4277 152.898 65.6379 153.575 65.7061C154.196 65.7568 154.819 65.6415 155.38 65.3719C155.941 65.1024 156.421 64.6884 156.769 64.1723C156.928 63.9173 157.047 63.6391 157.121 63.3477C156.761 63.7929 156.298 64.1431 155.771 64.3674C155.245 64.5918 154.671 64.6835 154.101 64.6346Z" fill="black"/>
</g>
<path d="M166.639 106.042L174.649 115.676L173.604 125.398L163.923 110.244L166.639 106.042Z" fill="#DCE6F2"/>
<path opacity="0.1" d="M174.644 115.676L173.661 124.821L173.598 125.398L164.863 111.72L163.923 110.244L164.196 109.819L166.633 106.042L167.174 106.693L174.644 115.676Z" fill="black"/>
<path d="M178.803 92.9994C176.093 93.7768 173.503 96.4452 171.25 99.6861C169.726 101.922 168.364 104.264 167.173 106.693C166.433 108.175 165.781 109.598 165.24 110.838L164.862 111.72C163.948 113.879 163.439 115.324 163.439 115.324C163.439 115.324 142.69 99.7229 145.973 98.6724C147.076 98.3204 148.526 95.9567 149.96 92.9784L150.139 92.6002C151.047 90.6882 151.94 88.5556 152.734 86.549C154.357 82.4256 155.56 78.8433 155.56 78.8433C155.56 78.8433 187.076 90.6357 178.803 92.9994Z" fill="#EFB7B9"/>
<path d="M191.216 77.9663C191.216 77.9663 196.006 86.6333 202.441 85.4515C208.876 84.2696 206.228 80.7975 206.228 80.7975L191.216 77.9663Z" fill="#1731BA"/>
<path d="M181.935 377.977C177.691 379.915 168.094 377.977 168.094 377.977L164.05 377.725C158.797 377.388 150.004 376.821 146.894 376.569C142.356 376.196 143.469 374.336 143.469 374.336V363.101L165.489 357.522C165.489 357.522 174.193 360.501 176.577 363.101C178.841 365.58 180.165 363.673 184.204 364.388C184.404 364.425 184.614 364.467 184.835 364.519C188.669 365.396 190.749 365.743 191.978 368.921C192.225 369.589 192.424 370.273 192.572 370.97C193.707 376.086 186.174 376.049 181.935 377.977Z" fill="#A36468"/>
<path opacity="0.1" d="M191.978 368.921C191.189 369.414 190.36 369.839 189.499 370.192C186.61 371.51 183.863 373.118 180.942 374.363C178.022 375.608 174.875 376.495 171.713 376.259C170.059 376.138 168.367 375.734 166.786 376.206C165.808 376.584 164.888 377.095 164.05 377.724C158.797 377.388 150.004 376.821 146.894 376.569C142.356 376.196 143.469 374.336 143.469 374.336V373.023C143.632 373.023 143.816 372.976 144.026 372.96C145.113 372.943 146.196 373.104 147.23 373.438C149.51 374.058 151.779 374.667 154.059 375.277C154.246 374.569 154.576 373.907 155.027 373.331C155.479 372.755 156.043 372.277 156.685 371.925C157.986 371.235 159.447 370.899 160.919 370.954C164.454 371.001 167.8 372.677 171.33 372.845C172.317 372.935 173.31 372.769 174.214 372.361C174.697 372.12 175.122 371.768 175.595 371.5C176.352 371.134 177.151 370.864 177.975 370.696C180.289 370.12 182.562 369.386 184.777 368.501C185.407 368.254 186.143 367.807 186.059 367.135C185.948 366.242 184.546 366.137 184.178 365.317C184.113 365.17 184.083 365.009 184.091 364.848C184.098 364.686 184.142 364.529 184.22 364.388C184.42 364.424 184.63 364.466 184.85 364.519C188.669 365.396 190.749 365.743 191.978 368.921Z" fill="black"/>
<path d="M177.448 402.56C172.458 404.839 161.164 402.56 161.164 402.56L156.411 402.281C150.254 401.887 139.885 401.231 136.224 400.921C130.882 400.48 132.195 398.294 132.195 398.294V385.052L158.107 378.486C158.107 378.486 168.35 381.99 171.155 385.052C173.818 387.968 175.357 385.725 180.132 386.565C180.368 386.607 180.615 386.66 180.873 386.717C185.385 387.768 187.832 388.162 189.277 391.902C189.569 392.687 189.803 393.493 189.976 394.313C191.278 400.332 182.438 400.285 177.448 402.56Z" fill="#A36468"/>
<path opacity="0.1" d="M189.266 391.901C188.338 392.481 187.363 392.982 186.351 393.398C182.953 394.948 179.717 396.839 176.282 398.304C172.846 399.77 169.143 400.81 165.419 400.537C163.475 400.395 161.485 399.907 159.641 400.474C158.486 400.924 157.399 401.532 156.411 402.281C150.254 401.887 139.885 401.23 136.224 400.92C130.882 400.479 132.195 398.294 132.195 398.294V396.75C132.413 396.714 132.632 396.69 132.852 396.676C134.132 396.653 135.406 396.843 136.623 397.238L144.655 399.402C144.879 398.568 145.27 397.787 145.806 397.109C146.341 396.431 147.01 395.869 147.77 395.457C149.301 394.641 151.021 394.246 152.755 394.312C156.915 394.37 160.849 396.34 165.004 396.54C166.161 396.645 167.326 396.452 168.387 395.977C168.959 395.689 169.437 395.274 170.015 394.964C170.904 394.529 171.845 394.211 172.815 394.018C175.524 393.335 178.184 392.471 180.778 391.434C181.519 391.14 182.385 390.614 182.286 389.826C182.154 388.776 180.505 388.65 180.069 387.683C179.995 387.509 179.962 387.32 179.971 387.131C179.98 386.942 180.032 386.757 180.121 386.591C180.358 386.633 180.605 386.685 180.862 386.743C185.374 387.752 187.822 388.161 189.266 391.901Z" fill="black"/>
<path d="M166.155 311.692L164.752 344.695C164.752 344.695 162.651 351.434 163.791 353.362C164.931 355.29 166.853 357.212 166.155 358.352C165.456 359.492 157.052 371.815 154.336 367.087C151.62 362.36 148.941 341.874 148.941 341.874L151.447 316.572L166.155 311.692Z" fill="#1731BA"/>
<path d="M172.238 229.466L176.136 234.677V279.997C176.136 279.997 177.276 292.079 176.136 294.574C174.996 297.069 169.218 302.059 169.218 302.059L164.359 277.108L165.41 250.713L172.238 229.466Z" fill="#1731BA"/>
<path opacity="0.1" d="M166.155 311.692L164.752 344.695C164.752 344.695 162.651 351.434 163.791 353.362C164.931 355.29 166.853 357.212 166.155 358.352C165.456 359.492 157.052 371.815 154.336 367.087C151.62 362.36 148.941 341.874 148.941 341.874L151.447 316.572L166.155 311.692Z" fill="black"/>
<path opacity="0.1" d="M172.238 229.466L176.136 234.677V279.997C176.136 279.997 177.276 292.079 176.136 294.574C174.996 297.069 169.218 302.059 169.218 302.059L164.359 277.108L165.41 250.713L172.238 229.466Z" fill="black"/>
<path d="M176.135 210.136V234.65L171.76 253.734C171.76 253.734 170.357 299.784 171.581 305.384C172.805 310.983 167.379 316.241 167.379 316.241C167.379 316.241 164.227 316.593 164.227 319.041C164.227 321.489 158.974 328.496 158.974 328.496L159.148 342.153C159.148 342.153 161.427 367.718 157.924 372.619C154.42 377.52 159.148 378.224 159.148 378.224C154.772 392.579 133.761 389.254 131.865 387.679C129.969 386.103 131.865 355.112 131.865 355.112C131.865 355.112 136.561 307.837 140.238 305.736C143.915 303.635 140.417 301.008 141.64 297.857C142.864 294.705 140.417 286.127 140.417 286.127C140.417 286.127 139.366 275.969 136.74 271.068C134.113 266.167 134.46 252.683 134.46 252.683C134.46 252.683 127.106 242.876 124.921 239.026C122.736 235.176 121.328 225.195 121.853 217.663C122.21 212.573 124.884 205.162 126.581 200.896C127.395 198.853 127.983 197.529 127.983 197.529L128.482 197.661L157.173 205.172L176.135 210.136Z" fill="#1731BA"/>
<path opacity="0.1" d="M178.803 92.9996C176.093 93.777 173.503 96.4454 171.25 99.6863H170.661C167.358 99.6886 164.113 98.819 161.254 97.1653C158.395 95.5115 156.023 93.1323 154.378 90.2681C153.69 89.0813 153.137 87.8217 152.729 86.5124C154.352 82.389 155.554 78.8066 155.554 78.8066C155.554 78.8066 187.076 90.6358 178.803 92.9996Z" fill="black"/>
<path d="M189.441 79.8674C189.446 82.7415 188.79 85.5783 187.526 88.1593C186.262 90.7403 184.422 92.9967 182.148 94.7545C179.874 96.5124 177.227 97.7248 174.411 98.2985C171.594 98.8722 168.684 98.7918 165.904 98.0634C163.123 97.3351 160.547 95.9783 158.374 94.0976C156.201 92.2168 154.488 89.8623 153.368 87.2154C152.248 84.5685 151.751 81.6998 151.914 78.8304C152.078 75.9609 152.897 73.1673 154.311 70.6646C154.88 69.6477 155.545 68.6874 156.296 67.7966C157.535 66.3209 158.991 65.0421 160.614 64.0041C163.356 62.2619 166.502 61.2606 169.747 61.0982C172.991 60.9358 176.222 61.6177 179.124 63.0775C182.026 64.5372 184.5 66.7247 186.303 69.4264C188.107 72.128 189.179 75.2513 189.415 78.4912C189.425 78.9534 189.441 79.4104 189.441 79.8674Z" fill="#EFB7B9"/>
<path opacity="0.1" d="M173.661 124.821L173.597 125.399L164.862 111.742C163.948 113.9 163.439 115.345 163.439 115.345C163.439 115.345 142.69 99.7233 145.973 98.6728C147.076 98.3208 148.526 95.9571 149.96 92.9788L150.139 92.6006C151.662 97.139 160.513 106.21 164.195 109.845C164.621 110.266 164.972 110.612 165.246 110.864L165.808 111.39L166.102 111.684C167.441 113.065 173.093 119.158 173.661 124.821Z" fill="black"/>
<path d="M180.191 171.16L179.235 201.926L179.067 207.404C179.067 207.404 167.742 206.354 157.173 205.198C148.664 204.268 140.643 203.265 139.409 202.677C137.833 201.936 134.455 201.364 131.792 201.001C129.733 200.723 128.115 200.576 128.115 200.576C128.115 200.576 127.511 200.754 126.581 200.922C124.554 201.29 120.992 201.59 118.918 199.788C116.265 197.482 123.235 189.104 124.974 187.092L125.357 186.656L124.701 180.589L122.994 164.857C122.994 164.857 121.943 155.796 120.367 150.937C119.946 149.556 119.642 148.141 119.459 146.709C118.873 142.271 119.173 137.761 120.341 133.44C120.84 131.604 121.157 129.724 121.287 127.825C121.549 122.966 136.388 104.188 140.065 102.481C141.719 101.709 143.05 100.382 143.826 98.7303C144.082 98.2109 144.274 97.6624 144.399 97.0967C145.974 90.2681 149.961 92.9786 149.961 92.9786C150.923 98.3206 165.804 112.461 165.804 112.461L166.098 112.755C167.574 114.268 174.15 121.37 173.683 127.431C173.589 129.687 173.926 131.941 174.675 134.071C177.702 143.602 179.442 153.494 179.849 163.486L180.191 171.16Z" fill="#DCE6F2"/>
<path opacity="0.1" d="M159.106 134.627C159.106 134.627 155.429 143.557 152.671 145.002C149.914 146.446 160.419 148.048 159.106 134.627Z" fill="black"/>
<path opacity="0.1" d="M161.863 151.305C161.863 151.305 153.459 152.355 153.459 153.931C153.459 155.507 161.863 151.305 161.863 151.305Z" fill="black"/>
<path opacity="0.1" d="M170.662 161.548C170.662 161.548 158.449 187.549 155.035 188.337C151.621 189.125 170.662 161.548 170.662 161.548Z" fill="black"/>
<path opacity="0.1" d="M165.572 113.779L155.471 118.17L143.279 99.7542C143.535 99.2348 143.728 98.6863 143.852 98.1206C145.428 91.2921 149.414 94.0025 149.414 94.0025C150.376 99.3445 165.257 113.485 165.257 113.485L165.572 113.779Z" fill="black"/>
<path d="M166.096 112.729L155.995 117.12L143.804 98.7039C144.06 98.1846 144.252 97.636 144.376 97.0703C145.952 90.2418 149.939 92.9522 149.939 92.9522C150.9 98.2942 165.781 112.435 165.781 112.435L166.096 112.729Z" fill="#DCE6F2"/>
<path opacity="0.1" d="M179.066 207.404C179.066 207.404 167.741 206.354 157.172 205.198L176.135 210.162V215.94C175.305 216.691 174.585 217.08 174.118 216.88C171.933 215.961 154.099 213.072 154.099 213.072C154.099 213.072 143.741 207.819 132.563 201.516C132.292 201.366 132.029 201.201 131.775 201.022C130.472 200.137 129.349 199.012 128.466 197.708C126.402 194.719 125.393 190.879 124.957 187.113C124.712 184.954 124.621 182.781 124.684 180.61C124.738 178.148 124.963 175.692 125.356 173.261C124.275 163.846 123.749 154.374 123.781 144.897C123.912 130.189 137.7 124.936 137.7 124.936C163.045 122.704 155.187 163.675 155.187 163.675C155.187 163.675 153.721 175.231 153.322 176.413C152.923 177.595 151.489 179.565 151.683 182.322C151.878 185.08 156.721 188.379 156.721 188.379C156.721 188.379 161.448 190.595 163.397 193.878C164.815 196.3 174.028 199.583 179.234 201.926L179.066 207.404Z" fill="black"/>
<path opacity="0.1" d="M187.555 68.2066C187.565 69.0718 187.386 69.9287 187.03 70.7174C186.761 71.3611 186.448 71.9858 186.095 72.5874C185.542 73.694 184.757 74.6686 183.794 75.4449C182.581 76.3116 181.047 76.5532 179.592 76.9052C178.137 77.2571 176.624 77.8191 175.794 79.0588C175.345 79.8557 175.044 80.7279 174.907 81.6326C174.767 82.5366 174.407 83.392 173.856 84.1224C173.569 84.479 173.172 84.7303 172.727 84.8368C172.283 84.9433 171.815 84.899 171.398 84.7107C170.958 84.4146 170.625 83.9857 170.447 83.4868C169.848 82.1369 169.696 80.6399 169.454 79.1848C169.213 77.7298 168.871 76.2328 167.978 75.0614C167.085 73.8901 165.504 73.1179 164.102 73.5749C163.632 73.7556 163.204 74.0293 162.843 74.3795C162.482 74.7297 162.196 75.1493 162.001 75.613C161.612 76.5413 161.346 77.5159 161.207 78.5125C160.556 82.0774 159.787 85.6212 158.901 89.144C158.874 89.2885 158.815 89.4249 158.728 89.5433C158.589 89.6824 158.4 89.7616 158.203 89.7639C157.026 89.9214 155.897 89.0968 154.71 89.1861C154.587 89.1942 154.466 89.2136 154.347 89.2439C152.428 85.9082 151.581 82.0631 151.92 78.2296C152.259 74.3961 153.768 70.7595 156.244 67.8127L156.338 67.7864C157.128 67.5061 157.845 67.054 158.439 66.4627C159.198 65.7039 159.9 64.8911 160.54 64.0307L160.961 63.5054C162.168 62.0509 163.543 60.7444 165.058 59.6131C165.471 59.2744 165.945 59.0177 166.455 58.8567C166.891 58.7718 167.338 58.7576 167.779 58.8147C169.593 59.0325 171.422 59.101 173.247 59.0196C174.519 58.8196 175.8 58.6899 177.086 58.6309C180.411 58.7254 183.248 61.0734 185.349 63.6472C186.478 64.9657 187.487 66.4837 187.555 68.2066Z" fill="black"/>
<path d="M151.857 71.1637C151.127 72.3613 149.809 73.1755 149.315 74.4886C148.59 76.3954 149.814 78.7696 148.69 80.4715C148.317 81.0441 147.702 81.4695 147.492 82.1261C147.135 83.2345 148.112 84.4163 147.86 85.5562C147.608 86.696 146.105 87.6573 146.505 88.7708C146.74 89.2565 147.154 89.6327 147.66 89.8214C148.456 90.278 149.372 90.4813 150.287 90.4044C151.721 90.1681 152.787 88.7603 154.242 88.6553C155.424 88.5712 156.553 89.3907 157.73 89.2383C157.927 89.2315 158.114 89.1509 158.255 89.0125C158.344 88.8954 158.404 88.7584 158.428 88.6133C159.311 85.0939 160.081 81.5501 160.74 77.9817C160.874 76.9848 161.139 76.0099 161.527 75.0822C161.724 74.6195 162.011 74.2007 162.372 73.8507C162.733 73.5007 163.16 73.2264 163.629 73.0441C165.031 72.5924 166.607 73.3593 167.505 74.5307C168.403 75.702 168.745 77.1991 168.986 78.6541C169.228 80.1091 169.38 81.6061 169.974 82.9561C170.154 83.4567 170.489 83.8872 170.93 84.1852C171.718 84.6422 172.779 84.2798 173.383 83.5969C173.936 82.8662 174.297 82.0083 174.433 81.1018C174.57 80.1987 174.871 79.3283 175.321 78.5333C176.151 77.2936 177.669 76.7316 179.119 76.3796C180.569 76.0277 182.097 75.7808 183.321 74.9141C184.283 74.1387 185.067 73.1661 185.622 72.0619C186.399 70.7067 187.124 69.2359 187.061 67.6758C186.993 65.9739 185.984 64.4559 184.907 63.1322C182.806 60.5584 179.965 58.2104 176.64 58.1211C175.353 58.1749 174.071 58.3047 172.8 58.5098C170.974 58.5919 169.145 58.5216 167.332 58.2997C166.891 58.2469 166.444 58.2629 166.008 58.347C165.498 58.5028 165.024 58.7601 164.616 59.1034C163.1 60.2327 161.723 61.5375 160.514 62.9904C159.734 64.0243 158.888 65.0069 157.982 65.9319C157.388 66.5241 156.67 66.9779 155.881 67.2609C155.355 67.4079 154.83 67.3029 154.331 67.4657C152.782 67.9542 152.577 69.9765 151.857 71.1637Z" fill="#965D7B"/>
<path opacity="0.1" d="M202.441 85.4462C198.239 86.2184 194.756 82.8198 192.828 80.3406C192.236 79.5876 191.698 78.7942 191.216 77.9663L205.64 80.6872L206.223 80.7975C206.223 80.7975 208.876 84.2696 202.441 85.4462Z" fill="black"/>
<g opacity="0.1">
<path opacity="0.1" d="M147.86 84.0542C147.919 83.3672 147.814 82.6761 147.555 82.0371C147.555 82.0896 147.508 82.1422 147.492 82.1947C147.266 82.8986 147.571 83.6287 147.765 84.3588C147.807 84.2607 147.839 84.1587 147.86 84.0542V84.0542Z" fill="black"/>
<path opacity="0.1" d="M149.109 75.4556C149.055 76.1819 149.069 76.9117 149.151 77.6355C149.205 76.9091 149.191 76.1793 149.109 75.4556Z" fill="black"/>
<path opacity="0.1" d="M185.59 70.5443C185.038 71.6509 184.253 72.6255 183.29 73.4018C182.076 74.2685 180.548 74.5101 179.088 74.862C177.627 75.214 176.12 75.776 175.29 77.0157C174.841 77.8129 174.54 78.6849 174.402 79.5895C174.265 80.4957 173.904 81.3534 173.352 82.0845C172.747 82.7674 171.686 83.1351 170.898 82.6729C170.458 82.3748 170.123 81.9444 169.942 81.4437C169.349 80.0938 169.191 78.602 168.955 77.1417C168.719 75.6814 168.367 74.1897 167.474 73.0183C166.581 71.847 165 71.0748 163.597 71.5318C163.128 71.7133 162.701 71.9872 162.34 72.3374C161.979 72.6875 161.692 73.1066 161.496 73.5699C161.107 74.4976 160.842 75.4724 160.708 76.4694C160.053 80.0377 159.283 83.5816 158.397 87.1009C158.372 87.2461 158.313 87.3831 158.224 87.5001C158.083 87.6385 157.896 87.7191 157.698 87.726C156.522 87.8783 155.392 87.0589 154.211 87.1429C152.756 87.248 151.689 88.6557 150.255 88.8868C149.341 88.9689 148.423 88.7652 147.629 88.3038C147.264 88.1467 146.936 87.914 146.668 87.6209C146.545 87.7969 146.463 87.9985 146.43 88.2105C146.396 88.4225 146.411 88.6394 146.473 88.8448C146.705 89.3339 147.12 89.7115 147.629 89.8954C148.423 90.3567 149.341 90.5605 150.255 90.4784C151.689 90.2473 152.756 88.8396 154.211 88.7345C155.392 88.6505 156.522 89.4699 157.698 89.3176C157.896 89.3107 158.083 89.2301 158.224 89.0917C158.313 88.9746 158.372 88.8376 158.397 88.6925C159.279 85.1907 160.05 81.6468 160.708 78.0609C160.842 77.064 161.107 76.0891 161.496 75.1614C161.692 74.6982 161.979 74.2791 162.34 73.929C162.701 73.5788 163.128 73.3049 163.597 73.1234C165 72.6664 166.575 73.4385 167.474 74.6099C168.372 75.7813 168.713 77.2783 168.955 78.7333C169.197 80.1883 169.349 81.6853 169.942 83.0353C170.123 83.536 170.458 83.9664 170.898 84.2644C171.686 84.7214 172.747 84.359 173.352 83.6761C173.904 82.945 174.265 82.0873 174.402 81.1811C174.54 80.2765 174.841 79.4045 175.29 78.6072C176.12 77.3676 177.638 76.8108 179.088 76.4536C180.537 76.0964 182.066 75.86 183.29 74.9933C184.253 74.2171 185.038 73.2425 185.59 72.1358C186.368 70.7859 187.093 69.3151 187.03 67.7551C187.019 67.5545 186.998 67.3546 186.967 67.1562C186.713 68.3585 186.247 69.5058 185.59 70.5443V70.5443Z" fill="black"/>
</g>
<path opacity="0.1" d="M187.051 70.702C188.398 73.0969 189.196 75.7612 189.389 78.5023C184.708 75.8759 180.307 72.9921 178.085 71.9889C174.213 70.2397 159.737 70.5023 154.295 70.6652C154.864 69.6483 155.529 68.688 156.28 67.7972C157.524 66.3202 158.985 65.0414 160.614 64.0047C162.771 62.6358 165.185 61.7211 167.707 61.3166C170.23 60.9121 172.808 61.0263 175.285 61.6521C177.762 62.278 180.085 63.4024 182.113 64.9566C184.14 66.5108 185.829 68.4622 187.077 70.6914L187.051 70.702Z" fill="black"/>
<path opacity="0.1" d="M203.754 83.2191C201.228 83.9965 197.104 82.4942 192.828 80.3406C192.236 79.5876 191.698 78.7942 191.216 77.9663L205.64 80.6872C206.596 81.3386 206.837 82.2683 203.754 83.2191Z" fill="black"/>
<path d="M171.781 52.4901C171.781 52.4901 157.993 51.7022 154.116 59.1874L153.491 65.8216L152.441 65.706L152.23 70.2182C152.23 70.2182 173.304 69.2989 178.1 71.463C182.896 73.6272 197.798 84.5319 203.77 82.6934C209.743 80.855 203.245 79.1478 203.245 79.1478C203.245 79.1478 195.025 75.6652 195.025 72.9338C195.025 70.2024 192.987 55.7731 171.781 52.4901Z" fill="#1731BA"/>
<path opacity="0.1" d="M145.187 298.424C145.187 298.424 153.985 306.96 157.793 306.303C157.793 306.303 147.025 305.384 145.187 298.424Z" fill="black"/>
<path opacity="0.1" d="M143.349 302.379C143.349 302.379 144.137 306.771 146.238 306.34C148.339 305.909 143.349 302.379 143.349 302.379Z" fill="black"/>
<path opacity="0.1" d="M157.137 375.771C157.137 375.771 144.646 385.488 146.752 385.751C148.858 386.013 157.137 375.771 157.137 375.771Z" fill="black"/>
<path d="M173.845 182.905L214.291 176.324V214.616L175.862 212.604L173.845 182.905Z" fill="#3C83E6"/>
<path opacity="0.05" d="M173.845 182.905L214.291 176.324V214.616L175.862 212.604L173.845 182.905Z" fill="black"/>
<path d="M214.291 176.324L262.795 179.953L260.111 213.277L214.291 214.616V176.324Z" fill="#3C83E6"/>
<path opacity="0.1" d="M214.291 176.324L262.795 179.953L260.111 213.277L214.291 214.616V176.324Z" fill="black"/>
<path d="M229.204 164.636L214.291 176.324L262.795 179.953L270.721 167.993L229.204 164.636Z" fill="#3C83E6"/>
<path d="M159.201 170.141L195.613 165.708L214.292 176.323L173.846 182.905L159.201 170.141Z" fill="#3C83E6"/>
<path d="M223.157 186.267V238.621L204.211 236.678L195.969 235.837L193.458 235.575L185.222 234.729L173.845 233.563V182.905L214.286 185.658L223.157 186.267Z" fill="#3C83E6"/>
<path d="M262.795 179.953V231.01L247.61 233.925L240.224 235.343L223.158 238.621V186.267L262.795 179.953Z" fill="#3C83E6"/>
<path opacity="0.05" d="M262.795 179.953V231.01L247.61 233.925L240.224 235.343L223.158 238.621V186.267L262.795 179.953Z" fill="black"/>
<path d="M159.201 193.926L173.846 182.905L223.159 186.267L215.899 198.495L159.201 193.926Z" fill="#3C83E6"/>
<path opacity="0.1" d="M159.201 193.926L173.846 182.905L223.159 186.267L215.899 198.495L159.201 193.926Z" fill="white"/>
<path d="M262.795 179.953L223.158 186.267L236.059 197.823L278.517 190.7L262.795 179.953Z" fill="#3C83E6"/>
<path opacity="0.1" d="M262.795 179.953L223.158 186.267L236.059 197.823L278.517 190.7L262.795 179.953Z" fill="white"/>
<path opacity="0.1" d="M247.61 233.925L240.225 235.343V224.433L247.142 222.689L247.61 233.925Z" fill="white"/>
<path opacity="0.1" d="M204.211 229.46V236.678L195.97 235.837V229.46H204.211Z" fill="white"/>
<path opacity="0.1" d="M193.459 231.735V235.575L185.223 234.729V231.735H193.459Z" fill="white"/>
<path opacity="0.1" d="M218.2 225.632C212.553 232.854 193.906 227.864 193.906 227.864L180.049 213.408L178.169 211.449L181.846 204.621C181.846 204.621 182.896 204.967 184.651 205.577C193.938 208.823 222.954 219.554 218.2 225.632Z" fill="black"/>
<path d="M217.675 224.58C212.028 231.803 193.381 226.813 193.381 226.813L179.524 212.357L177.644 210.398L181.32 203.569C181.32 203.569 182.371 203.916 184.125 204.525C193.412 207.772 222.428 218.503 217.675 224.58Z" fill="#EFB7B9"/>
<path opacity="0.1" d="M184.104 204.525C183.337 206.731 181.388 209.999 179.503 212.357L177.622 210.398L181.299 203.569C181.299 203.569 182.355 203.916 184.104 204.525Z" fill="black"/>
<path d="M138.226 122.835C138.226 122.835 124.437 128.088 124.306 142.796C124.275 152.273 124.801 161.745 125.882 171.16C125.882 171.16 121.942 193.091 133.104 199.394C144.266 205.697 154.641 210.95 154.641 210.95C154.641 210.95 172.474 213.839 174.664 214.758C176.854 215.677 184.466 203.859 183.284 201.889C182.102 199.919 165.866 195.06 163.938 191.777C162.01 188.494 157.262 186.283 157.262 186.283C157.262 186.283 152.419 182.979 152.224 180.221C152.03 177.464 153.459 175.494 153.863 174.312C154.268 173.13 155.733 161.574 155.733 161.574C155.733 161.574 163.57 120.576 138.226 122.835Z" fill="#DCE6F2"/>
<path opacity="0.1" d="M144.53 171.528C144.53 171.528 125.882 173.629 127.327 180.195C127.327 180.195 134.413 173.572 144.53 171.528Z" fill="black"/>
<path opacity="0.1" d="M144.529 174.154C144.529 174.154 133.945 181.902 135.889 182.427C137.832 182.953 144.529 174.154 144.529 174.154Z" fill="black"/>
<path opacity="0.1" d="M149.257 177.306C149.257 177.306 146.237 182.737 147.944 182.453C149.651 182.17 149.257 177.306 149.257 177.306Z" fill="black"/>
<path d="M343.41 59.4975C343.41 59.4975 323.449 58.2947 325.781 72.2985C325.781 72.2985 325.314 74.7725 327.557 75.8966C327.557 75.8966 327.594 74.8461 329.605 75.2085C330.322 75.3291 331.05 75.3643 331.775 75.3135C332.757 75.248 333.69 74.8624 334.433 74.2157V74.2157C334.433 74.2157 340.048 71.8993 342.233 62.7175C342.233 62.7175 343.851 60.7109 343.809 60.1961L340.437 61.6407C340.437 61.6407 341.587 64.0727 340.678 66.095C340.678 66.095 340.573 61.73 339.922 61.8298C339.79 61.8298 338.173 62.6754 338.173 62.6754C338.173 62.6754 340.153 66.9092 338.656 69.9925C338.656 69.9925 339.223 64.7713 337.553 62.9801L335.179 64.3668C335.179 64.3668 337.495 68.7424 335.924 72.3142C335.924 72.3142 336.329 66.8356 334.679 64.703L332.526 66.3786C332.526 66.3786 334.706 70.6964 333.377 73.6589C333.377 73.6589 333.203 67.2821 332.058 66.7989C332.058 66.7989 330.178 68.4587 329.894 69.1416C329.894 69.1416 331.381 72.2932 330.456 73.9268C330.456 73.9268 329.889 69.6774 329.406 69.6563C329.406 69.6563 327.531 72.4718 327.336 74.3838C327.427 72.6013 327.983 70.8736 328.949 69.3727C327.868 69.5772 326.871 70.094 326.081 70.8592C326.081 70.8592 326.37 68.8684 329.411 68.6951C329.411 68.6951 330.987 66.5572 331.376 66.4259C331.376 66.4259 328.35 66.1738 326.517 66.9879C326.517 66.9879 328.129 65.1127 331.932 65.9374L334.033 64.204C334.033 64.204 330.052 63.6787 328.36 64.2618C328.36 64.2618 330.304 62.6019 334.606 63.81L336.917 62.4286C336.917 62.4286 333.524 61.6932 331.502 61.9611C331.502 61.9611 333.634 60.8107 337.595 62.0556L339.249 61.315C339.249 61.315 336.76 60.8265 336.035 60.7477C335.31 60.6689 335.268 60.4693 335.268 60.4693C336.843 60.2071 338.46 60.389 339.937 60.9946C339.937 60.9946 343.483 59.7181 343.41 59.4975Z" fill="#3C83E6"/>
<path opacity="0.1" d="M404.057 129.538C404.057 129.538 384.097 128.335 386.429 142.339C386.429 142.339 385.961 144.813 388.204 145.937C388.204 145.937 388.241 144.886 390.258 145.249C390.974 145.369 391.703 145.404 392.427 145.354C393.398 145.283 394.32 144.9 395.054 144.261V144.261C395.054 144.261 400.674 141.939 402.859 132.758C402.859 132.758 404.472 130.756 404.409 130.241L401.037 131.681C401.037 131.681 402.187 134.113 401.284 136.135C401.284 136.135 401.173 131.77 400.527 131.87C400.396 131.87 398.773 132.715 398.773 132.715C398.773 132.715 400.758 136.954 399.261 140.033C399.261 140.033 399.829 134.811 398.153 133.02L395.805 134.391C395.805 134.391 398.121 138.767 396.551 142.339C396.551 142.339 396.955 136.86 395.306 134.727L393.158 136.408C393.158 136.408 395.332 140.721 394.009 143.683C394.009 143.683 393.835 137.306 392.69 136.823C392.69 136.823 390.81 138.483 390.521 139.166C390.521 139.166 392.012 142.318 391.088 143.951C391.088 143.951 390.521 139.702 390.037 139.681C390.037 139.681 388.162 142.496 387.968 144.408C388.062 142.625 388.619 140.898 389.586 139.397C388.504 139.602 387.505 140.119 386.712 140.883C386.712 140.883 387.007 138.893 390.048 138.719C390.048 138.719 391.598 136.582 392.012 136.45C392.012 136.45 388.987 136.198 387.154 137.012C387.154 137.012 388.766 135.137 392.564 135.988L394.665 134.255C394.665 134.255 390.678 133.729 388.992 134.312C388.992 134.312 390.936 132.652 395.238 133.861L397.549 132.479C397.549 132.479 394.15 131.749 392.128 132.012C392.128 132.012 394.266 130.861 398.226 132.106L399.881 131.366C399.881 131.366 397.391 130.877 396.661 130.798C395.931 130.719 395.894 130.52 395.894 130.52C397.471 130.258 399.09 130.439 400.569 131.045C400.569 131.045 404.12 129.758 404.057 129.538Z" fill="#3C83E6"/>
<path opacity="0.1" d="M282.797 117.105C282.797 117.105 287.394 97.6223 273.19 97.554C273.19 97.554 270.832 96.6715 269.345 98.6886C269.345 98.6886 270.359 98.904 269.671 100.826C269.433 101.506 269.274 102.211 269.198 102.928C269.096 103.904 269.316 104.887 269.823 105.727V105.727C269.823 105.727 271.152 111.663 279.803 115.382C279.803 115.382 281.505 117.315 282.02 117.336L281.18 113.769C281.18 113.769 278.585 114.489 276.746 113.244C276.746 113.244 281.069 113.88 281.075 113.244C281.075 113.113 280.549 111.374 280.549 111.374C280.549 111.374 276.037 112.603 273.253 110.602C273.253 110.602 278.301 112.052 280.355 110.712L279.409 108.128C279.409 108.128 274.682 109.667 271.446 107.508C271.446 107.508 276.778 108.842 279.163 107.581L277.876 105.176C277.876 105.176 273.253 106.583 270.559 104.771C270.559 104.771 276.862 105.685 277.545 104.645C277.545 104.645 276.232 102.507 275.606 102.108C275.606 102.108 272.266 103.043 270.795 101.851C270.795 101.851 275.076 102.014 275.176 101.562C275.176 101.562 272.723 99.2349 270.853 98.7096C272.595 99.1064 274.205 99.95 275.522 101.157C275.503 100.057 275.164 98.9851 274.545 98.074C274.545 98.074 276.457 98.7043 276.121 101.751C276.121 101.751 277.96 103.642 278.018 104.073C278.018 104.073 278.779 101.136 278.291 99.1876C278.291 99.1876 279.866 101.1 278.38 104.698L279.725 107.088C279.725 107.088 280.943 103.253 280.633 101.488C280.633 101.488 281.941 103.684 280.014 107.718L280.985 110.234C280.985 110.234 282.283 107.009 282.367 104.981C282.367 104.981 283.139 107.282 281.232 110.975L281.684 112.729C281.684 112.729 282.587 110.36 282.787 109.656C282.987 108.952 283.191 108.947 283.191 108.947C283.183 110.545 282.731 112.109 281.884 113.465C281.884 113.465 282.572 117.131 282.797 117.105Z" fill="#3C83E6"/>
<path opacity="0.1" d="M239.084 123.744C239.084 123.744 223.053 111.752 217.322 124.742C217.322 124.742 215.573 126.554 216.829 128.724C216.829 128.724 217.427 127.878 218.93 129.281C219.462 129.776 220.051 130.206 220.684 130.562C221.542 131.04 222.532 131.224 223.505 131.088V131.088C223.505 131.088 229.472 132.238 236.342 125.772C236.342 125.772 238.796 124.984 239.027 124.522L235.407 123.886C235.407 123.886 235.029 126.549 233.165 127.742C233.165 127.742 235.471 124.033 234.872 123.765C234.751 123.707 232.944 123.503 232.944 123.503C232.944 123.503 232.272 128.135 229.33 129.885C229.33 129.885 232.676 125.835 232.261 123.419L229.514 123.271C229.514 123.271 229.046 128.204 225.769 130.326C225.769 130.326 229.115 125.971 228.92 123.282L226.199 123.503C226.199 123.503 225.648 128.298 222.911 130.042C222.911 130.042 226.268 124.621 225.58 123.592C225.58 123.592 223.095 123.944 222.481 124.354C222.481 124.354 222.002 127.789 220.322 128.661C220.322 128.661 222.186 124.8 221.808 124.532C221.808 124.532 218.693 125.851 217.469 127.353C218.528 125.914 219.944 124.777 221.577 124.054C220.561 123.632 219.444 123.515 218.362 123.718C218.362 123.718 219.697 122.216 222.333 123.744C222.333 123.744 224.802 122.814 225.222 122.93C225.222 122.93 222.832 121.055 220.852 120.729C220.852 120.729 223.237 120.046 225.942 122.83L228.668 122.552C228.668 122.552 225.637 119.925 223.899 119.484C223.899 119.484 226.436 119.164 229.362 122.536L232.051 122.657C232.051 122.657 229.619 120.178 227.786 119.285C227.786 119.285 230.197 119.495 232.823 122.715L234.614 123.004C234.614 123.004 232.802 121.228 232.235 120.766C231.668 120.304 231.746 120.109 231.746 120.109C233.208 120.756 234.461 121.797 235.365 123.114C235.365 123.114 239.016 123.96 239.084 123.744Z" fill="#3C83E6"/>
<path opacity="0.1" d="M292.457 12.3281C292.457 12.3281 276.426 0.330787 270.695 13.3261C270.695 13.3261 268.946 15.1383 270.202 17.3077C270.202 17.3077 270.8 16.462 272.303 17.8644C272.838 18.3569 273.428 18.7853 274.062 19.1409C274.92 19.6189 275.911 19.8034 276.883 19.6661V19.6661C276.883 19.6661 282.85 20.8165 289.721 14.3451C289.721 14.3451 292.174 13.5624 292.4 13.095L288.781 12.4699C288.781 12.4699 288.408 15.133 286.538 16.3254C286.538 16.3254 288.849 12.617 288.25 12.3491C288.129 12.2913 286.322 12.0864 286.322 12.0864C286.322 12.0864 285.629 16.7299 282.687 18.4685C282.687 18.4685 286.028 14.4186 285.618 12.0024L282.871 11.8553C282.871 11.8553 282.398 16.7876 279.126 18.9045C279.126 18.9045 282.472 14.55 282.278 11.8606L279.562 12.0812C279.562 12.0812 279.005 16.8822 276.268 18.6261C276.268 18.6261 279.63 13.2053 278.942 12.1757C278.942 12.1757 276.458 12.5277 275.843 12.9374C275.843 12.9374 275.365 16.3727 273.684 17.2446C273.684 17.2446 275.549 13.3839 275.171 13.1107C275.171 13.1107 272.056 14.4344 270.832 15.9367C271.889 14.4968 273.305 13.3593 274.94 12.638C273.922 12.2125 272.803 12.0956 271.72 12.3018C271.72 12.3018 273.059 10.7995 275.696 12.3281C275.696 12.3281 278.165 11.3931 278.585 11.5139C278.585 11.5139 276.195 9.63865 274.215 9.30773C274.215 9.30773 276.594 8.63012 279.299 11.4088L282.026 11.1304C282.026 11.1304 279 8.50406 277.256 8.05757C277.256 8.05757 279.793 7.74241 282.724 11.1147L285.414 11.2302C285.414 11.2302 282.982 8.75094 281.143 7.86322C281.143 7.86322 283.559 8.07333 286.186 11.2933L287.972 11.5822C287.972 11.5822 286.154 9.82775 285.587 9.37601C285.02 8.92428 285.098 8.72467 285.098 8.72467C286.56 9.37107 287.813 10.4114 288.717 11.7292C288.717 11.7292 292.368 12.5277 292.457 12.3281Z" fill="#3C83E6"/>
<path opacity="0.1" d="M353.716 27.524C353.716 27.524 347.307 8.55629 335.221 16.0099C335.221 16.0099 332.752 16.5352 332.558 19.0093C332.558 19.0093 333.529 18.6521 333.96 20.6481C334.12 21.3581 334.362 22.0473 334.68 22.7019C335.114 23.5829 335.821 24.2998 336.697 24.7453V24.7453C336.697 24.7453 340.962 29.0788 350.291 27.6448C350.291 27.6448 352.754 28.3907 353.206 28.1333L350.58 25.5542C350.58 25.5542 348.762 27.5345 346.546 27.4557C346.546 27.4557 350.553 25.7118 350.223 25.1497C350.154 25.0394 348.783 23.847 348.783 23.847C348.783 23.847 345.6 27.2771 342.186 27.0512C342.186 27.0512 347.234 25.612 348.263 23.3743L346.089 21.6987C346.089 21.6987 342.906 25.4911 339.003 25.3756C339.003 25.3756 344.255 23.6894 345.584 21.3572L343.221 19.9968C343.221 19.9968 340.069 23.6369 336.802 23.5214C336.802 23.5214 342.643 20.9633 342.659 19.7236C342.659 19.7236 340.416 18.6048 339.675 18.5943C339.675 18.5943 337.332 21.1524 335.473 20.9213C335.473 20.9213 339.192 18.7939 339.034 18.3579C339.034 18.3579 335.725 17.6803 333.86 18.2266C335.547 17.6394 337.358 17.5036 339.113 17.8326C338.514 16.9076 337.658 16.1775 336.649 15.7315C336.649 15.7315 338.604 15.2535 339.911 18.006C339.911 18.006 342.475 18.6416 342.748 18.9725C342.748 18.9725 341.844 16.0782 340.4 14.681C340.4 14.681 342.748 15.4742 343.389 19.3139L345.795 20.6271C345.795 20.6271 344.802 16.7348 343.604 15.3744C343.604 15.3744 345.879 16.551 346.372 20.9895L348.526 22.6126C348.526 22.6126 347.927 19.1878 346.919 17.4124C346.919 17.4124 348.789 18.9567 349.125 23.1011L350.433 24.3513C350.433 24.3513 349.949 21.8615 349.75 21.1576C349.55 20.4538 349.713 20.4065 349.713 20.4065C350.548 21.7691 350.99 23.3362 350.989 24.9344C350.989 24.9344 353.532 27.6605 353.716 27.524Z" fill="#3C83E6"/>
<path opacity="0.1" d="M311.893 28.459C311.893 28.459 291.985 26.2424 293.629 40.367C293.629 40.367 293.035 42.8148 295.205 44.0439C295.205 44.0439 295.294 42.9934 297.306 43.4661C298.017 43.6191 298.743 43.6913 299.47 43.6815C300.452 43.6637 301.402 43.3263 302.175 42.7202V42.7202C302.175 42.7202 307.906 40.6874 310.579 31.6264C310.579 31.6264 312.292 29.7092 312.255 29.1892L308.814 30.4603C308.814 30.4603 309.865 32.9449 308.814 34.9199C308.814 34.9199 308.925 30.5549 308.289 30.6231C308.158 30.6231 306.498 31.3795 306.498 31.3795C306.498 31.3795 308.263 35.7131 306.614 38.7334C306.614 38.7334 307.443 33.5437 305.862 31.6737L303.42 32.9344C303.42 32.9344 305.521 37.4255 303.761 40.9133C303.761 40.9133 304.444 35.4609 302.905 33.2495L300.673 34.8253C300.673 34.8253 302.627 39.2429 301.151 42.1372C301.151 42.1372 301.303 35.7603 300.184 35.2193C300.184 35.2193 298.22 36.7951 297.899 37.4465C297.899 37.4465 299.228 40.6506 298.225 42.2527C298.225 42.2527 297.873 37.9822 297.411 37.9402C297.411 37.9402 295.394 40.6559 295.1 42.5731C295.282 40.7956 295.926 39.0969 296.97 37.6461C295.88 37.7967 294.857 38.2622 294.028 38.9855C294.028 38.9855 294.417 37.0157 297.463 36.9947C297.463 36.9947 299.118 34.9409 299.564 34.8306C299.564 34.8306 296.555 34.4261 294.679 35.1458C294.679 35.1458 296.386 33.3493 300.137 34.3946L302.348 32.7715C302.348 32.7715 298.351 31.9626 296.66 32.4879C296.66 32.4879 298.687 30.9121 302.921 32.3566L305.3 31.0906C305.3 31.0906 301.944 30.1872 299.911 30.35C299.911 30.35 302.101 29.2995 305.994 30.7545L307.685 30.0979C307.685 30.0979 305.222 29.4833 304.497 29.3677C303.772 29.2522 303.746 29.0526 303.746 29.0526C305.333 28.8704 306.941 29.1322 308.389 29.809C308.389 29.809 311.929 28.6796 311.893 28.459Z" fill="#3C83E6"/>
<path opacity="0.1" d="M486.073 182.979C486.073 182.979 466.176 180.762 467.82 194.871C467.82 194.871 467.227 197.319 469.396 198.548C469.396 198.548 469.485 197.497 471.497 197.965C472.207 198.123 472.934 198.195 473.661 198.18C474.644 198.165 475.595 197.827 476.366 197.219V197.219C476.366 197.219 482.097 195.186 484.745 186.13C484.745 186.13 486.457 184.208 486.42 183.693L482.98 184.959C482.98 184.959 484.03 187.449 482.98 189.424C482.98 189.424 483.09 185.054 482.454 185.127C482.323 185.127 480.663 185.878 480.663 185.878C480.663 185.878 482.428 190.212 480.779 193.232C480.779 193.232 481.609 188.048 480.028 186.172L477.585 187.438C477.585 187.438 479.686 191.929 477.932 195.417C477.932 195.417 478.609 189.965 477.07 187.748L474.838 189.324C474.838 189.324 476.792 193.742 475.316 196.631C475.316 196.631 475.468 190.254 474.349 189.718C474.349 189.718 472.39 191.294 472.064 191.945C472.064 191.945 473.399 195.149 472.39 196.751C472.39 196.751 472.038 192.481 471.576 192.439C471.576 192.439 469.559 195.155 469.265 197.072C469.447 195.294 470.092 193.596 471.135 192.145C470.044 192.293 469.021 192.759 468.193 193.484C468.193 193.484 468.582 191.509 471.628 191.488C471.628 191.488 473.288 189.434 473.73 189.329C473.73 189.329 470.72 188.92 468.844 189.639C468.844 189.639 470.552 187.848 474.307 188.893L476.514 187.27C476.514 187.27 472.563 186.524 470.846 187.039C470.846 187.039 472.873 185.463 477.107 186.903L479.487 185.642C479.487 185.642 476.13 184.738 474.097 184.901C474.097 184.901 476.288 183.851 480.18 185.306L481.871 184.644C481.871 184.644 479.408 184.029 478.683 183.919C477.958 183.809 477.932 183.604 477.932 183.604C479.519 183.418 481.127 183.678 482.575 184.355C482.575 184.355 486.126 183.205 486.073 182.979Z" fill="#3C83E6"/>
<path opacity="0.1" d="M516.492 201.563C516.492 201.563 496.595 199.352 498.239 213.455C498.239 213.455 497.651 215.903 499.815 217.132C499.815 217.132 499.904 216.082 501.916 216.554C502.625 216.709 503.35 216.779 504.075 216.764C505.053 216.744 505.998 216.409 506.77 215.808V215.808C506.77 215.808 512.495 213.776 515.142 204.715C515.142 204.715 516.86 202.797 516.818 202.277L513.378 203.543C513.378 203.543 514.428 206.033 513.378 208.008C513.378 208.008 513.488 203.643 512.852 203.711C512.721 203.711 511.061 204.463 511.061 204.463C511.061 204.463 512.826 208.796 511.177 211.816C511.177 211.816 512.007 206.632 510.425 204.762L507.983 206.023C507.983 206.023 510.084 210.514 508.33 214.002C508.33 214.002 509.007 208.549 507.468 206.338L505.236 207.914C505.236 207.914 507.19 212.331 505.719 215.225C505.719 215.225 505.866 208.843 504.747 208.308C504.747 208.308 502.788 209.883 502.462 210.535C502.462 210.535 503.797 213.739 502.788 215.341C502.788 215.341 502.436 211.071 501.974 211.028C501.974 211.028 499.957 213.744 499.668 215.661C499.85 213.885 500.493 212.186 501.533 210.734C500.443 210.885 499.42 211.35 498.591 212.074C498.591 212.074 498.985 210.099 502.032 210.083C502.032 210.083 503.686 208.029 504.133 207.919C504.133 207.919 501.123 207.514 499.248 208.234C499.248 208.234 500.955 206.438 504.71 207.483L506.917 205.86C506.917 205.86 502.967 205.114 501.249 205.629C501.249 205.629 503.277 204.053 507.51 205.497L509.89 204.231C509.89 204.231 506.533 203.328 504.5 203.491C504.5 203.491 506.691 202.44 510.583 203.895L512.274 203.239C512.274 203.239 509.811 202.624 509.091 202.509C508.372 202.393 508.335 202.193 508.335 202.193C509.923 202.011 511.53 202.273 512.978 202.95C512.978 202.95 516.545 201.789 516.492 201.563Z" fill="#3C83E6"/>
<path opacity="0.1" d="M448.957 45.0264C448.957 45.0264 432.926 33.0344 427.195 46.0244C427.195 46.0244 425.446 47.8366 426.702 50.006C426.702 50.006 427.3 49.1603 428.803 50.5628C429.335 51.0578 429.924 51.4881 430.557 51.8445C431.415 52.3218 432.405 52.5062 433.378 52.3697V52.3697C433.378 52.3697 439.345 53.5201 446.221 47.054C446.221 47.054 448.669 46.2661 448.9 45.8038L445.291 45.1525C445.291 45.1525 444.913 47.8156 443.048 49.008C443.048 49.008 445.354 45.2996 444.755 45.0317C444.634 44.9739 442.833 44.769 442.833 44.769C442.833 44.769 442.155 49.4019 439.214 51.1511C439.214 51.1511 442.56 47.1012 442.145 44.685L439.397 44.5379C439.397 44.5379 438.93 49.4702 435.652 51.5923C435.652 51.5923 439.003 47.2378 438.804 44.5484L436.083 44.769C436.083 44.769 435.558 49.5648 432.795 51.3087C432.795 51.3087 436.157 45.8879 435.463 44.8583C435.463 44.8583 432.979 45.2103 432.364 45.62C432.364 45.62 431.891 49.0553 430.21 49.9272C430.21 49.9272 432.07 46.0664 431.692 45.7986C431.692 45.7986 428.577 47.117 427.353 48.6193C428.412 47.1809 429.828 46.0438 431.461 45.3206C430.444 44.8983 429.327 44.7814 428.246 44.9844C428.246 44.9844 429.585 43.4821 432.222 45.0106C432.222 45.0106 434.686 44.0809 435.106 44.1965C435.106 44.1965 432.716 42.3212 430.736 41.9956C430.736 41.9956 433.12 41.3127 435.826 44.0967L438.552 43.8183C438.552 43.8183 435.526 41.1919 433.782 40.7507C433.782 40.7507 436.319 40.4303 439.245 43.8025L441.94 43.9233C441.94 43.9233 439.503 41.444 437.669 40.5511C437.669 40.5511 440.086 40.7612 442.707 43.9811L444.498 44.27C444.498 44.27 442.686 42.4946 442.118 42.0323C441.551 41.5701 441.635 41.4178 441.635 41.4178C443.094 42.0659 444.345 43.106 445.249 44.4223C445.249 44.4223 448.889 45.2418 448.957 45.0264Z" fill="#3C83E6"/>
<path opacity="0.1" d="M461.343 131.602C461.343 131.602 455.818 112.361 443.39 119.269C443.39 119.269 440.9 119.652 440.59 122.142C440.59 122.142 441.577 121.832 441.919 123.844C442.045 124.567 442.257 125.272 442.549 125.945C442.939 126.85 443.614 127.603 444.472 128.088V128.088C444.472 128.088 448.537 132.605 457.919 131.597C457.919 131.597 460.345 132.448 460.808 132.217L458.323 129.517C458.323 129.517 456.416 131.418 454.21 131.24C454.21 131.24 458.286 129.664 457.971 129.102C457.908 128.986 456.595 127.731 456.595 127.731C456.595 127.731 453.265 131.019 449.861 130.636C449.861 130.636 454.972 129.428 456.096 127.253L453.995 125.477C453.995 125.477 450.644 129.123 446.751 128.839C446.751 128.839 452.046 127.384 453.506 125.12L451.206 123.655C451.206 123.655 447.87 127.148 444.634 126.885C444.634 126.885 450.586 124.59 450.659 123.355C450.659 123.355 448.464 122.137 447.723 122.095C447.723 122.095 445.27 124.543 443.405 124.227C443.405 124.227 447.219 122.268 447.082 121.827C447.082 121.827 443.805 121.002 441.919 121.459C443.627 120.953 445.437 120.9 447.172 121.307C446.616 120.356 445.794 119.589 444.808 119.101C444.808 119.101 446.783 118.707 447.959 121.517C447.959 121.517 450.486 122.263 450.749 122.609C450.749 122.609 449.976 119.673 448.595 118.218C448.595 118.218 450.906 119.111 451.374 122.977L453.716 124.401C453.716 124.401 452.897 120.461 451.762 119.074C451.762 119.074 453.979 120.351 454.278 124.805L456.38 126.523C456.38 126.523 455.933 123.077 455.009 121.27C455.009 121.27 456.81 122.898 456.957 127.048L458.208 128.361C458.208 128.361 457.84 125.85 457.682 125.136C457.525 124.422 457.682 124.322 457.682 124.322C458.46 125.719 458.832 127.305 458.759 128.902C458.759 128.902 461.154 131.728 461.343 131.602Z" fill="#3C83E6"/>
<path opacity="0.1" d="M338.209 174.958C338.209 174.958 327.478 158.054 317.513 168.171C317.513 168.171 315.234 169.222 315.633 171.717C315.633 171.717 316.5 171.139 317.393 172.978C317.713 173.629 318.112 174.239 318.58 174.795C319.206 175.553 320.064 176.085 321.022 176.308V176.308C321.022 176.308 326.196 179.501 334.916 175.888C334.916 175.888 337.484 176.024 337.862 175.672L334.711 173.781C334.711 173.781 333.413 176.145 331.244 176.591C331.244 176.591 334.721 173.965 334.254 173.482C334.165 173.387 332.547 172.557 332.547 172.557C332.547 172.557 330.272 176.644 326.9 177.237C326.9 177.237 331.465 174.637 331.937 172.232L329.421 171.123C329.421 171.123 327.231 175.562 323.417 176.376C323.417 176.376 328.092 173.492 328.854 170.908L326.228 170.152C326.228 170.152 324.011 174.443 320.833 175.1C320.833 175.1 325.897 171.223 325.618 170.015C325.618 170.015 323.171 169.463 322.467 169.632C322.467 169.632 320.802 172.673 318.921 172.893C318.921 172.893 322.031 169.941 321.773 169.553C321.773 169.553 318.396 169.684 316.715 170.656C318.214 169.684 319.942 169.123 321.726 169.027C320.927 168.271 319.925 167.766 318.842 167.572C318.842 167.572 320.623 166.643 322.519 169.006C322.519 169.006 325.146 169.006 325.508 169.269C325.508 169.269 323.932 166.643 322.204 165.66C322.204 165.66 324.673 165.871 326.207 169.448L328.859 170.152C328.859 170.152 326.963 166.606 325.487 165.592C325.487 165.592 327.972 166.191 329.511 170.388L331.99 171.438C331.99 171.438 330.593 168.261 329.19 166.774C329.19 166.774 331.375 167.825 332.683 171.769L334.259 172.678C334.259 172.678 333.209 170.372 332.836 169.737C332.463 169.101 332.61 168.954 332.61 168.954C333.746 170.077 334.548 171.493 334.926 173.046C334.926 173.046 338.067 175.136 338.209 174.958Z" fill="#3C83E6"/>
<path d="M408.737 88.5922C408.737 88.5922 398.531 71.3685 388.251 81.1701C388.251 81.1701 385.94 82.1681 386.266 84.6579C386.266 84.6579 387.143 84.1011 387.983 85.9658C388.284 86.6287 388.663 87.253 389.113 87.8253C389.716 88.5999 390.558 89.1538 391.508 89.4011V89.4011C391.508 89.4011 396.577 92.7524 405.407 89.4011C405.407 89.4011 407.97 89.6165 408.359 89.2751L405.276 87.2895C405.276 87.2895 403.91 89.606 401.725 89.9894C401.725 89.9894 405.281 87.4524 404.834 86.9744C404.74 86.8746 403.153 85.9921 403.153 85.9921C403.153 85.9921 400.753 90.0104 397.375 90.499C397.375 90.499 402.019 88.0407 402.56 85.6559L400.081 84.4898C400.081 84.4898 397.754 88.8654 393.914 89.564C393.914 89.564 398.678 86.8273 399.518 84.2692L396.924 83.4288C396.924 83.4288 394.57 87.631 391.377 88.2088C391.377 88.2088 396.556 84.4898 396.314 83.2764C396.314 83.2764 393.888 82.6461 393.163 82.7932C393.163 82.7932 391.403 85.782 389.517 85.9448C389.517 85.9448 392.716 83.0978 392.475 82.6986C392.475 82.6986 389.092 82.7249 387.385 83.6441C388.914 82.7217 390.658 82.2147 392.443 82.1734C391.667 81.3925 390.679 80.8557 389.601 80.629C389.601 80.629 391.413 79.7518 393.278 82.1734C393.278 82.1734 395.905 82.2627 396.257 82.5305C396.257 82.5305 394.77 79.9042 393.068 78.8221C393.068 78.8221 395.526 79.1057 396.95 82.7301L399.576 83.5181C399.576 83.5181 397.796 79.9147 396.346 78.8536C396.346 78.8536 398.815 79.5312 400.222 83.7702L402.665 84.91C402.665 84.91 401.367 81.6901 400.039 80.1826C400.039 80.1826 402.187 81.3014 403.379 85.283L404.918 86.239C404.918 86.239 403.931 83.9015 403.584 83.2554C403.237 82.6093 403.384 82.4675 403.384 82.4675C404.486 83.6248 405.244 85.065 405.575 86.6277C405.575 86.6277 408.585 88.7655 408.737 88.5922Z" fill="#3C83E6"/>
<path d="M344.165 124.81C344.165 124.81 344.69 104.797 330.786 107.618C330.786 107.618 328.297 107.235 327.246 109.514C327.246 109.514 328.297 109.514 328.002 111.537C327.906 112.258 327.896 112.988 327.971 113.711C328.066 114.693 328.481 115.616 329.153 116.338C329.153 116.338 331.658 121.874 340.908 123.755C340.908 123.755 342.962 125.304 343.477 125.22L341.901 121.9C341.901 121.9 339.511 123.129 337.457 122.294C337.457 122.294 341.817 122.037 341.696 121.396C341.696 121.265 340.793 119.668 340.793 119.668C340.793 119.668 336.622 121.795 333.497 120.398C333.497 120.398 338.75 120.792 340.467 119.064L339.002 116.737C339.002 116.737 334.705 119.195 331.081 117.745C331.081 117.745 336.57 117.966 338.65 116.248L336.901 114.147C336.901 114.147 332.662 116.469 329.657 115.24C329.657 115.24 336.023 114.856 336.486 113.696C336.486 113.696 334.763 111.873 334.069 111.594C334.069 111.594 330.991 113.17 329.31 112.319C329.31 112.319 333.513 111.615 333.539 111.148C333.539 111.148 330.666 109.367 328.727 109.236C330.515 109.268 332.262 109.768 333.796 110.686C333.557 109.612 333.009 108.632 332.22 107.865C332.22 107.865 334.222 108.091 334.495 111.122C334.495 111.122 336.685 112.603 336.827 113.013C336.827 113.013 336.979 109.982 336.102 108.175C336.102 108.175 338.035 109.724 337.31 113.548L339.112 115.618C339.112 115.618 339.522 111.615 338.865 109.95C338.865 109.95 340.588 111.836 339.527 116.175L340.982 118.439C340.982 118.439 341.602 115.019 341.271 113.007C341.271 113.007 342.49 115.109 341.376 119.106L342.174 120.734C342.174 120.734 342.579 118.229 342.631 117.499C342.684 116.768 342.884 116.721 342.884 116.721C343.2 118.288 343.074 119.912 342.521 121.412C342.521 121.412 343.934 124.879 344.165 124.81Z" fill="#3C83E6"/>
<path opacity="0.1" d="M367.151 379.106C374.964 379.106 381.297 378.036 381.297 376.716C381.297 375.396 374.964 374.326 367.151 374.326C359.339 374.326 353.006 375.396 353.006 376.716C353.006 378.036 359.339 379.106 367.151 379.106Z" fill="#3C83E6"/>
<path opacity="0.1" d="M315.585 415.392C323.398 415.392 329.731 414.322 329.731 413.002C329.731 411.682 323.398 410.612 315.585 410.612C307.773 410.612 301.439 411.682 301.439 413.002C301.439 414.322 307.773 415.392 315.585 415.392Z" fill="#3C83E6"/>
<path opacity="0.1" d="M48.924 396.802C56.7364 396.802 63.0696 395.732 63.0696 394.412C63.0696 393.092 56.7364 392.022 48.924 392.022C41.1115 392.022 34.7783 393.092 34.7783 394.412C34.7783 395.732 41.1115 396.802 48.924 396.802Z" fill="#3C83E6"/>
<path opacity="0.1" d="M422.877 413.002C430.69 413.002 437.023 411.932 437.023 410.612C437.023 409.292 430.69 408.222 422.877 408.222C415.065 408.222 408.731 409.292 408.731 410.612C408.731 411.932 415.065 413.002 422.877 413.002Z" fill="#3C83E6"/>
<path d="M437.606 383.86C449.271 383.86 458.727 382.26 458.727 380.288C458.727 378.315 449.271 376.716 437.606 376.716C425.941 376.716 416.484 378.315 416.484 380.288C416.484 382.26 425.941 383.86 437.606 383.86Z" fill="#3C83E6"/>
<path d="M446.363 374.441C447.327 373.658 448.029 372.599 448.375 371.405C448.637 370.197 448.122 368.753 446.972 368.312C445.68 367.818 444.299 368.711 443.248 369.614C442.197 370.518 441.005 371.552 439.634 371.363C440.338 370.724 440.864 369.914 441.163 369.011C441.461 368.108 441.521 367.143 441.336 366.21C441.276 365.824 441.113 365.461 440.863 365.16C440.144 364.393 438.846 364.724 437.985 365.328C435.253 367.25 434.492 370.959 434.476 374.3C434.203 373.097 434.434 371.841 434.429 370.623C434.423 369.404 434.082 367.996 433.037 367.356C432.395 366.998 431.67 366.817 430.936 366.83C429.706 366.788 428.335 366.909 427.5 367.807C426.45 368.921 426.728 370.796 427.632 372.009C428.535 373.223 429.916 374.005 431.188 374.856C432.205 375.464 433.074 376.291 433.73 377.278C433.805 377.415 433.866 377.56 433.914 377.709H441.614C443.338 376.84 444.936 375.741 446.363 374.441V374.441Z" fill="#3C83E6"/>
<path d="M39.4268 383.303C39.4268 383.303 47.4897 383.056 49.9322 381.323C52.3748 379.589 62.3445 377.525 62.9486 380.304C63.5526 383.082 75.0719 394.113 65.9636 394.187C56.8554 394.26 44.8003 392.768 42.3735 391.287C39.9468 389.806 39.4268 383.303 39.4268 383.303Z" fill="#A8A8A8"/>
<path opacity="0.2" d="M66.116 393.22C57.0077 393.293 44.9526 391.801 42.5259 390.32C40.6769 389.196 39.9415 385.157 39.6947 383.292H39.4268C39.4268 383.292 39.952 389.8 42.363 391.276C44.7741 392.752 56.8449 394.249 65.9531 394.176C68.5795 394.176 69.4882 393.22 69.4409 391.833C69.0732 392.679 68.07 393.204 66.116 393.22Z" fill="black"/>
</g>
<defs>
<linearGradient id="paint0_linear_668_271" x1="117.131" y1="228.127" x2="281.085" y2="228.127" gradientUnits="userSpaceOnUse">
<stop stop-color="#808080" stop-opacity="0.25"/>
<stop offset="0.54" stop-color="#808080" stop-opacity="0.12"/>
<stop offset="1" stop-color="#808080" stop-opacity="0.1"/>
</linearGradient>
<clipPath id="clip0_668_271">
<rect width="530.286" height="414.93" fill="white" transform="translate(0 0.461914)"/>
</clipPath>
</defs>
</svg>
