<svg width="263" height="226" viewBox="0 0 263 226" fill="none" xmlns="http://www.w3.org/2000/svg">
<path d="M28 86C19.5799 86 12.8817 86 8.48581 86C5.76212 86 3.82392 88.6411 4.63506 91.2412L44.2307 218.164C44.757 219.851 46.3188 221 48.0859 221H179.747C181.511 221 183.071 219.855 183.6 218.172L223.467 91.2487C224.284 88.647 222.341 86 219.614 86C213.056 86 205.97 86 198.5 86M28 86C31.1667 51.3334 55.5 5 104.5 5C156.126 5 187.167 43.6667 198.5 86M28 86C67.0877 86 143.281 86 198.5 86" stroke="#141414" stroke-width="8.07692"/>
<ellipse cx="77.9362" cy="132" rx="11.9362" ry="17" fill="#141414"/>
<ellipse cx="140.936" cy="132" rx="11.9362" ry="17" fill="#141414"/>
<path d="M97 159.5H120" stroke="black"/>
<ellipse cx="82" cy="139" rx="4" ry="6" fill="white"/>
<ellipse cx="137" cy="138" rx="4" ry="6" fill="white"/>
<circle cx="215.5" cy="101.5" r="45.5" fill="white" stroke="black" stroke-width="4" stroke-dasharray="15 15"/>
<path d="M208.378 98.276C208.378 95.2773 208.915 92.9287 209.99 91.23C211.082 89.5313 212.885 88.682 215.398 88.682C217.911 88.682 219.705 89.5313 220.78 91.23C221.872 92.9287 222.418 95.2773 222.418 98.276C222.418 101.292 221.872 103.658 220.78 105.374C219.705 107.09 217.911 107.948 215.398 107.948C212.885 107.948 211.082 107.09 209.99 105.374C208.915 103.658 208.378 101.292 208.378 98.276ZM218.83 98.276C218.83 96.9933 218.743 95.9187 218.57 95.052C218.414 94.168 218.085 93.4487 217.582 92.894C217.097 92.3393 216.369 92.062 215.398 92.062C214.427 92.062 213.691 92.3393 213.188 92.894C212.703 93.4487 212.373 94.168 212.2 95.052C212.044 95.9187 211.966 96.9933 211.966 98.276C211.966 99.5933 212.044 100.703 212.2 101.604C212.356 102.488 212.685 103.207 213.188 103.762C213.691 104.299 214.427 104.568 215.398 104.568C216.369 104.568 217.105 104.299 217.608 103.762C218.111 103.207 218.44 102.488 218.596 101.604C218.752 100.703 218.83 99.5933 218.83 98.276Z" fill="black"/>
<path d="M207.713 118.048C207.262 118.048 206.848 117.942 206.47 117.731C206.093 117.519 205.794 117.227 205.573 116.854C205.352 116.477 205.242 116.051 205.242 115.577C205.242 115.108 205.352 114.687 205.573 114.314C205.794 113.937 206.093 113.642 206.47 113.431C206.848 113.219 207.262 113.113 207.713 113.113C208.168 113.113 208.582 113.219 208.955 113.431C209.332 113.642 209.629 113.937 209.846 114.314C210.066 114.687 210.177 115.108 210.177 115.577C210.177 116.051 210.066 116.477 209.846 116.854C209.629 117.227 209.332 117.519 208.955 117.731C208.578 117.942 208.164 118.048 207.713 118.048ZM207.713 117.186C208.003 117.186 208.258 117.121 208.479 116.992C208.7 116.859 208.872 116.67 208.997 116.426C209.121 116.182 209.183 115.899 209.183 115.577C209.183 115.255 209.121 114.974 208.997 114.735C208.872 114.491 208.7 114.305 208.479 114.176C208.258 114.047 208.003 113.983 207.713 113.983C207.423 113.983 207.165 114.047 206.94 114.176C206.719 114.305 206.546 114.491 206.422 114.735C206.298 114.974 206.236 115.255 206.236 115.577C206.236 115.899 206.298 116.182 206.422 116.426C206.546 116.67 206.719 116.859 206.94 116.992C207.165 117.121 207.423 117.186 207.713 117.186ZM211.862 114.77C211.986 114.567 212.147 114.408 212.345 114.293C212.548 114.178 212.778 114.121 213.036 114.121V115.135H212.78C212.476 115.135 212.246 115.207 212.09 115.349C211.938 115.492 211.862 115.741 211.862 116.095V118H210.896V114.176H211.862V114.77ZM213.438 116.074C213.438 115.688 213.514 115.345 213.666 115.046C213.822 114.747 214.034 114.517 214.301 114.356C214.568 114.194 214.864 114.114 215.191 114.114C215.44 114.114 215.677 114.169 215.902 114.28C216.128 114.385 216.307 114.528 216.44 114.708V112.892H217.421V118H216.44V117.434C216.321 117.623 216.153 117.775 215.937 117.89C215.72 118.005 215.47 118.062 215.184 118.062C214.862 118.062 214.568 117.979 214.301 117.814C214.034 117.648 213.822 117.416 213.666 117.116C213.514 116.813 213.438 116.465 213.438 116.074ZM216.447 116.088C216.447 115.853 216.401 115.653 216.309 115.488C216.217 115.317 216.093 115.188 215.937 115.101C215.78 115.009 215.612 114.963 215.433 114.963C215.253 114.963 215.088 115.007 214.936 115.094C214.784 115.182 214.66 115.31 214.563 115.481C214.471 115.646 214.425 115.844 214.425 116.074C214.425 116.304 214.471 116.507 214.563 116.682C214.66 116.852 214.784 116.983 214.936 117.075C215.092 117.167 215.258 117.213 215.433 117.213C215.612 117.213 215.78 117.169 215.937 117.082C216.093 116.99 216.217 116.861 216.309 116.695C216.401 116.525 216.447 116.323 216.447 116.088ZM221.919 116.005C221.919 116.143 221.91 116.267 221.892 116.378H219.096C219.119 116.654 219.216 116.87 219.386 117.027C219.556 117.183 219.766 117.261 220.014 117.261C220.373 117.261 220.628 117.107 220.78 116.799H221.823C221.712 117.167 221.5 117.471 221.188 117.71C220.875 117.945 220.49 118.062 220.035 118.062C219.667 118.062 219.335 117.982 219.041 117.821C218.751 117.655 218.523 117.422 218.358 117.123C218.196 116.824 218.116 116.479 218.116 116.088C218.116 115.692 218.196 115.345 218.358 115.046C218.519 114.747 218.744 114.517 219.034 114.356C219.324 114.194 219.657 114.114 220.035 114.114C220.398 114.114 220.723 114.192 221.008 114.349C221.298 114.505 221.521 114.728 221.678 115.018C221.839 115.303 221.919 115.632 221.919 116.005ZM220.918 115.729C220.914 115.481 220.824 115.283 220.649 115.135C220.474 114.984 220.26 114.908 220.007 114.908C219.768 114.908 219.565 114.981 219.4 115.129C219.239 115.271 219.14 115.471 219.103 115.729H220.918ZM223.591 114.77C223.715 114.567 223.876 114.408 224.074 114.293C224.276 114.178 224.507 114.121 224.764 114.121V115.135H224.509C224.205 115.135 223.975 115.207 223.819 115.349C223.667 115.492 223.591 115.741 223.591 116.095V118H222.625V114.176H223.591V114.77Z" fill="black"/>
</svg>
