<svg width="63" height="62" viewBox="0 0 63 62" fill="none" xmlns="http://www.w3.org/2000/svg">
<path d="M41.8856 27.1706V21.7928C41.8856 18.2858 39.0427 15.4429 35.5357 15.4429H22.201C18.694 15.4429 15.8511 18.2858 15.8511 21.7928V40.2074C15.8511 43.7144 18.694 46.5573 22.201 46.5573H35.5357C39.0427 46.5573 41.8856 43.7144 41.8856 40.2074V37.941" stroke="#FD0909" stroke-width="2.53995"/>
<path d="M26.6074 30.6441C26.2354 31.0161 26.2354 31.6192 26.6074 31.9911L32.669 38.0527C33.0409 38.4247 33.644 38.4247 34.016 38.0527C34.388 37.6807 34.388 37.0776 34.016 36.7057L28.6279 31.3176L34.016 25.9296C34.388 25.5576 34.388 24.9545 34.016 24.5826C33.644 24.2106 33.0409 24.2106 32.669 24.5826L26.6074 30.6441ZM46.3306 30.3651L27.2809 30.3651V32.2701H46.3306V30.3651Z" fill="#FD0909"/>
</svg>
