<svg width="63" height="62" viewBox="0 0 63 62" fill="none" xmlns="http://www.w3.org/2000/svg">
<path d="M31.945 34.0815C36.5772 34.0815 40.3323 30.3263 40.3323 25.6942C40.3323 21.062 36.5772 17.3069 31.945 17.3069C27.3129 17.3069 23.5577 21.062 23.5577 25.6942C23.5577 30.3263 27.3129 34.0815 31.945 34.0815Z" stroke="white" stroke-width="1.39788" stroke-miterlimit="10"/>
<path d="M33.4273 27.1771L35.8818 21.7478L30.4619 24.2117L28.2379 29.401L33.4273 27.1771Z" stroke="white" stroke-width="1.39788" stroke-linecap="round" stroke-linejoin="round"/>
<path d="M22.8878 42.9445V44.0244H24.1583V44.5167H22.8878V45.6442H24.3171V46.1365H22.2843V42.4522H24.3171V42.9445H22.8878ZM26.3096 44.6596L27.2519 46.1365H26.569L25.9391 45.1466L25.3462 46.1365H24.7163L25.6585 44.7019L24.7163 43.2197H25.3991L26.0291 44.2096L26.6219 43.2197H27.2519L26.3096 44.6596ZM28.3054 43.6485C28.4077 43.5144 28.5471 43.4015 28.7236 43.3097C28.9 43.218 29.0994 43.1721 29.3218 43.1721C29.5758 43.1721 29.807 43.2356 30.0152 43.3627C30.2269 43.4862 30.3928 43.6609 30.5128 43.8867C30.6328 44.1126 30.6928 44.372 30.6928 44.6649C30.6928 44.9578 30.6328 45.2207 30.5128 45.4536C30.3928 45.683 30.2269 45.863 30.0152 45.9935C29.807 46.1206 29.5758 46.1841 29.3218 46.1841C29.0994 46.1841 28.9018 46.14 28.7289 46.0518C28.556 45.96 28.4148 45.8471 28.3054 45.713V47.5234H27.7019V43.2197H28.3054V43.6485ZM30.0787 44.6649C30.0787 44.4637 30.0364 44.2908 29.9517 44.1461C29.8705 43.9979 29.7611 43.8867 29.6235 43.8126C29.4894 43.735 29.3447 43.6962 29.1894 43.6962C29.0377 43.6962 28.893 43.735 28.7553 43.8126C28.6212 43.8903 28.5118 44.0032 28.4271 44.1514C28.346 44.2996 28.3054 44.4743 28.3054 44.6755C28.3054 44.8766 28.346 45.0531 28.4271 45.2048C28.5118 45.353 28.6212 45.466 28.7553 45.5436C28.893 45.6212 29.0377 45.6601 29.1894 45.6601C29.3447 45.6601 29.4894 45.6212 29.6235 45.5436C29.7611 45.4624 29.8705 45.346 29.9517 45.1942C30.0364 45.0425 30.0787 44.866 30.0787 44.6649ZM31.893 42.2193V46.1365H31.2895V42.2193H31.893ZM33.9504 46.1841C33.6752 46.1841 33.4264 46.1224 33.2041 45.9988C32.9817 45.8718 32.807 45.6953 32.68 45.4695C32.553 45.2401 32.4894 44.9754 32.4894 44.6755C32.4894 44.379 32.5547 44.1161 32.6853 43.8867C32.8159 43.6573 32.9941 43.4809 33.2199 43.3574C33.4458 43.2339 33.6981 43.1721 33.9769 43.1721C34.2557 43.1721 34.508 43.2339 34.7339 43.3574C34.9597 43.4809 35.138 43.6573 35.2685 43.8867C35.3991 44.1161 35.4644 44.379 35.4644 44.6755C35.4644 44.9719 35.3973 45.2348 35.2632 45.4642C35.1291 45.6936 34.9456 45.8718 34.7127 45.9988C34.4833 46.1224 34.2292 46.1841 33.9504 46.1841ZM33.9504 45.6601C34.1057 45.6601 34.2504 45.623 34.3845 45.5489C34.5221 45.4748 34.6333 45.3636 34.718 45.2154C34.8027 45.0672 34.8451 44.8872 34.8451 44.6755C34.8451 44.4637 34.8045 44.2855 34.7233 44.1408C34.6421 43.9926 34.5345 43.8814 34.4004 43.8073C34.2663 43.7332 34.1216 43.6962 33.9663 43.6962C33.8111 43.6962 33.6664 43.7332 33.5323 43.8073C33.4017 43.8814 33.2976 43.9926 33.2199 44.1408C33.1423 44.2855 33.1035 44.4637 33.1035 44.6755C33.1035 44.9895 33.1829 45.233 33.3417 45.406C33.504 45.5754 33.7069 45.6601 33.9504 45.6601ZM36.6644 43.6432C36.7526 43.495 36.8691 43.3803 37.0138 43.2991C37.162 43.2144 37.3367 43.1721 37.5378 43.1721V43.7967H37.3843C37.1479 43.7967 36.9679 43.8567 36.8444 43.9767C36.7244 44.0967 36.6644 44.3049 36.6644 44.6014V46.1365H36.061V43.2197H36.6644V43.6432ZM40.7658 44.6066C40.7658 44.716 40.7587 44.8149 40.7446 44.9031H38.516C38.5337 45.136 38.6201 45.323 38.7754 45.4642C38.9307 45.6054 39.1213 45.6759 39.3471 45.6759C39.6718 45.6759 39.9012 45.5401 40.0353 45.2683H40.6864C40.5982 45.5365 40.4376 45.7571 40.2047 45.93C39.9753 46.0994 39.6894 46.1841 39.3471 46.1841C39.0683 46.1841 38.8178 46.1224 38.5954 45.9988C38.3766 45.8718 38.2037 45.6953 38.0767 45.4695C37.9532 45.2401 37.8914 44.9754 37.8914 44.6755C37.8914 44.3755 37.9514 44.1126 38.0714 43.8867C38.1949 43.6573 38.366 43.4809 38.5848 43.3574C38.8072 43.2339 39.0613 43.1721 39.3471 43.1721C39.6224 43.1721 39.8676 43.2321 40.0829 43.3521C40.2982 43.4721 40.4658 43.6415 40.5858 43.8603C40.7058 44.0755 40.7658 44.3243 40.7658 44.6066ZM40.1359 44.4161C40.1323 44.1938 40.0529 44.0155 39.8976 43.8814C39.7424 43.7473 39.55 43.6803 39.3206 43.6803C39.1124 43.6803 38.9342 43.7473 38.786 43.8814C38.6378 44.012 38.5496 44.1902 38.5213 44.4161H40.1359Z" fill="white"/>
</svg>
