<svg width="15" height="15" viewBox="0 0 15 15" fill="none" xmlns="http://www.w3.org/2000/svg">
<path d="M11.8504 12.8292H3.88628C3.76894 12.8292 3.6564 12.7826 3.57343 12.6996C3.49046 12.6167 3.44385 12.5041 3.44385 12.3868V2.65337C3.44385 2.53602 3.49046 2.42349 3.57343 2.34052C3.6564 2.25755 3.76894 2.21094 3.88628 2.21094H9.19585L12.2928 5.30794V12.3868C12.2928 12.4449 12.2814 12.5024 12.2592 12.5561C12.2369 12.6098 12.2044 12.6586 12.1633 12.6996C12.1222 12.7407 12.0734 12.7733 12.0197 12.7955C11.9661 12.8178 11.9085 12.8292 11.8504 12.8292Z" stroke="white" stroke-width="0.884857" stroke-linecap="round" stroke-linejoin="round"/>
<path d="M9.1958 2.21094V5.30794H12.2932" stroke="white" stroke-width="0.884857" stroke-linecap="round" stroke-linejoin="round"/>
<path d="M6.32031 8.62614L7.86881 7.07764L9.41731 8.62614" stroke="white" stroke-width="0.884857" stroke-linecap="round" stroke-linejoin="round"/>
<path d="M7.86865 10.6171V7.07764" stroke="white" stroke-width="0.884857" stroke-linecap="round" stroke-linejoin="round"/>
</svg>
