<svg width="1126" height="376" viewBox="0 0 1126 376" fill="none" xmlns="http://www.w3.org/2000/svg">
<g opacity="0.9" clip-path="url(#clip0_107_215)">
<path d="M0.0649414 28.5C0.0649414 13.036 12.601 0.5 28.0649 0.5H1071.06C1100.89 0.5 1125.06 24.6766 1125.06 54.5V357.5C1125.06 367.441 1117.01 375.5 1107.06 375.5H18.0649C8.12379 375.5 0.0649414 367.441 0.0649414 357.5V28.5Z" fill="white"/>
<rect width="500" height="500" transform="translate(0.0649414 0.5)" fill="#FDFDFD"/>
<g clip-path="url(#clip1_107_215)">
<rect width="500" height="500" transform="translate(499.065 -8.5)" fill="#FDFDFD"/>
<path fill-rule="evenodd" clip-rule="evenodd" d="M549.065 90.5C576.127 90.5 598.065 68.562 598.065 41.5C598.065 14.438 576.127 -7.5 549.065 -7.5C522.003 -7.5 500.065 14.438 500.065 41.5C500.065 68.562 522.003 90.5 549.065 90.5ZM549.065 91.5C576.679 91.5 599.065 69.1142 599.065 41.5C599.065 13.8858 576.679 -8.5 549.065 -8.5C521.451 -8.5 499.065 13.8858 499.065 41.5C499.065 69.1142 521.451 91.5 549.065 91.5Z" fill="#468576"/>
<path d="M598.065 41.5C598.065 68.562 576.127 90.5 549.065 90.5C522.003 90.5 500.065 68.562 500.065 41.5C500.065 14.438 522.003 -7.5 549.065 -7.5C576.127 -7.5 598.065 14.438 598.065 41.5Z" fill="#468576"/>
<path fill-rule="evenodd" clip-rule="evenodd" d="M549.065 90.91C565.031 90.91 577.975 77.9665 577.975 62C577.975 46.0334 565.031 33.09 549.065 33.09C533.098 33.09 520.155 46.0334 520.155 62C520.155 77.9665 533.098 90.91 549.065 90.91ZM549.065 91.5C565.357 91.5 578.565 78.2924 578.565 62C578.565 45.7076 565.357 32.5 549.065 32.5C532.773 32.5 519.565 45.7076 519.565 62C519.565 78.2924 532.773 91.5 549.065 91.5Z" fill="#FF9820"/>
<path d="M577.975 62C577.975 77.9665 565.031 90.91 549.065 90.91C533.098 90.91 520.155 77.9665 520.155 62C520.155 46.0334 533.098 33.09 549.065 33.09C565.031 33.09 577.975 46.0334 577.975 62Z" fill="#FF9820"/>
<path d="M599.065 -8.5H649.065C676.679 -8.5 699.065 13.8858 699.065 41.5V91.5H649.065C621.451 91.5 599.065 69.1142 599.065 41.5V-8.5Z" fill="#FF7575"/>
<path d="M799.065 -8.5H749.065C721.451 -8.5 699.065 13.8858 699.065 41.5V91.5H749.065C776.679 91.5 799.065 69.1142 799.065 41.5V-8.5Z" fill="#FFE1E1"/>
<path d="M799.065 191.5H749.065C721.451 191.5 699.065 169.114 699.065 141.5V91.5H749.065C776.679 91.5 799.065 113.886 799.065 141.5V191.5Z" fill="#FF7575"/>
<path d="M649.065 191.5C676.679 191.5 699.065 169.114 699.065 141.5V91.5H649.065C621.451 91.5 599.065 113.886 599.065 141.5V191.5H649.065V191.5Z" fill="#468576"/>
<path d="M499.065 91.5H599.065V191.5H499.065V91.5Z" fill="#468576"/>
<path d="M524.065 118.5V118.5C550.575 118.5 572.065 139.99 572.065 166.5V166.5H524.065V118.5Z" fill="#FF9820"/>
<path d="M524.065 141.5H536.565C543.469 141.5 549.065 147.096 549.065 154V166.5H524.065V141.5Z" fill="#FFE1E1"/>
<path d="M799.065 -8.5H899.065V91.5V91.5C843.836 91.5 799.065 46.7285 799.065 -8.5V-8.5Z" fill="#468576"/>
<path d="M799.065 191.5H899.065V91.5C843.836 91.5 799.065 136.272 799.065 191.5Z" fill="#FF9820"/>
<path d="M799.065 191.5H899.065V91.5C843.836 91.5 799.065 136.272 799.065 191.5Z" stroke="#525252"/>
<path d="M999.065 91.5C999.065 78.2392 993.797 65.5215 984.42 56.1447C975.043 46.7678 962.326 41.5 949.065 41.5C935.804 41.5 923.086 46.7678 913.71 56.1447C904.333 65.5215 899.065 78.2392 899.065 91.5L949.065 91.5H999.065Z" fill="#FF7575"/>
<path d="M999.065 -8.5C999.065 4.76083 993.797 17.4785 984.42 26.8553C975.043 36.2322 962.326 41.5 949.065 41.5C935.804 41.5 923.086 36.2322 913.71 26.8553C904.333 17.4785 899.065 4.76083 899.065 -8.49999L949.065 -8.5H999.065Z" fill="#FF9820"/>
<path d="M999.065 -8.5C999.065 4.76083 993.797 17.4785 984.42 26.8553C975.043 36.2322 962.326 41.5 949.065 41.5C935.804 41.5 923.086 36.2322 913.71 26.8553C904.333 17.4785 899.065 4.76083 899.065 -8.49999L949.065 -8.5H999.065Z" stroke="#525252"/>
<path d="M998.065 141C998.065 168.338 975.903 190.5 948.565 190.5C921.227 190.5 899.065 168.338 899.065 141C899.065 113.662 921.227 91.5 948.565 91.5C975.903 91.5 998.065 113.662 998.065 141Z" fill="#468576"/>
<path d="M978.065 141C978.065 157.292 964.857 170.5 948.565 170.5C932.273 170.5 919.065 157.292 919.065 141C919.065 124.708 932.273 111.5 948.565 111.5C964.857 111.5 978.065 124.708 978.065 141Z" fill="#FFE1E1"/>
<path fill-rule="evenodd" clip-rule="evenodd" d="M549.065 290.5C576.127 290.5 598.065 268.562 598.065 241.5C598.065 214.438 576.127 192.5 549.065 192.5C522.003 192.5 500.065 214.438 500.065 241.5C500.065 268.562 522.003 290.5 549.065 290.5ZM549.065 291.5C576.679 291.5 599.065 269.114 599.065 241.5C599.065 213.886 576.679 191.5 549.065 191.5C521.451 191.5 499.065 213.886 499.065 241.5C499.065 269.114 521.451 291.5 549.065 291.5Z" fill="#468576"/>
<path d="M598.065 241.5C598.065 268.562 576.127 290.5 549.065 290.5C522.003 290.5 500.065 268.562 500.065 241.5C500.065 214.438 522.003 192.5 549.065 192.5C576.127 192.5 598.065 214.438 598.065 241.5Z" fill="#468576"/>
<path fill-rule="evenodd" clip-rule="evenodd" d="M549.065 290.91C565.031 290.91 577.975 277.967 577.975 262C577.975 246.033 565.031 233.09 549.065 233.09C533.098 233.09 520.155 246.033 520.155 262C520.155 277.967 533.098 290.91 549.065 290.91ZM549.065 291.5C565.357 291.5 578.565 278.292 578.565 262C578.565 245.708 565.357 232.5 549.065 232.5C532.773 232.5 519.565 245.708 519.565 262C519.565 278.292 532.773 291.5 549.065 291.5Z" fill="#FF9820"/>
<path d="M577.975 262C577.975 277.967 565.031 290.91 549.065 290.91C533.098 290.91 520.155 277.967 520.155 262C520.155 246.033 533.098 233.09 549.065 233.09C565.031 233.09 577.975 246.033 577.975 262Z" fill="#FF9820"/>
<path d="M599.065 191.5H649.065C676.679 191.5 699.065 213.886 699.065 241.5V291.5H649.065C621.451 291.5 599.065 269.114 599.065 241.5V191.5Z" fill="#FF7575"/>
<path d="M799.065 191.5H749.065C721.451 191.5 699.065 213.886 699.065 241.5V291.5H749.065C776.679 291.5 799.065 269.114 799.065 241.5V191.5Z" fill="#FFE1E1"/>
<path d="M799.065 391.5H749.065C721.451 391.5 699.065 369.114 699.065 341.5V291.5H749.065C776.679 291.5 799.065 313.886 799.065 341.5V391.5Z" fill="#FF7575"/>
<path d="M649.065 391.5C676.679 391.5 699.065 369.114 699.065 341.5V291.5H649.065C621.451 291.5 599.065 313.886 599.065 341.5V391.5H649.065V391.5Z" fill="#468576"/>
<path d="M499.065 291.5H599.065V391.5H499.065V291.5Z" fill="#468576"/>
<path d="M524.065 318.5V318.5C550.575 318.5 572.065 339.99 572.065 366.5V366.5H524.065V318.5Z" fill="#FF9820"/>
<path d="M524.065 341.5H536.565C543.469 341.5 549.065 347.096 549.065 354V366.5H524.065V341.5Z" fill="#FFE1E1"/>
<path d="M799.065 191.5H899.065V291.5V291.5C843.836 291.5 799.065 246.728 799.065 191.5V191.5Z" fill="#468576"/>
<path d="M799.065 391.5H899.065V291.5C843.836 291.5 799.065 336.272 799.065 391.5Z" fill="#FF9820"/>
<path d="M799.065 391.5H899.065V291.5C843.836 291.5 799.065 336.272 799.065 391.5Z" stroke="#525252"/>
<path d="M999.065 291.5C999.065 278.239 993.797 265.521 984.42 256.145C975.043 246.768 962.326 241.5 949.065 241.5C935.804 241.5 923.086 246.768 913.71 256.145C904.333 265.521 899.065 278.239 899.065 291.5L949.065 291.5H999.065Z" fill="#FF7575"/>
<path d="M999.065 191.5C999.065 204.761 993.797 217.479 984.42 226.855C975.043 236.232 962.326 241.5 949.065 241.5C935.804 241.5 923.086 236.232 913.71 226.855C904.333 217.479 899.065 204.761 899.065 191.5L949.065 191.5H999.065Z" fill="#FF9820"/>
<path d="M999.065 191.5C999.065 204.761 993.797 217.479 984.42 226.855C975.043 236.232 962.326 241.5 949.065 241.5C935.804 241.5 923.086 236.232 913.71 226.855C904.333 217.479 899.065 204.761 899.065 191.5L949.065 191.5H999.065Z" stroke="#525252"/>
<path d="M998.065 341C998.065 368.338 975.903 390.5 948.565 390.5C921.227 390.5 899.065 368.338 899.065 341C899.065 313.662 921.227 291.5 948.565 291.5C975.903 291.5 998.065 313.662 998.065 341Z" fill="#468576"/>
<path d="M978.065 341C978.065 357.292 964.857 370.5 948.565 370.5C932.273 370.5 919.065 357.292 919.065 341C919.065 324.708 932.273 311.5 948.565 311.5C964.857 311.5 978.065 324.708 978.065 341Z" fill="#FFE1E1"/>
</g>
<g clip-path="url(#clip2_107_215)">
<rect width="500" height="500" transform="translate(998.065 -17.5)" fill="#FDFDFD"/>
<path fill-rule="evenodd" clip-rule="evenodd" d="M1048.06 81.5C1075.13 81.5 1097.06 59.562 1097.06 32.5C1097.06 5.43805 1075.13 -16.5 1048.06 -16.5C1021 -16.5 999.065 5.43805 999.065 32.5C999.065 59.562 1021 81.5 1048.06 81.5ZM1048.06 82.5C1075.68 82.5 1098.06 60.1142 1098.06 32.5C1098.06 4.88576 1075.68 -17.5 1048.06 -17.5C1020.45 -17.5 998.065 4.88576 998.065 32.5C998.065 60.1142 1020.45 82.5 1048.06 82.5Z" fill="#468576"/>
<path d="M1097.06 32.5C1097.06 59.562 1075.13 81.5 1048.06 81.5C1021 81.5 999.065 59.562 999.065 32.5C999.065 5.43805 1021 -16.5 1048.06 -16.5C1075.13 -16.5 1097.06 5.43805 1097.06 32.5Z" fill="#468576"/>
<path fill-rule="evenodd" clip-rule="evenodd" d="M1048.06 81.91C1064.03 81.91 1076.97 68.9665 1076.97 53C1076.97 37.0334 1064.03 24.09 1048.06 24.09C1032.1 24.09 1019.15 37.0334 1019.15 53C1019.15 68.9665 1032.1 81.91 1048.06 81.91ZM1048.06 82.5C1064.36 82.5 1077.56 69.2924 1077.56 53C1077.56 36.7076 1064.36 23.5 1048.06 23.5C1031.77 23.5 1018.56 36.7076 1018.56 53C1018.56 69.2924 1031.77 82.5 1048.06 82.5Z" fill="#FF9820"/>
<path d="M1076.97 53C1076.97 68.9665 1064.03 81.91 1048.06 81.91C1032.1 81.91 1019.15 68.9665 1019.15 53C1019.15 37.0334 1032.1 24.09 1048.06 24.09C1064.03 24.09 1076.97 37.0334 1076.97 53Z" fill="#FF9820"/>
<path d="M1098.06 -17.5H1148.06C1175.68 -17.5 1198.06 4.88576 1198.06 32.5V82.5H1148.06C1120.45 82.5 1098.06 60.1142 1098.06 32.5V-17.5Z" fill="#FF7575"/>
<path d="M1148.06 182.5C1175.68 182.5 1198.06 160.114 1198.06 132.5V82.5H1148.06C1120.45 82.5 1098.06 104.886 1098.06 132.5V182.5H1148.06V182.5Z" fill="#468576"/>
<path d="M998.065 82.5H1098.06V182.5H998.065V82.5Z" fill="#468576"/>
<path d="M1023.06 109.5V109.5C1049.57 109.5 1071.06 130.99 1071.06 157.5V157.5H1023.06V109.5Z" fill="#FF9820"/>
<path d="M1023.06 132.5H1035.56C1042.47 132.5 1048.06 138.096 1048.06 145V157.5H1023.06V132.5Z" fill="#FFE1E1"/>
<path fill-rule="evenodd" clip-rule="evenodd" d="M1048.06 281.5C1075.13 281.5 1097.06 259.562 1097.06 232.5C1097.06 205.438 1075.13 183.5 1048.06 183.5C1021 183.5 999.065 205.438 999.065 232.5C999.065 259.562 1021 281.5 1048.06 281.5ZM1048.06 282.5C1075.68 282.5 1098.06 260.114 1098.06 232.5C1098.06 204.886 1075.68 182.5 1048.06 182.5C1020.45 182.5 998.065 204.886 998.065 232.5C998.065 260.114 1020.45 282.5 1048.06 282.5Z" fill="#468576"/>
<path d="M1097.06 232.5C1097.06 259.562 1075.13 281.5 1048.06 281.5C1021 281.5 999.065 259.562 999.065 232.5C999.065 205.438 1021 183.5 1048.06 183.5C1075.13 183.5 1097.06 205.438 1097.06 232.5Z" fill="#468576"/>
<path fill-rule="evenodd" clip-rule="evenodd" d="M1048.06 281.91C1064.03 281.91 1076.97 268.967 1076.97 253C1076.97 237.033 1064.03 224.09 1048.06 224.09C1032.1 224.09 1019.15 237.033 1019.15 253C1019.15 268.967 1032.1 281.91 1048.06 281.91ZM1048.06 282.5C1064.36 282.5 1077.56 269.292 1077.56 253C1077.56 236.708 1064.36 223.5 1048.06 223.5C1031.77 223.5 1018.56 236.708 1018.56 253C1018.56 269.292 1031.77 282.5 1048.06 282.5Z" fill="#FF9820"/>
<path d="M1076.97 253C1076.97 268.967 1064.03 281.91 1048.06 281.91C1032.1 281.91 1019.15 268.967 1019.15 253C1019.15 237.033 1032.1 224.09 1048.06 224.09C1064.03 224.09 1076.97 237.033 1076.97 253Z" fill="#FF9820"/>
<path d="M1098.06 182.5H1148.06C1175.68 182.5 1198.06 204.886 1198.06 232.5V282.5H1148.06C1120.45 282.5 1098.06 260.114 1098.06 232.5V182.5Z" fill="#FF7575"/>
<path d="M1148.06 382.5C1175.68 382.5 1198.06 360.114 1198.06 332.5V282.5H1148.06C1120.45 282.5 1098.06 304.886 1098.06 332.5V382.5H1148.06V382.5Z" fill="#468576"/>
<path d="M998.065 282.5H1098.06V382.5H998.065V282.5Z" fill="#468576"/>
<path d="M1023.06 309.5V309.5C1049.57 309.5 1071.06 330.99 1071.06 357.5V357.5H1023.06V309.5Z" fill="#FF9820"/>
<path d="M1023.06 332.5H1035.56C1042.47 332.5 1048.06 338.096 1048.06 345V357.5H1023.06V332.5Z" fill="#FFE1E1"/>
</g>
<path fill-rule="evenodd" clip-rule="evenodd" d="M50.0649 99.5C77.1269 99.5 99.0649 77.562 99.0649 50.5C99.0649 23.438 77.1269 1.5 50.0649 1.5C23.003 1.5 1.06494 23.438 1.06494 50.5C1.06494 77.562 23.003 99.5 50.0649 99.5ZM50.0649 100.5C77.6792 100.5 100.065 78.1142 100.065 50.5C100.065 22.8858 77.6792 0.5 50.0649 0.5C22.4507 0.5 0.0649414 22.8858 0.0649414 50.5C0.0649414 78.1142 22.4507 100.5 50.0649 100.5Z" fill="#468576"/>
<path d="M99.0649 50.5C99.0649 77.562 77.1269 99.5 50.0649 99.5C23.003 99.5 1.06494 77.562 1.06494 50.5C1.06494 23.438 23.003 1.5 50.0649 1.5C77.1269 1.5 99.0649 23.438 99.0649 50.5Z" fill="#468576"/>
<path fill-rule="evenodd" clip-rule="evenodd" d="M50.0649 99.91C66.0315 99.91 78.9749 86.9665 78.9749 71C78.9749 55.0334 66.0315 42.09 50.0649 42.09C34.0984 42.09 21.1549 55.0334 21.1549 71C21.1549 86.9665 34.0984 99.91 50.0649 99.91ZM50.0649 100.5C66.3573 100.5 79.5649 87.2924 79.5649 71C79.5649 54.7076 66.3573 41.5 50.0649 41.5C33.7725 41.5 20.5649 54.7076 20.5649 71C20.5649 87.2924 33.7725 100.5 50.0649 100.5Z" fill="#FF9820"/>
<path d="M78.9749 71C78.9749 86.9665 66.0315 99.91 50.0649 99.91C34.0984 99.91 21.1549 86.9665 21.1549 71C21.1549 55.0334 34.0984 42.09 50.0649 42.09C66.0315 42.09 78.9749 55.0334 78.9749 71Z" fill="#FF9820"/>
<path d="M100.065 0.5H150.065C177.679 0.5 200.065 22.8858 200.065 50.5V100.5H150.065C122.451 100.5 100.065 78.1142 100.065 50.5V0.5Z" fill="#FF7575"/>
<path d="M300.065 0.5H250.065C222.451 0.5 200.065 22.8858 200.065 50.5V100.5H250.065C277.679 100.5 300.065 78.1142 300.065 50.5V0.5Z" fill="#FFE1E1"/>
<path d="M300.065 200.5H250.065C222.451 200.5 200.065 178.114 200.065 150.5V100.5H250.065C277.679 100.5 300.065 122.886 300.065 150.5V200.5Z" fill="#FF7575"/>
<path d="M150.065 200.5C177.679 200.5 200.065 178.114 200.065 150.5V100.5H150.065C122.451 100.5 100.065 122.886 100.065 150.5V200.5H150.065V200.5Z" fill="#468576"/>
<path d="M0.0649414 100.5H100.065V200.5H0.0649414V100.5Z" fill="#468576"/>
<path d="M25.0649 127.5V127.5C51.5746 127.5 73.0649 148.99 73.0649 175.5V175.5H25.0649V127.5Z" fill="#FF9820"/>
<path d="M25.0649 150.5H37.5649C44.4685 150.5 50.0649 156.096 50.0649 163V175.5H25.0649V150.5Z" fill="#FFE1E1"/>
<path d="M300.065 0.5H400.065V100.5V100.5C344.836 100.5 300.065 55.7285 300.065 0.5V0.5Z" fill="#468576"/>
<path d="M300.065 200.5H400.065V100.5C344.836 100.5 300.065 145.272 300.065 200.5Z" fill="#FF9820"/>
<path d="M300.065 200.5H400.065V100.5C344.836 100.5 300.065 145.272 300.065 200.5Z" stroke="#525252"/>
<path d="M500.065 100.5C500.065 87.2392 494.797 74.5215 485.42 65.1447C476.043 55.7678 463.326 50.5 450.065 50.5C436.804 50.5 424.086 55.7678 414.71 65.1447C405.333 74.5215 400.065 87.2392 400.065 100.5L450.065 100.5H500.065Z" fill="#FF7575"/>
<path d="M500.065 0.5C500.065 13.7608 494.797 26.4785 485.42 35.8553C476.043 45.2322 463.326 50.5 450.065 50.5C436.804 50.5 424.086 45.2322 414.71 35.8553C405.333 26.4785 400.065 13.7608 400.065 0.500008L450.065 0.5H500.065Z" fill="#FF9820"/>
<path d="M500.065 0.5C500.065 13.7608 494.797 26.4785 485.42 35.8553C476.043 45.2322 463.326 50.5 450.065 50.5C436.804 50.5 424.086 45.2322 414.71 35.8553C405.333 26.4785 400.065 13.7608 400.065 0.500008L450.065 0.5H500.065Z" stroke="#525252"/>
<path d="M499.065 150C499.065 177.338 476.903 199.5 449.565 199.5C422.227 199.5 400.065 177.338 400.065 150C400.065 122.662 422.227 100.5 449.565 100.5C476.903 100.5 499.065 122.662 499.065 150Z" fill="#468576"/>
<path d="M479.065 150C479.065 166.292 465.857 179.5 449.565 179.5C433.273 179.5 420.065 166.292 420.065 150C420.065 133.708 433.273 120.5 449.565 120.5C465.857 120.5 479.065 133.708 479.065 150Z" fill="#FFE1E1"/>
<path fill-rule="evenodd" clip-rule="evenodd" d="M50.0649 299.5C77.1269 299.5 99.0649 277.562 99.0649 250.5C99.0649 223.438 77.1269 201.5 50.0649 201.5C23.003 201.5 1.06494 223.438 1.06494 250.5C1.06494 277.562 23.003 299.5 50.0649 299.5ZM50.0649 300.5C77.6792 300.5 100.065 278.114 100.065 250.5C100.065 222.886 77.6792 200.5 50.0649 200.5C22.4507 200.5 0.0649414 222.886 0.0649414 250.5C0.0649414 278.114 22.4507 300.5 50.0649 300.5Z" fill="#468576"/>
<path d="M99.0649 250.5C99.0649 277.562 77.1269 299.5 50.0649 299.5C23.003 299.5 1.06494 277.562 1.06494 250.5C1.06494 223.438 23.003 201.5 50.0649 201.5C77.1269 201.5 99.0649 223.438 99.0649 250.5Z" fill="#468576"/>
<path fill-rule="evenodd" clip-rule="evenodd" d="M50.0649 299.91C66.0315 299.91 78.9749 286.967 78.9749 271C78.9749 255.033 66.0315 242.09 50.0649 242.09C34.0984 242.09 21.1549 255.033 21.1549 271C21.1549 286.967 34.0984 299.91 50.0649 299.91ZM50.0649 300.5C66.3573 300.5 79.5649 287.292 79.5649 271C79.5649 254.708 66.3573 241.5 50.0649 241.5C33.7725 241.5 20.5649 254.708 20.5649 271C20.5649 287.292 33.7725 300.5 50.0649 300.5Z" fill="#FF9820"/>
<path d="M78.9749 271C78.9749 286.967 66.0315 299.91 50.0649 299.91C34.0984 299.91 21.1549 286.967 21.1549 271C21.1549 255.033 34.0984 242.09 50.0649 242.09C66.0315 242.09 78.9749 255.033 78.9749 271Z" fill="#FF9820"/>
<path d="M100.065 200.5H150.065C177.679 200.5 200.065 222.886 200.065 250.5V300.5H150.065C122.451 300.5 100.065 278.114 100.065 250.5V200.5Z" fill="#FF7575"/>
<path d="M300.065 200.5H250.065C222.451 200.5 200.065 222.886 200.065 250.5V300.5H250.065C277.679 300.5 300.065 278.114 300.065 250.5V200.5Z" fill="#FFE1E1"/>
<path d="M300.065 400.5H250.065C222.451 400.5 200.065 378.114 200.065 350.5V300.5H250.065C277.679 300.5 300.065 322.886 300.065 350.5V400.5Z" fill="#FF7575"/>
<path d="M150.065 400.5C177.679 400.5 200.065 378.114 200.065 350.5V300.5H150.065C122.451 300.5 100.065 322.886 100.065 350.5V400.5H150.065V400.5Z" fill="#468576"/>
<path d="M0.0649414 300.5H100.065V400.5H0.0649414V300.5Z" fill="#468576"/>
<path d="M25.0649 327.5V327.5C51.5746 327.5 73.0649 348.99 73.0649 375.5V375.5H25.0649V327.5Z" fill="#FF9820"/>
<path d="M25.0649 350.5H37.5649C44.4685 350.5 50.0649 356.096 50.0649 363V375.5H25.0649V350.5Z" fill="#FFE1E1"/>
<path d="M300.065 200.5H400.065V300.5V300.5C344.836 300.5 300.065 255.728 300.065 200.5V200.5Z" fill="#468576"/>
<path d="M300.065 400.5H400.065V300.5C344.836 300.5 300.065 345.272 300.065 400.5Z" fill="#FF9820"/>
<path d="M300.065 400.5H400.065V300.5C344.836 300.5 300.065 345.272 300.065 400.5Z" stroke="#525252"/>
<path d="M500.065 300.5C500.065 287.239 494.797 274.521 485.42 265.145C476.043 255.768 463.326 250.5 450.065 250.5C436.804 250.5 424.086 255.768 414.71 265.145C405.333 274.521 400.065 287.239 400.065 300.5L450.065 300.5H500.065Z" fill="#FF7575"/>
<path d="M500.065 200.5C500.065 213.761 494.797 226.479 485.42 235.855C476.043 245.232 463.326 250.5 450.065 250.5C436.804 250.5 424.086 245.232 414.71 235.855C405.333 226.479 400.065 213.761 400.065 200.5L450.065 200.5H500.065Z" fill="#FF9820"/>
<path d="M500.065 200.5C500.065 213.761 494.797 226.479 485.42 235.855C476.043 245.232 463.326 250.5 450.065 250.5C436.804 250.5 424.086 245.232 414.71 235.855C405.333 226.479 400.065 213.761 400.065 200.5L450.065 200.5H500.065Z" stroke="#525252"/>
<path d="M499.065 350C499.065 377.338 476.903 399.5 449.565 399.5C422.227 399.5 400.065 377.338 400.065 350C400.065 322.662 422.227 300.5 449.565 300.5C476.903 300.5 499.065 322.662 499.065 350Z" fill="#468576"/>
<path d="M479.065 350C479.065 366.292 465.857 379.5 449.565 379.5C433.273 379.5 420.065 366.292 420.065 350C420.065 333.708 433.273 320.5 449.565 320.5C465.857 320.5 479.065 333.708 479.065 350Z" fill="#FFE1E1"/>
</g>
<defs>
<clipPath id="clip0_107_215">
<rect width="1125" height="375" fill="white" transform="translate(0.0649414 0.5)"/>
</clipPath>
<clipPath id="clip1_107_215">
<rect width="500" height="500" fill="white" transform="translate(499.065 -8.5)"/>
</clipPath>
<clipPath id="clip2_107_215">
<rect width="500" height="500" fill="white" transform="translate(998.065 -17.5)"/>
</clipPath>
</defs>
</svg>
