<svg width="62" height="62" viewBox="0 0 62 62" fill="none" xmlns="http://www.w3.org/2000/svg">
<path d="M31 46.125C31 46.125 13.8125 36.5 13.8125 24.8125C13.8128 22.7468 14.5286 20.745 15.8381 19.1474C17.1476 17.5498 18.97 16.455 20.9955 16.0492C23.0209 15.6434 25.1244 15.9516 26.9483 16.9214C28.7722 17.8913 30.2039 19.4629 31 21.369L31 21.369C31.7961 19.4629 33.2278 17.8913 35.0517 16.9215C36.8756 15.9516 38.9791 15.6434 41.0045 16.0492C43.03 16.455 44.8524 17.5498 46.1619 19.1474C47.4714 20.745 48.1871 22.7468 48.1875 24.8125C48.1875 36.5 31 46.125 31 46.125Z" stroke="white" stroke-width="2.75" stroke-linecap="round" stroke-linejoin="round"/>
</svg>
