<svg width="29" height="25" viewBox="0 0 29 25" fill="none" xmlns="http://www.w3.org/2000/svg">
<path d="M14.504 20.9373C14.504 20.9373 3.17969 15.7545 3.17969 9.46105C3.17992 8.34872 3.65152 7.27079 4.51431 6.41052C5.37709 5.55025 6.57781 4.96075 7.91232 4.74224C9.24683 4.52372 10.6327 4.68969 11.8344 5.21192C13.0361 5.73415 13.9795 6.58041 14.504 7.60681L14.504 7.60682C15.0285 6.58041 15.9718 5.73416 17.1735 5.21192C18.3752 4.68969 19.7611 4.52372 21.0956 4.74224C22.4301 4.96075 23.6309 5.55025 24.4936 6.41052C25.3564 7.27079 25.828 8.34872 25.8283 9.46105C25.8283 15.7545 14.504 20.9373 14.504 20.9373Z" stroke="white" stroke-width="1.57568" stroke-linecap="round" stroke-linejoin="round"/>
</svg>
