<svg width="63" height="62" viewBox="0 0 63 62" fill="none" xmlns="http://www.w3.org/2000/svg">
<path d="M35.637 45.1254V36.6493C35.637 36.2746 35.4882 35.9153 35.2232 35.6504C34.9583 35.3854 34.599 35.2366 34.2243 35.2366H28.5737C28.1991 35.2366 27.8397 35.3854 27.5748 35.6504C27.3099 35.9153 27.1611 36.2746 27.1611 36.6493V45.1254C27.1611 45.5 27.0122 45.8593 26.7474 46.1242C26.4825 46.3891 26.1232 46.538 25.7486 46.538L17.2737 46.5392C17.0881 46.5392 16.9044 46.5027 16.733 46.4317C16.5616 46.3607 16.4059 46.2566 16.2747 46.1255C16.1435 45.9943 16.0394 45.8385 15.9684 45.6671C15.8974 45.4957 15.8608 45.312 15.8608 45.1265V28.7997C15.8608 28.6028 15.902 28.4082 15.9816 28.2282C16.0612 28.0482 16.1775 27.8869 16.3232 27.7545L30.4487 14.9108C30.7088 14.6744 31.0476 14.5433 31.399 14.5433C31.7505 14.5433 32.0893 14.6743 32.3494 14.9107L46.4769 27.7544C46.6225 27.8868 46.7389 28.0482 46.8185 28.2282C46.8982 28.4082 46.9393 28.6029 46.9393 28.7997V45.1265C46.9393 45.312 46.9027 45.4957 46.8317 45.6672C46.7607 45.8386 46.6567 45.9943 46.5255 46.1255C46.3943 46.2566 46.2385 46.3607 46.0671 46.4317C45.8957 46.5027 45.712 46.5392 45.5264 46.5392L37.0495 46.538C36.6748 46.538 36.3156 46.3891 36.0507 46.1242C35.7858 45.8593 35.637 45.5 35.637 45.1254V45.1254Z" stroke="white" stroke-width="2.82531" stroke-linecap="round" stroke-linejoin="round"/>
</svg>
