<svg width="42" height="42" viewBox="0 0 42 42" fill="none" xmlns="http://www.w3.org/2000/svg">
<path d="M34.9014 34.0106C34.9471 33.9002 34.9706 33.782 34.9706 33.6625V27.2934H28.4395V33.6625C28.4395 33.7822 28.4631 33.9007 28.5089 34.0112C28.5548 34.1217 28.622 34.2221 28.7067 34.3066C28.7915 34.3911 28.8921 34.4581 29.0027 34.5036C29.1134 34.5492 29.2319 34.5725 29.3516 34.5722H34.061C34.1804 34.5722 34.2988 34.5486 34.4091 34.5029C34.5195 34.4572 34.6198 34.3902 34.7043 34.3057C34.7887 34.2213 34.8557 34.121 34.9014 34.0106Z" fill="url(#paint0_linear_3_3912)"/>
<path d="M28.5213 11.8353C28.4675 11.9537 28.4395 12.0823 28.4395 12.2124V22.0569H34.9706V8.08542C34.9707 7.91055 34.9203 7.73938 34.8256 7.59239C34.7308 7.4454 34.5958 7.32884 34.4365 7.25665C34.2772 7.18447 34.1005 7.15973 33.9276 7.18538C33.7546 7.21104 33.5926 7.28601 33.4612 7.40132L28.7518 11.5258C28.6538 11.6113 28.5752 11.7169 28.5213 11.8353Z" fill="url(#paint1_linear_3_3912)"/>
<path d="M6.90951 34.3057C6.73891 34.1351 6.64307 33.9038 6.64307 33.6625V27.2245H13.1718V33.6625C13.1718 33.9038 13.0759 34.1351 12.9053 34.3057C12.7347 34.4763 12.5034 34.5722 12.2621 34.5722H7.55271C7.31145 34.5722 7.0801 34.4763 6.90951 34.3057Z" fill="url(#paint2_linear_3_3912)"/>
<path d="M13.0913 11.8355C13.1447 11.9539 13.1721 12.0824 13.1718 12.2124V22.1258H6.64307V8.08542C6.64302 7.91055 6.69338 7.73938 6.78812 7.59239C6.88285 7.4454 7.01794 7.32884 7.17722 7.25665C7.3365 7.18447 7.51322 7.15973 7.6862 7.18538C7.85918 7.21104 8.02105 7.28601 8.15252 7.40132L12.8619 11.5258C12.9596 11.6115 13.0378 11.7171 13.0913 11.8355Z" fill="url(#paint3_linear_3_3912)"/>
<g filter="url(#filter0_d_3_3912)">
<path d="M22.2457 15.3326L19.663 15.9944C19.2712 16.0948 18.8609 16.0983 18.4675 16.0046C18.0741 15.9109 17.7094 15.7228 17.4049 15.4566L8.14967 7.40097C8.01783 7.28505 7.85536 7.20963 7.68172 7.18377C7.50807 7.15792 7.33064 7.18273 7.17074 7.25522C7.01085 7.32771 6.8753 7.4448 6.78031 7.59244C6.68532 7.74008 6.63495 7.912 6.63526 8.08756V14.7452C6.63562 14.8758 6.66387 15.0049 6.71816 15.1237C6.77245 15.2426 6.85152 15.3484 6.95005 15.4342L13.9423 21.4945C14.1087 21.6391 14.3217 21.7187 14.5421 21.7187C14.7625 21.7187 14.9755 21.6391 15.1419 21.4945L17.5487 19.3976L22.2457 15.3326Z" fill="white"/>
</g>
<g filter="url(#filter1_d_3_3912)">
<path d="M26.7983 13.2046C28.1404 15.2249 30.1826 16.6773 32.5315 17.2819L34.6631 15.4354C34.8361 15.2844 34.9459 15.0738 34.9704 14.8454V8.0862C34.972 7.93119 34.9334 7.77842 34.8582 7.64286C34.783 7.50729 34.6739 7.39358 34.5416 7.31286C34.5248 7.30202 34.5074 7.29209 34.4896 7.28312L34.4177 7.24841C34.371 7.22901 34.323 7.21327 34.274 7.20132V7.20132L34.1996 7.18645H34.1426H34.1202C34.0371 7.18047 33.9535 7.18715 33.8724 7.20627H33.8327H33.7955L33.7584 7.21867L33.7014 7.24346C33.6825 7.25105 33.6643 7.26017 33.6469 7.27072V7.27072L33.575 7.31286L33.5254 7.34756C33.5081 7.36243 33.4882 7.37482 33.4709 7.39217L33.2577 7.5756L26.7983 13.2046Z" fill="url(#paint4_linear_3_3912)"/>
</g>
<g filter="url(#filter2_d_3_3912)">
<path fill-rule="evenodd" clip-rule="evenodd" d="M34.9707 8.09311V14.7483C34.9707 14.7873 34.9681 14.8262 34.9632 14.8647V14.8453C34.9386 15.0736 34.8289 15.2843 34.6558 15.4352L28.4319 20.8337V20.8731L27.0747 22.0566H16.6502L28.4321 11.7937L33.4513 7.40405C33.5835 7.28751 33.7466 7.21164 33.9209 7.18559C34.0952 7.15954 34.2734 7.1844 34.4339 7.2572C34.5944 7.32999 34.7305 7.44761 34.8257 7.59591C34.9209 7.74421 34.9713 7.91686 34.9707 8.09311ZM14.7202 27.2931V30.8222C14.7199 30.9978 14.7703 31.1697 14.8653 31.3173C14.9603 31.465 15.0959 31.5821 15.2558 31.6546C15.4157 31.7271 15.593 31.7519 15.7667 31.726C15.9403 31.7002 16.1029 31.6247 16.2347 31.5088L21.0694 27.2931H14.7202Z" fill="#FEFEFE"/>
</g>
<path d="M11.0515 25.4373C11.0515 25.5014 11.0473 25.5593 11.0391 25.6109H9.73393C9.74427 25.7473 9.7949 25.8569 9.88584 25.9395C9.97678 26.0222 10.0884 26.0635 10.2207 26.0635C10.4108 26.0635 10.5451 25.984 10.6237 25.8248H11.005C10.9533 25.9819 10.8593 26.1111 10.7229 26.2123C10.5885 26.3116 10.4211 26.3612 10.2207 26.3612C10.0574 26.3612 9.91064 26.325 9.78044 26.2526C9.6523 26.1782 9.55103 26.0749 9.47663 25.9426C9.40429 25.8083 9.36812 25.6533 9.36812 25.4776C9.36812 25.302 9.40326 25.148 9.47353 25.0157C9.54586 24.8814 9.6461 24.778 9.77424 24.7057C9.90444 24.6334 10.0532 24.5972 10.2207 24.5972C10.3819 24.5972 10.5255 24.6323 10.6516 24.7026C10.7776 24.7729 10.8758 24.8721 10.9461 25.0002C11.0163 25.1263 11.0515 25.272 11.0515 25.4373ZM10.6826 25.3257C10.6805 25.1955 10.634 25.0911 10.5431 25.0126C10.4521 24.9341 10.3395 24.8948 10.2051 24.8948C10.0832 24.8948 9.97884 24.9341 9.89204 25.0126C9.80524 25.0891 9.75357 25.1934 9.73703 25.3257H10.6826ZM16.6291 24.1787V26.3333H16.2757V24.8576L15.6185 26.3333H15.3736L14.7133 24.8576V26.3333H14.3599V24.1787H14.7412L15.4976 25.8682L16.2509 24.1787H16.6291ZM21.3532 25.893H20.4511L20.2961 26.3333H19.9271L20.6991 24.1756H21.1083L21.8802 26.3333H21.5082L21.3532 25.893ZM21.254 25.6047L20.9037 24.6034L20.5503 25.6047H21.254ZM26.7358 24.7987C26.68 24.6912 26.6025 24.6106 26.5033 24.5569C26.4041 24.5011 26.2894 24.4732 26.1592 24.4732C26.0166 24.4732 25.8895 24.5052 25.7779 24.5693C25.6663 24.6334 25.5784 24.7243 25.5144 24.8421C25.4524 24.9599 25.4214 25.0963 25.4214 25.2513C25.4214 25.4063 25.4524 25.5438 25.5144 25.6636C25.5784 25.7814 25.6663 25.8724 25.7779 25.9364C25.8895 26.0005 26.0166 26.0325 26.1592 26.0325C26.3514 26.0325 26.5074 25.9788 26.6273 25.8713C26.7472 25.7639 26.8205 25.6182 26.8474 25.4342H26.0383V25.1521H27.2256V25.428C27.2029 25.5954 27.1429 25.7494 27.0458 25.8899C26.9507 26.0305 26.8257 26.1431 26.6707 26.2278C26.5178 26.3105 26.3473 26.3519 26.1592 26.3519C25.9566 26.3519 25.7717 26.3054 25.6043 26.2123C25.4369 26.1173 25.3036 25.986 25.2043 25.8186C25.1072 25.6512 25.0586 25.4621 25.0586 25.2513C25.0586 25.0405 25.1072 24.8514 25.2043 24.684C25.3036 24.5166 25.4369 24.3864 25.6043 24.2934C25.7737 24.1983 25.9587 24.1508 26.1592 24.1508C26.3886 24.1508 26.5922 24.2076 26.7699 24.3213C26.9497 24.4329 27.0799 24.592 27.1605 24.7987H26.7358ZM30.8758 26.0263H31.8771V26.3333H30.4573V26.0573L31.4555 24.4856H30.4573V24.1787H31.8771V24.4546L30.8758 26.0263Z" fill="#FEFEFE"/>
<path d="M20.933 41.7768H40.9565V20.9905M0.909414 20.9905V0.204102H20.933" stroke="white" stroke-width="0.381401"/>
<path d="M14.551 13.1761C13.2293 15.1615 11.2212 16.5891 8.91172 17.185V17.185L6.81831 15.3694C6.64652 15.221 6.53762 15.0127 6.51368 14.787V8.15338C6.51286 8.00051 6.55145 7.85001 6.62573 7.7164C6.7 7.58279 6.80746 7.47058 6.93773 7.39059L6.98647 7.36378L7.05958 7.32966C7.10446 7.31024 7.15093 7.29475 7.19849 7.28336V7.28336H7.2716H7.32765H7.34959C7.43134 7.27613 7.51372 7.28272 7.59329 7.30285H7.63228L7.66884 7.31504H7.70783L7.76144 7.33697L7.81749 7.36378C7.84211 7.37662 7.86573 7.39128 7.88817 7.40764L7.93691 7.44176L7.99052 7.48319L8.20011 7.66597L14.551 13.1761Z" fill="url(#paint5_linear_3_3912)"/>
<path d="M27.063 13.177C28.3842 15.1618 30.3914 16.5893 32.6998 17.186L34.7932 15.3704C34.9641 15.2212 35.0728 15.0133 35.0979 14.7879V8.15433C35.1014 8.00075 35.0651 7.84887 34.9925 7.71349C34.9199 7.5781 34.8135 7.46383 34.6836 7.3818L34.6324 7.35499L34.5617 7.32087C34.5167 7.3018 34.4703 7.28632 34.4228 7.27457V7.27457H34.3473H34.2936H34.2693C34.1875 7.26734 34.1051 7.27393 34.0256 7.29406H33.989L33.95 7.30625H33.9135L33.8574 7.32818L33.8038 7.35499C33.7789 7.36727 33.7552 7.38197 33.7331 7.39886L33.682 7.43297L33.6308 7.4744L33.4212 7.65718L27.063 13.177Z" fill="url(#paint6_linear_3_3912)"/>
<defs>
<filter id="filter0_d_3_3912" x="5.66044" y="7.17383" width="17.56" height="16.4945" filterUnits="userSpaceOnUse" color-interpolation-filters="sRGB">
<feFlood flood-opacity="0" result="BackgroundImageFix"/>
<feColorMatrix in="SourceAlpha" type="matrix" values="0 0 0 0 0 0 0 0 0 0 0 0 0 0 0 0 0 0 127 0" result="hardAlpha"/>
<feOffset dy="0.97481"/>
<feGaussianBlur stdDeviation="0.487405"/>
<feColorMatrix type="matrix" values="0 0 0 0 0 0 0 0 0 0 0 0 0 0 0 0 0 0 0.25 0"/>
<feBlend mode="normal" in2="BackgroundImageFix" result="effect1_dropShadow_3_3912"/>
<feBlend mode="normal" in="SourceGraphic" in2="effect1_dropShadow_3_3912" result="shape"/>
</filter>
<filter id="filter1_d_3_3912" x="26.2471" y="7.18433" width="9.2743" height="13.2671" filterUnits="userSpaceOnUse" color-interpolation-filters="sRGB">
<feFlood flood-opacity="0" result="BackgroundImageFix"/>
<feColorMatrix in="SourceAlpha" type="matrix" values="0 0 0 0 0 0 0 0 0 0 0 0 0 0 0 0 0 0 127 0" result="hardAlpha"/>
<feOffset dy="2.61825"/>
<feGaussianBlur stdDeviation="0.275606"/>
<feColorMatrix type="matrix" values="0 0 0 0 0 0 0 0 0 0 0 0 0 0 0 0 0 0 0.25 0"/>
<feBlend mode="normal" in2="BackgroundImageFix" result="effect1_dropShadow_3_3912"/>
<feBlend mode="normal" in="SourceGraphic" in2="effect1_dropShadow_3_3912" result="shape"/>
</filter>
<filter id="filter2_d_3_3912" x="13.7454" y="7.17554" width="22.2001" height="26.5099" filterUnits="userSpaceOnUse" color-interpolation-filters="sRGB">
<feFlood flood-opacity="0" result="BackgroundImageFix"/>
<feColorMatrix in="SourceAlpha" type="matrix" values="0 0 0 0 0 0 0 0 0 0 0 0 0 0 0 0 0 0 127 0" result="hardAlpha"/>
<feOffset dy="0.97481"/>
<feGaussianBlur stdDeviation="0.487405"/>
<feColorMatrix type="matrix" values="0 0 0 0 0 0 0 0 0 0 0 0 0 0 0 0 0 0 0.25 0"/>
<feBlend mode="normal" in2="BackgroundImageFix" result="effect1_dropShadow_3_3912"/>
<feBlend mode="normal" in="SourceGraphic" in2="effect1_dropShadow_3_3912" result="shape"/>
</filter>
<linearGradient id="paint0_linear_3_3912" x1="31.705" y1="7.17554" x2="31.705" y2="34.5722" gradientUnits="userSpaceOnUse">
<stop offset="0.322917" stop-color="white"/>
<stop offset="0.875" stop-color="white"/>
</linearGradient>
<linearGradient id="paint1_linear_3_3912" x1="31.705" y1="7.17554" x2="31.705" y2="34.5722" gradientUnits="userSpaceOnUse">
<stop offset="0.322917" stop-color="white"/>
<stop offset="0.875" stop-color="white"/>
</linearGradient>
<linearGradient id="paint2_linear_3_3912" x1="9.86987" y1="12.0261" x2="9.86987" y2="39.7907" gradientUnits="userSpaceOnUse">
<stop offset="0.203438" stop-color="white"/>
<stop offset="0.708333" stop-color="#F0F0F0"/>
<stop offset="0.916667" stop-color="#E1E1E1"/>
</linearGradient>
<linearGradient id="paint3_linear_3_3912" x1="9.86987" y1="12.0261" x2="9.86987" y2="39.7907" gradientUnits="userSpaceOnUse">
<stop offset="0.203438" stop-color="white"/>
<stop offset="0.708333" stop-color="#F0F0F0"/>
<stop offset="0.916667" stop-color="#E1E1E1"/>
</linearGradient>
<linearGradient id="paint4_linear_3_3912" x1="43242.1" y1="3441.59" x2="43167.7" y2="3441.59" gradientUnits="userSpaceOnUse">
<stop stop-color="#3AA1E2"/>
<stop offset="0.14" stop-color="white" stop-opacity="0.83"/>
<stop offset="0.44" stop-color="white" stop-opacity="0.48"/>
<stop offset="0.69" stop-color="white" stop-opacity="0.22"/>
<stop offset="0.89" stop-color="white" stop-opacity="0.06"/>
<stop offset="1" stop-color="#F7F7F7" stop-opacity="0"/>
</linearGradient>
<linearGradient id="paint5_linear_3_3912" x1="6.58192" y1="12.2159" x2="8.79962" y2="12.2159" gradientUnits="userSpaceOnUse">
<stop stop-color="#A2ADB4"/>
<stop offset="0.14" stop-color="#A2ADB4" stop-opacity="0.83"/>
<stop offset="0.44" stop-color="#A2ADB4" stop-opacity="0.48"/>
<stop offset="0.69" stop-color="#A2ADB4" stop-opacity="0.22"/>
<stop offset="0.89" stop-color="#A2ADB4" stop-opacity="0.06"/>
<stop offset="1" stop-color="#A2ADB4" stop-opacity="0"/>
</linearGradient>
<linearGradient id="paint6_linear_3_3912" x1="37.0938" y1="9.43507" x2="31.976" y2="9.43507" gradientUnits="userSpaceOnUse">
<stop offset="0.482245" stop-color="#A2ADB4"/>
<stop offset="0.965253" stop-color="white" stop-opacity="0"/>
</linearGradient>
</defs>
</svg>
