<svg width="26" height="24" viewBox="0 0 26 24" fill="none" xmlns="http://www.w3.org/2000/svg">
<path d="M13.1309 13.1001C14.8706 13.1001 16.2808 11.8043 16.2808 10.2058C16.2808 8.60734 14.8706 7.31152 13.1309 7.31152C11.3912 7.31152 9.98096 8.60734 9.98096 10.2058C9.98096 11.8043 11.3912 13.1001 13.1309 13.1001Z" stroke="white" stroke-width="1.53987" stroke-linecap="round" stroke-linejoin="round"/>
<path d="M21.0061 10.2055C21.0061 16.7176 13.1312 21.7826 13.1312 21.7826C13.1312 21.7826 5.25635 16.7176 5.25635 10.2055C5.25635 8.28643 6.08602 6.44599 7.56284 5.08903C9.03967 3.73206 11.0427 2.96973 13.1312 2.96973C15.2198 2.96973 17.2228 3.73206 18.6996 5.08903C20.1764 6.44599 21.0061 8.28643 21.0061 10.2055V10.2055Z" stroke="white" stroke-width="1.53987" stroke-linecap="round" stroke-linejoin="round"/>
</svg>
