<svg width="177" height="85" viewBox="0 0 177 85" fill="none" xmlns="http://www.w3.org/2000/svg">
<g filter="url(#filter0_d_668_235)">
<rect x="5.41211" y="4" width="80.9603" height="75" rx="11.9205" fill="url(#paint0_linear_668_235)"/>
</g>
<path d="M61.4766 56.5253C61.5276 56.4022 61.5538 56.2703 61.5538 56.137V49.0316H54.2676V56.137C54.2676 56.2705 54.2939 56.4027 54.3451 56.526C54.3963 56.6493 54.4712 56.7613 54.5658 56.8556C54.6603 56.9498 54.7725 57.0245 54.896 57.0754C55.0194 57.1262 55.1516 57.1522 55.2852 57.1518H60.539C60.6723 57.1518 60.8043 57.1256 60.9274 57.0746C61.0505 57.0236 61.1624 56.9488 61.2566 56.8546C61.3509 56.7603 61.4256 56.6485 61.4766 56.5253Z" fill="url(#paint1_linear_668_235)"/>
<path d="M54.3589 31.7863C54.2988 31.9184 54.2677 32.0619 54.2676 32.207V43.1897H61.5538V27.603C61.5539 27.4079 61.4977 27.2169 61.392 27.0529C61.2863 26.889 61.1356 26.7589 60.9579 26.6784C60.7802 26.5979 60.5831 26.5703 60.3902 26.5989C60.1972 26.6275 60.0165 26.7111 59.8699 26.8398L54.616 31.4411C54.5067 31.5365 54.419 31.6542 54.3589 31.7863Z" fill="url(#paint2_linear_668_235)"/>
<path d="M30.2484 56.8546C30.0581 56.6643 29.9512 56.4061 29.9512 56.137V48.9547H37.2346V56.137C37.2346 56.4061 37.1277 56.6643 36.9374 56.8546C36.7471 57.0449 36.489 57.1518 36.2198 57.1518H30.966C30.6968 57.1518 30.4387 57.0449 30.2484 56.8546Z" fill="url(#paint3_linear_668_235)"/>
<path d="M37.1449 31.7866C37.2045 31.9187 37.2351 32.0621 37.2346 32.207V43.2665H29.9512V27.603C29.9511 27.4079 30.0073 27.2169 30.113 27.0529C30.2187 26.889 30.3694 26.7589 30.5471 26.6784C30.7248 26.5979 30.9219 26.5703 31.1149 26.5989C31.3079 26.6275 31.4885 26.7111 31.6351 26.8398L36.889 31.4411C36.998 31.5366 37.0852 31.6545 37.1449 31.7866Z" fill="url(#paint4_linear_668_235)"/>
<g filter="url(#filter1_d_668_235)">
<path d="M47.3585 35.6884L44.4772 36.4268C44.0402 36.5387 43.5824 36.5426 43.1435 36.4381C42.7046 36.3335 42.2978 36.1237 41.9581 35.8267L31.6329 26.8398C31.4858 26.7105 31.3045 26.6264 31.1108 26.5975C30.9171 26.5687 30.7191 26.5964 30.5408 26.6772C30.3624 26.7581 30.2112 26.8887 30.1052 27.0534C29.9992 27.2181 29.943 27.4099 29.9434 27.6058V35.0331C29.9438 35.1789 29.9753 35.3228 30.0358 35.4554C30.0964 35.588 30.1846 35.7061 30.2945 35.8018L38.0951 42.5627C38.2808 42.724 38.5184 42.8128 38.7643 42.8128C39.0102 42.8128 39.2478 42.724 39.4335 42.5627L42.1185 40.2234L47.3585 35.6884Z" fill="white"/>
</g>
<g filter="url(#filter2_d_668_235)">
<path d="M52.4375 33.3134C53.9348 35.5673 56.213 37.1876 58.8334 37.8622L61.2115 35.8021C61.4045 35.6337 61.527 35.3987 61.5543 35.144V27.6033C61.5562 27.4304 61.513 27.2599 61.4292 27.1087C61.3453 26.9575 61.2236 26.8306 61.076 26.7406C61.0572 26.7285 61.0378 26.7174 61.0179 26.7074L60.9377 26.6687C60.8857 26.647 60.8321 26.6295 60.7774 26.6161V26.6161L60.6944 26.5995H60.6308H60.6059C60.5131 26.5929 60.4199 26.6003 60.3294 26.6217H60.2852H60.2436L60.2022 26.6355L60.1386 26.6631C60.1175 26.6716 60.0972 26.6818 60.0778 26.6936V26.6936L59.9976 26.7406L59.9423 26.7793C59.9229 26.7959 59.9008 26.8097 59.8814 26.829L59.6436 27.0337L52.4375 33.3134Z" fill="url(#paint5_linear_668_235)"/>
</g>
<g filter="url(#filter3_d_668_235)">
<path fill-rule="evenodd" clip-rule="evenodd" d="M61.5545 27.6115V35.0361C61.5545 35.0801 61.5516 35.1241 61.5459 35.1675V35.1438C61.5185 35.3985 61.3961 35.6336 61.203 35.802L54.2596 41.8245V41.8692L52.745 43.1899H41.1153L54.26 31.74L59.8595 26.8428C60.007 26.7128 60.1889 26.6282 60.3833 26.5991C60.5778 26.57 60.7766 26.5978 60.9556 26.679C61.1347 26.7602 61.2865 26.8914 61.3927 27.0569C61.499 27.2223 61.5551 27.4149 61.5545 27.6115ZM38.9629 49.0318V52.9684C38.9626 53.1642 39.0187 53.356 39.1247 53.5207C39.2307 53.6854 39.382 53.8161 39.5604 53.8969C39.7387 53.9778 39.9366 54.0055 40.1303 53.9766C40.3241 53.9478 40.5054 53.8636 40.6525 53.7343L46.0454 49.0318H38.9629Z" fill="#FEFEFE"/>
</g>
<path d="M34.2892 45.7871C34.2892 45.8379 34.2859 45.8838 34.2794 45.9247H33.2443C33.2525 46.0329 33.2927 46.1198 33.3648 46.1853C33.4369 46.2509 33.5254 46.2837 33.6303 46.2837C33.7811 46.2837 33.8877 46.2206 33.9499 46.0944H34.2523C34.2114 46.2189 34.1368 46.3214 34.0286 46.4017C33.9221 46.4803 33.7893 46.5197 33.6303 46.5197C33.5009 46.5197 33.3845 46.491 33.2812 46.4336C33.1796 46.3746 33.0993 46.2927 33.0403 46.1878C32.9829 46.0813 32.9542 45.9583 32.9542 45.819C32.9542 45.6797 32.9821 45.5576 33.0378 45.4527C33.0952 45.3462 33.1747 45.2642 33.2763 45.2068C33.3796 45.1495 33.4976 45.1208 33.6303 45.1208C33.7582 45.1208 33.8721 45.1487 33.9721 45.2044C34.072 45.2601 34.1499 45.3388 34.2056 45.4404C34.2614 45.5404 34.2892 45.6559 34.2892 45.7871ZM33.9967 45.6985C33.995 45.5953 33.9581 45.5125 33.886 45.4502C33.8139 45.388 33.7246 45.3568 33.618 45.3568C33.5213 45.3568 33.4386 45.388 33.3697 45.4502C33.3009 45.5109 33.2599 45.5936 33.2468 45.6985H33.9967ZM38.7125 44.7889V46.4976H38.4323V45.3273L37.9111 46.4976H37.7168L37.1932 45.3273V46.4976H36.9129V44.7889H37.2153L37.8152 46.1288L38.4126 44.7889H38.7125ZM42.4589 46.1485H41.7435L41.6205 46.4976H41.328L41.9401 44.7864H42.2647L42.8768 46.4976H42.5818L42.4589 46.1485ZM42.3802 45.9198L42.1024 45.1257L41.8221 45.9198H42.3802ZM46.7275 45.2806C46.6832 45.1954 46.6218 45.1314 46.5431 45.0888C46.4644 45.0446 46.3735 45.0225 46.2702 45.0225C46.1571 45.0225 46.0563 45.0479 45.9678 45.0987C45.8793 45.1495 45.8097 45.2216 45.7588 45.315C45.7097 45.4084 45.6851 45.5166 45.6851 45.6395C45.6851 45.7625 45.7097 45.8715 45.7588 45.9665C45.8097 46.0599 45.8793 46.1321 45.9678 46.1829C46.0563 46.2337 46.1571 46.2591 46.2702 46.2591C46.4226 46.2591 46.5464 46.2165 46.6415 46.1312C46.7365 46.046 46.7947 45.9305 46.816 45.7846H46.1743V45.5609H47.1159V45.7797C47.0979 45.9124 47.0504 46.0345 46.9734 46.146C46.898 46.2574 46.7988 46.3468 46.6759 46.414C46.5546 46.4795 46.4194 46.5123 46.2702 46.5123C46.1096 46.5123 45.9629 46.4754 45.8301 46.4017C45.6974 46.3263 45.5917 46.2222 45.513 46.0894C45.436 45.9567 45.3974 45.8067 45.3974 45.6395C45.3974 45.4724 45.436 45.3224 45.513 45.1896C45.5917 45.0569 45.6974 44.9536 45.8301 44.8799C45.9645 44.8045 46.1112 44.7668 46.2702 44.7668C46.4521 44.7668 46.6136 44.8118 46.7545 44.902C46.8971 44.9905 47.0004 45.1167 47.0643 45.2806H46.7275ZM50.0107 46.2542H50.8048V46.4976H49.6788V46.2788L50.4704 45.0323H49.6788V44.7889H50.8048V45.0077L50.0107 46.2542Z" fill="#FEFEFE"/>
<path d="M45.8939 65.1895H68.2324V42M23.5555 42V18.8105H45.8939" stroke="white" stroke-width="0.425495"/>
<path d="M38.7751 33.2827C37.3006 35.4977 35.0603 37.0903 32.4839 37.7551V37.7551L30.1485 35.7296C29.9568 35.564 29.8353 35.3317 29.8086 35.0798V27.6793C29.8077 27.5088 29.8507 27.3409 29.9336 27.1918C30.0165 27.0428 30.1363 26.9176 30.2817 26.8284L30.336 26.7985L30.4176 26.7604C30.4677 26.7387 30.5195 26.7214 30.5726 26.7087V26.7087H30.6541H30.7167H30.7411C30.8324 26.7007 30.9243 26.708 31.013 26.7305H31.0565L31.0973 26.7441H31.1408L31.2006 26.7685L31.2631 26.7985C31.2906 26.8128 31.317 26.8291 31.342 26.8474L31.3964 26.8855L31.4562 26.9317L31.69 27.1356L38.7751 33.2827Z" fill="url(#paint6_linear_668_235)"/>
<path d="M52.7324 33.2829C54.2064 35.4971 56.4456 37.0896 59.0209 37.7552L61.3564 35.7297C61.5469 35.5633 61.6682 35.3314 61.6962 35.08V27.6795C61.7001 27.5081 61.6596 27.3387 61.5786 27.1877C61.4977 27.0366 61.3789 26.9091 61.234 26.8176L61.1769 26.7877L61.0981 26.7496C61.0479 26.7284 60.996 26.7111 60.9431 26.698V26.698H60.8588H60.799H60.7718C60.6806 26.6899 60.5887 26.6973 60.4999 26.7197H60.4592L60.4157 26.7333H60.3749L60.3124 26.7578L60.2525 26.7877C60.2247 26.8014 60.1983 26.8178 60.1737 26.8366L60.1166 26.8747L60.0595 26.9209L59.8257 27.1248L52.7324 33.2829Z" fill="url(#paint7_linear_668_235)"/>
<path d="M109.932 37.582L109.58 37.736C108.788 37.736 107.974 37.7433 107.138 37.758C106.302 37.7727 105.481 37.78 104.674 37.78H102.078C102.063 37.8827 102.056 37.9853 102.056 38.088C102.056 38.176 102.056 38.264 102.056 38.352C102.056 38.9093 102.137 39.4447 102.298 39.958C102.459 40.4567 102.709 40.8967 103.046 41.278C103.398 41.6593 103.845 41.9673 104.388 42.202C104.931 42.422 105.591 42.532 106.368 42.532C106.823 42.532 107.307 42.488 107.82 42.4C108.348 42.2973 108.832 42.1213 109.272 41.872L109.492 42.004V42.4L109.272 42.642C108.92 42.9207 108.421 43.1773 107.776 43.412C107.131 43.632 106.412 43.742 105.62 43.742C104.843 43.742 104.131 43.6173 103.486 43.368C102.855 43.104 102.305 42.7373 101.836 42.268C101.381 41.7987 101.022 41.2413 100.758 40.596C100.509 39.9507 100.384 39.232 100.384 38.44C100.384 37.6333 100.516 36.9 100.78 36.24C101.044 35.58 101.403 35.0153 101.858 34.546C102.327 34.0767 102.87 33.71 103.486 33.446C104.117 33.182 104.791 33.05 105.51 33.05C105.891 33.05 106.317 33.1013 106.786 33.204C107.27 33.3067 107.732 33.5047 108.172 33.798C108.612 34.0767 109.008 34.48 109.36 35.008C109.712 35.5213 109.954 36.2033 110.086 37.054L109.932 37.582ZM105.532 34.04C105.063 34.04 104.637 34.1207 104.256 34.282C103.889 34.4287 103.559 34.634 103.266 34.898C102.987 35.1473 102.753 35.448 102.562 35.8C102.386 36.1373 102.261 36.4967 102.188 36.878H103.046C103.838 36.878 104.608 36.8707 105.356 36.856C106.104 36.8267 106.889 36.79 107.71 36.746C107.901 36.7313 108.025 36.68 108.084 36.592C108.157 36.504 108.194 36.4013 108.194 36.284C108.194 36.196 108.187 36.1153 108.172 36.042C108.157 35.9687 108.135 35.8953 108.106 35.822C107.945 35.2647 107.644 34.832 107.204 34.524C106.764 34.2013 106.207 34.04 105.532 34.04ZM130.448 43.632C130.346 43.632 130.177 43.6247 129.942 43.61C129.708 43.5953 129.466 43.5807 129.216 43.566C128.967 43.5513 128.725 43.5367 128.49 43.522C128.256 43.5073 128.087 43.5 127.984 43.5H127.566C127.464 43.5 127.295 43.5073 127.06 43.522C126.826 43.5367 126.584 43.5513 126.334 43.566C126.085 43.5807 125.843 43.5953 125.608 43.61C125.374 43.6247 125.205 43.632 125.102 43.632L125.036 43.544L125.102 43.148L125.19 43.06C125.425 43.06 125.645 43.0527 125.85 43.038C126.07 43.0087 126.239 42.9427 126.356 42.84C126.459 42.7373 126.554 42.6053 126.642 42.444C126.745 42.2827 126.796 41.9967 126.796 41.586C126.796 41.4833 126.796 41.366 126.796 41.234C126.796 41.0873 126.789 40.9113 126.774 40.706C126.774 40.5007 126.767 40.2513 126.752 39.958C126.738 39.6647 126.716 39.298 126.686 38.858C126.569 37.318 126.474 36.0933 126.4 35.184C126.342 34.26 126.29 33.5413 126.246 33.028C126.202 32.5147 126.166 32.148 126.136 31.928C126.122 31.708 126.107 31.5247 126.092 31.378C125.99 31.642 125.828 32.0527 125.608 32.61C125.388 33.1527 125.132 33.7833 124.838 34.502C124.56 35.206 124.259 35.9613 123.936 36.768C123.614 37.5747 123.291 38.374 122.968 39.166C122.66 39.958 122.36 40.706 122.066 41.41C121.788 42.114 121.546 42.7153 121.34 43.214H120.306L115.906 31.422C115.892 31.5687 115.877 31.7227 115.862 31.884C115.848 32.0453 115.833 32.2433 115.818 32.478C115.804 32.698 115.782 32.962 115.752 33.27C115.738 33.5633 115.716 33.93 115.686 34.37L115.378 38.418C115.334 38.9167 115.305 39.3273 115.29 39.65C115.276 39.9727 115.261 40.2513 115.246 40.486C115.232 40.7207 115.224 40.9187 115.224 41.08C115.224 41.2413 115.224 41.41 115.224 41.586C115.224 41.9967 115.268 42.2827 115.356 42.444C115.459 42.6053 115.569 42.7373 115.686 42.84C115.804 42.9427 115.936 43.0087 116.082 43.038C116.244 43.0527 116.442 43.06 116.676 43.06L116.764 43.148L116.83 43.544L116.786 43.632C116.684 43.632 116.53 43.6247 116.324 43.61C116.134 43.5953 115.936 43.5807 115.73 43.566C115.525 43.5513 115.32 43.5367 115.114 43.522C114.924 43.5073 114.777 43.5 114.674 43.5H114.256C114.154 43.5 113.985 43.5073 113.75 43.522C113.53 43.5367 113.288 43.5513 113.024 43.566C112.775 43.5807 112.533 43.5953 112.298 43.61C112.078 43.6247 111.917 43.632 111.814 43.632L111.77 43.544L111.836 43.148L111.968 43.06C112.188 43.06 112.401 43.0527 112.606 43.038C112.812 43.0087 112.988 42.9427 113.134 42.84C113.252 42.7373 113.369 42.6053 113.486 42.444C113.618 42.2827 113.714 41.9967 113.772 41.586C113.787 41.4833 113.802 41.366 113.816 41.234C113.831 41.0873 113.846 40.9113 113.86 40.706C113.89 40.5007 113.919 40.2513 113.948 39.958C113.978 39.6647 114.007 39.298 114.036 38.858L114.344 34.392C114.388 33.8787 114.418 33.446 114.432 33.094C114.462 32.742 114.476 32.4413 114.476 32.192C114.491 31.9427 114.498 31.73 114.498 31.554C114.513 31.378 114.52 31.202 114.52 31.026C114.52 30.6153 114.454 30.3293 114.322 30.168C114.205 29.992 114.088 29.86 113.97 29.772C113.838 29.6693 113.67 29.6107 113.464 29.596C113.259 29.5667 113.039 29.552 112.804 29.552L112.694 29.464L112.628 29.068L112.672 28.98C112.775 28.98 112.944 28.9873 113.178 29.002C113.413 29.0167 113.655 29.0313 113.904 29.046C114.154 29.0607 114.396 29.0753 114.63 29.09C114.865 29.1047 115.034 29.112 115.136 29.112H115.906C116.024 29.112 116.185 29.1047 116.39 29.09C116.61 29.0753 116.786 29.0533 116.918 29.024L117.028 29.09C117.043 29.2807 117.094 29.5373 117.182 29.86C117.285 30.168 117.402 30.52 117.534 30.916C117.681 31.312 117.835 31.7373 117.996 32.192C118.158 32.632 118.319 33.072 118.48 33.512L119.976 37.582C120.226 38.286 120.453 38.8873 120.658 39.386C120.864 39.87 121.047 40.3027 121.208 40.684C121.252 40.6107 121.377 40.332 121.582 39.848C121.788 39.3493 122.037 38.7407 122.33 38.022C122.638 37.2887 122.961 36.4893 123.298 35.624C123.636 34.7587 123.958 33.9153 124.266 33.094C124.574 32.258 124.838 31.488 125.058 30.784C125.278 30.08 125.418 29.5227 125.476 29.112L125.586 29.024C125.704 29.0533 125.828 29.0753 125.96 29.09C126.092 29.1047 126.217 29.112 126.334 29.112H127.126C127.229 29.112 127.398 29.1047 127.632 29.09C127.867 29.0753 128.109 29.0607 128.358 29.046C128.608 29.0313 128.85 29.0167 129.084 29.002C129.319 28.9873 129.488 28.98 129.59 28.98L129.634 29.068L129.568 29.464L129.458 29.552C129.224 29.552 128.996 29.5667 128.776 29.596C128.571 29.6107 128.41 29.6693 128.292 29.772C128.175 29.86 128.05 29.992 127.918 30.168C127.801 30.344 127.742 30.63 127.742 31.026C127.742 31.2313 127.742 31.422 127.742 31.598C127.757 31.774 127.764 31.9793 127.764 32.214C127.779 32.4487 127.794 32.7347 127.808 33.072C127.838 33.4093 127.874 33.842 127.918 34.37L128.182 38.418C128.226 38.946 128.256 39.3787 128.27 39.716C128.3 40.0387 128.322 40.31 128.336 40.53C128.366 40.75 128.388 40.9407 128.402 41.102C128.432 41.2487 128.461 41.41 128.49 41.586C128.549 41.9967 128.637 42.2827 128.754 42.444C128.872 42.6053 128.989 42.7373 129.106 42.84C129.238 42.9427 129.407 43.0087 129.612 43.038C129.832 43.0527 130.06 43.06 130.294 43.06L130.404 43.148L130.47 43.544L130.448 43.632ZM139.674 28.87L143.282 38.858C143.429 39.298 143.554 39.6647 143.656 39.958C143.774 40.2513 143.869 40.5007 143.942 40.706C144.03 40.9113 144.104 41.0873 144.162 41.234C144.221 41.366 144.272 41.4833 144.316 41.586C144.478 41.9527 144.639 42.2387 144.8 42.444C144.976 42.6347 145.152 42.7813 145.328 42.884C145.504 42.972 145.68 43.0233 145.856 43.038C146.047 43.0527 146.238 43.06 146.428 43.06L146.538 43.148L146.604 43.544L146.56 43.632C146.458 43.632 146.304 43.6247 146.098 43.61C145.893 43.5953 145.68 43.5807 145.46 43.566C145.24 43.5513 145.028 43.5367 144.822 43.522C144.632 43.5073 144.485 43.5 144.382 43.5H143.656C143.554 43.5 143.385 43.5073 143.15 43.522C142.916 43.5367 142.666 43.5513 142.402 43.566C142.153 43.5807 141.911 43.5953 141.676 43.61C141.442 43.6247 141.273 43.632 141.17 43.632L141.126 43.544L141.192 43.148L141.28 43.06C141.706 43.06 142.036 43.016 142.27 42.928C142.505 42.8253 142.622 42.5613 142.622 42.136C142.622 41.7987 142.505 41.3293 142.27 40.728C142.05 40.112 141.772 39.342 141.434 38.418L141.06 37.362H136.132L135.758 38.418C135.421 39.342 135.135 40.112 134.9 40.728C134.68 41.3293 134.57 41.7987 134.57 42.136C134.57 42.5613 134.688 42.8253 134.922 42.928C135.157 43.016 135.487 43.06 135.912 43.06L136.022 43.148L136.088 43.544L136.044 43.632C135.942 43.632 135.78 43.6247 135.56 43.61C135.34 43.5953 135.106 43.5807 134.856 43.566C134.622 43.5513 134.394 43.5367 134.174 43.522C133.954 43.5073 133.793 43.5 133.69 43.5H133.272C133.17 43.5 133.016 43.5073 132.81 43.522C132.605 43.5367 132.392 43.5513 132.172 43.566C131.952 43.5807 131.74 43.5953 131.534 43.61C131.344 43.6247 131.197 43.632 131.094 43.632L131.072 43.544L131.116 43.148L131.226 43.06C131.417 43.06 131.6 43.0527 131.776 43.038C131.952 43.0233 132.128 42.972 132.304 42.884C132.48 42.7813 132.649 42.6347 132.81 42.444C132.986 42.2387 133.162 41.9527 133.338 41.586C133.382 41.5127 133.419 41.432 133.448 41.344C133.492 41.2413 133.551 41.0947 133.624 40.904C133.712 40.7133 133.815 40.464 133.932 40.156C134.064 39.8333 134.226 39.4227 134.416 38.924C134.622 38.4107 134.864 37.7873 135.142 37.054C135.436 36.3207 135.788 35.4333 136.198 34.392C136.389 33.8787 136.587 33.3727 136.792 32.874C136.998 32.3607 137.188 31.884 137.364 31.444C137.54 31.004 137.694 30.6153 137.826 30.278C137.973 29.9407 138.076 29.6913 138.134 29.53L139.432 28.87H139.674ZM136.506 36.416H140.708L138.618 30.762L136.506 36.416ZM159.786 42.95C159.082 43.17 158.342 43.3533 157.564 43.5C156.802 43.6613 156.002 43.742 155.166 43.742C153.89 43.742 152.776 43.5513 151.822 43.17C150.884 42.774 150.099 42.2387 149.468 41.564C148.852 40.8893 148.39 40.1047 148.082 39.21C147.774 38.3153 147.62 37.3693 147.62 36.372C147.62 35.316 147.782 34.3333 148.104 33.424C148.442 32.5147 148.933 31.7227 149.578 31.048C150.224 30.3733 151.023 29.8453 151.976 29.464C152.93 29.068 154.037 28.87 155.298 28.87C155.562 28.87 155.878 28.8847 156.244 28.914C156.626 28.9287 157.022 28.9653 157.432 29.024C157.843 29.0827 158.261 29.1633 158.686 29.266C159.112 29.354 159.515 29.4713 159.896 29.618L159.94 29.816L159.566 31.95H158.95L158.862 31.884C158.76 31.2973 158.415 30.8427 157.828 30.52C157.256 30.1973 156.376 30.036 155.188 30.036C153.531 30.036 152.27 30.3807 151.404 31.07C151.052 31.3487 150.752 31.6787 150.502 32.06C150.253 32.4413 150.04 32.8593 149.864 33.314C149.703 33.7687 149.578 34.2527 149.49 34.766C149.417 35.2647 149.38 35.7633 149.38 36.262C149.38 37.2447 149.52 38.1247 149.798 38.902C150.092 39.6793 150.488 40.3393 150.986 40.882C151.485 41.41 152.079 41.8207 152.768 42.114C153.458 42.3927 154.206 42.532 155.012 42.532C155.262 42.532 155.54 42.5247 155.848 42.51C156.171 42.4807 156.479 42.444 156.772 42.4C157.08 42.356 157.352 42.3047 157.586 42.246C157.821 42.1873 157.982 42.1287 158.07 42.07C158.188 41.9967 158.246 41.8427 158.246 41.608C158.246 41.5053 158.246 41.366 158.246 41.19C158.246 41.014 158.246 40.8307 158.246 40.64C158.246 40.4347 158.239 40.2367 158.224 40.046C158.224 39.8407 158.217 39.6647 158.202 39.518C158.173 39.1367 158.092 38.8507 157.96 38.66C157.843 38.4547 157.74 38.3227 157.652 38.264C157.52 38.1613 157.322 38.1027 157.058 38.088C156.794 38.0587 156.545 38.044 156.31 38.044L156.2 37.956L156.134 37.472L156.178 37.384C156.281 37.384 156.442 37.3913 156.662 37.406C156.897 37.4207 157.132 37.4353 157.366 37.45C157.616 37.4647 157.85 37.4793 158.07 37.494C158.305 37.5087 158.474 37.516 158.576 37.516H159.236C159.339 37.516 159.478 37.5087 159.654 37.494C159.83 37.4793 160.014 37.4647 160.204 37.45C160.395 37.4353 160.578 37.4207 160.754 37.406C160.93 37.3913 161.07 37.384 161.172 37.384L161.216 37.472L161.172 38L161.062 38.088C160.637 38.088 160.336 38.2127 160.16 38.462C159.999 38.6967 159.904 39.0487 159.874 39.518C159.845 39.8847 159.823 40.2807 159.808 40.706C159.808 41.1167 159.808 41.4247 159.808 41.63C159.808 41.85 159.808 42.092 159.808 42.356C159.823 42.6053 159.845 42.7667 159.874 42.84L159.786 42.95ZM163.68 31.488L164.032 29.112L164.208 28.936C166.071 29.024 167.626 29.0753 168.872 29.09C170.134 29.1047 170.955 29.112 171.336 29.112H172.788C172.876 29.112 172.994 29.112 173.14 29.112C173.302 29.0973 173.463 29.0827 173.624 29.068C173.8 29.0533 173.969 29.0387 174.13 29.024C174.306 28.9947 174.46 28.9653 174.592 28.936L174.768 29.178L174.658 29.728C174.394 30.0067 174.013 30.4687 173.514 31.114C173.016 31.7593 172.466 32.5 171.864 33.336C171.263 34.1573 170.647 35.0373 170.016 35.976C169.386 36.9147 168.799 37.8093 168.256 38.66C167.714 39.496 167.252 40.2513 166.87 40.926C166.489 41.586 166.247 42.07 166.144 42.378L166.254 42.444H168.014C169.32 42.444 170.361 42.4367 171.138 42.422C171.916 42.3927 172.517 42.3193 172.942 42.202C173.368 42.0847 173.668 41.916 173.844 41.696C174.02 41.4613 174.16 41.1313 174.262 40.706L174.394 40.574H174.988L174.592 43.412L174.394 43.632C174.336 43.632 174.182 43.6247 173.932 43.61C173.683 43.61 173.39 43.6027 173.052 43.588C172.715 43.5733 172.348 43.5587 171.952 43.544C171.571 43.544 171.197 43.5367 170.83 43.522C170.478 43.522 170.156 43.5147 169.862 43.5C169.584 43.5 169.378 43.5 169.246 43.5H165.726C165.404 43.5 165.037 43.5147 164.626 43.544C164.23 43.5733 163.842 43.6027 163.46 43.632L163.24 43.39V42.884C163.534 42.5907 163.915 42.1433 164.384 41.542C164.868 40.9407 165.389 40.2513 165.946 39.474C166.504 38.6967 167.076 37.868 167.662 36.988C168.249 36.108 168.806 35.25 169.334 34.414C169.862 33.578 170.332 32.8007 170.742 32.082C171.168 31.3487 171.483 30.7473 171.688 30.278L171.578 30.168H168.454C167.633 30.168 166.966 30.1827 166.452 30.212C165.954 30.2267 165.558 30.278 165.264 30.366C164.971 30.454 164.758 30.5933 164.626 30.784C164.494 30.96 164.399 31.2093 164.34 31.532L164.208 31.642H163.812L163.68 31.488Z" fill="black"/>
<path d="M99.5963 53.6799C99.5963 53.3253 99.6763 53.0072 99.8362 52.7255C99.9961 52.4405 100.213 52.2179 100.488 52.058C100.766 51.8981 101.074 51.8181 101.411 51.8181C101.808 51.8181 102.153 51.9137 102.449 52.1049C102.745 52.2962 102.96 52.5674 103.096 52.9185H102.527C102.426 52.6995 102.28 52.5308 102.089 52.4126C101.901 52.2944 101.675 52.2353 101.411 52.2353C101.157 52.2353 100.93 52.2944 100.728 52.4126C100.526 52.5308 100.368 52.6995 100.253 52.9185C100.139 53.1341 100.081 53.3879 100.081 53.6799C100.081 53.9685 100.139 54.2223 100.253 54.4413C100.368 54.6569 100.526 54.8238 100.728 54.942C100.93 55.0602 101.157 55.1193 101.411 55.1193C101.675 55.1193 101.901 55.0619 102.089 54.9472C102.28 54.829 102.426 54.6604 102.527 54.4413H103.096C102.96 54.789 102.745 55.0585 102.449 55.2497C102.153 55.4374 101.808 55.5313 101.411 55.5313C101.074 55.5313 100.766 55.4531 100.488 55.2966C100.213 55.1367 99.9961 54.9159 99.8362 54.6343C99.6763 54.3527 99.5963 54.0345 99.5963 53.6799ZM105.153 55.5469C104.885 55.5469 104.642 55.4861 104.423 55.3644C104.207 55.2427 104.037 55.0706 103.912 54.8481C103.79 54.6221 103.729 54.3614 103.729 54.0658C103.729 53.7738 103.792 53.5165 103.917 53.294C104.046 53.068 104.219 52.8959 104.438 52.7777C104.657 52.656 104.903 52.5952 105.174 52.5952C105.445 52.5952 105.69 52.656 105.909 52.7777C106.128 52.8959 106.3 53.0663 106.425 53.2888C106.554 53.5113 106.618 53.7703 106.618 54.0658C106.618 54.3614 106.552 54.6221 106.42 54.8481C106.291 55.0706 106.116 55.2427 105.893 55.3644C105.671 55.4861 105.424 55.5469 105.153 55.5469ZM105.153 55.1297C105.323 55.1297 105.483 55.0897 105.633 55.0098C105.782 54.9298 105.902 54.8099 105.992 54.6499C106.086 54.49 106.133 54.2953 106.133 54.0658C106.133 53.8364 106.088 53.6417 105.998 53.4817C105.907 53.3218 105.789 53.2036 105.643 53.1271C105.497 53.0471 105.339 53.0072 105.168 53.0072C104.995 53.0072 104.835 53.0471 104.689 53.1271C104.546 53.2036 104.431 53.3218 104.345 53.4817C104.258 53.6417 104.214 53.8364 104.214 54.0658C104.214 54.2988 104.256 54.4952 104.339 54.6551C104.426 54.8151 104.541 54.935 104.683 55.015C104.826 55.0915 104.982 55.1297 105.153 55.1297ZM108.739 52.59C109.087 52.59 109.368 52.696 109.584 52.9081C109.799 53.1167 109.907 53.4192 109.907 53.8155V55.5H109.438V53.8833C109.438 53.5982 109.367 53.3809 109.224 53.2314C109.081 53.0784 108.887 53.0019 108.64 53.0019C108.39 53.0019 108.19 53.0802 108.04 53.2366C107.894 53.3931 107.821 53.6208 107.821 53.9198V55.5H107.347V52.6421H107.821V53.0489C107.915 52.9029 108.042 52.7899 108.202 52.7099C108.365 52.6299 108.544 52.59 108.739 52.59ZM112.179 52.59C112.527 52.59 112.808 52.696 113.024 52.9081C113.24 53.1167 113.347 53.4192 113.347 53.8155V55.5H112.878V53.8833C112.878 53.5982 112.807 53.3809 112.664 53.2314C112.522 53.0784 112.327 53.0019 112.08 53.0019C111.83 53.0019 111.63 53.0802 111.48 53.2366C111.334 53.3931 111.261 53.6208 111.261 53.9198V55.5H110.787V52.6421H111.261V53.0489C111.355 52.9029 111.482 52.7899 111.642 52.7099C111.805 52.6299 111.984 52.59 112.179 52.59ZM116.834 53.9615C116.834 54.0519 116.829 54.1475 116.819 54.2484H114.535C114.552 54.53 114.648 54.7508 114.821 54.9107C114.999 55.0671 115.213 55.1454 115.463 55.1454C115.668 55.1454 115.838 55.0984 115.974 55.0046C116.113 54.9072 116.21 54.7786 116.266 54.6186H116.777C116.701 54.8933 116.548 55.1176 116.318 55.2914C116.089 55.4618 115.804 55.5469 115.463 55.5469C115.192 55.5469 114.948 55.4861 114.733 55.3644C114.521 55.2427 114.354 55.0706 114.232 54.8481C114.11 54.6221 114.05 54.3614 114.05 54.0658C114.05 53.7703 114.109 53.5113 114.227 53.2888C114.345 53.0663 114.51 52.8959 114.722 52.7777C114.938 52.656 115.185 52.5952 115.463 52.5952C115.734 52.5952 115.974 52.6543 116.183 52.7725C116.391 52.8907 116.551 53.0541 116.662 53.2627C116.777 53.4678 116.834 53.7008 116.834 53.9615ZM116.344 53.8624C116.344 53.6817 116.304 53.5269 116.224 53.3983C116.144 53.2662 116.035 53.1671 115.896 53.101C115.76 53.0315 115.609 52.9967 115.442 52.9967C115.202 52.9967 114.997 53.0732 114.827 53.2262C114.66 53.3792 114.564 53.5913 114.54 53.8624H116.344ZM117.388 54.0658C117.388 53.7703 117.447 53.513 117.565 53.294C117.683 53.0715 117.847 52.8994 118.055 52.7777C118.268 52.656 118.509 52.5952 118.78 52.5952C119.131 52.5952 119.42 52.6803 119.646 52.8507C119.876 53.0211 120.027 53.2575 120.1 53.56H119.589C119.54 53.3861 119.444 53.2488 119.302 53.148C119.163 53.0471 118.989 52.9967 118.78 52.9967C118.509 52.9967 118.29 53.0906 118.123 53.2783C117.956 53.4626 117.873 53.7251 117.873 54.0658C117.873 54.41 117.956 54.676 118.123 54.8638C118.29 55.0515 118.509 55.1454 118.78 55.1454C118.989 55.1454 119.163 55.0967 119.302 54.9993C119.441 54.902 119.537 54.7629 119.589 54.5821H120.1C120.023 54.8742 119.87 55.1089 119.641 55.2862C119.411 55.46 119.125 55.5469 118.78 55.5469C118.509 55.5469 118.268 55.4861 118.055 55.3644C117.847 55.2427 117.683 55.0706 117.565 54.8481C117.447 54.6256 117.388 54.3648 117.388 54.0658ZM121.416 53.0332V54.7177C121.416 54.8568 121.446 54.9559 121.505 55.015C121.564 55.0706 121.667 55.0984 121.813 55.0984H122.162V55.5H121.734C121.47 55.5 121.272 55.4392 121.14 55.3175C121.008 55.1958 120.942 54.9959 120.942 54.7177V53.0332H120.571V52.6421H120.942V51.9224H121.416V52.6421H122.162V53.0332H121.416ZM123.086 52.178C122.996 52.178 122.919 52.1467 122.857 52.0841C122.794 52.0215 122.763 51.945 122.763 51.8546C122.763 51.7642 122.794 51.6877 122.857 51.6252C122.919 51.5626 122.996 51.5313 123.086 51.5313C123.173 51.5313 123.246 51.5626 123.305 51.6252C123.368 51.6877 123.399 51.7642 123.399 51.8546C123.399 51.945 123.368 52.0215 123.305 52.0841C123.246 52.1467 123.173 52.178 123.086 52.178ZM123.316 52.6421V55.5H122.841V52.6421H123.316ZM125.621 52.59C125.969 52.59 126.251 52.696 126.466 52.9081C126.682 53.1167 126.79 53.4192 126.79 53.8155V55.5H126.32V53.8833C126.32 53.5982 126.249 53.3809 126.106 53.2314C125.964 53.0784 125.769 53.0019 125.522 53.0019C125.272 53.0019 125.072 53.0802 124.923 53.2366C124.777 53.3931 124.704 53.6208 124.704 53.9198V55.5H124.229V52.6421H124.704V53.0489C124.797 52.9029 124.924 52.7899 125.084 52.7099C125.248 52.6299 125.427 52.59 125.621 52.59ZM128.848 52.5952C129.095 52.5952 129.31 52.6491 129.494 52.7568C129.682 52.8646 129.821 53.0002 129.912 53.1636V52.6421H130.391V55.5626C130.391 55.8233 130.336 56.0545 130.225 56.2562C130.113 56.4613 129.953 56.6213 129.745 56.736C129.54 56.8507 129.3 56.9081 129.025 56.9081C128.65 56.9081 128.337 56.8194 128.086 56.6421C127.836 56.4648 127.688 56.2232 127.643 55.9172H128.112C128.165 56.091 128.272 56.2301 128.436 56.3344C128.599 56.4422 128.796 56.4961 129.025 56.4961C129.286 56.4961 129.498 56.4144 129.661 56.251C129.828 56.0876 129.912 55.8581 129.912 55.5626V54.9628C129.818 55.1297 129.679 55.2688 129.494 55.3801C129.31 55.4913 129.095 55.5469 128.848 55.5469C128.594 55.5469 128.363 55.4844 128.154 55.3592C127.949 55.234 127.787 55.0585 127.669 54.8325C127.551 54.6065 127.492 54.3492 127.492 54.0606C127.492 53.7686 127.551 53.513 127.669 53.294C127.787 53.0715 127.949 52.8994 128.154 52.7777C128.363 52.656 128.594 52.5952 128.848 52.5952ZM129.912 54.0658C129.912 53.8503 129.868 53.6625 129.781 53.5026C129.694 53.3427 129.576 53.221 129.427 53.1375C129.281 53.0506 129.119 53.0072 128.942 53.0072C128.764 53.0072 128.603 53.0489 128.457 53.1323C128.311 53.2158 128.194 53.3375 128.107 53.4974C128.02 53.6573 127.977 53.8451 127.977 54.0606C127.977 54.2797 128.02 54.4709 128.107 54.6343C128.194 54.7942 128.311 54.9176 128.457 55.0046C128.603 55.088 128.764 55.1297 128.942 55.1297C129.119 55.1297 129.281 55.088 129.427 55.0046C129.576 54.9176 129.694 54.7942 129.781 54.6343C129.868 54.4709 129.912 54.2814 129.912 54.0658ZM133.257 51.865V54.1649C133.257 54.4883 133.335 54.7282 133.491 54.8846C133.651 55.0411 133.872 55.1193 134.154 55.1193C134.432 55.1193 134.649 55.0411 134.805 54.8846C134.965 54.7282 135.045 54.4883 135.045 54.1649V51.865H135.52V54.1597C135.52 54.4622 135.459 54.7177 135.337 54.9263C135.216 55.1315 135.051 55.2844 134.842 55.3853C134.637 55.4861 134.406 55.5365 134.148 55.5365C133.891 55.5365 133.658 55.4861 133.45 55.3853C133.244 55.2844 133.081 55.1315 132.959 54.9263C132.841 54.7177 132.782 54.4622 132.782 54.1597V51.865H133.257ZM137.808 52.59C138.156 52.59 138.438 52.696 138.653 52.9081C138.869 53.1167 138.977 53.4192 138.977 53.8155V55.5H138.507V53.8833C138.507 53.5982 138.436 53.3809 138.293 53.2314C138.151 53.0784 137.956 53.0019 137.709 53.0019C137.459 53.0019 137.259 53.0802 137.11 53.2366C136.963 53.3931 136.89 53.6208 136.89 53.9198V55.5H136.416V52.6421H136.89V53.0489C136.984 52.9029 137.111 52.7899 137.271 52.7099C137.435 52.6299 137.614 52.59 137.808 52.59ZM140.101 52.178C140.011 52.178 139.934 52.1467 139.872 52.0841C139.809 52.0215 139.778 51.945 139.778 51.8546C139.778 51.7642 139.809 51.6877 139.872 51.6252C139.934 51.5626 140.011 51.5313 140.101 51.5313C140.188 51.5313 140.261 51.5626 140.32 51.6252C140.383 51.6877 140.414 51.7642 140.414 51.8546C140.414 51.945 140.383 52.0215 140.32 52.0841C140.261 52.1467 140.188 52.178 140.101 52.178ZM140.331 52.6421V55.5H139.856V52.6421H140.331ZM142.308 55.0619L143.194 52.6421H143.7L142.579 55.5H142.026L140.905 52.6421H141.416L142.308 55.0619ZM146.879 53.9615C146.879 54.0519 146.874 54.1475 146.863 54.2484H144.579C144.596 54.53 144.692 54.7508 144.866 54.9107C145.043 55.0671 145.257 55.1454 145.507 55.1454C145.713 55.1454 145.883 55.0984 146.018 55.0046C146.158 54.9072 146.255 54.7786 146.311 54.6186H146.822C146.745 54.8933 146.592 55.1176 146.363 55.2914C146.133 55.4618 145.848 55.5469 145.507 55.5469C145.236 55.5469 144.993 55.4861 144.777 55.3644C144.565 55.2427 144.398 55.0706 144.277 54.8481C144.155 54.6221 144.094 54.3614 144.094 54.0658C144.094 53.7703 144.153 53.5113 144.271 53.2888C144.39 53.0663 144.555 52.8959 144.767 52.7777C144.982 52.656 145.229 52.5952 145.507 52.5952C145.779 52.5952 146.018 52.6543 146.227 52.7725C146.436 52.8907 146.596 53.0541 146.707 53.2627C146.822 53.4678 146.879 53.7008 146.879 53.9615ZM146.389 53.8624C146.389 53.6817 146.349 53.5269 146.269 53.3983C146.189 53.2662 146.079 53.1671 145.94 53.101C145.805 53.0315 145.653 52.9967 145.487 52.9967C145.247 52.9967 145.042 53.0732 144.871 53.2262C144.704 53.3792 144.609 53.5913 144.584 53.8624H146.389ZM148.084 53.1063C148.168 52.9428 148.286 52.8159 148.439 52.7255C148.595 52.6351 148.785 52.59 149.007 52.59V53.0802H148.882C148.35 53.0802 148.084 53.3687 148.084 53.9459V55.5H147.61V52.6421H148.084V53.1063ZM150.671 55.5469C150.452 55.5469 150.256 55.5104 150.082 55.4374C149.908 55.3609 149.771 55.2566 149.67 55.1245C149.569 54.9889 149.513 54.8342 149.503 54.6604H149.993C150.007 54.8029 150.073 54.9194 150.191 55.0098C150.313 55.1002 150.471 55.1454 150.666 55.1454C150.847 55.1454 150.989 55.1054 151.094 55.0254C151.198 54.9455 151.25 54.8446 151.25 54.7229C151.25 54.5978 151.195 54.5056 151.083 54.4465C150.972 54.384 150.8 54.3231 150.567 54.264C150.355 54.2084 150.181 54.1528 150.045 54.0971C149.913 54.038 149.799 53.9528 149.701 53.8416C149.607 53.7269 149.56 53.5774 149.56 53.3931C149.56 53.2471 149.604 53.1132 149.691 52.9915C149.778 52.8698 149.901 52.7742 150.061 52.7047C150.221 52.6317 150.404 52.5952 150.609 52.5952C150.925 52.5952 151.181 52.6751 151.375 52.8351C151.57 52.995 151.674 53.214 151.688 53.4922H151.214C151.203 53.3427 151.142 53.2227 151.031 53.1323C150.923 53.0419 150.777 52.9967 150.593 52.9967C150.423 52.9967 150.287 53.0332 150.186 53.1063C150.085 53.1793 150.035 53.2749 150.035 53.3931C150.035 53.487 150.065 53.5652 150.124 53.6278C150.186 53.6869 150.263 53.7355 150.353 53.7738C150.447 53.8086 150.576 53.8485 150.739 53.8937C150.944 53.9494 151.111 54.005 151.24 54.0606C151.368 54.1128 151.478 54.1927 151.568 54.3005C151.662 54.4083 151.711 54.5491 151.714 54.7229C151.714 54.8794 151.671 55.0202 151.584 55.1454C151.497 55.2705 151.374 55.3696 151.214 55.4426C151.057 55.5122 150.876 55.5469 150.671 55.5469ZM155.096 53.9615C155.096 54.0519 155.091 54.1475 155.08 54.2484H152.796C152.814 54.53 152.909 54.7508 153.083 54.9107C153.26 55.0671 153.474 55.1454 153.725 55.1454C153.93 55.1454 154.1 55.0984 154.236 55.0046C154.375 54.9072 154.472 54.7786 154.528 54.6186H155.039C154.962 54.8933 154.809 55.1176 154.58 55.2914C154.35 55.4618 154.065 55.5469 153.725 55.5469C153.453 55.5469 153.21 55.4861 152.994 55.3644C152.782 55.2427 152.615 55.0706 152.494 54.8481C152.372 54.6221 152.311 54.3614 152.311 54.0658C152.311 53.7703 152.37 53.5113 152.489 53.2888C152.607 53.0663 152.772 52.8959 152.984 52.7777C153.2 52.656 153.446 52.5952 153.725 52.5952C153.996 52.5952 154.236 52.6543 154.444 52.7725C154.653 52.8907 154.813 53.0541 154.924 53.2627C155.039 53.4678 155.096 53.7008 155.096 53.9615ZM154.606 53.8624C154.606 53.6817 154.566 53.5269 154.486 53.3983C154.406 53.2662 154.296 53.1671 154.157 53.101C154.022 53.0315 153.871 52.9967 153.704 52.9967C153.464 52.9967 153.259 53.0732 153.088 53.2262C152.921 53.3792 152.826 53.5913 152.801 53.8624H154.606Z" fill="#333333"/>
<defs>
<filter id="filter0_d_668_235" x="0.445222" y="0.0264904" width="90.8937" height="84.9338" filterUnits="userSpaceOnUse" color-interpolation-filters="sRGB">
<feFlood flood-opacity="0" result="BackgroundImageFix"/>
<feColorMatrix in="SourceAlpha" type="matrix" values="0 0 0 0 0 0 0 0 0 0 0 0 0 0 0 0 0 0 127 0" result="hardAlpha"/>
<feOffset dy="0.993377"/>
<feGaussianBlur stdDeviation="2.48344"/>
<feColorMatrix type="matrix" values="0 0 0 0 0 0 0 0 0 0 0 0 0 0 0 0 0 0 0.25 0"/>
<feBlend mode="normal" in2="BackgroundImageFix" result="effect1_dropShadow_668_235"/>
<feBlend mode="normal" in="SourceGraphic" in2="effect1_dropShadow_668_235" result="shape"/>
</filter>
<filter id="filter1_d_668_235" x="28.8559" y="26.5864" width="19.591" height="18.4016" filterUnits="userSpaceOnUse" color-interpolation-filters="sRGB">
<feFlood flood-opacity="0" result="BackgroundImageFix"/>
<feColorMatrix in="SourceAlpha" type="matrix" values="0 0 0 0 0 0 0 0 0 0 0 0 0 0 0 0 0 0 127 0" result="hardAlpha"/>
<feOffset dy="1.08751"/>
<feGaussianBlur stdDeviation="0.543754"/>
<feColorMatrix type="matrix" values="0 0 0 0 0 0 0 0 0 0 0 0 0 0 0 0 0 0 0.25 0"/>
<feBlend mode="normal" in2="BackgroundImageFix" result="effect1_dropShadow_668_235"/>
<feBlend mode="normal" in="SourceGraphic" in2="effect1_dropShadow_668_235" result="shape"/>
</filter>
<filter id="filter2_d_668_235" x="51.8226" y="26.5972" width="10.3471" height="14.801" filterUnits="userSpaceOnUse" color-interpolation-filters="sRGB">
<feFlood flood-opacity="0" result="BackgroundImageFix"/>
<feColorMatrix in="SourceAlpha" type="matrix" values="0 0 0 0 0 0 0 0 0 0 0 0 0 0 0 0 0 0 127 0" result="hardAlpha"/>
<feOffset dy="2.92095"/>
<feGaussianBlur stdDeviation="0.307468"/>
<feColorMatrix type="matrix" values="0 0 0 0 0 0 0 0 0 0 0 0 0 0 0 0 0 0 0.25 0"/>
<feBlend mode="normal" in2="BackgroundImageFix" result="effect1_dropShadow_668_235"/>
<feBlend mode="normal" in="SourceGraphic" in2="effect1_dropShadow_668_235" result="shape"/>
</filter>
<filter id="filter3_d_668_235" x="37.8754" y="26.5879" width="24.7668" height="29.5749" filterUnits="userSpaceOnUse" color-interpolation-filters="sRGB">
<feFlood flood-opacity="0" result="BackgroundImageFix"/>
<feColorMatrix in="SourceAlpha" type="matrix" values="0 0 0 0 0 0 0 0 0 0 0 0 0 0 0 0 0 0 127 0" result="hardAlpha"/>
<feOffset dy="1.08751"/>
<feGaussianBlur stdDeviation="0.543754"/>
<feColorMatrix type="matrix" values="0 0 0 0 0 0 0 0 0 0 0 0 0 0 0 0 0 0 0.25 0"/>
<feBlend mode="normal" in2="BackgroundImageFix" result="effect1_dropShadow_668_235"/>
<feBlend mode="normal" in="SourceGraphic" in2="effect1_dropShadow_668_235" result="shape"/>
</filter>
<linearGradient id="paint0_linear_668_235" x1="-0.0953935" y1="82.8136" x2="112.365" y2="6.96186" gradientUnits="userSpaceOnUse">
<stop offset="0.236822" stop-color="#0F0AA4"/>
<stop offset="0.993897" stop-color="#2992E3"/>
</linearGradient>
<linearGradient id="paint1_linear_668_235" x1="57.9107" y1="26.5879" x2="57.9107" y2="57.1518" gradientUnits="userSpaceOnUse">
<stop offset="0.322917" stop-color="white"/>
<stop offset="0.875" stop-color="white"/>
</linearGradient>
<linearGradient id="paint2_linear_668_235" x1="57.9107" y1="26.5879" x2="57.9107" y2="57.1518" gradientUnits="userSpaceOnUse">
<stop offset="0.322917" stop-color="white"/>
<stop offset="0.875" stop-color="white"/>
</linearGradient>
<linearGradient id="paint3_linear_668_235" x1="33.551" y1="31.9993" x2="33.551" y2="62.9736" gradientUnits="userSpaceOnUse">
<stop offset="0.203438" stop-color="white"/>
<stop offset="0.708333" stop-color="#F0F0F0"/>
<stop offset="0.916667" stop-color="#E1E1E1"/>
</linearGradient>
<linearGradient id="paint4_linear_668_235" x1="33.551" y1="31.9993" x2="33.551" y2="62.9736" gradientUnits="userSpaceOnUse">
<stop offset="0.203438" stop-color="white"/>
<stop offset="0.708333" stop-color="#F0F0F0"/>
<stop offset="0.916667" stop-color="#E1E1E1"/>
</linearGradient>
<linearGradient id="paint5_linear_668_235" x1="48263.8" y1="3858.05" x2="48180.8" y2="3858.05" gradientUnits="userSpaceOnUse">
<stop stop-color="#3AA1E2"/>
<stop offset="0.14" stop-color="white" stop-opacity="0.83"/>
<stop offset="0.44" stop-color="white" stop-opacity="0.48"/>
<stop offset="0.69" stop-color="white" stop-opacity="0.22"/>
<stop offset="0.89" stop-color="white" stop-opacity="0.06"/>
<stop offset="1" stop-color="#F7F7F7" stop-opacity="0"/>
</linearGradient>
<linearGradient id="paint6_linear_668_235" x1="29.8847" y1="32.2115" x2="32.3588" y2="32.2115" gradientUnits="userSpaceOnUse">
<stop stop-color="#A2ADB4"/>
<stop offset="0.14" stop-color="#A2ADB4" stop-opacity="0.83"/>
<stop offset="0.44" stop-color="#A2ADB4" stop-opacity="0.48"/>
<stop offset="0.69" stop-color="#A2ADB4" stop-opacity="0.22"/>
<stop offset="0.89" stop-color="#A2ADB4" stop-opacity="0.06"/>
<stop offset="1" stop-color="#A2ADB4" stop-opacity="0"/>
</linearGradient>
<linearGradient id="paint7_linear_668_235" x1="63.9229" y1="29.1083" x2="58.2134" y2="29.1083" gradientUnits="userSpaceOnUse">
<stop offset="0.482245" stop-color="#A2ADB4"/>
<stop offset="0.965253" stop-color="white" stop-opacity="0"/>
</linearGradient>
</defs>
</svg>
