<svg width="62" height="62" viewBox="0 0 62 62" fill="none" xmlns="http://www.w3.org/2000/svg">
<path d="M26.25 45.25H35.75" stroke="white" stroke-width="2.375" stroke-linecap="round" stroke-linejoin="round"/>
<path d="M20.3424 27.4374C20.3404 26.029 20.6172 24.6342 21.1568 23.3333C21.6964 22.0325 22.4882 20.8512 23.4864 19.8578C24.4847 18.8643 25.6697 18.0782 26.9732 17.5449C28.2766 17.0115 29.6728 16.7415 31.0811 16.7502C36.9577 16.7939 41.6583 21.6785 41.6583 27.5716V28.6249C41.6583 33.9413 42.7705 37.0263 43.7502 38.7124C43.8557 38.8926 43.9119 39.0974 43.913 39.3062C43.9141 39.515 43.8601 39.7204 43.7566 39.9017C43.653 40.083 43.5034 40.2337 43.3229 40.3388C43.1425 40.4438 42.9375 40.4994 42.7287 40.4999H19.2707C19.0619 40.4994 18.8569 40.4438 18.6765 40.3387C18.496 40.2337 18.3464 40.0829 18.2428 39.9016C18.1392 39.7202 18.0853 39.5148 18.0864 39.306C18.0876 39.0972 18.1438 38.8924 18.2494 38.7122C19.2296 37.026 20.3424 33.941 20.3424 28.6249L20.3424 27.4374Z" stroke="white" stroke-width="2.375" stroke-linecap="round" stroke-linejoin="round"/>
</svg>
