<svg width="63" height="62" viewBox="0 0 63 62" fill="none" xmlns="http://www.w3.org/2000/svg">
<path d="M47.0803 39.214V22.7843C47.0803 22.5478 47.0174 22.3157 46.8981 22.1116C46.7787 21.9075 46.6072 21.7388 46.4011 21.6229L31.744 13.3783C31.5445 13.2661 31.3195 13.2072 31.0907 13.2072C30.8619 13.2072 30.6369 13.2661 30.4375 13.3783L15.7803 21.6229C15.5742 21.7388 15.4027 21.9075 15.2833 22.1116C15.164 22.3157 15.1011 22.5478 15.1011 22.7843V39.214C15.1011 39.4505 15.164 39.6826 15.2833 39.8867C15.4027 40.0908 15.5742 40.2595 15.7803 40.3754L30.4375 48.62C30.6369 48.7322 30.8619 48.7912 31.0907 48.7912C31.3195 48.7912 31.5445 48.7322 31.744 48.62L46.4011 40.3754C46.6072 40.2595 46.7787 40.0908 46.8981 39.8867C47.0174 39.6826 47.0803 39.4505 47.0803 39.214Z" stroke="white" stroke-width="2.66494" stroke-linecap="round" stroke-linejoin="round"/>
<path d="M39.2556 35.0824V26.4214L23.0957 17.5087" stroke="white" stroke-width="2.66494" stroke-linecap="round" stroke-linejoin="round"/>
<path d="M46.8967 22.1096L31.2488 30.9993L15.2856 22.1079" stroke="white" stroke-width="2.66494" stroke-linecap="round" stroke-linejoin="round"/>
<path d="M31.2491 31.0006L31.0928 48.7926" stroke="white" stroke-width="2.66494" stroke-linecap="round" stroke-linejoin="round"/>
</svg>
