<svg width="63" height="62" viewBox="0 0 63 62" fill="none" xmlns="http://www.w3.org/2000/svg">
<path d="M41.0112 29.76H45.2051C45.4354 29.76 45.6612 29.6959 45.8571 29.5748C46.053 29.4537 46.2113 29.2805 46.3143 29.0745L49.1671 23.3688C49.3089 23.0853 49.3367 22.7583 49.2448 22.4549C49.153 22.1515 48.9484 21.8948 48.6732 21.7375L41.0112 17.3593" stroke="white" stroke-width="2.48015" stroke-linecap="round" stroke-linejoin="round"/>
<path d="M21.1696 29.76H16.9757C16.7454 29.76 16.5197 29.6959 16.3238 29.5748C16.1279 29.4537 15.9696 29.2805 15.8666 29.0745L13.0137 23.3688C12.872 23.0853 12.8442 22.7583 12.936 22.4549C13.0279 22.1515 13.2324 21.8948 13.5076 21.7375L21.1696 17.3593" stroke="white" stroke-width="2.48015" stroke-linecap="round" stroke-linejoin="round"/>
<path d="M36.0508 17.3593C36.0508 18.6748 35.5282 19.9365 34.598 20.8667C33.6678 21.797 32.4061 22.3196 31.0905 22.3196C29.775 22.3196 28.5133 21.797 27.5831 20.8667C26.6528 19.9365 26.1302 18.6748 26.1302 17.3593H21.1699V43.4008C21.1699 43.7297 21.3006 44.0452 21.5331 44.2777C21.7657 44.5103 22.0811 44.6409 22.41 44.6409H39.7711C40.0999 44.6409 40.4154 44.5103 40.6479 44.2777C40.8805 44.0452 41.0111 43.7297 41.0111 43.4008V17.3593H36.0508Z" stroke="white" stroke-width="2.48015" stroke-linecap="round" stroke-linejoin="round"/>
</svg>
