<svg width="19" height="20" viewBox="0 0 19 20" fill="none" xmlns="http://www.w3.org/2000/svg">
<path d="M13.8047 15.2757V14.2489H10.7244V11.1686H13.8047V13.2221H15.8582V15.2757H14.8314V17.3292H12.7779V19.3828H10.7244V16.3025H12.7779V15.2757H13.8047ZM18.9385 19.3828H14.8314V17.3292H16.885V15.2757H18.9385V19.3828ZM0.456635 0.900879H8.67081V9.11505H0.456635V0.900879ZM10.7244 0.900879H18.9385V9.11505H10.7244V0.900879ZM0.456635 11.1686H8.67081V19.3828H0.456635V11.1686ZM15.8582 11.1686H18.9385V13.2221H15.8582V11.1686ZM3.53695 3.98119V6.03474H5.59049V3.98119H3.53695ZM3.53695 14.2489V16.3025H5.59049V14.2489H3.53695ZM13.8047 3.98119V6.03474H15.8582V3.98119H13.8047Z" fill="black"/>
</svg>
