<svg width="63" height="62" viewBox="0 0 63 62" fill="none" xmlns="http://www.w3.org/2000/svg">
<path d="M32.624 35.6576V39.5763C30.927 38.9763 29.1108 38.7923 27.3279 39.0397C25.545 39.287 23.8475 39.9586 22.378 40.9979C20.9084 42.0373 19.7097 43.4141 18.8825 45.0127C18.0552 46.6113 17.6237 48.3851 17.624 50.1851L13.874 50.1832C13.8734 47.8936 14.397 45.6343 15.4046 43.5783C16.4122 41.5223 17.877 39.7243 19.6869 38.322C21.4968 36.9197 23.6037 35.9503 25.8462 35.4881C28.0886 35.026 30.4071 35.0833 32.624 35.6557V35.6576ZM28.874 33.3101C22.6584 33.3101 17.624 28.2757 17.624 22.0601C17.624 15.8444 22.6584 10.8101 28.874 10.8101C35.0896 10.8101 40.124 15.8444 40.124 22.0601C40.124 28.2757 35.0896 33.3101 28.874 33.3101ZM28.874 29.5601C33.0178 29.5601 36.374 26.2038 36.374 22.0601C36.374 17.9163 33.0178 14.5601 28.874 14.5601C24.7303 14.5601 21.374 17.9163 21.374 22.0601C21.374 26.2038 24.7303 29.5601 28.874 29.5601ZM41.999 41.9088L45.9759 37.9301L48.629 40.5832L44.6503 44.5601L48.629 48.5369L45.9759 51.1901L41.999 47.2113L38.0221 51.1901L35.369 48.5369L39.3478 44.5601L35.369 40.5832L38.0221 37.9301L41.999 41.9088Z" fill="white"/>
</svg>
